solid OpenSCAD_Model
  facet normal -1 0 0
    outer loop
      vertex 0 64 0
      vertex 0 56 2.168
      vertex 0 64 2.4305
    endloop
  endfacet
  facet normal -1 0 0
    outer loop
      vertex 0 64 0
      vertex 0 48 2.168
      vertex 0 56 2.168
    endloop
  endfacet
  facet normal -1 0 0
    outer loop
      vertex 0 48 2.168
      vertex 0 40 2.43662
      vertex 0 48 2.43662
    endloop
  endfacet
  facet normal -1 0 0
    outer loop
      vertex 0 64 0
      vertex 0 40 2.43662
      vertex 0 48 2.168
    endloop
  endfacet
  facet normal -1 0 0
    outer loop
      vertex 0 40 2.43662
      vertex 0 32 2.58531
      vertex 0 40 2.63679
    endloop
  endfacet
  facet normal -1 0 0
    outer loop
      vertex 0 64 0
      vertex 0 32 2.58531
      vertex 0 40 2.43662
    endloop
  endfacet
  facet normal -1 0 0
    outer loop
      vertex 0 0 0
      vertex 0 32 2.58531
      vertex 0 64 0
    endloop
  endfacet
  facet normal -1 0 0
    outer loop
      vertex 0 24 2.58531
      vertex 0 16 2.83766
      vertex 0 24 2.83766
    endloop
  endfacet
  facet normal -1 -0 0
    outer loop
      vertex 0 32 2.58531
      vertex 0 0 0
      vertex 0 24 2.58531
    endloop
  endfacet
  facet normal -1 0 0
    outer loop
      vertex 0 16 2.83766
      vertex 0 8 8.10341
      vertex 0 16 8.10341
    endloop
  endfacet
  facet normal -1 -0 0
    outer loop
      vertex 0 24 2.58531
      vertex 0 0 0
      vertex 0 16 2.83766
    endloop
  endfacet
  facet normal -1 0 0
    outer loop
      vertex 0 0 0
      vertex 0 8 8.10341
      vertex 0 16 2.83766
    endloop
  endfacet
  facet normal -1 0 0
    outer loop
      vertex 0 0 21.6705
      vertex 0 8 8.10341
      vertex 0 0 0
    endloop
  endfacet
  facet normal -1 0 0
    outer loop
      vertex 0 8 8.10341
      vertex 0 0 21.6705
      vertex 0 8 21.6705
    endloop
  endfacet
  facet normal -1 -0 0
    outer loop
      vertex 0 64 2.4305
      vertex 0 56 2.168
      vertex 0 56 2.4305
    endloop
  endfacet
  facet normal -1 -0 0
    outer loop
      vertex 0 40 2.63679
      vertex 0 32 2.58531
      vertex 0 32 2.63679
    endloop
  endfacet
  facet normal -0 0 1
    outer loop
      vertex 0 8 21.6705
      vertex 8 0 21.6705
      vertex 8 8 21.6705
    endloop
  endfacet
  facet normal 0 0 1
    outer loop
      vertex 8 0 21.6705
      vertex 0 8 21.6705
      vertex 0 0 21.6705
    endloop
  endfacet
  facet normal 1 -0 0
    outer loop
      vertex 8 24 2.58531
      vertex 8 32 2.0311
      vertex 8 32 2.58531
    endloop
  endfacet
  facet normal 1 -0 0
    outer loop
      vertex 8 24 2.07575
      vertex 8 32 2.0311
      vertex 8 24 2.58531
    endloop
  endfacet
  facet normal 1 0 0
    outer loop
      vertex 8 32 2.0311
      vertex 8 24 2.07575
      vertex 8 24 2.0311
    endloop
  endfacet
  facet normal 1 0 0
    outer loop
      vertex 8 56 2.168
      vertex 8 64 2.4305
      vertex 8 56 2.4305
    endloop
  endfacet
  facet normal 1 0 0
    outer loop
      vertex 8 64 2.4305
      vertex 8 56 2.168
      vertex 8 64 2.01708
    endloop
  endfacet
  facet normal 1 0 0
    outer loop
      vertex 8 56 2.168
      vertex 8 56 2.01708
      vertex 8 64 2.01708
    endloop
  endfacet
  facet normal 1 -0 0
    outer loop
      vertex 8 48 2.168
      vertex 8 56 2.01708
      vertex 8 56 2.168
    endloop
  endfacet
  facet normal 1 0 0
    outer loop
      vertex 8 48 2.01261
      vertex 8 56 2.01708
      vertex 8 48 2.168
    endloop
  endfacet
  facet normal 1 0 0
    outer loop
      vertex 8 56 2.01708
      vertex 8 48 2.01261
      vertex 8 56 2.00754
    endloop
  endfacet
  facet normal 1 0 0
    outer loop
      vertex 8 56 2.00754
      vertex 8 48 2.01261
      vertex 8 48 2.00754
    endloop
  endfacet
  facet normal 1 -0 0
    outer loop
      vertex 8 40 2.43662
      vertex 8 48 2.168
      vertex 8 48 2.43662
    endloop
  endfacet
  facet normal 1 0 0
    outer loop
      vertex 8 40 2.02026
      vertex 8 48 2.168
      vertex 8 40 2.43662
    endloop
  endfacet
  facet normal 1 0 0
    outer loop
      vertex 8 48 2.168
      vertex 8 40 2.02026
      vertex 8 48 2.01261
    endloop
  endfacet
  facet normal 1 0 0
    outer loop
      vertex 8 48 2.01261
      vertex 8 40 2.02026
      vertex 8 40 2.01261
    endloop
  endfacet
  facet normal 1 -0 0
    outer loop
      vertex 8 32 2.58531
      vertex 8 40 2.43662
      vertex 8 40 2.63679
    endloop
  endfacet
  facet normal 1 0 0
    outer loop
      vertex 8 32 2.58531
      vertex 8 40 2.63679
      vertex 8 32 2.63679
    endloop
  endfacet
  facet normal 1 0 0
    outer loop
      vertex 8 32 2.0311
      vertex 8 40 2.43662
      vertex 8 32 2.58531
    endloop
  endfacet
  facet normal 1 0 0
    outer loop
      vertex 8 40 2.43662
      vertex 8 32 2.0311
      vertex 8 40 2.02026
    endloop
  endfacet
  facet normal 1 0 0
    outer loop
      vertex 8 40 2.02026
      vertex 8 32 2.0311
      vertex 8 32 2.02026
    endloop
  endfacet
  facet normal 1 -0 0
    outer loop
      vertex 8 16 2.83766
      vertex 8 24 2.58531
      vertex 8 24 2.83766
    endloop
  endfacet
  facet normal 1 0 0
    outer loop
      vertex 8 24 2.58531
      vertex 8 16 2.83766
      vertex 8 16 2.30691
    endloop
  endfacet
  facet normal 1 0 0
    outer loop
      vertex 8 24 2.58531
      vertex 8 16 2.30691
      vertex 8 24 2.07575
    endloop
  endfacet
  facet normal 1 0 0
    outer loop
      vertex 8 24 2.07575
      vertex 8 16 2.30691
      vertex 8 16 2.07575
    endloop
  endfacet
  facet normal 1 -0 0
    outer loop
      vertex 8 8 3.00826
      vertex 8 16 2.83766
      vertex 8 16 8.10341
    endloop
  endfacet
  facet normal 1 0 0
    outer loop
      vertex 8 8 3.00826
      vertex 8 16 8.10341
      vertex 8 8 8.10341
    endloop
  endfacet
  facet normal 1 0 0
    outer loop
      vertex 8 8 2.30691
      vertex 8 16 2.83766
      vertex 8 8 3.00826
    endloop
  endfacet
  facet normal 1 0 0
    outer loop
      vertex 8 16 2.83766
      vertex 8 8 2.30691
      vertex 8 16 2.30691
    endloop
  endfacet
  facet normal 1 -0 0
    outer loop
      vertex 8 0 21.6705
      vertex 8 8 8.10341
      vertex 8 8 21.6705
    endloop
  endfacet
  facet normal 1 0 0
    outer loop
      vertex 8 0 3.00826
      vertex 8 8 8.10341
      vertex 8 0 21.6705
    endloop
  endfacet
  facet normal 1 0 0
    outer loop
      vertex 8 8 8.10341
      vertex 8 0 3.00826
      vertex 8 8 3.00826
    endloop
  endfacet
  facet normal 0 0 -1
    outer loop
      vertex 0 0 0
      vertex 64 64 0
      vertex 64 0 0
    endloop
  endfacet
  facet normal -0 0 -1
    outer loop
      vertex 64 64 0
      vertex 0 0 0
      vertex 0 64 0
    endloop
  endfacet
  facet normal 0 -1 0
    outer loop
      vertex 0 0 21.6705
      vertex 8 0 3.00826
      vertex 8 0 21.6705
    endloop
  endfacet
  facet normal 0 -1 0
    outer loop
      vertex 8 0 3.00826
      vertex 16 0 2.11463
      vertex 16 0 3.00826
    endloop
  endfacet
  facet normal 0 -1 -0
    outer loop
      vertex 16 0 2.11463
      vertex 0 0 0
      vertex 24 0 2.11463
    endloop
  endfacet
  facet normal 0 -1 -0
    outer loop
      vertex 8 0 3.00826
      vertex 0 0 0
      vertex 16 0 2.11463
    endloop
  endfacet
  facet normal 0 -1 0
    outer loop
      vertex 0 0 0
      vertex 8 0 3.00826
      vertex 0 0 21.6705
    endloop
  endfacet
  facet normal 0 -1 0
    outer loop
      vertex 24 0 2.22868
      vertex 24 0 2.11463
      vertex 32 0 2.22868
    endloop
  endfacet
  facet normal 0 -1 0
    outer loop
      vertex 32 0 2.22868
      vertex 40 0 3.04113
      vertex 32 0 3.04113
    endloop
  endfacet
  facet normal 0 -1 0
    outer loop
      vertex 64 0 0
      vertex 48 0 2.51014
      vertex 32 0 2.22868
    endloop
  endfacet
  facet normal 0 -1 -0
    outer loop
      vertex 40 0 3.04113
      vertex 32 0 2.22868
      vertex 48 0 2.51014
    endloop
  endfacet
  facet normal 0 -1 0
    outer loop
      vertex 40 0 3.04113
      vertex 48 0 8.72807
      vertex 40 0 8.72807
    endloop
  endfacet
  facet normal 0 -1 -0
    outer loop
      vertex 48 0 8.72807
      vertex 40 0 3.04113
      vertex 48 0 2.51014
    endloop
  endfacet
  facet normal 0 -1 0
    outer loop
      vertex 56 0 2.51014
      vertex 64 0 3.1461
      vertex 56 0 3.1461
    endloop
  endfacet
  facet normal 0 -1 0
    outer loop
      vertex 64 0 0
      vertex 32 0 2.22868
      vertex 24 0 2.11463
    endloop
  endfacet
  facet normal 0 -1 0
    outer loop
      vertex 64 0 0
      vertex 24 0 2.11463
      vertex 0 0 0
    endloop
  endfacet
  facet normal 0 -1 0
    outer loop
      vertex 56 0 2.51014
      vertex 64 0 0
      vertex 64 0 3.1461
    endloop
  endfacet
  facet normal 0 -1 0
    outer loop
      vertex 48 0 2.51014
      vertex 64 0 0
      vertex 56 0 2.51014
    endloop
  endfacet
  facet normal 0 1 -0
    outer loop
      vertex 8 8 8.10341
      vertex 0 8 21.6705
      vertex 8 8 21.6705
    endloop
  endfacet
  facet normal 0 1 0
    outer loop
      vertex 0 8 21.6705
      vertex 8 8 8.10341
      vertex 0 8 8.10341
    endloop
  endfacet
  facet normal -0 0 1
    outer loop
      vertex 0 16 8.10341
      vertex 8 8 8.10341
      vertex 8 16 8.10341
    endloop
  endfacet
  facet normal 0 0 1
    outer loop
      vertex 8 8 8.10341
      vertex 0 16 8.10341
      vertex 0 8 8.10341
    endloop
  endfacet
  facet normal 0 1 -0
    outer loop
      vertex 8 16 2.83766
      vertex 0 16 8.10341
      vertex 8 16 8.10341
    endloop
  endfacet
  facet normal 0 1 0
    outer loop
      vertex 0 16 8.10341
      vertex 8 16 2.83766
      vertex 0 16 2.83766
    endloop
  endfacet
  facet normal -0 0 1
    outer loop
      vertex 0 24 2.83766
      vertex 8 16 2.83766
      vertex 8 24 2.83766
    endloop
  endfacet
  facet normal 0 0 1
    outer loop
      vertex 8 16 2.83766
      vertex 0 24 2.83766
      vertex 0 16 2.83766
    endloop
  endfacet
  facet normal 0 1 -0
    outer loop
      vertex 8 24 2.58531
      vertex 0 24 2.83766
      vertex 8 24 2.83766
    endloop
  endfacet
  facet normal 0 1 0
    outer loop
      vertex 0 24 2.83766
      vertex 8 24 2.58531
      vertex 0 24 2.58531
    endloop
  endfacet
  facet normal -0 0 1
    outer loop
      vertex 0 32 2.58531
      vertex 8 24 2.58531
      vertex 8 32 2.58531
    endloop
  endfacet
  facet normal 0 0 1
    outer loop
      vertex 8 24 2.58531
      vertex 0 32 2.58531
      vertex 0 24 2.58531
    endloop
  endfacet
  facet normal 0 -1 0
    outer loop
      vertex 0 32 2.58531
      vertex 8 32 2.63679
      vertex 0 32 2.63679
    endloop
  endfacet
  facet normal 0 -1 -0
    outer loop
      vertex 8 32 2.63679
      vertex 0 32 2.58531
      vertex 8 32 2.58531
    endloop
  endfacet
  facet normal -0 0 1
    outer loop
      vertex 0 40 2.63679
      vertex 8 32 2.63679
      vertex 8 40 2.63679
    endloop
  endfacet
  facet normal 0 0 1
    outer loop
      vertex 8 32 2.63679
      vertex 0 40 2.63679
      vertex 0 32 2.63679
    endloop
  endfacet
  facet normal 0 1 -0
    outer loop
      vertex 8 40 2.43662
      vertex 0 40 2.63679
      vertex 8 40 2.63679
    endloop
  endfacet
  facet normal 0 1 0
    outer loop
      vertex 0 40 2.63679
      vertex 8 40 2.43662
      vertex 0 40 2.43662
    endloop
  endfacet
  facet normal -0 0 1
    outer loop
      vertex 0 48 2.43662
      vertex 8 40 2.43662
      vertex 8 48 2.43662
    endloop
  endfacet
  facet normal 0 0 1
    outer loop
      vertex 8 40 2.43662
      vertex 0 48 2.43662
      vertex 0 40 2.43662
    endloop
  endfacet
  facet normal 0 1 -0
    outer loop
      vertex 8 48 2.168
      vertex 0 48 2.43662
      vertex 8 48 2.43662
    endloop
  endfacet
  facet normal 0 1 0
    outer loop
      vertex 0 48 2.43662
      vertex 8 48 2.168
      vertex 0 48 2.168
    endloop
  endfacet
  facet normal -0 0 1
    outer loop
      vertex 0 56 2.168
      vertex 8 48 2.168
      vertex 8 56 2.168
    endloop
  endfacet
  facet normal 0 0 1
    outer loop
      vertex 8 48 2.168
      vertex 0 56 2.168
      vertex 0 48 2.168
    endloop
  endfacet
  facet normal 0 -1 0
    outer loop
      vertex 0 56 2.168
      vertex 8 56 2.4305
      vertex 0 56 2.4305
    endloop
  endfacet
  facet normal 0 -1 -0
    outer loop
      vertex 8 56 2.4305
      vertex 0 56 2.168
      vertex 8 56 2.168
    endloop
  endfacet
  facet normal -0 0 1
    outer loop
      vertex 0 64 2.4305
      vertex 8 56 2.4305
      vertex 8 64 2.4305
    endloop
  endfacet
  facet normal 0 0 1
    outer loop
      vertex 8 56 2.4305
      vertex 0 64 2.4305
      vertex 0 56 2.4305
    endloop
  endfacet
  facet normal 0 1 0
    outer loop
      vertex 64 64 2.02792
      vertex 56 64 2.00589
      vertex 56 64 2.02792
    endloop
  endfacet
  facet normal 0 1 0
    outer loop
      vertex 56 64 2.00589
      vertex 64 64 0
      vertex 48 64 2.00589
    endloop
  endfacet
  facet normal 0 1 -0
    outer loop
      vertex 64 64 0
      vertex 56 64 2.00589
      vertex 64 64 2.02792
    endloop
  endfacet
  facet normal 0 1 0
    outer loop
      vertex 48 64 2.12253
      vertex 40 64 2.09873
      vertex 40 64 2.12253
    endloop
  endfacet
  facet normal 0 1 0
    outer loop
      vertex 40 64 2.09873
      vertex 32 64 2.01119
      vertex 32 64 2.09873
    endloop
  endfacet
  facet normal 0 1 -0
    outer loop
      vertex 48 64 2.00589
      vertex 40 64 2.09873
      vertex 48 64 2.12253
    endloop
  endfacet
  facet normal 0 1 0
    outer loop
      vertex 40 64 2.09873
      vertex 64 64 0
      vertex 32 64 2.01119
    endloop
  endfacet
  facet normal 0 1 0
    outer loop
      vertex 64 64 0
      vertex 40 64 2.09873
      vertex 48 64 2.00589
    endloop
  endfacet
  facet normal 0 1 0
    outer loop
      vertex 24 64 2.01131
      vertex 24 64 2.01119
      vertex 16 64 2.01131
    endloop
  endfacet
  facet normal 0 1 0
    outer loop
      vertex 16 64 2.01708
      vertex 16 64 2.01131
      vertex 8 64 2.01708
    endloop
  endfacet
  facet normal 0 1 -0
    outer loop
      vertex 8 64 2.01708
      vertex 0 64 2.4305
      vertex 8 64 2.4305
    endloop
  endfacet
  facet normal 0 1 0
    outer loop
      vertex 0 64 0
      vertex 32 64 2.01119
      vertex 64 64 0
    endloop
  endfacet
  facet normal 0 1 0
    outer loop
      vertex 32 64 2.01119
      vertex 0 64 0
      vertex 24 64 2.01119
    endloop
  endfacet
  facet normal 0 1 0
    outer loop
      vertex 24 64 2.01119
      vertex 0 64 0
      vertex 16 64 2.01131
    endloop
  endfacet
  facet normal 0 1 0
    outer loop
      vertex 8 64 2.01708
      vertex 0 64 0
      vertex 0 64 2.4305
    endloop
  endfacet
  facet normal 0 1 0
    outer loop
      vertex 16 64 2.01131
      vertex 0 64 0
      vertex 8 64 2.01708
    endloop
  endfacet
  facet normal -0 0 1
    outer loop
      vertex 8 8 3.00826
      vertex 16 0 3.00826
      vertex 16 8 3.00826
    endloop
  endfacet
  facet normal 0 0 1
    outer loop
      vertex 16 0 3.00826
      vertex 8 8 3.00826
      vertex 8 0 3.00826
    endloop
  endfacet
  facet normal 1 -0 0
    outer loop
      vertex 16 56 2.01708
      vertex 16 64 2.01131
      vertex 16 64 2.01708
    endloop
  endfacet
  facet normal 1 0 0
    outer loop
      vertex 16 64 2.01131
      vertex 16 56 2.01708
      vertex 16 56 2.01131
    endloop
  endfacet
  facet normal 1 -0 0
    outer loop
      vertex 16 48 2.00754
      vertex 16 56 2.00047
      vertex 16 56 2.00754
    endloop
  endfacet
  facet normal 1 -0 0
    outer loop
      vertex 16 48 2.00236
      vertex 16 56 2.00047
      vertex 16 48 2.00754
    endloop
  endfacet
  facet normal 1 0 0
    outer loop
      vertex 16 56 2.00047
      vertex 16 48 2.00236
      vertex 16 48 2.00047
    endloop
  endfacet
  facet normal 0 0 0
    outer loop
      vertex 16 48 2.01261
      vertex 16 48 2.00236
      vertex 16 48 2.00754
    endloop
  endfacet
  facet normal 1 -0 0
    outer loop
      vertex 16 40 2.01261
      vertex 16 48 2.00236
      vertex 16 48 2.01261
    endloop
  endfacet
  facet normal 1 -0 0
    outer loop
      vertex 16 40 2.00342
      vertex 16 48 2.00236
      vertex 16 40 2.01261
    endloop
  endfacet
  facet normal 1 0 0
    outer loop
      vertex 16 48 2.00236
      vertex 16 40 2.00342
      vertex 16 40 2.00236
    endloop
  endfacet
  facet normal 0 0 0
    outer loop
      vertex 16 40 2.02026
      vertex 16 40 2.00342
      vertex 16 40 2.01261
    endloop
  endfacet
  facet normal 1 -0 0
    outer loop
      vertex 16 32 2.02026
      vertex 16 40 2.00342
      vertex 16 40 2.02026
    endloop
  endfacet
  facet normal 1 -0 0
    outer loop
      vertex 16 32 2.00518
      vertex 16 40 2.00342
      vertex 16 32 2.02026
    endloop
  endfacet
  facet normal 1 0 0
    outer loop
      vertex 16 40 2.00342
      vertex 16 32 2.00518
      vertex 16 32 2.00342
    endloop
  endfacet
  facet normal 0 0 0
    outer loop
      vertex 16 32 2.0311
      vertex 16 32 2.00518
      vertex 16 32 2.02026
    endloop
  endfacet
  facet normal 1 -0 0
    outer loop
      vertex 16 24 2.0311
      vertex 16 32 2.00518
      vertex 16 32 2.0311
    endloop
  endfacet
  facet normal 1 -0 0
    outer loop
      vertex 16 24 2.01013
      vertex 16 32 2.00518
      vertex 16 24 2.0311
    endloop
  endfacet
  facet normal 1 0 0
    outer loop
      vertex 16 32 2.00518
      vertex 16 24 2.01013
      vertex 16 24 2.00518
    endloop
  endfacet
  facet normal 0 0 0
    outer loop
      vertex 16 24 2.07575
      vertex 16 24 2.01013
      vertex 16 24 2.0311
    endloop
  endfacet
  facet normal 1 -0 0
    outer loop
      vertex 16 16 2.07575
      vertex 16 24 2.01013
      vertex 16 24 2.07575
    endloop
  endfacet
  facet normal 1 -0 0
    outer loop
      vertex 16 16 2.02639
      vertex 16 24 2.01013
      vertex 16 16 2.07575
    endloop
  endfacet
  facet normal 1 0 0
    outer loop
      vertex 16 24 2.01013
      vertex 16 16 2.02639
      vertex 16 16 2.01013
    endloop
  endfacet
  facet normal 1 -0 0
    outer loop
      vertex 16 8 2.11463
      vertex 16 16 2.07575
      vertex 16 16 2.30691
    endloop
  endfacet
  facet normal 1 0 0
    outer loop
      vertex 16 8 2.11463
      vertex 16 16 2.30691
      vertex 16 8 2.30691
    endloop
  endfacet
  facet normal 1 0 0
    outer loop
      vertex 16 16 2.07575
      vertex 16 8 2.11463
      vertex 16 16 2.02639
    endloop
  endfacet
  facet normal 1 0 0
    outer loop
      vertex 16 16 2.02639
      vertex 16 8 2.11463
      vertex 16 8 2.02639
    endloop
  endfacet
  facet normal 1 -0 0
    outer loop
      vertex 16 0 3.00826
      vertex 16 8 2.30691
      vertex 16 8 3.00826
    endloop
  endfacet
  facet normal 1 0 0
    outer loop
      vertex 16 0 2.11463
      vertex 16 8 2.30691
      vertex 16 0 3.00826
    endloop
  endfacet
  facet normal 1 0 0
    outer loop
      vertex 16 8 2.30691
      vertex 16 0 2.11463
      vertex 16 8 2.11463
    endloop
  endfacet
  facet normal 0 1 -0
    outer loop
      vertex 16 8 2.30691
      vertex 8 8 3.00826
      vertex 16 8 3.00826
    endloop
  endfacet
  facet normal 0 1 0
    outer loop
      vertex 8 8 3.00826
      vertex 16 8 2.30691
      vertex 8 8 2.30691
    endloop
  endfacet
  facet normal -0 0 1
    outer loop
      vertex 8 16 2.30691
      vertex 16 8 2.30691
      vertex 16 16 2.30691
    endloop
  endfacet
  facet normal 0 0 1
    outer loop
      vertex 16 8 2.30691
      vertex 8 16 2.30691
      vertex 8 8 2.30691
    endloop
  endfacet
  facet normal 0 1 -0
    outer loop
      vertex 16 16 2.07575
      vertex 8 16 2.30691
      vertex 16 16 2.30691
    endloop
  endfacet
  facet normal 0 1 0
    outer loop
      vertex 8 16 2.30691
      vertex 16 16 2.07575
      vertex 8 16 2.07575
    endloop
  endfacet
  facet normal -0 0 1
    outer loop
      vertex 8 24 2.07575
      vertex 16 16 2.07575
      vertex 16 24 2.07575
    endloop
  endfacet
  facet normal 0 0 1
    outer loop
      vertex 16 16 2.07575
      vertex 8 24 2.07575
      vertex 8 16 2.07575
    endloop
  endfacet
  facet normal 0 1 -0
    outer loop
      vertex 16 24 2.0311
      vertex 8 24 2.07575
      vertex 16 24 2.07575
    endloop
  endfacet
  facet normal 0 1 0
    outer loop
      vertex 8 24 2.07575
      vertex 16 24 2.0311
      vertex 8 24 2.0311
    endloop
  endfacet
  facet normal -0 0 1
    outer loop
      vertex 8 32 2.0311
      vertex 16 24 2.0311
      vertex 16 32 2.0311
    endloop
  endfacet
  facet normal 0 0 1
    outer loop
      vertex 16 24 2.0311
      vertex 8 32 2.0311
      vertex 8 24 2.0311
    endloop
  endfacet
  facet normal 0 1 -0
    outer loop
      vertex 16 32 2.02026
      vertex 8 32 2.0311
      vertex 16 32 2.0311
    endloop
  endfacet
  facet normal 0 1 0
    outer loop
      vertex 8 32 2.0311
      vertex 16 32 2.02026
      vertex 8 32 2.02026
    endloop
  endfacet
  facet normal -0 0 1
    outer loop
      vertex 8 40 2.02026
      vertex 16 32 2.02026
      vertex 16 40 2.02026
    endloop
  endfacet
  facet normal 0 0 1
    outer loop
      vertex 16 32 2.02026
      vertex 8 40 2.02026
      vertex 8 32 2.02026
    endloop
  endfacet
  facet normal 0 1 -0
    outer loop
      vertex 16 40 2.01261
      vertex 8 40 2.02026
      vertex 16 40 2.02026
    endloop
  endfacet
  facet normal 0 1 0
    outer loop
      vertex 8 40 2.02026
      vertex 16 40 2.01261
      vertex 8 40 2.01261
    endloop
  endfacet
  facet normal -0 0 1
    outer loop
      vertex 8 48 2.01261
      vertex 16 40 2.01261
      vertex 16 48 2.01261
    endloop
  endfacet
  facet normal 0 0 1
    outer loop
      vertex 16 40 2.01261
      vertex 8 48 2.01261
      vertex 8 40 2.01261
    endloop
  endfacet
  facet normal 0 1 -0
    outer loop
      vertex 16 48 2.00754
      vertex 8 48 2.01261
      vertex 16 48 2.01261
    endloop
  endfacet
  facet normal 0 1 0
    outer loop
      vertex 8 48 2.01261
      vertex 16 48 2.00754
      vertex 8 48 2.00754
    endloop
  endfacet
  facet normal -0 0 1
    outer loop
      vertex 8 56 2.00754
      vertex 16 48 2.00754
      vertex 16 56 2.00754
    endloop
  endfacet
  facet normal 0 0 1
    outer loop
      vertex 16 48 2.00754
      vertex 8 56 2.00754
      vertex 8 48 2.00754
    endloop
  endfacet
  facet normal 0 -1 0
    outer loop
      vertex 8 56 2.01708
      vertex 16 56 2.01131
      vertex 16 56 2.01708
    endloop
  endfacet
  facet normal 0 -1 0
    outer loop
      vertex 16 56 2.01131
      vertex 24 56 2.01119
      vertex 24 56 2.01131
    endloop
  endfacet
  facet normal 0 -1 0
    outer loop
      vertex 24 56 2.01119
      vertex 24 56 2.01107
      vertex 32 56 2.01119
    endloop
  endfacet
  facet normal 0 -1 0
    outer loop
      vertex 16 56 2.01131
      vertex 24 56 2.01107
      vertex 24 56 2.01119
    endloop
  endfacet
  facet normal 0 -1 0
    outer loop
      vertex 8 56 2.00754
      vertex 16 56 2.01131
      vertex 8 56 2.01708
    endloop
  endfacet
  facet normal 0 -1 0
    outer loop
      vertex 16 56 2.00754
      vertex 16 56 2.01131
      vertex 8 56 2.00754
    endloop
  endfacet
  facet normal 0 -1 0
    outer loop
      vertex 16 56 2.01131
      vertex 16 56 2.00754
      vertex 24 56 2.01107
    endloop
  endfacet
  facet normal 0 -1 0
    outer loop
      vertex 16 56 2.00047
      vertex 24 56 2.01107
      vertex 16 56 2.00754
    endloop
  endfacet
  facet normal 0 -1 -0
    outer loop
      vertex 24 56 2.01107
      vertex 16 56 2.00047
      vertex 24 56 2.00047
    endloop
  endfacet
  facet normal 0 -1 -0
    outer loop
      vertex 32 56 2.01119
      vertex 24 56 2.01107
      vertex 32 56 2.01107
    endloop
  endfacet
  facet normal -0 0 1
    outer loop
      vertex 8 64 2.01708
      vertex 16 56 2.01708
      vertex 16 64 2.01708
    endloop
  endfacet
  facet normal 0 0 1
    outer loop
      vertex 16 56 2.01708
      vertex 8 64 2.01708
      vertex 8 56 2.01708
    endloop
  endfacet
  facet normal -0 0 1
    outer loop
      vertex 16 8 2.11463
      vertex 24 0 2.11463
      vertex 24 8 2.11463
    endloop
  endfacet
  facet normal 0 0 1
    outer loop
      vertex 24 0 2.11463
      vertex 16 8 2.11463
      vertex 16 0 2.11463
    endloop
  endfacet
  facet normal 1 -0 0
    outer loop
      vertex 24 56 2.01131
      vertex 24 64 2.01119
      vertex 24 64 2.01131
    endloop
  endfacet
  facet normal 1 0 0
    outer loop
      vertex 24 64 2.01119
      vertex 24 56 2.01131
      vertex 24 56 2.01119
    endloop
  endfacet
  facet normal -1 0 0
    outer loop
      vertex 24 16 2.01013
      vertex 24 24 2.04171
      vertex 24 24 2.01013
    endloop
  endfacet
  facet normal -1 0 0
    outer loop
      vertex 24 16 2.02639
      vertex 24 24 2.04171
      vertex 24 16 2.01013
    endloop
  endfacet
  facet normal -1 0 0
    outer loop
      vertex 24 16 2.02639
      vertex 24 16 2.04171
      vertex 24 24 2.04171
    endloop
  endfacet
  facet normal 0 0 0
    outer loop
      vertex 24 16 2.02639
      vertex 24 16 2.06444
      vertex 24 16 2.04171
    endloop
  endfacet
  facet normal -1 0 0
    outer loop
      vertex 24 8 2.02639
      vertex 24 16 2.06444
      vertex 24 16 2.02639
    endloop
  endfacet
  facet normal -1 -0 0
    outer loop
      vertex 24 16 2.06444
      vertex 24 8 2.02639
      vertex 24 8 2.06444
    endloop
  endfacet
  facet normal -1 0 0
    outer loop
      vertex 24 24 2.00518
      vertex 24 32 2.05384
      vertex 24 32 2.00518
    endloop
  endfacet
  facet normal -1 0 0
    outer loop
      vertex 24 24 2.01013
      vertex 24 32 2.05384
      vertex 24 24 2.00518
    endloop
  endfacet
  facet normal -1 0 0
    outer loop
      vertex 24 24 2.04171
      vertex 24 32 2.05384
      vertex 24 24 2.01013
    endloop
  endfacet
  facet normal -1 -0 0
    outer loop
      vertex 24 32 2.05384
      vertex 24 24 2.04171
      vertex 24 24 2.05384
    endloop
  endfacet
  facet normal -1 0 0
    outer loop
      vertex 24 48 2.00047
      vertex 24 56 2.01107
      vertex 24 56 2.00047
    endloop
  endfacet
  facet normal -1 0 0
    outer loop
      vertex 24 48 2.00236
      vertex 24 56 2.01107
      vertex 24 48 2.00047
    endloop
  endfacet
  facet normal -1 0 0
    outer loop
      vertex 24 48 2.00236
      vertex 24 48 2.01107
      vertex 24 56 2.01107
    endloop
  endfacet
  facet normal 0 0 0
    outer loop
      vertex 24 48 2.00236
      vertex 24 48 2.02627
      vertex 24 48 2.01107
    endloop
  endfacet
  facet normal -1 0 0
    outer loop
      vertex 24 40 2.00236
      vertex 24 48 2.02627
      vertex 24 48 2.00236
    endloop
  endfacet
  facet normal -1 0 0
    outer loop
      vertex 24 40 2.00342
      vertex 24 48 2.02627
      vertex 24 40 2.00236
    endloop
  endfacet
  facet normal -1 0 0
    outer loop
      vertex 24 40 2.00342
      vertex 24 40 2.02627
      vertex 24 48 2.02627
    endloop
  endfacet
  facet normal 0 0 0
    outer loop
      vertex 24 40 2.00342
      vertex 24 40 2.06221
      vertex 24 40 2.02627
    endloop
  endfacet
  facet normal -1 0 0
    outer loop
      vertex 24 32 2.00342
      vertex 24 40 2.06221
      vertex 24 40 2.00342
    endloop
  endfacet
  facet normal -1 0 0
    outer loop
      vertex 24 32 2.00518
      vertex 24 40 2.06221
      vertex 24 32 2.00342
    endloop
  endfacet
  facet normal -1 0 0
    outer loop
      vertex 24 32 2.05384
      vertex 24 40 2.06221
      vertex 24 32 2.00518
    endloop
  endfacet
  facet normal -1 -0 0
    outer loop
      vertex 24 40 2.06221
      vertex 24 32 2.05384
      vertex 24 32 2.06221
    endloop
  endfacet
  facet normal -1 0 0
    outer loop
      vertex 24 0 2.11463
      vertex 24 8 2.22868
      vertex 24 8 2.11463
    endloop
  endfacet
  facet normal -1 -0 0
    outer loop
      vertex 24 8 2.22868
      vertex 24 0 2.11463
      vertex 24 0 2.22868
    endloop
  endfacet
  facet normal 0 1 0
    outer loop
      vertex 32 8 2.22868
      vertex 24 8 2.11463
      vertex 24 8 2.22868
    endloop
  endfacet
  facet normal 0 1 -0
    outer loop
      vertex 32 8 2.06444
      vertex 24 8 2.11463
      vertex 32 8 2.22868
    endloop
  endfacet
  facet normal 0 1 0
    outer loop
      vertex 24 8 2.06444
      vertex 24 8 2.11463
      vertex 32 8 2.06444
    endloop
  endfacet
  facet normal 0 1 0
    outer loop
      vertex 24 8 2.11463
      vertex 24 8 2.06444
      vertex 16 8 2.11463
    endloop
  endfacet
  facet normal 0 1 -0
    outer loop
      vertex 24 8 2.02639
      vertex 16 8 2.11463
      vertex 24 8 2.06444
    endloop
  endfacet
  facet normal 0 1 0
    outer loop
      vertex 16 8 2.11463
      vertex 24 8 2.02639
      vertex 16 8 2.02639
    endloop
  endfacet
  facet normal -0 0 1
    outer loop
      vertex 16 16 2.02639
      vertex 24 8 2.02639
      vertex 24 16 2.02639
    endloop
  endfacet
  facet normal 0 0 1
    outer loop
      vertex 24 8 2.02639
      vertex 16 16 2.02639
      vertex 16 8 2.02639
    endloop
  endfacet
  facet normal 0 1 -0
    outer loop
      vertex 24 16 2.01013
      vertex 16 16 2.02639
      vertex 24 16 2.02639
    endloop
  endfacet
  facet normal 0 1 0
    outer loop
      vertex 16 16 2.02639
      vertex 24 16 2.01013
      vertex 16 16 2.01013
    endloop
  endfacet
  facet normal -0 0 1
    outer loop
      vertex 16 24 2.01013
      vertex 24 16 2.01013
      vertex 24 24 2.01013
    endloop
  endfacet
  facet normal 0 0 1
    outer loop
      vertex 24 16 2.01013
      vertex 16 24 2.01013
      vertex 16 16 2.01013
    endloop
  endfacet
  facet normal 0 1 -0
    outer loop
      vertex 24 24 2.00518
      vertex 16 24 2.01013
      vertex 24 24 2.01013
    endloop
  endfacet
  facet normal 0 1 0
    outer loop
      vertex 16 24 2.01013
      vertex 24 24 2.00518
      vertex 16 24 2.00518
    endloop
  endfacet
  facet normal -0 0 1
    outer loop
      vertex 16 32 2.00518
      vertex 24 24 2.00518
      vertex 24 32 2.00518
    endloop
  endfacet
  facet normal 0 0 1
    outer loop
      vertex 24 24 2.00518
      vertex 16 32 2.00518
      vertex 16 24 2.00518
    endloop
  endfacet
  facet normal 0 1 -0
    outer loop
      vertex 24 32 2.00342
      vertex 16 32 2.00518
      vertex 24 32 2.00518
    endloop
  endfacet
  facet normal 0 1 0
    outer loop
      vertex 16 32 2.00518
      vertex 24 32 2.00342
      vertex 16 32 2.00342
    endloop
  endfacet
  facet normal -0 0 1
    outer loop
      vertex 16 40 2.00342
      vertex 24 32 2.00342
      vertex 24 40 2.00342
    endloop
  endfacet
  facet normal 0 0 1
    outer loop
      vertex 24 32 2.00342
      vertex 16 40 2.00342
      vertex 16 32 2.00342
    endloop
  endfacet
  facet normal 0 1 -0
    outer loop
      vertex 24 40 2.00236
      vertex 16 40 2.00342
      vertex 24 40 2.00342
    endloop
  endfacet
  facet normal 0 1 0
    outer loop
      vertex 16 40 2.00342
      vertex 24 40 2.00236
      vertex 16 40 2.00236
    endloop
  endfacet
  facet normal -0 0 1
    outer loop
      vertex 16 48 2.00236
      vertex 24 40 2.00236
      vertex 24 48 2.00236
    endloop
  endfacet
  facet normal 0 0 1
    outer loop
      vertex 24 40 2.00236
      vertex 16 48 2.00236
      vertex 16 40 2.00236
    endloop
  endfacet
  facet normal 0 1 -0
    outer loop
      vertex 24 48 2.00047
      vertex 16 48 2.00236
      vertex 24 48 2.00236
    endloop
  endfacet
  facet normal 0 1 0
    outer loop
      vertex 16 48 2.00236
      vertex 24 48 2.00047
      vertex 16 48 2.00047
    endloop
  endfacet
  facet normal -0 0 1
    outer loop
      vertex 16 56 2.00047
      vertex 24 48 2.00047
      vertex 24 56 2.00047
    endloop
  endfacet
  facet normal 0 0 1
    outer loop
      vertex 24 48 2.00047
      vertex 16 56 2.00047
      vertex 16 48 2.00047
    endloop
  endfacet
  facet normal -0 0 1
    outer loop
      vertex 16 64 2.01131
      vertex 24 56 2.01131
      vertex 24 64 2.01131
    endloop
  endfacet
  facet normal 0 0 1
    outer loop
      vertex 24 56 2.01131
      vertex 16 64 2.01131
      vertex 16 56 2.01131
    endloop
  endfacet
  facet normal -0 0 1
    outer loop
      vertex 24 8 2.22868
      vertex 32 0 2.22868
      vertex 32 8 2.22868
    endloop
  endfacet
  facet normal 0 0 1
    outer loop
      vertex 32 0 2.22868
      vertex 24 8 2.22868
      vertex 24 0 2.22868
    endloop
  endfacet
  facet normal -1 0 0
    outer loop
      vertex 32 0 2.22868
      vertex 32 8 3.04113
      vertex 32 8 2.22868
    endloop
  endfacet
  facet normal -1 -0 0
    outer loop
      vertex 32 8 3.04113
      vertex 32 0 2.22868
      vertex 32 0 3.04113
    endloop
  endfacet
  facet normal -1 0 0
    outer loop
      vertex 32 8 2.22868
      vertex 32 16 2.06444
      vertex 32 8 2.06444
    endloop
  endfacet
  facet normal -1 0 0
    outer loop
      vertex 32 8 3.04113
      vertex 32 16 2.06444
      vertex 32 8 2.22868
    endloop
  endfacet
  facet normal -1 0 0
    outer loop
      vertex 32 16 2.06444
      vertex 32 8 3.04113
      vertex 32 16 7.22757
    endloop
  endfacet
  facet normal -1 -0 0
    outer loop
      vertex 32 16 7.22757
      vertex 32 8 3.04113
      vertex 32 8 7.22757
    endloop
  endfacet
  facet normal -1 0 0
    outer loop
      vertex 32 16 2.06444
      vertex 32 24 2.05384
      vertex 32 24 2.04171
    endloop
  endfacet
  facet normal -1 0 0
    outer loop
      vertex 32 24 2.05384
      vertex 32 16 2.06444
      vertex 32 24 6.87472
    endloop
  endfacet
  facet normal -1 0 0
    outer loop
      vertex 32 16 2.06444
      vertex 32 24 2.04171
      vertex 32 16 2.04171
    endloop
  endfacet
  facet normal -1 -0 0
    outer loop
      vertex 32 24 6.87472
      vertex 32 16 2.06444
      vertex 32 16 7.22757
    endloop
  endfacet
  facet normal -1 0 0
    outer loop
      vertex 32 24 6.87472
      vertex 32 16 7.22757
      vertex 32 24 10.4017
    endloop
  endfacet
  facet normal -1 -0 0
    outer loop
      vertex 32 24 10.4017
      vertex 32 16 7.22757
      vertex 32 16 10.4017
    endloop
  endfacet
  facet normal -1 0 0
    outer loop
      vertex 32 24 2.05384
      vertex 32 32 2.06221
      vertex 32 32 2.05384
    endloop
  endfacet
  facet normal -1 -0 0
    outer loop
      vertex 32 32 2.06221
      vertex 32 24 2.05384
      vertex 32 32 3.60181
    endloop
  endfacet
  facet normal -1 0 0
    outer loop
      vertex 32 24 6.87472
      vertex 32 32 3.60181
      vertex 32 24 2.05384
    endloop
  endfacet
  facet normal -1 0 0
    outer loop
      vertex 32 32 3.60181
      vertex 32 24 6.87472
      vertex 32 32 6.87472
    endloop
  endfacet
  facet normal -1 0 0
    outer loop
      vertex 32 48 2.02627
      vertex 32 56 2.01119
      vertex 32 56 2.01107
    endloop
  endfacet
  facet normal -1 0 0
    outer loop
      vertex 32 56 2.01119
      vertex 32 48 2.02627
      vertex 32 56 2.09873
    endloop
  endfacet
  facet normal -1 0 0
    outer loop
      vertex 32 48 2.02627
      vertex 32 56 2.01107
      vertex 32 48 2.01107
    endloop
  endfacet
  facet normal -1 -0 0
    outer loop
      vertex 32 56 2.09873
      vertex 32 48 2.02627
      vertex 32 56 2.13808
    endloop
  endfacet
  facet normal -1 0 0
    outer loop
      vertex 32 48 2.02627
      vertex 32 48 2.13808
      vertex 32 56 2.13808
    endloop
  endfacet
  facet normal -1 0 0
    outer loop
      vertex 32 40 2.06221
      vertex 32 48 2.13808
      vertex 32 48 2.02627
    endloop
  endfacet
  facet normal -1 0 0
    outer loop
      vertex 32 40 2.06221
      vertex 32 48 2.02627
      vertex 32 40 2.02627
    endloop
  endfacet
  facet normal -1 -0 0
    outer loop
      vertex 32 48 2.13808
      vertex 32 40 2.06221
      vertex 32 48 2.48021
    endloop
  endfacet
  facet normal -1 0 0
    outer loop
      vertex 32 40 2.06221
      vertex 32 40 2.48021
      vertex 32 48 2.48021
    endloop
  endfacet
  facet normal -1 0 0
    outer loop
      vertex 32 32 2.06221
      vertex 32 40 2.48021
      vertex 32 40 2.06221
    endloop
  endfacet
  facet normal -1 0 0
    outer loop
      vertex 32 32 3.60181
      vertex 32 40 2.48021
      vertex 32 32 2.06221
    endloop
  endfacet
  facet normal -1 0 0
    outer loop
      vertex 32 40 2.48021
      vertex 32 32 3.60181
      vertex 32 40 3.60181
    endloop
  endfacet
  facet normal -1 0 0
    outer loop
      vertex 32 56 2.01119
      vertex 32 64 2.09873
      vertex 32 64 2.01119
    endloop
  endfacet
  facet normal -1 -0 0
    outer loop
      vertex 32 64 2.09873
      vertex 32 56 2.01119
      vertex 32 56 2.09873
    endloop
  endfacet
  facet normal -0 0 1
    outer loop
      vertex 24 16 2.06444
      vertex 32 8 2.06444
      vertex 32 16 2.06444
    endloop
  endfacet
  facet normal 0 0 1
    outer loop
      vertex 32 8 2.06444
      vertex 24 16 2.06444
      vertex 24 8 2.06444
    endloop
  endfacet
  facet normal 0 1 -0
    outer loop
      vertex 32 16 2.04171
      vertex 24 16 2.06444
      vertex 32 16 2.06444
    endloop
  endfacet
  facet normal 0 1 0
    outer loop
      vertex 24 16 2.06444
      vertex 32 16 2.04171
      vertex 24 16 2.04171
    endloop
  endfacet
  facet normal -0 0 1
    outer loop
      vertex 24 24 2.04171
      vertex 32 16 2.04171
      vertex 32 24 2.04171
    endloop
  endfacet
  facet normal 0 0 1
    outer loop
      vertex 32 16 2.04171
      vertex 24 24 2.04171
      vertex 24 16 2.04171
    endloop
  endfacet
  facet normal 0 -1 0
    outer loop
      vertex 24 24 2.04171
      vertex 32 24 2.05384
      vertex 24 24 2.05384
    endloop
  endfacet
  facet normal 0 -1 -0
    outer loop
      vertex 32 24 2.05384
      vertex 24 24 2.04171
      vertex 32 24 2.04171
    endloop
  endfacet
  facet normal -0 0 1
    outer loop
      vertex 24 32 2.05384
      vertex 32 24 2.05384
      vertex 32 32 2.05384
    endloop
  endfacet
  facet normal 0 0 1
    outer loop
      vertex 32 24 2.05384
      vertex 24 32 2.05384
      vertex 24 24 2.05384
    endloop
  endfacet
  facet normal 0 -1 0
    outer loop
      vertex 24 32 2.05384
      vertex 32 32 2.06221
      vertex 24 32 2.06221
    endloop
  endfacet
  facet normal 0 -1 -0
    outer loop
      vertex 32 32 2.06221
      vertex 24 32 2.05384
      vertex 32 32 2.05384
    endloop
  endfacet
  facet normal -0 0 1
    outer loop
      vertex 24 40 2.06221
      vertex 32 32 2.06221
      vertex 32 40 2.06221
    endloop
  endfacet
  facet normal 0 0 1
    outer loop
      vertex 32 32 2.06221
      vertex 24 40 2.06221
      vertex 24 32 2.06221
    endloop
  endfacet
  facet normal 0 1 -0
    outer loop
      vertex 32 40 2.02627
      vertex 24 40 2.06221
      vertex 32 40 2.06221
    endloop
  endfacet
  facet normal 0 1 0
    outer loop
      vertex 24 40 2.06221
      vertex 32 40 2.02627
      vertex 24 40 2.02627
    endloop
  endfacet
  facet normal -0 0 1
    outer loop
      vertex 24 48 2.02627
      vertex 32 40 2.02627
      vertex 32 48 2.02627
    endloop
  endfacet
  facet normal 0 0 1
    outer loop
      vertex 32 40 2.02627
      vertex 24 48 2.02627
      vertex 24 40 2.02627
    endloop
  endfacet
  facet normal 0 1 -0
    outer loop
      vertex 32 48 2.01107
      vertex 24 48 2.02627
      vertex 32 48 2.02627
    endloop
  endfacet
  facet normal 0 1 0
    outer loop
      vertex 24 48 2.02627
      vertex 32 48 2.01107
      vertex 24 48 2.01107
    endloop
  endfacet
  facet normal -0 0 1
    outer loop
      vertex 24 56 2.01107
      vertex 32 48 2.01107
      vertex 32 56 2.01107
    endloop
  endfacet
  facet normal 0 0 1
    outer loop
      vertex 32 48 2.01107
      vertex 24 56 2.01107
      vertex 24 48 2.01107
    endloop
  endfacet
  facet normal -0 0 1
    outer loop
      vertex 24 64 2.01119
      vertex 32 56 2.01119
      vertex 32 64 2.01119
    endloop
  endfacet
  facet normal 0 0 1
    outer loop
      vertex 32 56 2.01119
      vertex 24 64 2.01119
      vertex 24 56 2.01119
    endloop
  endfacet
  facet normal -0 0 1
    outer loop
      vertex 32 8 3.04113
      vertex 40 0 3.04113
      vertex 40 8 3.04113
    endloop
  endfacet
  facet normal 0 0 1
    outer loop
      vertex 40 0 3.04113
      vertex 32 8 3.04113
      vertex 32 0 3.04113
    endloop
  endfacet
  facet normal 0 0 0
    outer loop
      vertex 40 56 2.13808
      vertex 40 56 2.09873
      vertex 40 56 2.12253
    endloop
  endfacet
  facet normal 1 -0 0
    outer loop
      vertex 40 48 2.13808
      vertex 40 56 2.09873
      vertex 40 56 2.13808
    endloop
  endfacet
  facet normal 1 0 0
    outer loop
      vertex 40 56 2.09873
      vertex 40 48 2.13808
      vertex 40 56 2.03711
    endloop
  endfacet
  facet normal 1 -0 0
    outer loop
      vertex 40 48 2.07116
      vertex 40 56 2.03711
      vertex 40 48 2.13808
    endloop
  endfacet
  facet normal 1 0 0
    outer loop
      vertex 40 56 2.03711
      vertex 40 48 2.07116
      vertex 40 48 2.03711
    endloop
  endfacet
  facet normal 1 -0 0
    outer loop
      vertex 40 40 2.48021
      vertex 40 48 2.13808
      vertex 40 48 2.48021
    endloop
  endfacet
  facet normal 1 -0 0
    outer loop
      vertex 40 40 2.14291
      vertex 40 48 2.13808
      vertex 40 40 2.48021
    endloop
  endfacet
  facet normal 1 0 0
    outer loop
      vertex 40 48 2.13808
      vertex 40 40 2.14291
      vertex 40 48 2.07116
    endloop
  endfacet
  facet normal 1 0 0
    outer loop
      vertex 40 48 2.07116
      vertex 40 40 2.14291
      vertex 40 40 2.07116
    endloop
  endfacet
  facet normal 1 0 0
    outer loop
      vertex 40 32 2.40034
      vertex 40 40 2.48021
      vertex 40 40 3.60181
    endloop
  endfacet
  facet normal 1 0 0
    outer loop
      vertex 40 32 2.40034
      vertex 40 40 3.60181
      vertex 40 32 3.60181
    endloop
  endfacet
  facet normal 1 0 0
    outer loop
      vertex 40 40 2.48021
      vertex 40 32 2.40034
      vertex 40 40 2.14291
    endloop
  endfacet
  facet normal 1 0 0
    outer loop
      vertex 40 40 2.14291
      vertex 40 32 2.40034
      vertex 40 32 2.14291
    endloop
  endfacet
  facet normal 1 -0 0
    outer loop
      vertex 40 24 6.87472
      vertex 40 32 3.60181
      vertex 40 32 6.87472
    endloop
  endfacet
  facet normal 1 0 0
    outer loop
      vertex 40 32 3.60181
      vertex 40 24 6.87472
      vertex 40 24 3.47422
    endloop
  endfacet
  facet normal 1 0 0
    outer loop
      vertex 40 32 3.60181
      vertex 40 24 3.47422
      vertex 40 32 2.40034
    endloop
  endfacet
  facet normal 1 0 0
    outer loop
      vertex 40 32 2.40034
      vertex 40 24 3.47422
      vertex 40 24 2.40034
    endloop
  endfacet
  facet normal 1 -0 0
    outer loop
      vertex 40 16 7.22757
      vertex 40 24 6.87472
      vertex 40 24 10.4017
    endloop
  endfacet
  facet normal 1 0 0
    outer loop
      vertex 40 16 7.22757
      vertex 40 24 10.4017
      vertex 40 16 10.4017
    endloop
  endfacet
  facet normal 1 0 0
    outer loop
      vertex 40 16 3.47422
      vertex 40 24 6.87472
      vertex 40 16 7.22757
    endloop
  endfacet
  facet normal 1 0 0
    outer loop
      vertex 40 24 6.87472
      vertex 40 16 3.47422
      vertex 40 24 3.47422
    endloop
  endfacet
  facet normal -1 0 0
    outer loop
      vertex 40 56 2.09873
      vertex 40 64 2.12253
      vertex 40 64 2.09873
    endloop
  endfacet
  facet normal -1 -0 0
    outer loop
      vertex 40 64 2.12253
      vertex 40 56 2.09873
      vertex 40 56 2.12253
    endloop
  endfacet
  facet normal -1 0 0
    outer loop
      vertex 40 8 8.72807
      vertex 40 16 10.4017
      vertex 40 16 7.22757
    endloop
  endfacet
  facet normal -1 0 0
    outer loop
      vertex 40 8 8.72807
      vertex 40 16 7.22757
      vertex 40 8 7.22757
    endloop
  endfacet
  facet normal -1 0 0
    outer loop
      vertex 40 8 66
      vertex 40 16 10.4017
      vertex 40 8 8.72807
    endloop
  endfacet
  facet normal -1 0 0
    outer loop
      vertex 40 16 10.4017
      vertex 40 8 66
      vertex 40 16 66
    endloop
  endfacet
  facet normal -1 0 0
    outer loop
      vertex 40 0 3.04113
      vertex 40 8 7.22757
      vertex 40 8 3.04113
    endloop
  endfacet
  facet normal -1 0 0
    outer loop
      vertex 40 0 8.72807
      vertex 40 8 7.22757
      vertex 40 0 3.04113
    endloop
  endfacet
  facet normal -1 0 0
    outer loop
      vertex 40 8 7.22757
      vertex 40 0 8.72807
      vertex 40 8 8.72807
    endloop
  endfacet
  facet normal 0 -1 0
    outer loop
      vertex 32 8 3.04113
      vertex 40 8 7.22757
      vertex 32 8 7.22757
    endloop
  endfacet
  facet normal 0 -1 -0
    outer loop
      vertex 40 8 7.22757
      vertex 32 8 3.04113
      vertex 40 8 3.04113
    endloop
  endfacet
  facet normal -0 0 1
    outer loop
      vertex 32 16 7.22757
      vertex 40 8 7.22757
      vertex 40 16 7.22757
    endloop
  endfacet
  facet normal 0 0 1
    outer loop
      vertex 40 8 7.22757
      vertex 32 16 7.22757
      vertex 32 8 7.22757
    endloop
  endfacet
  facet normal 0 -1 0
    outer loop
      vertex 32 16 7.22757
      vertex 40 16 10.4017
      vertex 32 16 10.4017
    endloop
  endfacet
  facet normal 0 -1 -0
    outer loop
      vertex 40 16 10.4017
      vertex 32 16 7.22757
      vertex 40 16 7.22757
    endloop
  endfacet
  facet normal -0 0 1
    outer loop
      vertex 32 24 10.4017
      vertex 40 16 10.4017
      vertex 40 24 10.4017
    endloop
  endfacet
  facet normal 0 0 1
    outer loop
      vertex 40 16 10.4017
      vertex 32 24 10.4017
      vertex 32 16 10.4017
    endloop
  endfacet
  facet normal 0 1 -0
    outer loop
      vertex 40 24 6.87472
      vertex 32 24 10.4017
      vertex 40 24 10.4017
    endloop
  endfacet
  facet normal 0 1 0
    outer loop
      vertex 32 24 10.4017
      vertex 40 24 6.87472
      vertex 32 24 6.87472
    endloop
  endfacet
  facet normal -0 0 1
    outer loop
      vertex 32 32 6.87472
      vertex 40 24 6.87472
      vertex 40 32 6.87472
    endloop
  endfacet
  facet normal 0 0 1
    outer loop
      vertex 40 24 6.87472
      vertex 32 32 6.87472
      vertex 32 24 6.87472
    endloop
  endfacet
  facet normal 0 1 -0
    outer loop
      vertex 40 32 3.60181
      vertex 32 32 6.87472
      vertex 40 32 6.87472
    endloop
  endfacet
  facet normal 0 1 0
    outer loop
      vertex 32 32 6.87472
      vertex 40 32 3.60181
      vertex 32 32 3.60181
    endloop
  endfacet
  facet normal -0 0 1
    outer loop
      vertex 32 40 3.60181
      vertex 40 32 3.60181
      vertex 40 40 3.60181
    endloop
  endfacet
  facet normal 0 0 1
    outer loop
      vertex 40 32 3.60181
      vertex 32 40 3.60181
      vertex 32 32 3.60181
    endloop
  endfacet
  facet normal 0 1 -0
    outer loop
      vertex 40 40 2.48021
      vertex 32 40 3.60181
      vertex 40 40 3.60181
    endloop
  endfacet
  facet normal 0 1 0
    outer loop
      vertex 32 40 3.60181
      vertex 40 40 2.48021
      vertex 32 40 2.48021
    endloop
  endfacet
  facet normal -0 0 1
    outer loop
      vertex 32 48 2.48021
      vertex 40 40 2.48021
      vertex 40 48 2.48021
    endloop
  endfacet
  facet normal 0 0 1
    outer loop
      vertex 40 40 2.48021
      vertex 32 48 2.48021
      vertex 32 40 2.48021
    endloop
  endfacet
  facet normal 0 1 -0
    outer loop
      vertex 40 48 2.13808
      vertex 32 48 2.48021
      vertex 40 48 2.48021
    endloop
  endfacet
  facet normal 0 1 0
    outer loop
      vertex 32 48 2.48021
      vertex 40 48 2.13808
      vertex 32 48 2.13808
    endloop
  endfacet
  facet normal -0 0 1
    outer loop
      vertex 32 56 2.13808
      vertex 40 48 2.13808
      vertex 40 56 2.13808
    endloop
  endfacet
  facet normal 0 0 1
    outer loop
      vertex 40 48 2.13808
      vertex 32 56 2.13808
      vertex 32 48 2.13808
    endloop
  endfacet
  facet normal 0 1 -0
    outer loop
      vertex 40 56 2.12253
      vertex 32 56 2.13808
      vertex 40 56 2.13808
    endloop
  endfacet
  facet normal 0 1 -0
    outer loop
      vertex 40 56 2.09873
      vertex 32 56 2.13808
      vertex 40 56 2.12253
    endloop
  endfacet
  facet normal 0 1 0
    outer loop
      vertex 32 56 2.13808
      vertex 40 56 2.09873
      vertex 32 56 2.09873
    endloop
  endfacet
  facet normal -0 0 1
    outer loop
      vertex 32 64 2.09873
      vertex 40 56 2.09873
      vertex 40 64 2.09873
    endloop
  endfacet
  facet normal 0 0 1
    outer loop
      vertex 40 56 2.09873
      vertex 32 64 2.09873
      vertex 32 56 2.09873
    endloop
  endfacet
  facet normal -0 0 1
    outer loop
      vertex 40 8 8.72807
      vertex 48 0 8.72807
      vertex 48 8 8.72807
    endloop
  endfacet
  facet normal 0 0 1
    outer loop
      vertex 48 0 8.72807
      vertex 40 8 8.72807
      vertex 40 0 8.72807
    endloop
  endfacet
  facet normal 1 -0 0
    outer loop
      vertex 48 0 8.72807
      vertex 48 8 2.51014
      vertex 48 8 8.72807
    endloop
  endfacet
  facet normal 1 0 0
    outer loop
      vertex 48 8 2.51014
      vertex 48 0 8.72807
      vertex 48 0 2.51014
    endloop
  endfacet
  facet normal 1 -0 0
    outer loop
      vertex 48 56 2.12253
      vertex 48 64 2.00589
      vertex 48 64 2.12253
    endloop
  endfacet
  facet normal 1 -0 0
    outer loop
      vertex 48 56 2.03711
      vertex 48 64 2.00589
      vertex 48 56 2.12253
    endloop
  endfacet
  facet normal 1 0 0
    outer loop
      vertex 48 56 2.03711
      vertex 48 56 2.00589
      vertex 48 64 2.00589
    endloop
  endfacet
  facet normal 0 0 0
    outer loop
      vertex 48 56 2.03711
      vertex 48 56 2.00294
      vertex 48 56 2.00589
    endloop
  endfacet
  facet normal 1 -0 0
    outer loop
      vertex 48 48 2.03711
      vertex 48 56 2.00294
      vertex 48 56 2.03711
    endloop
  endfacet
  facet normal 1 -0 0
    outer loop
      vertex 48 48 2.01025
      vertex 48 56 2.00294
      vertex 48 48 2.03711
    endloop
  endfacet
  facet normal 1 0 0
    outer loop
      vertex 48 56 2.00294
      vertex 48 48 2.01025
      vertex 48 48 2.00294
    endloop
  endfacet
  facet normal 0 0 0
    outer loop
      vertex 48 48 2.07116
      vertex 48 48 2.01025
      vertex 48 48 2.03711
    endloop
  endfacet
  facet normal 1 -0 0
    outer loop
      vertex 48 40 2.07116
      vertex 48 48 2.01025
      vertex 48 48 2.07116
    endloop
  endfacet
  facet normal 1 -0 0
    outer loop
      vertex 48 40 2.01355
      vertex 48 48 2.01025
      vertex 48 40 2.07116
    endloop
  endfacet
  facet normal 1 0 0
    outer loop
      vertex 48 48 2.01025
      vertex 48 40 2.01355
      vertex 48 40 2.01025
    endloop
  endfacet
  facet normal 1 -0 0
    outer loop
      vertex 48 32 2.14291
      vertex 48 40 2.07116
      vertex 48 40 2.14291
    endloop
  endfacet
  facet normal 1 0 0
    outer loop
      vertex 48 32 2.02615
      vertex 48 40 2.07116
      vertex 48 32 2.14291
    endloop
  endfacet
  facet normal 1 0 0
    outer loop
      vertex 48 40 2.07116
      vertex 48 32 2.02615
      vertex 48 40 2.01355
    endloop
  endfacet
  facet normal 1 0 0
    outer loop
      vertex 48 40 2.01355
      vertex 48 32 2.02615
      vertex 48 32 2.01355
    endloop
  endfacet
  facet normal 1 -0 0
    outer loop
      vertex 48 24 2.40034
      vertex 48 32 2.14291
      vertex 48 32 2.40034
    endloop
  endfacet
  facet normal 1 0 0
    outer loop
      vertex 48 24 2.08388
      vertex 48 32 2.14291
      vertex 48 24 2.40034
    endloop
  endfacet
  facet normal 1 0 0
    outer loop
      vertex 48 32 2.14291
      vertex 48 24 2.08388
      vertex 48 32 2.02615
    endloop
  endfacet
  facet normal 1 0 0
    outer loop
      vertex 48 32 2.02615
      vertex 48 24 2.08388
      vertex 48 24 2.02615
    endloop
  endfacet
  facet normal 1 -0 0
    outer loop
      vertex 48 16 3.47422
      vertex 48 24 2.40034
      vertex 48 24 3.47422
    endloop
  endfacet
  facet normal 1 0 0
    outer loop
      vertex 48 24 2.40034
      vertex 48 16 3.47422
      vertex 48 16 2.19322
    endloop
  endfacet
  facet normal 1 0 0
    outer loop
      vertex 48 24 2.40034
      vertex 48 16 2.19322
      vertex 48 24 2.08388
    endloop
  endfacet
  facet normal 1 0 0
    outer loop
      vertex 48 24 2.08388
      vertex 48 16 2.19322
      vertex 48 16 2.08388
    endloop
  endfacet
  facet normal 1 -0 0
    outer loop
      vertex 48 8 8.72807
      vertex 48 16 3.47422
      vertex 48 16 66
    endloop
  endfacet
  facet normal 1 0 0
    outer loop
      vertex 48 8 8.72807
      vertex 48 16 66
      vertex 48 8 66
    endloop
  endfacet
  facet normal 1 0 0
    outer loop
      vertex 48 8 2.51014
      vertex 48 16 3.47422
      vertex 48 8 8.72807
    endloop
  endfacet
  facet normal 1 0 0
    outer loop
      vertex 48 16 3.47422
      vertex 48 8 2.51014
      vertex 48 16 2.19322
    endloop
  endfacet
  facet normal 1 0 0
    outer loop
      vertex 48 16 2.19322
      vertex 48 8 2.51014
      vertex 48 8 2.19322
    endloop
  endfacet
  facet normal 0 -1 0
    outer loop
      vertex 40 8 8.72807
      vertex 48 8 66
      vertex 40 8 66
    endloop
  endfacet
  facet normal 0 -1 -0
    outer loop
      vertex 48 8 66
      vertex 40 8 8.72807
      vertex 48 8 8.72807
    endloop
  endfacet
  facet normal -0 0 1
    outer loop
      vertex 40 16 66
      vertex 48 8 66
      vertex 48 16 66
    endloop
  endfacet
  facet normal 0 0 1
    outer loop
      vertex 48 8 66
      vertex 40 16 66
      vertex 40 8 66
    endloop
  endfacet
  facet normal 0 1 0
    outer loop
      vertex 48 16 66
      vertex 40 16 10.4017
      vertex 40 16 66
    endloop
  endfacet
  facet normal 0 1 -0
    outer loop
      vertex 48 16 3.47422
      vertex 40 16 10.4017
      vertex 48 16 66
    endloop
  endfacet
  facet normal 0 1 0
    outer loop
      vertex 40 16 10.4017
      vertex 48 16 3.47422
      vertex 40 16 7.22757
    endloop
  endfacet
  facet normal 0 1 0
    outer loop
      vertex 40 16 7.22757
      vertex 48 16 3.47422
      vertex 40 16 3.47422
    endloop
  endfacet
  facet normal -0 0 1
    outer loop
      vertex 40 24 3.47422
      vertex 48 16 3.47422
      vertex 48 24 3.47422
    endloop
  endfacet
  facet normal 0 0 1
    outer loop
      vertex 48 16 3.47422
      vertex 40 24 3.47422
      vertex 40 16 3.47422
    endloop
  endfacet
  facet normal 0 1 -0
    outer loop
      vertex 48 24 2.40034
      vertex 40 24 3.47422
      vertex 48 24 3.47422
    endloop
  endfacet
  facet normal 0 1 0
    outer loop
      vertex 40 24 3.47422
      vertex 48 24 2.40034
      vertex 40 24 2.40034
    endloop
  endfacet
  facet normal -0 0 1
    outer loop
      vertex 40 32 2.40034
      vertex 48 24 2.40034
      vertex 48 32 2.40034
    endloop
  endfacet
  facet normal 0 0 1
    outer loop
      vertex 48 24 2.40034
      vertex 40 32 2.40034
      vertex 40 24 2.40034
    endloop
  endfacet
  facet normal 0 1 -0
    outer loop
      vertex 48 32 2.14291
      vertex 40 32 2.40034
      vertex 48 32 2.40034
    endloop
  endfacet
  facet normal 0 1 0
    outer loop
      vertex 40 32 2.40034
      vertex 48 32 2.14291
      vertex 40 32 2.14291
    endloop
  endfacet
  facet normal -0 0 1
    outer loop
      vertex 40 40 2.14291
      vertex 48 32 2.14291
      vertex 48 40 2.14291
    endloop
  endfacet
  facet normal 0 0 1
    outer loop
      vertex 48 32 2.14291
      vertex 40 40 2.14291
      vertex 40 32 2.14291
    endloop
  endfacet
  facet normal 0 1 -0
    outer loop
      vertex 48 40 2.07116
      vertex 40 40 2.14291
      vertex 48 40 2.14291
    endloop
  endfacet
  facet normal 0 1 0
    outer loop
      vertex 40 40 2.14291
      vertex 48 40 2.07116
      vertex 40 40 2.07116
    endloop
  endfacet
  facet normal -0 0 1
    outer loop
      vertex 40 48 2.07116
      vertex 48 40 2.07116
      vertex 48 48 2.07116
    endloop
  endfacet
  facet normal 0 0 1
    outer loop
      vertex 48 40 2.07116
      vertex 40 48 2.07116
      vertex 40 40 2.07116
    endloop
  endfacet
  facet normal 0 1 -0
    outer loop
      vertex 48 48 2.03711
      vertex 40 48 2.07116
      vertex 48 48 2.07116
    endloop
  endfacet
  facet normal 0 1 0
    outer loop
      vertex 40 48 2.07116
      vertex 48 48 2.03711
      vertex 40 48 2.03711
    endloop
  endfacet
  facet normal -0 0 1
    outer loop
      vertex 40 56 2.03711
      vertex 48 48 2.03711
      vertex 48 56 2.03711
    endloop
  endfacet
  facet normal 0 0 1
    outer loop
      vertex 48 48 2.03711
      vertex 40 56 2.03711
      vertex 40 48 2.03711
    endloop
  endfacet
  facet normal 0 -1 0
    outer loop
      vertex 40 56 2.09873
      vertex 48 56 2.12253
      vertex 40 56 2.12253
    endloop
  endfacet
  facet normal 0 -1 0
    outer loop
      vertex 40 56 2.03711
      vertex 48 56 2.12253
      vertex 40 56 2.09873
    endloop
  endfacet
  facet normal 0 -1 -0
    outer loop
      vertex 48 56 2.12253
      vertex 40 56 2.03711
      vertex 48 56 2.03711
    endloop
  endfacet
  facet normal -0 0 1
    outer loop
      vertex 40 64 2.12253
      vertex 48 56 2.12253
      vertex 48 64 2.12253
    endloop
  endfacet
  facet normal 0 0 1
    outer loop
      vertex 48 56 2.12253
      vertex 40 64 2.12253
      vertex 40 56 2.12253
    endloop
  endfacet
  facet normal -0 0 1
    outer loop
      vertex 48 8 2.51014
      vertex 56 0 2.51014
      vertex 56 8 2.51014
    endloop
  endfacet
  facet normal 0 0 1
    outer loop
      vertex 56 0 2.51014
      vertex 48 8 2.51014
      vertex 48 0 2.51014
    endloop
  endfacet
  facet normal 0 0 0
    outer loop
      vertex 56 56 2.00294
      vertex 56 56 2.02792
      vertex 56 56 2.00589
    endloop
  endfacet
  facet normal 0 0 0
    outer loop
      vertex 56 56 2.00294
      vertex 56 56 2.02945
      vertex 56 56 2.02792
    endloop
  endfacet
  facet normal -1 0 0
    outer loop
      vertex 56 48 2.00294
      vertex 56 56 2.02945
      vertex 56 56 2.00294
    endloop
  endfacet
  facet normal -1 0 0
    outer loop
      vertex 56 48 2.01025
      vertex 56 56 2.02945
      vertex 56 48 2.00294
    endloop
  endfacet
  facet normal -1 0 0
    outer loop
      vertex 56 48 2.01025
      vertex 56 48 2.02945
      vertex 56 56 2.02945
    endloop
  endfacet
  facet normal 0 0 0
    outer loop
      vertex 56 48 2.01025
      vertex 56 48 2.03146
      vertex 56 48 2.02945
    endloop
  endfacet
  facet normal -1 0 0
    outer loop
      vertex 56 40 2.01025
      vertex 56 48 2.03146
      vertex 56 48 2.01025
    endloop
  endfacet
  facet normal -1 0 0
    outer loop
      vertex 56 40 2.01355
      vertex 56 48 2.03146
      vertex 56 40 2.01025
    endloop
  endfacet
  facet normal -1 0 0
    outer loop
      vertex 56 40 2.01355
      vertex 56 40 2.03146
      vertex 56 48 2.03146
    endloop
  endfacet
  facet normal 0 0 0
    outer loop
      vertex 56 40 2.01355
      vertex 56 40 2.04925
      vertex 56 40 2.03146
    endloop
  endfacet
  facet normal -1 0 0
    outer loop
      vertex 56 32 2.01355
      vertex 56 40 2.04925
      vertex 56 40 2.01355
    endloop
  endfacet
  facet normal -1 0 0
    outer loop
      vertex 56 32 2.02615
      vertex 56 40 2.04925
      vertex 56 32 2.01355
    endloop
  endfacet
  facet normal -1 0 0
    outer loop
      vertex 56 32 2.02615
      vertex 56 32 2.04925
      vertex 56 40 2.04925
    endloop
  endfacet
  facet normal 0 0 0
    outer loop
      vertex 56 32 2.02615
      vertex 56 32 2.08082
      vertex 56 32 2.04925
    endloop
  endfacet
  facet normal -1 0 0
    outer loop
      vertex 56 24 2.02615
      vertex 56 32 2.08082
      vertex 56 32 2.02615
    endloop
  endfacet
  facet normal -1 -0 0
    outer loop
      vertex 56 32 2.08082
      vertex 56 24 2.02615
      vertex 56 24 2.08082
    endloop
  endfacet
  facet normal -1 0 0
    outer loop
      vertex 56 56 2.00589
      vertex 56 64 2.02792
      vertex 56 64 2.00589
    endloop
  endfacet
  facet normal -1 -0 0
    outer loop
      vertex 56 64 2.02792
      vertex 56 56 2.00589
      vertex 56 56 2.02792
    endloop
  endfacet
  facet normal -1 0 0
    outer loop
      vertex 56 16 2.08388
      vertex 56 24 2.14456
      vertex 56 24 2.08388
    endloop
  endfacet
  facet normal -1 -0 0
    outer loop
      vertex 56 24 2.14456
      vertex 56 16 2.08388
      vertex 56 16 2.14456
    endloop
  endfacet
  facet normal -1 0 0
    outer loop
      vertex 56 8 2.19322
      vertex 56 16 2.26685
      vertex 56 16 2.19322
    endloop
  endfacet
  facet normal -1 -0 0
    outer loop
      vertex 56 16 2.26685
      vertex 56 8 2.19322
      vertex 56 8 2.26685
    endloop
  endfacet
  facet normal -1 0 0
    outer loop
      vertex 56 0 2.51014
      vertex 56 8 3.1461
      vertex 56 8 2.51014
    endloop
  endfacet
  facet normal -1 -0 0
    outer loop
      vertex 56 8 3.1461
      vertex 56 0 2.51014
      vertex 56 0 3.1461
    endloop
  endfacet
  facet normal 0 1 0
    outer loop
      vertex 64 8 3.1461
      vertex 56 8 2.51014
      vertex 56 8 3.1461
    endloop
  endfacet
  facet normal 0 1 -0
    outer loop
      vertex 64 8 2.26685
      vertex 56 8 2.51014
      vertex 64 8 3.1461
    endloop
  endfacet
  facet normal 0 1 0
    outer loop
      vertex 56 8 2.26685
      vertex 56 8 2.51014
      vertex 64 8 2.26685
    endloop
  endfacet
  facet normal 0 1 0
    outer loop
      vertex 56 8 2.51014
      vertex 56 8 2.26685
      vertex 48 8 2.51014
    endloop
  endfacet
  facet normal 0 1 0
    outer loop
      vertex 48 8 2.19322
      vertex 56 8 2.26685
      vertex 56 8 2.19322
    endloop
  endfacet
  facet normal 0 1 0
    outer loop
      vertex 56 8 2.26685
      vertex 48 8 2.19322
      vertex 48 8 2.51014
    endloop
  endfacet
  facet normal -0 0 1
    outer loop
      vertex 48 16 2.19322
      vertex 56 8 2.19322
      vertex 56 16 2.19322
    endloop
  endfacet
  facet normal 0 0 1
    outer loop
      vertex 56 8 2.19322
      vertex 48 16 2.19322
      vertex 48 8 2.19322
    endloop
  endfacet
  facet normal 0 1 0
    outer loop
      vertex 64 16 2.26685
      vertex 56 16 2.19322
      vertex 56 16 2.26685
    endloop
  endfacet
  facet normal 0 1 -0
    outer loop
      vertex 64 16 2.14456
      vertex 56 16 2.19322
      vertex 64 16 2.26685
    endloop
  endfacet
  facet normal 0 1 0
    outer loop
      vertex 56 16 2.14456
      vertex 56 16 2.19322
      vertex 64 16 2.14456
    endloop
  endfacet
  facet normal 0 1 0
    outer loop
      vertex 56 16 2.19322
      vertex 56 16 2.14456
      vertex 48 16 2.19322
    endloop
  endfacet
  facet normal 0 1 -0
    outer loop
      vertex 56 16 2.08388
      vertex 48 16 2.19322
      vertex 56 16 2.14456
    endloop
  endfacet
  facet normal 0 1 0
    outer loop
      vertex 48 16 2.19322
      vertex 56 16 2.08388
      vertex 48 16 2.08388
    endloop
  endfacet
  facet normal -0 0 1
    outer loop
      vertex 48 24 2.08388
      vertex 56 16 2.08388
      vertex 56 24 2.08388
    endloop
  endfacet
  facet normal 0 0 1
    outer loop
      vertex 56 16 2.08388
      vertex 48 24 2.08388
      vertex 48 16 2.08388
    endloop
  endfacet
  facet normal 0 1 0
    outer loop
      vertex 64 24 2.14456
      vertex 56 24 2.08388
      vertex 56 24 2.14456
    endloop
  endfacet
  facet normal 0 1 -0
    outer loop
      vertex 64 24 2.08082
      vertex 56 24 2.08388
      vertex 64 24 2.14456
    endloop
  endfacet
  facet normal 0 1 0
    outer loop
      vertex 56 24 2.08082
      vertex 56 24 2.08388
      vertex 64 24 2.08082
    endloop
  endfacet
  facet normal 0 1 0
    outer loop
      vertex 56 24 2.08388
      vertex 56 24 2.08082
      vertex 48 24 2.08388
    endloop
  endfacet
  facet normal 0 1 -0
    outer loop
      vertex 56 24 2.02615
      vertex 48 24 2.08388
      vertex 56 24 2.08082
    endloop
  endfacet
  facet normal 0 1 0
    outer loop
      vertex 48 24 2.08388
      vertex 56 24 2.02615
      vertex 48 24 2.02615
    endloop
  endfacet
  facet normal -0 0 1
    outer loop
      vertex 48 32 2.02615
      vertex 56 24 2.02615
      vertex 56 32 2.02615
    endloop
  endfacet
  facet normal 0 0 1
    outer loop
      vertex 56 24 2.02615
      vertex 48 32 2.02615
      vertex 48 24 2.02615
    endloop
  endfacet
  facet normal 0 1 -0
    outer loop
      vertex 56 32 2.01355
      vertex 48 32 2.02615
      vertex 56 32 2.02615
    endloop
  endfacet
  facet normal 0 1 0
    outer loop
      vertex 48 32 2.02615
      vertex 56 32 2.01355
      vertex 48 32 2.01355
    endloop
  endfacet
  facet normal -0 0 1
    outer loop
      vertex 48 40 2.01355
      vertex 56 32 2.01355
      vertex 56 40 2.01355
    endloop
  endfacet
  facet normal 0 0 1
    outer loop
      vertex 56 32 2.01355
      vertex 48 40 2.01355
      vertex 48 32 2.01355
    endloop
  endfacet
  facet normal 0 1 -0
    outer loop
      vertex 56 40 2.01025
      vertex 48 40 2.01355
      vertex 56 40 2.01355
    endloop
  endfacet
  facet normal 0 1 0
    outer loop
      vertex 48 40 2.01355
      vertex 56 40 2.01025
      vertex 48 40 2.01025
    endloop
  endfacet
  facet normal -0 0 1
    outer loop
      vertex 48 48 2.01025
      vertex 56 40 2.01025
      vertex 56 48 2.01025
    endloop
  endfacet
  facet normal 0 0 1
    outer loop
      vertex 56 40 2.01025
      vertex 48 48 2.01025
      vertex 48 40 2.01025
    endloop
  endfacet
  facet normal 0 1 -0
    outer loop
      vertex 56 48 2.00294
      vertex 48 48 2.01025
      vertex 56 48 2.01025
    endloop
  endfacet
  facet normal 0 1 0
    outer loop
      vertex 48 48 2.01025
      vertex 56 48 2.00294
      vertex 48 48 2.00294
    endloop
  endfacet
  facet normal -0 0 1
    outer loop
      vertex 48 56 2.00294
      vertex 56 48 2.00294
      vertex 56 56 2.00294
    endloop
  endfacet
  facet normal 0 0 1
    outer loop
      vertex 56 48 2.00294
      vertex 48 56 2.00294
      vertex 48 48 2.00294
    endloop
  endfacet
  facet normal 0 -1 0
    outer loop
      vertex 48 56 2.00294
      vertex 56 56 2.00589
      vertex 48 56 2.00589
    endloop
  endfacet
  facet normal 0 -1 -0
    outer loop
      vertex 56 56 2.00589
      vertex 48 56 2.00294
      vertex 56 56 2.00294
    endloop
  endfacet
  facet normal -0 0 1
    outer loop
      vertex 48 64 2.00589
      vertex 56 56 2.00589
      vertex 56 64 2.00589
    endloop
  endfacet
  facet normal 0 0 1
    outer loop
      vertex 56 56 2.00589
      vertex 48 64 2.00589
      vertex 48 56 2.00589
    endloop
  endfacet
  facet normal -0 0 1
    outer loop
      vertex 56 8 3.1461
      vertex 64 0 3.1461
      vertex 64 8 3.1461
    endloop
  endfacet
  facet normal 0 0 1
    outer loop
      vertex 64 0 3.1461
      vertex 56 8 3.1461
      vertex 56 0 3.1461
    endloop
  endfacet
  facet normal 1 0 0
    outer loop
      vertex 64 8 3.1461
      vertex 64 0 3.1461
      vertex 64 8 2.26685
    endloop
  endfacet
  facet normal 1 0 0
    outer loop
      vertex 64 16 2.26685
      vertex 64 8 2.26685
      vertex 64 16 2.14456
    endloop
  endfacet
  facet normal 1 0 0
    outer loop
      vertex 64 24 2.14456
      vertex 64 16 2.14456
      vertex 64 24 2.08082
    endloop
  endfacet
  facet normal 1 0 0
    outer loop
      vertex 64 32 2.08082
      vertex 64 24 2.08082
      vertex 64 32 2.04925
    endloop
  endfacet
  facet normal 1 0 0
    outer loop
      vertex 64 40 2.04925
      vertex 64 32 2.04925
      vertex 64 40 2.03146
    endloop
  endfacet
  facet normal 1 0 0
    outer loop
      vertex 64 48 2.03146
      vertex 64 40 2.03146
      vertex 64 48 2.02945
    endloop
  endfacet
  facet normal 1 0 0
    outer loop
      vertex 64 56 2.02945
      vertex 64 48 2.02945
      vertex 64 56 2.02792
    endloop
  endfacet
  facet normal 1 -0 0
    outer loop
      vertex 64 56 2.02792
      vertex 64 64 0
      vertex 64 64 2.02792
    endloop
  endfacet
  facet normal 1 0 0
    outer loop
      vertex 64 48 2.02945
      vertex 64 64 0
      vertex 64 56 2.02792
    endloop
  endfacet
  facet normal 1 0 0
    outer loop
      vertex 64 40 2.03146
      vertex 64 64 0
      vertex 64 48 2.02945
    endloop
  endfacet
  facet normal 1 0 0
    outer loop
      vertex 64 32 2.04925
      vertex 64 64 0
      vertex 64 40 2.03146
    endloop
  endfacet
  facet normal 1 0 0
    outer loop
      vertex 64 0 0
      vertex 64 32 2.04925
      vertex 64 24 2.08082
    endloop
  endfacet
  facet normal 1 0 0
    outer loop
      vertex 64 0 0
      vertex 64 24 2.08082
      vertex 64 16 2.14456
    endloop
  endfacet
  facet normal 1 0 0
    outer loop
      vertex 64 0 0
      vertex 64 16 2.14456
      vertex 64 8 2.26685
    endloop
  endfacet
  facet normal 1 0 0
    outer loop
      vertex 64 32 2.04925
      vertex 64 0 0
      vertex 64 64 0
    endloop
  endfacet
  facet normal 1 0 0
    outer loop
      vertex 64 0 0
      vertex 64 8 2.26685
      vertex 64 0 3.1461
    endloop
  endfacet
  facet normal -0 0 1
    outer loop
      vertex 56 16 2.26685
      vertex 64 8 2.26685
      vertex 64 16 2.26685
    endloop
  endfacet
  facet normal 0 0 1
    outer loop
      vertex 64 8 2.26685
      vertex 56 16 2.26685
      vertex 56 8 2.26685
    endloop
  endfacet
  facet normal -0 0 1
    outer loop
      vertex 56 24 2.14456
      vertex 64 16 2.14456
      vertex 64 24 2.14456
    endloop
  endfacet
  facet normal 0 0 1
    outer loop
      vertex 64 16 2.14456
      vertex 56 24 2.14456
      vertex 56 16 2.14456
    endloop
  endfacet
  facet normal -0 0 1
    outer loop
      vertex 56 32 2.08082
      vertex 64 24 2.08082
      vertex 64 32 2.08082
    endloop
  endfacet
  facet normal 0 0 1
    outer loop
      vertex 64 24 2.08082
      vertex 56 32 2.08082
      vertex 56 24 2.08082
    endloop
  endfacet
  facet normal 0 1 -0
    outer loop
      vertex 64 32 2.04925
      vertex 56 32 2.08082
      vertex 64 32 2.08082
    endloop
  endfacet
  facet normal 0 1 0
    outer loop
      vertex 56 32 2.08082
      vertex 64 32 2.04925
      vertex 56 32 2.04925
    endloop
  endfacet
  facet normal -0 0 1
    outer loop
      vertex 56 40 2.04925
      vertex 64 32 2.04925
      vertex 64 40 2.04925
    endloop
  endfacet
  facet normal 0 0 1
    outer loop
      vertex 64 32 2.04925
      vertex 56 40 2.04925
      vertex 56 32 2.04925
    endloop
  endfacet
  facet normal 0 1 -0
    outer loop
      vertex 64 40 2.03146
      vertex 56 40 2.04925
      vertex 64 40 2.04925
    endloop
  endfacet
  facet normal 0 1 0
    outer loop
      vertex 56 40 2.04925
      vertex 64 40 2.03146
      vertex 56 40 2.03146
    endloop
  endfacet
  facet normal -0 0 1
    outer loop
      vertex 56 48 2.03146
      vertex 64 40 2.03146
      vertex 64 48 2.03146
    endloop
  endfacet
  facet normal 0 0 1
    outer loop
      vertex 64 40 2.03146
      vertex 56 48 2.03146
      vertex 56 40 2.03146
    endloop
  endfacet
  facet normal 0 1 -0
    outer loop
      vertex 64 48 2.02945
      vertex 56 48 2.03146
      vertex 64 48 2.03146
    endloop
  endfacet
  facet normal 0 1 0
    outer loop
      vertex 56 48 2.03146
      vertex 64 48 2.02945
      vertex 56 48 2.02945
    endloop
  endfacet
  facet normal -0 0 1
    outer loop
      vertex 56 56 2.02945
      vertex 64 48 2.02945
      vertex 64 56 2.02945
    endloop
  endfacet
  facet normal 0 0 1
    outer loop
      vertex 64 48 2.02945
      vertex 56 56 2.02945
      vertex 56 48 2.02945
    endloop
  endfacet
  facet normal 0 1 -0
    outer loop
      vertex 64 56 2.02792
      vertex 56 56 2.02945
      vertex 64 56 2.02945
    endloop
  endfacet
  facet normal 0 1 0
    outer loop
      vertex 56 56 2.02945
      vertex 64 56 2.02792
      vertex 56 56 2.02792
    endloop
  endfacet
  facet normal -0 0 1
    outer loop
      vertex 56 64 2.02792
      vertex 64 56 2.02792
      vertex 64 64 2.02792
    endloop
  endfacet
  facet normal 0 0 1
    outer loop
      vertex 64 56 2.02792
      vertex 56 64 2.02792
      vertex 56 56 2.02792
    endloop
  endfacet
endsolid OpenSCAD_Model
