  0
SECTION
  2
HEADER
  9
$ACADVER
  1
AC1014
  9
$HANDSEED
  5
FFFF
  9
$MEASUREMENT
 70
     1
  0
ENDSEC
  0
SECTION
  2
TABLES
  0
TABLE
  2
VPORT
  5
8
330
0
100
AcDbSymbolTable
 70
     4
  0
VPORT
  5
2E
330
8
100
AcDbSymbolTableRecord
100
AcDbViewportTableRecord
  2
*ACTIVE
 70
     0
 10
0.0
 20
0.0
 11
1.0
 21
1.0
 12
210.0
 22
148.5
 13
0.0
 23
0.0
 14
10.0
 24
10.0
 15
10.0
 25
10.0
 16
0.0
 26
0.0
 36
1.0
 17
0.0
 27
0.0
 37
0.0
 40
341.0
 41
1.24
 42
50.0
 43
0.0
 44
0.0
 50
0.0
 51
0.0
 71
     0
 72
   100
 73
     1
 74
     3
 75
     0
 76
     0
 77
     0
 78
     0
  0
ENDTAB
  0
TABLE
  2
LTYPE
  5
5
330
0
100
AcDbSymbolTable
 70
     1
  0
LTYPE
  5
14
330
5
100
AcDbSymbolTableRecord
100
AcDbLinetypeTableRecord
  2
BYBLOCK
 70
     0
  3

 72
    65
 73
     0
 40
0.0
  0
LTYPE
  5
15
330
5
100
AcDbSymbolTableRecord
100
AcDbLinetypeTableRecord
  2
BYLAYER
 70
     0
  3

 72
    65
 73
     0
 40
0.0
  0
LTYPE
  5
16
330
5
100
AcDbSymbolTableRecord
100
AcDbLinetypeTableRecord
  2
CONTINUOUS
 70
     0
  3
Solid line
 72
    65
 73
     0
 40
0.0
  0
ENDTAB
  0
TABLE
  2
LAYER
  5
2
100
AcDbSymbolTable
 70
1
  0
LAYER
  5
50
100
AcDbSymbolTableRecord
100
AcDbLayerTableRecord
  2
0
 70
0
  6
CONTINUOUS
  0
ENDTAB
  0
TABLE
  2
STYLE
  5
3
330
0
100
AcDbSymbolTable
 70
     1
  0
STYLE
  5
11
330
3
100
AcDbSymbolTableRecord
100
AcDbTextStyleTableRecord
  2
STANDARD
 70
     0
 40
0.0
 41
1.0
 50
0.0
 71
     0
 42
2.5
  3
txt
  4

  0
ENDTAB
  0
TABLE
  2
VIEW
  5
6
330
0
100
AcDbSymbolTable
 70
     0
  0
ENDTAB
  0
TABLE
  2
UCS
  5
7
330
0
100
AcDbSymbolTable
 70
     0
  0
ENDTAB
  0
TABLE
  2
APPID
  5
9
330
0
100
AcDbSymbolTable
 70
     2
  0
APPID
  5
12
330
9
100
AcDbSymbolTableRecord
100
AcDbRegAppTableRecord
  2
ACAD
 70
     0
  0
ENDTAB
  0
TABLE
  2
DIMSTYLE
  5
A
330
0
100
AcDbSymbolTable
 70
     1
  0
DIMSTYLE
105
27
330
A
100
AcDbSymbolTableRecord
100
AcDbDimStyleTableRecord
  2
ISO-25
 70
     0
  3

  4

  5

  6

  7

 40
1.0
 41
2.5
 42
0.625
 43
3.75
 44
1.25
 45
0.0
 46
0.0
 47
0.0
 48
0.0
140
2.5
141
2.5
142
0.0
143
0.03937007874016
144
1.0
145
0.0
146
1.0
147
0.625
 71
     0
 72
     0
 73
     0
 74
     0
 75
     0
 76
     0
 77
     1
 78
     8
170
     0
171
     3
172
     1
173
     0
174
     0
175
     0
176
     0
177
     0
178
     0
270
     2
271
     2
272
     2
273
     2
274
     3
340
11
275
     0
280
     0
281
     0
282
     0
283
     0
284
     8
285
     0
286
     0
287
     3
288
     0
  0
ENDTAB
  0
TABLE
  2
BLOCK_RECORD
  5
1
330
0
100
AcDbSymbolTable
 70
     1
  0
BLOCK_RECORD
  5
1F
330
1
100
AcDbSymbolTableRecord
100
AcDbBlockTableRecord
  2
*MODEL_SPACE
  0
BLOCK_RECORD
  5
1B
330
1
100
AcDbSymbolTableRecord
100
AcDbBlockTableRecord
  2
*PAPER_SPACE
  0
ENDTAB
  0
ENDSEC
  0
SECTION
  2
BLOCKS
  0
BLOCK
  5
20
330
1F
100
AcDbEntity
  8
0
100
AcDbBlockBegin
  2
*MODEL_SPACE
 70
     0
 10
0.0
 20
0.0
 30
0.0
  3
*MODEL_SPACE
  1

  0
ENDBLK
  5
21
330
1F
100
AcDbEntity
  8
0
100
AcDbBlockEnd
  0
BLOCK
  5
1C
330
1B
100
AcDbEntity
 67
     1
  8
0
100
AcDbBlockBegin
  2
*PAPER_SPACE
  1

  0
ENDBLK
  5
1D
330
1B
100
AcDbEntity
 67
     1
  8
0
100
AcDbBlockEnd
  0
ENDSEC
  0
SECTION
  2
ENTITIES
  0
SPLINE
  5
100
100
AcDbEntity
  8
0
 62
7
100
AcDbSpline
 70
8
 71
3
 72
8
 73
4
 74
0
 40
0
 40
0
 40
0
 40
0
 40
1
 40
1
 40
1
 40
1
 10
-400.992989
 20
178.607098
 30
0.0
 10
-442.357075
 20
178.606999
 30
0.0
 10
-475.889270
 20
145.074811
 30
0.0
 10
-475.889376
 20
103.710724
 30
0.0
  0
SPLINE
  5
101
100
AcDbEntity
  8
0
 62
7
100
AcDbSpline
 70
8
 71
3
 72
8
 73
4
 74
0
 40
0
 40
0
 40
0
 40
0
 40
1
 40
1
 40
1
 40
1
 10
-475.889376
 20
103.710724
 30
0.0
 10
-475.888270
 20
103.677467
 30
0.0
 10
-475.887141
 20
103.644210
 30
0.0
 10
-475.885990
 20
103.610953
 30
0.0
  0
SPLINE
  5
102
100
AcDbEntity
  8
0
 62
7
100
AcDbSpline
 70
8
 71
3
 72
8
 73
4
 74
0
 40
0
 40
0
 40
0
 40
0
 40
1
 40
1
 40
1
 40
1
 10
-475.885990
 20
103.610953
 30
0.0
 10
-475.885990
 20
103.610953
 30
0.0
 10
-326.100948
 20
103.610953
 30
0.0
 10
-326.100948
 20
103.610953
 30
0.0
  0
SPLINE
  5
103
100
AcDbEntity
  8
0
 62
7
100
AcDbSpline
 70
8
 71
3
 72
8
 73
4
 74
0
 40
0
 40
0
 40
0
 40
0
 40
1
 40
1
 40
1
 40
1
 10
-326.100948
 20
103.610953
 30
0.0
 10
-326.099232
 20
103.644209
 30
0.0
 10
-326.097539
 20
103.677466
 30
0.0
 10
-326.095868
 20
103.710724
 30
0.0
  0
SPLINE
  5
104
100
AcDbEntity
  8
0
 62
7
100
AcDbSpline
 70
8
 71
3
 72
8
 73
4
 74
0
 40
0
 40
0
 40
0
 40
0
 40
1
 40
1
 40
1
 40
1
 10
-326.095868
 20
103.710724
 30
0.0
 10
-326.095919
 20
123.574557
 30
0.0
 10
-333.986856
 20
142.624797
 30
0.0
 10
-348.032759
 20
156.670596
 30
0.0
  0
SPLINE
  5
105
100
AcDbEntity
  8
0
 62
7
100
AcDbSpline
 70
8
 71
3
 72
8
 73
4
 74
0
 40
0
 40
0
 40
0
 40
0
 40
1
 40
1
 40
1
 40
1
 10
-348.032759
 20
156.670596
 30
0.0
 10
-362.078661
 20
170.716396
 30
0.0
 10
-381.128959
 20
178.607193
 30
0.0
 10
-400.992792
 20
178.607098
 30
0.0
  0
SPLINE
  5
106
100
AcDbEntity
  8
0
 62
7
100
AcDbSpline
 70
8
 71
3
 72
8
 73
4
 74
0
 40
0
 40
0
 40
0
 40
0
 40
1
 40
1
 40
1
 40
1
 10
-401.959713
 20
-121.911476
 30
0.0
 10
-427.762642
 20
-121.708896
 30
0.0
 10
-453.176301
 20
-136.789892
 30
0.0
 10
-465.181103
 20
-159.697786
 30
0.0
  0
SPLINE
  5
107
100
AcDbEntity
  8
0
 62
7
100
AcDbSpline
 70
8
 71
3
 72
8
 73
4
 74
0
 40
0
 40
0
 40
0
 40
0
 40
1
 40
1
 40
1
 40
1
 10
-465.181103
 20
-159.697786
 30
0.0
 10
-470.387313
 20
-169.340218
 30
0.0
 10
-473.406216
 20
-180.215990
 30
0.0
 10
-473.842588
 20
-191.211904
 30
0.0
  0
SPLINE
  5
108
100
AcDbEntity
  8
0
 62
7
100
AcDbSpline
 70
8
 71
3
 72
8
 73
4
 74
0
 40
0
 40
0
 40
0
 40
0
 40
1
 40
1
 40
1
 40
1
 10
-473.842588
 20
-191.211904
 30
0.0
 10
-425.842769
 20
-191.211904
 30
0.0
 10
-377.842949
 20
-191.211904
 30
0.0
 10
-329.843130
 20
-191.211904
 30
0.0
  0
SPLINE
  5
109
100
AcDbEntity
  8
0
 62
7
100
AcDbSpline
 70
8
 71
3
 72
8
 73
4
 74
0
 40
0
 40
0
 40
0
 40
0
 40
1
 40
1
 40
1
 40
1
 10
-329.843130
 20
-191.211904
 30
0.0
 10
-330.651725
 20
-166.185933
 30
0.0
 10
-345.605128
 20
-141.958567
 30
0.0
 10
-367.924419
 20
-130.411049
 30
0.0
  0
SPLINE
  5
10a
100
AcDbEntity
  8
0
 62
7
100
AcDbSpline
 70
8
 71
3
 72
8
 73
4
 74
0
 40
0
 40
0
 40
0
 40
0
 40
1
 40
1
 40
1
 40
1
 10
-367.924419
 20
-130.411049
 30
0.0
 10
-378.321711
 20
-124.874132
 30
0.0
 10
-390.163276
 20
-121.849923
 30
0.0
 10
-401.959713
 20
-121.911476
 30
0.0
  0
LWPOLYLINE
  5
10b
100
AcDbEntity
  8
0
 62
7
100
AcDbPolyline
 90
2
 70
1
 10
-400.992792
 20
178.607098
 30
0.0
 10
-400.992989
 20
178.607098
 30
0.0
  0
SPLINE
  5
10c
100
AcDbEntity
  8
0
 62
7
100
AcDbSpline
 70
8
 71
3
 72
8
 73
4
 74
0
 40
0
 40
0
 40
0
 40
0
 40
1
 40
1
 40
1
 40
1
 10
-230.606679
 20
250.082286
 30
0.0
 10
-271.970768
 20
250.082190
 30
0.0
 10
-305.502966
 20
216.550001
 30
0.0
 10
-305.503072
 20
175.185912
 30
0.0
  0
SPLINE
  5
10d
100
AcDbEntity
  8
0
 62
7
100
AcDbSpline
 70
8
 71
3
 72
8
 73
4
 74
0
 40
0
 40
0
 40
0
 40
0
 40
1
 40
1
 40
1
 40
1
 10
-305.503072
 20
175.185912
 30
0.0
 10
-305.501965
 20
175.152655
 30
0.0
 10
-305.500836
 20
175.119397
 30
0.0
 10
-305.499685
 20
175.086141
 30
0.0
  0
SPLINE
  5
10e
100
AcDbEntity
  8
0
 62
7
100
AcDbSpline
 70
8
 71
3
 72
8
 73
4
 74
0
 40
0
 40
0
 40
0
 40
0
 40
1
 40
1
 40
1
 40
1
 10
-305.499685
 20
175.086141
 30
0.0
 10
-305.499685
 20
175.086141
 30
0.0
 10
-155.714629
 20
175.086141
 30
0.0
 10
-155.714629
 20
175.086141
 30
0.0
  0
SPLINE
  5
10f
100
AcDbEntity
  8
0
 62
7
100
AcDbSpline
 70
8
 71
3
 72
8
 73
4
 74
0
 40
0
 40
0
 40
0
 40
0
 40
1
 40
1
 40
1
 40
1
 10
-155.714629
 20
175.086141
 30
0.0
 10
-155.712952
 20
175.119397
 30
0.0
 10
-155.711296
 20
175.152654
 30
0.0
 10
-155.709662
 20
175.185912
 30
0.0
  0
SPLINE
  5
110
100
AcDbEntity
  8
0
 62
7
100
AcDbSpline
 70
8
 71
3
 72
8
 73
4
 74
0
 40
0
 40
0
 40
0
 40
0
 40
1
 40
1
 40
1
 40
1
 10
-155.709662
 20
175.185912
 30
0.0
 10
-155.709713
 20
195.049761
 30
0.0
 10
-163.600663
 20
214.100015
 30
0.0
 10
-177.646586
 20
228.145817
 30
0.0
  0
SPLINE
  5
111
100
AcDbEntity
  8
0
 62
7
100
AcDbSpline
 70
8
 71
3
 72
8
 73
4
 74
0
 40
0
 40
0
 40
0
 40
0
 40
1
 40
1
 40
1
 40
1
 10
-177.646586
 20
228.145817
 30
0.0
 10
-191.692509
 20
242.191619
 30
0.0
 10
-210.742830
 20
250.082405
 30
0.0
 10
-230.606679
 20
250.082286
 30
0.0
  0
LWPOLYLINE
  5
112
100
AcDbEntity
  8
0
 62
7
100
AcDbPolyline
 90
2
 70
1
 10
-401.959713
 20
-121.911476
 30
0.0
 10
-401.959713
 20
-121.911476
 30
0.0
  0
SPLINE
  5
113
100
AcDbEntity
  8
0
 62
7
100
AcDbSpline
 70
8
 71
3
 72
8
 73
4
 74
0
 40
0
 40
0
 40
0
 40
0
 40
1
 40
1
 40
1
 40
1
 10
-92.249896
 20
22.838792
 30
0.0
 10
-118.052833
 20
23.041371
 30
0.0
 10
-143.466498
 20
7.960361
 30
0.0
 10
-155.471300
 20
-14.947532
 30
0.0
  0
SPLINE
  5
114
100
AcDbEntity
  8
0
 62
7
100
AcDbSpline
 70
8
 71
3
 72
8
 73
4
 74
0
 40
0
 40
0
 40
0
 40
0
 40
1
 40
1
 40
1
 40
1
 10
-155.471300
 20
-14.947532
 30
0.0
 10
-160.677510
 20
-24.589964
 30
0.0
 10
-163.696413
 20
-35.465736
 30
0.0
 10
-164.132785
 20
-46.461650
 30
0.0
  0
SPLINE
  5
115
100
AcDbEntity
  8
0
 62
7
100
AcDbSpline
 70
8
 71
3
 72
8
 73
4
 74
0
 40
0
 40
0
 40
0
 40
0
 40
1
 40
1
 40
1
 40
1
 10
-164.132785
 20
-46.461650
 30
0.0
 10
-116.132951
 20
-46.461650
 30
0.0
 10
-68.133124
 20
-46.461650
 30
0.0
 10
-20.133299
 20
-46.461650
 30
0.0
  0
SPLINE
  5
116
100
AcDbEntity
  8
0
 62
7
100
AcDbSpline
 70
8
 71
3
 72
8
 73
4
 74
0
 40
0
 40
0
 40
0
 40
0
 40
1
 40
1
 40
1
 40
1
 10
-20.133299
 20
-46.461650
 30
0.0
 10
-20.941908
 20
-21.435680
 30
0.0
 10
-35.895320
 20
2.791659
 30
0.0
 10
-58.214610
 20
14.339233
 30
0.0
  0
SPLINE
  5
117
100
AcDbEntity
  8
0
 62
7
100
AcDbSpline
 70
8
 71
3
 72
8
 73
4
 74
0
 40
0
 40
0
 40
0
 40
0
 40
1
 40
1
 40
1
 40
1
 10
-58.214610
 20
14.339233
 30
0.0
 10
-68.611883
 20
19.876136
 30
0.0
 10
-80.453447
 20
22.900345
 30
0.0
 10
-92.249896
 20
22.838792
 30
0.0
  0
LWPOLYLINE
  5
118
100
AcDbEntity
  8
0
 62
7
100
AcDbPolyline
 90
2
 70
1
 10
-230.606679
 20
250.082286
 30
0.0
 10
-230.606679
 20
250.082286
 30
0.0
  0
LWPOLYLINE
  5
119
100
AcDbEntity
  8
0
 62
7
100
AcDbPolyline
 90
2
 70
1
 10
-92.249896
 20
22.838792
 30
0.0
 10
-92.249896
 20
22.838792
 30
0.0
  0
LWPOLYLINE
  5
11a
100
AcDbEntity
  8
0
 62
7
100
AcDbPolyline
 90
6
 70
1
 10
-458.417337
 20
90.960071
 30
0.0
 10
-232.706347
 20
90.960071
 30
0.0
 10
-232.706347
 20
-111.750911
 30
0.0
 10
-458.417337
 20
-111.750911
 30
0.0
 10
-458.417337
 20
90.960071
 30
0.0
 10
-458.417337
 20
76.695001
 30
0.0
  0
LWPOLYLINE
  5
11b
100
AcDbEntity
  8
0
 62
7
100
AcDbPolyline
 90
2
 70
0
 10
-458.417337
 20
73.695001
 30
0.0
 10
-458.417337
 20
48.164860
 30
0.0
  0
LWPOLYLINE
  5
11c
100
AcDbEntity
  8
0
 62
7
100
AcDbPolyline
 90
2
 70
0
 10
-458.417337
 20
45.164860
 30
0.0
 10
-458.417337
 20
19.634719
 30
0.0
  0
LWPOLYLINE
  5
11d
100
AcDbEntity
  8
0
 62
7
100
AcDbPolyline
 90
2
 70
0
 10
-458.417337
 20
16.634719
 30
0.0
 10
-458.417337
 20
-8.895421
 30
0.0
  0
LWPOLYLINE
  5
11e
100
AcDbEntity
  8
0
 62
7
100
AcDbPolyline
 90
2
 70
0
 10
-458.417337
 20
-11.895421
 30
0.0
 10
-458.417337
 20
-37.425562
 30
0.0
  0
LWPOLYLINE
  5
11f
100
AcDbEntity
  8
0
 62
7
100
AcDbPolyline
 90
2
 70
0
 10
-458.417337
 20
-40.425562
 30
0.0
 10
-458.417337
 20
-65.955703
 30
0.0
  0
LWPOLYLINE
  5
120
100
AcDbEntity
  8
0
 62
7
100
AcDbPolyline
 90
2
 70
0
 10
-458.417337
 20
-68.955703
 30
0.0
 10
-458.417337
 20
-94.485844
 30
0.0
  0
LWPOLYLINE
  5
121
100
AcDbEntity
  8
0
 62
7
100
AcDbPolyline
 90
2
 70
0
 10
-458.417337
 20
-97.485844
 30
0.0
 10
-458.417337
 20
-111.750914
 30
0.0
  0
LWPOLYLINE
  5
122
100
AcDbEntity
  8
0
 62
7
100
AcDbPolyline
 90
2
 70
0
 10
-454.457496
 20
90.960071
 30
0.0
 10
-454.457496
 20
76.695001
 30
0.0
  0
LWPOLYLINE
  5
123
100
AcDbEntity
  8
0
 62
7
100
AcDbPolyline
 90
2
 70
0
 10
-454.457496
 20
73.695001
 30
0.0
 10
-454.457496
 20
48.164860
 30
0.0
  0
LWPOLYLINE
  5
124
100
AcDbEntity
  8
0
 62
7
100
AcDbPolyline
 90
2
 70
0
 10
-454.457496
 20
45.164860
 30
0.0
 10
-454.457496
 20
19.634719
 30
0.0
  0
LWPOLYLINE
  5
125
100
AcDbEntity
  8
0
 62
7
100
AcDbPolyline
 90
2
 70
0
 10
-454.457496
 20
16.634719
 30
0.0
 10
-454.457496
 20
-8.895421
 30
0.0
  0
LWPOLYLINE
  5
126
100
AcDbEntity
  8
0
 62
7
100
AcDbPolyline
 90
2
 70
0
 10
-454.457496
 20
-11.895421
 30
0.0
 10
-454.457496
 20
-37.425562
 30
0.0
  0
LWPOLYLINE
  5
127
100
AcDbEntity
  8
0
 62
7
100
AcDbPolyline
 90
2
 70
0
 10
-454.457496
 20
-40.425562
 30
0.0
 10
-454.457496
 20
-65.955703
 30
0.0
  0
LWPOLYLINE
  5
128
100
AcDbEntity
  8
0
 62
7
100
AcDbPolyline
 90
2
 70
0
 10
-454.457496
 20
-68.955703
 30
0.0
 10
-454.457496
 20
-94.485844
 30
0.0
  0
LWPOLYLINE
  5
129
100
AcDbEntity
  8
0
 62
7
100
AcDbPolyline
 90
2
 70
0
 10
-454.457496
 20
-97.485844
 30
0.0
 10
-454.457496
 20
-111.750914
 30
0.0
  0
LWPOLYLINE
  5
12a
100
AcDbEntity
  8
0
 62
7
100
AcDbPolyline
 90
2
 70
0
 10
-450.497654
 20
90.960071
 30
0.0
 10
-450.497654
 20
76.695001
 30
0.0
  0
LWPOLYLINE
  5
12b
100
AcDbEntity
  8
0
 62
7
100
AcDbPolyline
 90
2
 70
0
 10
-450.497654
 20
73.695001
 30
0.0
 10
-450.497654
 20
48.164860
 30
0.0
  0
LWPOLYLINE
  5
12c
100
AcDbEntity
  8
0
 62
7
100
AcDbPolyline
 90
2
 70
0
 10
-450.497654
 20
45.164860
 30
0.0
 10
-450.497654
 20
19.634719
 30
0.0
  0
LWPOLYLINE
  5
12d
100
AcDbEntity
  8
0
 62
7
100
AcDbPolyline
 90
2
 70
0
 10
-450.497654
 20
16.634719
 30
0.0
 10
-450.497654
 20
-8.895421
 30
0.0
  0
LWPOLYLINE
  5
12e
100
AcDbEntity
  8
0
 62
7
100
AcDbPolyline
 90
2
 70
0
 10
-450.497654
 20
-11.895421
 30
0.0
 10
-450.497654
 20
-37.425562
 30
0.0
  0
LWPOLYLINE
  5
12f
100
AcDbEntity
  8
0
 62
7
100
AcDbPolyline
 90
2
 70
0
 10
-450.497654
 20
-40.425562
 30
0.0
 10
-450.497654
 20
-65.955703
 30
0.0
  0
LWPOLYLINE
  5
130
100
AcDbEntity
  8
0
 62
7
100
AcDbPolyline
 90
2
 70
0
 10
-450.497654
 20
-68.955703
 30
0.0
 10
-450.497654
 20
-94.485844
 30
0.0
  0
LWPOLYLINE
  5
131
100
AcDbEntity
  8
0
 62
7
100
AcDbPolyline
 90
2
 70
0
 10
-450.497654
 20
-97.485844
 30
0.0
 10
-450.497654
 20
-111.750914
 30
0.0
  0
LWPOLYLINE
  5
132
100
AcDbEntity
  8
0
 62
7
100
AcDbPolyline
 90
2
 70
0
 10
-446.537812
 20
90.960071
 30
0.0
 10
-446.537812
 20
76.695001
 30
0.0
  0
LWPOLYLINE
  5
133
100
AcDbEntity
  8
0
 62
7
100
AcDbPolyline
 90
2
 70
0
 10
-446.537812
 20
73.695001
 30
0.0
 10
-446.537812
 20
48.164860
 30
0.0
  0
LWPOLYLINE
  5
134
100
AcDbEntity
  8
0
 62
7
100
AcDbPolyline
 90
2
 70
0
 10
-446.537812
 20
45.164860
 30
0.0
 10
-446.537812
 20
19.634719
 30
0.0
  0
LWPOLYLINE
  5
135
100
AcDbEntity
  8
0
 62
7
100
AcDbPolyline
 90
2
 70
0
 10
-446.537812
 20
16.634719
 30
0.0
 10
-446.537812
 20
-8.895421
 30
0.0
  0
LWPOLYLINE
  5
136
100
AcDbEntity
  8
0
 62
7
100
AcDbPolyline
 90
2
 70
0
 10
-446.537812
 20
-11.895421
 30
0.0
 10
-446.537812
 20
-37.425562
 30
0.0
  0
LWPOLYLINE
  5
137
100
AcDbEntity
  8
0
 62
7
100
AcDbPolyline
 90
2
 70
0
 10
-446.537812
 20
-40.425562
 30
0.0
 10
-446.537812
 20
-65.955703
 30
0.0
  0
LWPOLYLINE
  5
138
100
AcDbEntity
  8
0
 62
7
100
AcDbPolyline
 90
2
 70
0
 10
-446.537812
 20
-68.955703
 30
0.0
 10
-446.537812
 20
-94.485844
 30
0.0
  0
LWPOLYLINE
  5
139
100
AcDbEntity
  8
0
 62
7
100
AcDbPolyline
 90
2
 70
0
 10
-446.537812
 20
-97.485844
 30
0.0
 10
-446.537812
 20
-111.750914
 30
0.0
  0
LWPOLYLINE
  5
13a
100
AcDbEntity
  8
0
 62
7
100
AcDbPolyline
 90
2
 70
0
 10
-442.577970
 20
90.960071
 30
0.0
 10
-442.577970
 20
76.695001
 30
0.0
  0
LWPOLYLINE
  5
13b
100
AcDbEntity
  8
0
 62
7
100
AcDbPolyline
 90
2
 70
0
 10
-442.577970
 20
73.695001
 30
0.0
 10
-442.577970
 20
48.164860
 30
0.0
  0
LWPOLYLINE
  5
13c
100
AcDbEntity
  8
0
 62
7
100
AcDbPolyline
 90
2
 70
0
 10
-442.577970
 20
45.164860
 30
0.0
 10
-442.577970
 20
19.634719
 30
0.0
  0
LWPOLYLINE
  5
13d
100
AcDbEntity
  8
0
 62
7
100
AcDbPolyline
 90
2
 70
0
 10
-442.577970
 20
16.634719
 30
0.0
 10
-442.577970
 20
-8.895421
 30
0.0
  0
LWPOLYLINE
  5
13e
100
AcDbEntity
  8
0
 62
7
100
AcDbPolyline
 90
2
 70
0
 10
-442.577970
 20
-11.895421
 30
0.0
 10
-442.577970
 20
-37.425562
 30
0.0
  0
LWPOLYLINE
  5
13f
100
AcDbEntity
  8
0
 62
7
100
AcDbPolyline
 90
2
 70
0
 10
-442.577970
 20
-40.425562
 30
0.0
 10
-442.577970
 20
-65.955703
 30
0.0
  0
LWPOLYLINE
  5
140
100
AcDbEntity
  8
0
 62
7
100
AcDbPolyline
 90
2
 70
0
 10
-442.577970
 20
-68.955703
 30
0.0
 10
-442.577970
 20
-94.485844
 30
0.0
  0
LWPOLYLINE
  5
141
100
AcDbEntity
  8
0
 62
7
100
AcDbPolyline
 90
2
 70
0
 10
-442.577970
 20
-97.485844
 30
0.0
 10
-442.577970
 20
-111.750914
 30
0.0
  0
LWPOLYLINE
  5
142
100
AcDbEntity
  8
0
 62
7
100
AcDbPolyline
 90
2
 70
0
 10
-438.618129
 20
90.960071
 30
0.0
 10
-438.618129
 20
76.695001
 30
0.0
  0
LWPOLYLINE
  5
143
100
AcDbEntity
  8
0
 62
7
100
AcDbPolyline
 90
2
 70
0
 10
-438.618129
 20
73.695001
 30
0.0
 10
-438.618129
 20
48.164860
 30
0.0
  0
LWPOLYLINE
  5
144
100
AcDbEntity
  8
0
 62
7
100
AcDbPolyline
 90
2
 70
0
 10
-438.618129
 20
45.164860
 30
0.0
 10
-438.618129
 20
19.634719
 30
0.0
  0
LWPOLYLINE
  5
145
100
AcDbEntity
  8
0
 62
7
100
AcDbPolyline
 90
2
 70
0
 10
-438.618129
 20
16.634719
 30
0.0
 10
-438.618129
 20
-8.895421
 30
0.0
  0
LWPOLYLINE
  5
146
100
AcDbEntity
  8
0
 62
7
100
AcDbPolyline
 90
2
 70
0
 10
-438.618129
 20
-11.895421
 30
0.0
 10
-438.618129
 20
-37.425562
 30
0.0
  0
LWPOLYLINE
  5
147
100
AcDbEntity
  8
0
 62
7
100
AcDbPolyline
 90
2
 70
0
 10
-438.618129
 20
-40.425562
 30
0.0
 10
-438.618129
 20
-65.955703
 30
0.0
  0
LWPOLYLINE
  5
148
100
AcDbEntity
  8
0
 62
7
100
AcDbPolyline
 90
2
 70
0
 10
-438.618129
 20
-68.955703
 30
0.0
 10
-438.618129
 20
-94.485844
 30
0.0
  0
LWPOLYLINE
  5
149
100
AcDbEntity
  8
0
 62
7
100
AcDbPolyline
 90
2
 70
0
 10
-438.618129
 20
-97.485844
 30
0.0
 10
-438.618129
 20
-111.750914
 30
0.0
  0
LWPOLYLINE
  5
14a
100
AcDbEntity
  8
0
 62
7
100
AcDbPolyline
 90
2
 70
0
 10
-434.658287
 20
90.960071
 30
0.0
 10
-434.658287
 20
76.695001
 30
0.0
  0
LWPOLYLINE
  5
14b
100
AcDbEntity
  8
0
 62
7
100
AcDbPolyline
 90
2
 70
0
 10
-434.658287
 20
73.695001
 30
0.0
 10
-434.658287
 20
48.164860
 30
0.0
  0
LWPOLYLINE
  5
14c
100
AcDbEntity
  8
0
 62
7
100
AcDbPolyline
 90
2
 70
0
 10
-434.658287
 20
45.164860
 30
0.0
 10
-434.658287
 20
19.634719
 30
0.0
  0
LWPOLYLINE
  5
14d
100
AcDbEntity
  8
0
 62
7
100
AcDbPolyline
 90
2
 70
0
 10
-434.658287
 20
16.634719
 30
0.0
 10
-434.658287
 20
-8.895421
 30
0.0
  0
LWPOLYLINE
  5
14e
100
AcDbEntity
  8
0
 62
7
100
AcDbPolyline
 90
2
 70
0
 10
-434.658287
 20
-11.895421
 30
0.0
 10
-434.658287
 20
-37.425562
 30
0.0
  0
LWPOLYLINE
  5
14f
100
AcDbEntity
  8
0
 62
7
100
AcDbPolyline
 90
2
 70
0
 10
-434.658287
 20
-40.425562
 30
0.0
 10
-434.658287
 20
-65.955703
 30
0.0
  0
LWPOLYLINE
  5
150
100
AcDbEntity
  8
0
 62
7
100
AcDbPolyline
 90
2
 70
0
 10
-434.658287
 20
-68.955703
 30
0.0
 10
-434.658287
 20
-94.485844
 30
0.0
  0
LWPOLYLINE
  5
151
100
AcDbEntity
  8
0
 62
7
100
AcDbPolyline
 90
2
 70
0
 10
-434.658287
 20
-97.485844
 30
0.0
 10
-434.658287
 20
-111.750914
 30
0.0
  0
LWPOLYLINE
  5
152
100
AcDbEntity
  8
0
 62
7
100
AcDbPolyline
 90
2
 70
0
 10
-430.698445
 20
90.960071
 30
0.0
 10
-430.698445
 20
76.695001
 30
0.0
  0
LWPOLYLINE
  5
153
100
AcDbEntity
  8
0
 62
7
100
AcDbPolyline
 90
2
 70
0
 10
-430.698445
 20
73.695001
 30
0.0
 10
-430.698445
 20
48.164860
 30
0.0
  0
LWPOLYLINE
  5
154
100
AcDbEntity
  8
0
 62
7
100
AcDbPolyline
 90
2
 70
0
 10
-430.698445
 20
45.164860
 30
0.0
 10
-430.698445
 20
19.634719
 30
0.0
  0
LWPOLYLINE
  5
155
100
AcDbEntity
  8
0
 62
7
100
AcDbPolyline
 90
2
 70
0
 10
-430.698445
 20
16.634719
 30
0.0
 10
-430.698445
 20
-8.895421
 30
0.0
  0
LWPOLYLINE
  5
156
100
AcDbEntity
  8
0
 62
7
100
AcDbPolyline
 90
2
 70
0
 10
-430.698445
 20
-11.895421
 30
0.0
 10
-430.698445
 20
-37.425562
 30
0.0
  0
LWPOLYLINE
  5
157
100
AcDbEntity
  8
0
 62
7
100
AcDbPolyline
 90
2
 70
0
 10
-430.698445
 20
-40.425562
 30
0.0
 10
-430.698445
 20
-65.955703
 30
0.0
  0
LWPOLYLINE
  5
158
100
AcDbEntity
  8
0
 62
7
100
AcDbPolyline
 90
2
 70
0
 10
-430.698445
 20
-68.955703
 30
0.0
 10
-430.698445
 20
-94.485844
 30
0.0
  0
LWPOLYLINE
  5
159
100
AcDbEntity
  8
0
 62
7
100
AcDbPolyline
 90
2
 70
0
 10
-430.698445
 20
-97.485844
 30
0.0
 10
-430.698445
 20
-111.750914
 30
0.0
  0
LWPOLYLINE
  5
15a
100
AcDbEntity
  8
0
 62
7
100
AcDbPolyline
 90
2
 70
0
 10
-426.738603
 20
90.960071
 30
0.0
 10
-426.738603
 20
76.695001
 30
0.0
  0
LWPOLYLINE
  5
15b
100
AcDbEntity
  8
0
 62
7
100
AcDbPolyline
 90
2
 70
0
 10
-426.738603
 20
73.695001
 30
0.0
 10
-426.738603
 20
48.164860
 30
0.0
  0
LWPOLYLINE
  5
15c
100
AcDbEntity
  8
0
 62
7
100
AcDbPolyline
 90
2
 70
0
 10
-426.738603
 20
45.164860
 30
0.0
 10
-426.738603
 20
19.634719
 30
0.0
  0
LWPOLYLINE
  5
15d
100
AcDbEntity
  8
0
 62
7
100
AcDbPolyline
 90
2
 70
0
 10
-426.738603
 20
16.634719
 30
0.0
 10
-426.738603
 20
-8.895421
 30
0.0
  0
LWPOLYLINE
  5
15e
100
AcDbEntity
  8
0
 62
7
100
AcDbPolyline
 90
2
 70
0
 10
-426.738603
 20
-11.895421
 30
0.0
 10
-426.738603
 20
-37.425562
 30
0.0
  0
LWPOLYLINE
  5
15f
100
AcDbEntity
  8
0
 62
7
100
AcDbPolyline
 90
2
 70
0
 10
-426.738603
 20
-40.425562
 30
0.0
 10
-426.738603
 20
-65.955703
 30
0.0
  0
LWPOLYLINE
  5
160
100
AcDbEntity
  8
0
 62
7
100
AcDbPolyline
 90
2
 70
0
 10
-426.738603
 20
-68.955703
 30
0.0
 10
-426.738603
 20
-94.485844
 30
0.0
  0
LWPOLYLINE
  5
161
100
AcDbEntity
  8
0
 62
7
100
AcDbPolyline
 90
2
 70
0
 10
-426.738603
 20
-97.485844
 30
0.0
 10
-426.738603
 20
-111.750914
 30
0.0
  0
LWPOLYLINE
  5
162
100
AcDbEntity
  8
0
 62
7
100
AcDbPolyline
 90
2
 70
0
 10
-422.778762
 20
90.960071
 30
0.0
 10
-422.778762
 20
76.695001
 30
0.0
  0
LWPOLYLINE
  5
163
100
AcDbEntity
  8
0
 62
7
100
AcDbPolyline
 90
2
 70
0
 10
-422.778762
 20
73.695001
 30
0.0
 10
-422.778762
 20
48.164860
 30
0.0
  0
LWPOLYLINE
  5
164
100
AcDbEntity
  8
0
 62
7
100
AcDbPolyline
 90
2
 70
0
 10
-422.778762
 20
45.164860
 30
0.0
 10
-422.778762
 20
19.634719
 30
0.0
  0
LWPOLYLINE
  5
165
100
AcDbEntity
  8
0
 62
7
100
AcDbPolyline
 90
2
 70
0
 10
-422.778762
 20
16.634719
 30
0.0
 10
-422.778762
 20
-8.895421
 30
0.0
  0
LWPOLYLINE
  5
166
100
AcDbEntity
  8
0
 62
7
100
AcDbPolyline
 90
2
 70
0
 10
-422.778762
 20
-11.895421
 30
0.0
 10
-422.778762
 20
-37.425562
 30
0.0
  0
LWPOLYLINE
  5
167
100
AcDbEntity
  8
0
 62
7
100
AcDbPolyline
 90
2
 70
0
 10
-422.778762
 20
-40.425562
 30
0.0
 10
-422.778762
 20
-65.955703
 30
0.0
  0
LWPOLYLINE
  5
168
100
AcDbEntity
  8
0
 62
7
100
AcDbPolyline
 90
2
 70
0
 10
-422.778762
 20
-68.955703
 30
0.0
 10
-422.778762
 20
-94.485844
 30
0.0
  0
LWPOLYLINE
  5
169
100
AcDbEntity
  8
0
 62
7
100
AcDbPolyline
 90
2
 70
0
 10
-422.778762
 20
-97.485844
 30
0.0
 10
-422.778762
 20
-111.750914
 30
0.0
  0
LWPOLYLINE
  5
16a
100
AcDbEntity
  8
0
 62
7
100
AcDbPolyline
 90
2
 70
0
 10
-418.818920
 20
90.960071
 30
0.0
 10
-418.818920
 20
76.695001
 30
0.0
  0
LWPOLYLINE
  5
16b
100
AcDbEntity
  8
0
 62
7
100
AcDbPolyline
 90
2
 70
0
 10
-418.818920
 20
73.695001
 30
0.0
 10
-418.818920
 20
48.164860
 30
0.0
  0
LWPOLYLINE
  5
16c
100
AcDbEntity
  8
0
 62
7
100
AcDbPolyline
 90
2
 70
0
 10
-418.818920
 20
45.164860
 30
0.0
 10
-418.818920
 20
19.634719
 30
0.0
  0
LWPOLYLINE
  5
16d
100
AcDbEntity
  8
0
 62
7
100
AcDbPolyline
 90
2
 70
0
 10
-418.818920
 20
16.634719
 30
0.0
 10
-418.818920
 20
-8.895421
 30
0.0
  0
LWPOLYLINE
  5
16e
100
AcDbEntity
  8
0
 62
7
100
AcDbPolyline
 90
2
 70
0
 10
-418.818920
 20
-11.895421
 30
0.0
 10
-418.818920
 20
-37.425562
 30
0.0
  0
LWPOLYLINE
  5
16f
100
AcDbEntity
  8
0
 62
7
100
AcDbPolyline
 90
2
 70
0
 10
-418.818920
 20
-40.425562
 30
0.0
 10
-418.818920
 20
-65.955703
 30
0.0
  0
LWPOLYLINE
  5
170
100
AcDbEntity
  8
0
 62
7
100
AcDbPolyline
 90
2
 70
0
 10
-418.818920
 20
-68.955703
 30
0.0
 10
-418.818920
 20
-94.485844
 30
0.0
  0
LWPOLYLINE
  5
171
100
AcDbEntity
  8
0
 62
7
100
AcDbPolyline
 90
2
 70
0
 10
-418.818920
 20
-97.485844
 30
0.0
 10
-418.818920
 20
-111.750914
 30
0.0
  0
LWPOLYLINE
  5
172
100
AcDbEntity
  8
0
 62
7
100
AcDbPolyline
 90
2
 70
0
 10
-414.859078
 20
90.960071
 30
0.0
 10
-414.859078
 20
76.695001
 30
0.0
  0
LWPOLYLINE
  5
173
100
AcDbEntity
  8
0
 62
7
100
AcDbPolyline
 90
2
 70
0
 10
-414.859078
 20
73.695001
 30
0.0
 10
-414.859078
 20
48.164860
 30
0.0
  0
LWPOLYLINE
  5
174
100
AcDbEntity
  8
0
 62
7
100
AcDbPolyline
 90
2
 70
0
 10
-414.859078
 20
45.164860
 30
0.0
 10
-414.859078
 20
19.634719
 30
0.0
  0
LWPOLYLINE
  5
175
100
AcDbEntity
  8
0
 62
7
100
AcDbPolyline
 90
2
 70
0
 10
-414.859078
 20
16.634719
 30
0.0
 10
-414.859078
 20
-8.895421
 30
0.0
  0
LWPOLYLINE
  5
176
100
AcDbEntity
  8
0
 62
7
100
AcDbPolyline
 90
2
 70
0
 10
-414.859078
 20
-11.895421
 30
0.0
 10
-414.859078
 20
-37.425562
 30
0.0
  0
LWPOLYLINE
  5
177
100
AcDbEntity
  8
0
 62
7
100
AcDbPolyline
 90
2
 70
0
 10
-414.859078
 20
-40.425562
 30
0.0
 10
-414.859078
 20
-65.955703
 30
0.0
  0
LWPOLYLINE
  5
178
100
AcDbEntity
  8
0
 62
7
100
AcDbPolyline
 90
2
 70
0
 10
-414.859078
 20
-68.955703
 30
0.0
 10
-414.859078
 20
-94.485844
 30
0.0
  0
LWPOLYLINE
  5
179
100
AcDbEntity
  8
0
 62
7
100
AcDbPolyline
 90
2
 70
0
 10
-414.859078
 20
-97.485844
 30
0.0
 10
-414.859078
 20
-111.750914
 30
0.0
  0
LWPOLYLINE
  5
17a
100
AcDbEntity
  8
0
 62
7
100
AcDbPolyline
 90
2
 70
0
 10
-410.899237
 20
90.960071
 30
0.0
 10
-410.899237
 20
76.695001
 30
0.0
  0
LWPOLYLINE
  5
17b
100
AcDbEntity
  8
0
 62
7
100
AcDbPolyline
 90
2
 70
0
 10
-410.899237
 20
73.695001
 30
0.0
 10
-410.899237
 20
48.164860
 30
0.0
  0
LWPOLYLINE
  5
17c
100
AcDbEntity
  8
0
 62
7
100
AcDbPolyline
 90
2
 70
0
 10
-410.899237
 20
45.164860
 30
0.0
 10
-410.899237
 20
19.634719
 30
0.0
  0
LWPOLYLINE
  5
17d
100
AcDbEntity
  8
0
 62
7
100
AcDbPolyline
 90
2
 70
0
 10
-410.899237
 20
16.634719
 30
0.0
 10
-410.899237
 20
-8.895421
 30
0.0
  0
LWPOLYLINE
  5
17e
100
AcDbEntity
  8
0
 62
7
100
AcDbPolyline
 90
2
 70
0
 10
-410.899237
 20
-11.895421
 30
0.0
 10
-410.899237
 20
-37.425562
 30
0.0
  0
LWPOLYLINE
  5
17f
100
AcDbEntity
  8
0
 62
7
100
AcDbPolyline
 90
2
 70
0
 10
-410.899237
 20
-40.425562
 30
0.0
 10
-410.899237
 20
-65.955703
 30
0.0
  0
LWPOLYLINE
  5
180
100
AcDbEntity
  8
0
 62
7
100
AcDbPolyline
 90
2
 70
0
 10
-410.899237
 20
-68.955703
 30
0.0
 10
-410.899237
 20
-94.485844
 30
0.0
  0
LWPOLYLINE
  5
181
100
AcDbEntity
  8
0
 62
7
100
AcDbPolyline
 90
2
 70
0
 10
-410.899237
 20
-97.485844
 30
0.0
 10
-410.899237
 20
-111.750914
 30
0.0
  0
LWPOLYLINE
  5
182
100
AcDbEntity
  8
0
 62
7
100
AcDbPolyline
 90
2
 70
0
 10
-406.939395
 20
90.960071
 30
0.0
 10
-406.939395
 20
76.695001
 30
0.0
  0
LWPOLYLINE
  5
183
100
AcDbEntity
  8
0
 62
7
100
AcDbPolyline
 90
2
 70
0
 10
-406.939395
 20
73.695001
 30
0.0
 10
-406.939395
 20
48.164860
 30
0.0
  0
LWPOLYLINE
  5
184
100
AcDbEntity
  8
0
 62
7
100
AcDbPolyline
 90
2
 70
0
 10
-406.939395
 20
45.164860
 30
0.0
 10
-406.939395
 20
19.634719
 30
0.0
  0
LWPOLYLINE
  5
185
100
AcDbEntity
  8
0
 62
7
100
AcDbPolyline
 90
2
 70
0
 10
-406.939395
 20
16.634719
 30
0.0
 10
-406.939395
 20
-8.895421
 30
0.0
  0
LWPOLYLINE
  5
186
100
AcDbEntity
  8
0
 62
7
100
AcDbPolyline
 90
2
 70
0
 10
-406.939395
 20
-11.895421
 30
0.0
 10
-406.939395
 20
-37.425562
 30
0.0
  0
LWPOLYLINE
  5
187
100
AcDbEntity
  8
0
 62
7
100
AcDbPolyline
 90
2
 70
0
 10
-406.939395
 20
-40.425562
 30
0.0
 10
-406.939395
 20
-65.955703
 30
0.0
  0
LWPOLYLINE
  5
188
100
AcDbEntity
  8
0
 62
7
100
AcDbPolyline
 90
2
 70
0
 10
-406.939395
 20
-68.955703
 30
0.0
 10
-406.939395
 20
-94.485844
 30
0.0
  0
LWPOLYLINE
  5
189
100
AcDbEntity
  8
0
 62
7
100
AcDbPolyline
 90
2
 70
0
 10
-406.939395
 20
-97.485844
 30
0.0
 10
-406.939395
 20
-111.750914
 30
0.0
  0
LWPOLYLINE
  5
18a
100
AcDbEntity
  8
0
 62
7
100
AcDbPolyline
 90
2
 70
0
 10
-402.979553
 20
90.960071
 30
0.0
 10
-402.979553
 20
76.695001
 30
0.0
  0
LWPOLYLINE
  5
18b
100
AcDbEntity
  8
0
 62
7
100
AcDbPolyline
 90
2
 70
0
 10
-402.979553
 20
73.695001
 30
0.0
 10
-402.979553
 20
48.164860
 30
0.0
  0
LWPOLYLINE
  5
18c
100
AcDbEntity
  8
0
 62
7
100
AcDbPolyline
 90
2
 70
0
 10
-402.979553
 20
45.164860
 30
0.0
 10
-402.979553
 20
19.634719
 30
0.0
  0
LWPOLYLINE
  5
18d
100
AcDbEntity
  8
0
 62
7
100
AcDbPolyline
 90
2
 70
0
 10
-402.979553
 20
16.634719
 30
0.0
 10
-402.979553
 20
-8.895421
 30
0.0
  0
LWPOLYLINE
  5
18e
100
AcDbEntity
  8
0
 62
7
100
AcDbPolyline
 90
2
 70
0
 10
-402.979553
 20
-11.895421
 30
0.0
 10
-402.979553
 20
-37.425562
 30
0.0
  0
LWPOLYLINE
  5
18f
100
AcDbEntity
  8
0
 62
7
100
AcDbPolyline
 90
2
 70
0
 10
-402.979553
 20
-40.425562
 30
0.0
 10
-402.979553
 20
-65.955703
 30
0.0
  0
LWPOLYLINE
  5
190
100
AcDbEntity
  8
0
 62
7
100
AcDbPolyline
 90
2
 70
0
 10
-402.979553
 20
-68.955703
 30
0.0
 10
-402.979553
 20
-94.485844
 30
0.0
  0
LWPOLYLINE
  5
191
100
AcDbEntity
  8
0
 62
7
100
AcDbPolyline
 90
2
 70
0
 10
-402.979553
 20
-97.485844
 30
0.0
 10
-402.979553
 20
-111.750914
 30
0.0
  0
LWPOLYLINE
  5
192
100
AcDbEntity
  8
0
 62
7
100
AcDbPolyline
 90
2
 70
0
 10
-399.019711
 20
90.960071
 30
0.0
 10
-399.019711
 20
76.695001
 30
0.0
  0
LWPOLYLINE
  5
193
100
AcDbEntity
  8
0
 62
7
100
AcDbPolyline
 90
2
 70
0
 10
-399.019711
 20
73.695001
 30
0.0
 10
-399.019711
 20
48.164860
 30
0.0
  0
LWPOLYLINE
  5
194
100
AcDbEntity
  8
0
 62
7
100
AcDbPolyline
 90
2
 70
0
 10
-399.019711
 20
45.164860
 30
0.0
 10
-399.019711
 20
19.634719
 30
0.0
  0
LWPOLYLINE
  5
195
100
AcDbEntity
  8
0
 62
7
100
AcDbPolyline
 90
2
 70
0
 10
-399.019711
 20
16.634719
 30
0.0
 10
-399.019711
 20
-8.895421
 30
0.0
  0
LWPOLYLINE
  5
196
100
AcDbEntity
  8
0
 62
7
100
AcDbPolyline
 90
2
 70
0
 10
-399.019711
 20
-11.895421
 30
0.0
 10
-399.019711
 20
-37.425562
 30
0.0
  0
LWPOLYLINE
  5
197
100
AcDbEntity
  8
0
 62
7
100
AcDbPolyline
 90
2
 70
0
 10
-399.019711
 20
-40.425562
 30
0.0
 10
-399.019711
 20
-65.955703
 30
0.0
  0
LWPOLYLINE
  5
198
100
AcDbEntity
  8
0
 62
7
100
AcDbPolyline
 90
2
 70
0
 10
-399.019711
 20
-68.955703
 30
0.0
 10
-399.019711
 20
-94.485844
 30
0.0
  0
LWPOLYLINE
  5
199
100
AcDbEntity
  8
0
 62
7
100
AcDbPolyline
 90
2
 70
0
 10
-399.019711
 20
-97.485844
 30
0.0
 10
-399.019711
 20
-111.750914
 30
0.0
  0
LWPOLYLINE
  5
19a
100
AcDbEntity
  8
0
 62
7
100
AcDbPolyline
 90
2
 70
0
 10
-395.059870
 20
90.960071
 30
0.0
 10
-395.059870
 20
76.695001
 30
0.0
  0
LWPOLYLINE
  5
19b
100
AcDbEntity
  8
0
 62
7
100
AcDbPolyline
 90
2
 70
0
 10
-395.059870
 20
73.695001
 30
0.0
 10
-395.059870
 20
48.164860
 30
0.0
  0
LWPOLYLINE
  5
19c
100
AcDbEntity
  8
0
 62
7
100
AcDbPolyline
 90
2
 70
0
 10
-395.059870
 20
45.164860
 30
0.0
 10
-395.059870
 20
19.634719
 30
0.0
  0
LWPOLYLINE
  5
19d
100
AcDbEntity
  8
0
 62
7
100
AcDbPolyline
 90
2
 70
0
 10
-395.059870
 20
16.634719
 30
0.0
 10
-395.059870
 20
-8.895421
 30
0.0
  0
LWPOLYLINE
  5
19e
100
AcDbEntity
  8
0
 62
7
100
AcDbPolyline
 90
2
 70
0
 10
-395.059870
 20
-11.895421
 30
0.0
 10
-395.059870
 20
-37.425562
 30
0.0
  0
LWPOLYLINE
  5
19f
100
AcDbEntity
  8
0
 62
7
100
AcDbPolyline
 90
2
 70
0
 10
-395.059870
 20
-40.425562
 30
0.0
 10
-395.059870
 20
-65.955703
 30
0.0
  0
LWPOLYLINE
  5
1a0
100
AcDbEntity
  8
0
 62
7
100
AcDbPolyline
 90
2
 70
0
 10
-395.059870
 20
-68.955703
 30
0.0
 10
-395.059870
 20
-94.485844
 30
0.0
  0
LWPOLYLINE
  5
1a1
100
AcDbEntity
  8
0
 62
7
100
AcDbPolyline
 90
2
 70
0
 10
-395.059870
 20
-97.485844
 30
0.0
 10
-395.059870
 20
-111.750914
 30
0.0
  0
LWPOLYLINE
  5
1a2
100
AcDbEntity
  8
0
 62
7
100
AcDbPolyline
 90
2
 70
0
 10
-391.100028
 20
90.960071
 30
0.0
 10
-391.100028
 20
76.695001
 30
0.0
  0
LWPOLYLINE
  5
1a3
100
AcDbEntity
  8
0
 62
7
100
AcDbPolyline
 90
2
 70
0
 10
-391.100028
 20
73.695001
 30
0.0
 10
-391.100028
 20
48.164860
 30
0.0
  0
LWPOLYLINE
  5
1a4
100
AcDbEntity
  8
0
 62
7
100
AcDbPolyline
 90
2
 70
0
 10
-391.100028
 20
45.164860
 30
0.0
 10
-391.100028
 20
19.634719
 30
0.0
  0
LWPOLYLINE
  5
1a5
100
AcDbEntity
  8
0
 62
7
100
AcDbPolyline
 90
2
 70
0
 10
-391.100028
 20
16.634719
 30
0.0
 10
-391.100028
 20
-8.895421
 30
0.0
  0
LWPOLYLINE
  5
1a6
100
AcDbEntity
  8
0
 62
7
100
AcDbPolyline
 90
2
 70
0
 10
-391.100028
 20
-11.895421
 30
0.0
 10
-391.100028
 20
-37.425562
 30
0.0
  0
LWPOLYLINE
  5
1a7
100
AcDbEntity
  8
0
 62
7
100
AcDbPolyline
 90
2
 70
0
 10
-391.100028
 20
-40.425562
 30
0.0
 10
-391.100028
 20
-65.955703
 30
0.0
  0
LWPOLYLINE
  5
1a8
100
AcDbEntity
  8
0
 62
7
100
AcDbPolyline
 90
2
 70
0
 10
-391.100028
 20
-68.955703
 30
0.0
 10
-391.100028
 20
-94.485844
 30
0.0
  0
LWPOLYLINE
  5
1a9
100
AcDbEntity
  8
0
 62
7
100
AcDbPolyline
 90
2
 70
0
 10
-391.100028
 20
-97.485844
 30
0.0
 10
-391.100028
 20
-111.750914
 30
0.0
  0
LWPOLYLINE
  5
1aa
100
AcDbEntity
  8
0
 62
7
100
AcDbPolyline
 90
2
 70
0
 10
-387.140186
 20
90.960071
 30
0.0
 10
-387.140186
 20
76.695001
 30
0.0
  0
LWPOLYLINE
  5
1ab
100
AcDbEntity
  8
0
 62
7
100
AcDbPolyline
 90
2
 70
0
 10
-387.140186
 20
73.695001
 30
0.0
 10
-387.140186
 20
48.164860
 30
0.0
  0
LWPOLYLINE
  5
1ac
100
AcDbEntity
  8
0
 62
7
100
AcDbPolyline
 90
2
 70
0
 10
-387.140186
 20
45.164860
 30
0.0
 10
-387.140186
 20
19.634719
 30
0.0
  0
LWPOLYLINE
  5
1ad
100
AcDbEntity
  8
0
 62
7
100
AcDbPolyline
 90
2
 70
0
 10
-387.140186
 20
16.634719
 30
0.0
 10
-387.140186
 20
-8.895421
 30
0.0
  0
LWPOLYLINE
  5
1ae
100
AcDbEntity
  8
0
 62
7
100
AcDbPolyline
 90
2
 70
0
 10
-387.140186
 20
-11.895421
 30
0.0
 10
-387.140186
 20
-37.425562
 30
0.0
  0
LWPOLYLINE
  5
1af
100
AcDbEntity
  8
0
 62
7
100
AcDbPolyline
 90
2
 70
0
 10
-387.140186
 20
-40.425562
 30
0.0
 10
-387.140186
 20
-65.955703
 30
0.0
  0
LWPOLYLINE
  5
1b0
100
AcDbEntity
  8
0
 62
7
100
AcDbPolyline
 90
2
 70
0
 10
-387.140186
 20
-68.955703
 30
0.0
 10
-387.140186
 20
-94.485844
 30
0.0
  0
LWPOLYLINE
  5
1b1
100
AcDbEntity
  8
0
 62
7
100
AcDbPolyline
 90
2
 70
0
 10
-387.140186
 20
-97.485844
 30
0.0
 10
-387.140186
 20
-111.750914
 30
0.0
  0
LWPOLYLINE
  5
1b2
100
AcDbEntity
  8
0
 62
7
100
AcDbPolyline
 90
2
 70
0
 10
-383.180344
 20
90.960071
 30
0.0
 10
-383.180344
 20
76.695001
 30
0.0
  0
LWPOLYLINE
  5
1b3
100
AcDbEntity
  8
0
 62
7
100
AcDbPolyline
 90
2
 70
0
 10
-383.180344
 20
73.695001
 30
0.0
 10
-383.180344
 20
48.164860
 30
0.0
  0
LWPOLYLINE
  5
1b4
100
AcDbEntity
  8
0
 62
7
100
AcDbPolyline
 90
2
 70
0
 10
-383.180344
 20
45.164860
 30
0.0
 10
-383.180344
 20
19.634719
 30
0.0
  0
LWPOLYLINE
  5
1b5
100
AcDbEntity
  8
0
 62
7
100
AcDbPolyline
 90
2
 70
0
 10
-383.180344
 20
16.634719
 30
0.0
 10
-383.180344
 20
-8.895421
 30
0.0
  0
LWPOLYLINE
  5
1b6
100
AcDbEntity
  8
0
 62
7
100
AcDbPolyline
 90
2
 70
0
 10
-383.180344
 20
-11.895421
 30
0.0
 10
-383.180344
 20
-37.425562
 30
0.0
  0
LWPOLYLINE
  5
1b7
100
AcDbEntity
  8
0
 62
7
100
AcDbPolyline
 90
2
 70
0
 10
-383.180344
 20
-40.425562
 30
0.0
 10
-383.180344
 20
-65.955703
 30
0.0
  0
LWPOLYLINE
  5
1b8
100
AcDbEntity
  8
0
 62
7
100
AcDbPolyline
 90
2
 70
0
 10
-383.180344
 20
-68.955703
 30
0.0
 10
-383.180344
 20
-94.485844
 30
0.0
  0
LWPOLYLINE
  5
1b9
100
AcDbEntity
  8
0
 62
7
100
AcDbPolyline
 90
2
 70
0
 10
-383.180344
 20
-97.485844
 30
0.0
 10
-383.180344
 20
-111.750914
 30
0.0
  0
LWPOLYLINE
  5
1ba
100
AcDbEntity
  8
0
 62
7
100
AcDbPolyline
 90
2
 70
0
 10
-379.220503
 20
90.960071
 30
0.0
 10
-379.220503
 20
76.695001
 30
0.0
  0
LWPOLYLINE
  5
1bb
100
AcDbEntity
  8
0
 62
7
100
AcDbPolyline
 90
2
 70
0
 10
-379.220503
 20
73.695001
 30
0.0
 10
-379.220503
 20
48.164860
 30
0.0
  0
LWPOLYLINE
  5
1bc
100
AcDbEntity
  8
0
 62
7
100
AcDbPolyline
 90
2
 70
0
 10
-379.220503
 20
45.164860
 30
0.0
 10
-379.220503
 20
19.634719
 30
0.0
  0
LWPOLYLINE
  5
1bd
100
AcDbEntity
  8
0
 62
7
100
AcDbPolyline
 90
2
 70
0
 10
-379.220503
 20
16.634719
 30
0.0
 10
-379.220503
 20
-8.895421
 30
0.0
  0
LWPOLYLINE
  5
1be
100
AcDbEntity
  8
0
 62
7
100
AcDbPolyline
 90
2
 70
0
 10
-379.220503
 20
-11.895421
 30
0.0
 10
-379.220503
 20
-37.425562
 30
0.0
  0
LWPOLYLINE
  5
1bf
100
AcDbEntity
  8
0
 62
7
100
AcDbPolyline
 90
2
 70
0
 10
-379.220503
 20
-40.425562
 30
0.0
 10
-379.220503
 20
-65.955703
 30
0.0
  0
LWPOLYLINE
  5
1c0
100
AcDbEntity
  8
0
 62
7
100
AcDbPolyline
 90
2
 70
0
 10
-379.220503
 20
-68.955703
 30
0.0
 10
-379.220503
 20
-94.485844
 30
0.0
  0
LWPOLYLINE
  5
1c1
100
AcDbEntity
  8
0
 62
7
100
AcDbPolyline
 90
2
 70
0
 10
-379.220503
 20
-97.485844
 30
0.0
 10
-379.220503
 20
-111.750914
 30
0.0
  0
LWPOLYLINE
  5
1c2
100
AcDbEntity
  8
0
 62
7
100
AcDbPolyline
 90
2
 70
0
 10
-375.260661
 20
90.960071
 30
0.0
 10
-375.260661
 20
76.695001
 30
0.0
  0
LWPOLYLINE
  5
1c3
100
AcDbEntity
  8
0
 62
7
100
AcDbPolyline
 90
2
 70
0
 10
-375.260661
 20
73.695001
 30
0.0
 10
-375.260661
 20
48.164860
 30
0.0
  0
LWPOLYLINE
  5
1c4
100
AcDbEntity
  8
0
 62
7
100
AcDbPolyline
 90
2
 70
0
 10
-375.260661
 20
45.164860
 30
0.0
 10
-375.260661
 20
19.634719
 30
0.0
  0
LWPOLYLINE
  5
1c5
100
AcDbEntity
  8
0
 62
7
100
AcDbPolyline
 90
2
 70
0
 10
-375.260661
 20
16.634719
 30
0.0
 10
-375.260661
 20
-8.895421
 30
0.0
  0
LWPOLYLINE
  5
1c6
100
AcDbEntity
  8
0
 62
7
100
AcDbPolyline
 90
2
 70
0
 10
-375.260661
 20
-11.895421
 30
0.0
 10
-375.260661
 20
-37.425562
 30
0.0
  0
LWPOLYLINE
  5
1c7
100
AcDbEntity
  8
0
 62
7
100
AcDbPolyline
 90
2
 70
0
 10
-375.260661
 20
-40.425562
 30
0.0
 10
-375.260661
 20
-65.955703
 30
0.0
  0
LWPOLYLINE
  5
1c8
100
AcDbEntity
  8
0
 62
7
100
AcDbPolyline
 90
2
 70
0
 10
-375.260661
 20
-68.955703
 30
0.0
 10
-375.260661
 20
-94.485844
 30
0.0
  0
LWPOLYLINE
  5
1c9
100
AcDbEntity
  8
0
 62
7
100
AcDbPolyline
 90
2
 70
0
 10
-375.260661
 20
-97.485844
 30
0.0
 10
-375.260661
 20
-111.750914
 30
0.0
  0
LWPOLYLINE
  5
1ca
100
AcDbEntity
  8
0
 62
7
100
AcDbPolyline
 90
2
 70
0
 10
-371.300819
 20
90.960071
 30
0.0
 10
-371.300819
 20
76.695001
 30
0.0
  0
LWPOLYLINE
  5
1cb
100
AcDbEntity
  8
0
 62
7
100
AcDbPolyline
 90
2
 70
0
 10
-371.300819
 20
73.695001
 30
0.0
 10
-371.300819
 20
48.164860
 30
0.0
  0
LWPOLYLINE
  5
1cc
100
AcDbEntity
  8
0
 62
7
100
AcDbPolyline
 90
2
 70
0
 10
-371.300819
 20
45.164860
 30
0.0
 10
-371.300819
 20
19.634719
 30
0.0
  0
LWPOLYLINE
  5
1cd
100
AcDbEntity
  8
0
 62
7
100
AcDbPolyline
 90
2
 70
0
 10
-371.300819
 20
16.634719
 30
0.0
 10
-371.300819
 20
-8.895421
 30
0.0
  0
LWPOLYLINE
  5
1ce
100
AcDbEntity
  8
0
 62
7
100
AcDbPolyline
 90
2
 70
0
 10
-371.300819
 20
-11.895421
 30
0.0
 10
-371.300819
 20
-37.425562
 30
0.0
  0
LWPOLYLINE
  5
1cf
100
AcDbEntity
  8
0
 62
7
100
AcDbPolyline
 90
2
 70
0
 10
-371.300819
 20
-40.425562
 30
0.0
 10
-371.300819
 20
-65.955703
 30
0.0
  0
LWPOLYLINE
  5
1d0
100
AcDbEntity
  8
0
 62
7
100
AcDbPolyline
 90
2
 70
0
 10
-371.300819
 20
-68.955703
 30
0.0
 10
-371.300819
 20
-94.485844
 30
0.0
  0
LWPOLYLINE
  5
1d1
100
AcDbEntity
  8
0
 62
7
100
AcDbPolyline
 90
2
 70
0
 10
-371.300819
 20
-97.485844
 30
0.0
 10
-371.300819
 20
-111.750914
 30
0.0
  0
LWPOLYLINE
  5
1d2
100
AcDbEntity
  8
0
 62
7
100
AcDbPolyline
 90
2
 70
0
 10
-367.340978
 20
90.960071
 30
0.0
 10
-367.340978
 20
76.695001
 30
0.0
  0
LWPOLYLINE
  5
1d3
100
AcDbEntity
  8
0
 62
7
100
AcDbPolyline
 90
2
 70
0
 10
-367.340978
 20
73.695001
 30
0.0
 10
-367.340978
 20
48.164860
 30
0.0
  0
LWPOLYLINE
  5
1d4
100
AcDbEntity
  8
0
 62
7
100
AcDbPolyline
 90
2
 70
0
 10
-367.340978
 20
45.164860
 30
0.0
 10
-367.340978
 20
19.634719
 30
0.0
  0
LWPOLYLINE
  5
1d5
100
AcDbEntity
  8
0
 62
7
100
AcDbPolyline
 90
2
 70
0
 10
-367.340978
 20
16.634719
 30
0.0
 10
-367.340978
 20
-8.895421
 30
0.0
  0
LWPOLYLINE
  5
1d6
100
AcDbEntity
  8
0
 62
7
100
AcDbPolyline
 90
2
 70
0
 10
-367.340978
 20
-11.895421
 30
0.0
 10
-367.340978
 20
-37.425562
 30
0.0
  0
LWPOLYLINE
  5
1d7
100
AcDbEntity
  8
0
 62
7
100
AcDbPolyline
 90
2
 70
0
 10
-367.340978
 20
-40.425562
 30
0.0
 10
-367.340978
 20
-65.955703
 30
0.0
  0
LWPOLYLINE
  5
1d8
100
AcDbEntity
  8
0
 62
7
100
AcDbPolyline
 90
2
 70
0
 10
-367.340978
 20
-68.955703
 30
0.0
 10
-367.340978
 20
-94.485844
 30
0.0
  0
LWPOLYLINE
  5
1d9
100
AcDbEntity
  8
0
 62
7
100
AcDbPolyline
 90
2
 70
0
 10
-367.340978
 20
-97.485844
 30
0.0
 10
-367.340978
 20
-111.750914
 30
0.0
  0
LWPOLYLINE
  5
1da
100
AcDbEntity
  8
0
 62
7
100
AcDbPolyline
 90
2
 70
0
 10
-363.381136
 20
90.960071
 30
0.0
 10
-363.381136
 20
76.695001
 30
0.0
  0
LWPOLYLINE
  5
1db
100
AcDbEntity
  8
0
 62
7
100
AcDbPolyline
 90
2
 70
0
 10
-363.381136
 20
73.695001
 30
0.0
 10
-363.381136
 20
48.164860
 30
0.0
  0
LWPOLYLINE
  5
1dc
100
AcDbEntity
  8
0
 62
7
100
AcDbPolyline
 90
2
 70
0
 10
-363.381136
 20
45.164860
 30
0.0
 10
-363.381136
 20
19.634719
 30
0.0
  0
LWPOLYLINE
  5
1dd
100
AcDbEntity
  8
0
 62
7
100
AcDbPolyline
 90
2
 70
0
 10
-363.381136
 20
16.634719
 30
0.0
 10
-363.381136
 20
-8.895421
 30
0.0
  0
LWPOLYLINE
  5
1de
100
AcDbEntity
  8
0
 62
7
100
AcDbPolyline
 90
2
 70
0
 10
-363.381136
 20
-11.895421
 30
0.0
 10
-363.381136
 20
-37.425562
 30
0.0
  0
LWPOLYLINE
  5
1df
100
AcDbEntity
  8
0
 62
7
100
AcDbPolyline
 90
2
 70
0
 10
-363.381136
 20
-40.425562
 30
0.0
 10
-363.381136
 20
-65.955703
 30
0.0
  0
LWPOLYLINE
  5
1e0
100
AcDbEntity
  8
0
 62
7
100
AcDbPolyline
 90
2
 70
0
 10
-363.381136
 20
-68.955703
 30
0.0
 10
-363.381136
 20
-94.485844
 30
0.0
  0
LWPOLYLINE
  5
1e1
100
AcDbEntity
  8
0
 62
7
100
AcDbPolyline
 90
2
 70
0
 10
-363.381136
 20
-97.485844
 30
0.0
 10
-363.381136
 20
-111.750914
 30
0.0
  0
LWPOLYLINE
  5
1e2
100
AcDbEntity
  8
0
 62
7
100
AcDbPolyline
 90
2
 70
0
 10
-359.421294
 20
90.960071
 30
0.0
 10
-359.421294
 20
76.695001
 30
0.0
  0
LWPOLYLINE
  5
1e3
100
AcDbEntity
  8
0
 62
7
100
AcDbPolyline
 90
2
 70
0
 10
-359.421294
 20
73.695001
 30
0.0
 10
-359.421294
 20
48.164860
 30
0.0
  0
LWPOLYLINE
  5
1e4
100
AcDbEntity
  8
0
 62
7
100
AcDbPolyline
 90
2
 70
0
 10
-359.421294
 20
45.164860
 30
0.0
 10
-359.421294
 20
19.634719
 30
0.0
  0
LWPOLYLINE
  5
1e5
100
AcDbEntity
  8
0
 62
7
100
AcDbPolyline
 90
2
 70
0
 10
-359.421294
 20
16.634719
 30
0.0
 10
-359.421294
 20
-8.895421
 30
0.0
  0
LWPOLYLINE
  5
1e6
100
AcDbEntity
  8
0
 62
7
100
AcDbPolyline
 90
2
 70
0
 10
-359.421294
 20
-11.895421
 30
0.0
 10
-359.421294
 20
-37.425562
 30
0.0
  0
LWPOLYLINE
  5
1e7
100
AcDbEntity
  8
0
 62
7
100
AcDbPolyline
 90
2
 70
0
 10
-359.421294
 20
-40.425562
 30
0.0
 10
-359.421294
 20
-65.955703
 30
0.0
  0
LWPOLYLINE
  5
1e8
100
AcDbEntity
  8
0
 62
7
100
AcDbPolyline
 90
2
 70
0
 10
-359.421294
 20
-68.955703
 30
0.0
 10
-359.421294
 20
-94.485844
 30
0.0
  0
LWPOLYLINE
  5
1e9
100
AcDbEntity
  8
0
 62
7
100
AcDbPolyline
 90
2
 70
0
 10
-359.421294
 20
-97.485844
 30
0.0
 10
-359.421294
 20
-111.750914
 30
0.0
  0
LWPOLYLINE
  5
1ea
100
AcDbEntity
  8
0
 62
7
100
AcDbPolyline
 90
2
 70
0
 10
-355.461452
 20
90.960071
 30
0.0
 10
-355.461452
 20
76.695001
 30
0.0
  0
LWPOLYLINE
  5
1eb
100
AcDbEntity
  8
0
 62
7
100
AcDbPolyline
 90
2
 70
0
 10
-355.461452
 20
73.695001
 30
0.0
 10
-355.461452
 20
48.164860
 30
0.0
  0
LWPOLYLINE
  5
1ec
100
AcDbEntity
  8
0
 62
7
100
AcDbPolyline
 90
2
 70
0
 10
-355.461452
 20
45.164860
 30
0.0
 10
-355.461452
 20
19.634719
 30
0.0
  0
LWPOLYLINE
  5
1ed
100
AcDbEntity
  8
0
 62
7
100
AcDbPolyline
 90
2
 70
0
 10
-355.461452
 20
16.634719
 30
0.0
 10
-355.461452
 20
-8.895421
 30
0.0
  0
LWPOLYLINE
  5
1ee
100
AcDbEntity
  8
0
 62
7
100
AcDbPolyline
 90
2
 70
0
 10
-355.461452
 20
-11.895421
 30
0.0
 10
-355.461452
 20
-37.425562
 30
0.0
  0
LWPOLYLINE
  5
1ef
100
AcDbEntity
  8
0
 62
7
100
AcDbPolyline
 90
2
 70
0
 10
-355.461452
 20
-40.425562
 30
0.0
 10
-355.461452
 20
-65.955703
 30
0.0
  0
LWPOLYLINE
  5
1f0
100
AcDbEntity
  8
0
 62
7
100
AcDbPolyline
 90
2
 70
0
 10
-355.461452
 20
-68.955703
 30
0.0
 10
-355.461452
 20
-94.485844
 30
0.0
  0
LWPOLYLINE
  5
1f1
100
AcDbEntity
  8
0
 62
7
100
AcDbPolyline
 90
2
 70
0
 10
-355.461452
 20
-97.485844
 30
0.0
 10
-355.461452
 20
-111.750914
 30
0.0
  0
LWPOLYLINE
  5
1f2
100
AcDbEntity
  8
0
 62
7
100
AcDbPolyline
 90
2
 70
0
 10
-351.501611
 20
90.960071
 30
0.0
 10
-351.501611
 20
76.695001
 30
0.0
  0
LWPOLYLINE
  5
1f3
100
AcDbEntity
  8
0
 62
7
100
AcDbPolyline
 90
2
 70
0
 10
-351.501611
 20
73.695001
 30
0.0
 10
-351.501611
 20
48.164860
 30
0.0
  0
LWPOLYLINE
  5
1f4
100
AcDbEntity
  8
0
 62
7
100
AcDbPolyline
 90
2
 70
0
 10
-351.501611
 20
45.164860
 30
0.0
 10
-351.501611
 20
19.634719
 30
0.0
  0
LWPOLYLINE
  5
1f5
100
AcDbEntity
  8
0
 62
7
100
AcDbPolyline
 90
2
 70
0
 10
-351.501611
 20
16.634719
 30
0.0
 10
-351.501611
 20
-8.895421
 30
0.0
  0
LWPOLYLINE
  5
1f6
100
AcDbEntity
  8
0
 62
7
100
AcDbPolyline
 90
2
 70
0
 10
-351.501611
 20
-11.895421
 30
0.0
 10
-351.501611
 20
-37.425562
 30
0.0
  0
LWPOLYLINE
  5
1f7
100
AcDbEntity
  8
0
 62
7
100
AcDbPolyline
 90
2
 70
0
 10
-351.501611
 20
-40.425562
 30
0.0
 10
-351.501611
 20
-65.955703
 30
0.0
  0
LWPOLYLINE
  5
1f8
100
AcDbEntity
  8
0
 62
7
100
AcDbPolyline
 90
2
 70
0
 10
-351.501611
 20
-68.955703
 30
0.0
 10
-351.501611
 20
-94.485844
 30
0.0
  0
LWPOLYLINE
  5
1f9
100
AcDbEntity
  8
0
 62
7
100
AcDbPolyline
 90
2
 70
0
 10
-351.501611
 20
-97.485844
 30
0.0
 10
-351.501611
 20
-111.750914
 30
0.0
  0
LWPOLYLINE
  5
1fa
100
AcDbEntity
  8
0
 62
7
100
AcDbPolyline
 90
2
 70
0
 10
-347.541769
 20
90.960071
 30
0.0
 10
-347.541769
 20
76.695001
 30
0.0
  0
LWPOLYLINE
  5
1fb
100
AcDbEntity
  8
0
 62
7
100
AcDbPolyline
 90
2
 70
0
 10
-347.541769
 20
73.695001
 30
0.0
 10
-347.541769
 20
48.164860
 30
0.0
  0
LWPOLYLINE
  5
1fc
100
AcDbEntity
  8
0
 62
7
100
AcDbPolyline
 90
2
 70
0
 10
-347.541769
 20
45.164860
 30
0.0
 10
-347.541769
 20
19.634719
 30
0.0
  0
LWPOLYLINE
  5
1fd
100
AcDbEntity
  8
0
 62
7
100
AcDbPolyline
 90
2
 70
0
 10
-347.541769
 20
16.634719
 30
0.0
 10
-347.541769
 20
-8.895421
 30
0.0
  0
LWPOLYLINE
  5
1fe
100
AcDbEntity
  8
0
 62
7
100
AcDbPolyline
 90
2
 70
0
 10
-347.541769
 20
-11.895421
 30
0.0
 10
-347.541769
 20
-37.425562
 30
0.0
  0
LWPOLYLINE
  5
1ff
100
AcDbEntity
  8
0
 62
7
100
AcDbPolyline
 90
2
 70
0
 10
-347.541769
 20
-40.425562
 30
0.0
 10
-347.541769
 20
-65.955703
 30
0.0
  0
LWPOLYLINE
  5
200
100
AcDbEntity
  8
0
 62
7
100
AcDbPolyline
 90
2
 70
0
 10
-347.541769
 20
-68.955703
 30
0.0
 10
-347.541769
 20
-94.485844
 30
0.0
  0
LWPOLYLINE
  5
201
100
AcDbEntity
  8
0
 62
7
100
AcDbPolyline
 90
2
 70
0
 10
-347.541769
 20
-97.485844
 30
0.0
 10
-347.541769
 20
-111.750914
 30
0.0
  0
LWPOLYLINE
  5
202
100
AcDbEntity
  8
0
 62
7
100
AcDbPolyline
 90
2
 70
0
 10
-343.581927
 20
90.960071
 30
0.0
 10
-343.581927
 20
76.695001
 30
0.0
  0
LWPOLYLINE
  5
203
100
AcDbEntity
  8
0
 62
7
100
AcDbPolyline
 90
2
 70
0
 10
-343.581927
 20
73.695001
 30
0.0
 10
-343.581927
 20
48.164860
 30
0.0
  0
LWPOLYLINE
  5
204
100
AcDbEntity
  8
0
 62
7
100
AcDbPolyline
 90
2
 70
0
 10
-343.581927
 20
45.164860
 30
0.0
 10
-343.581927
 20
19.634719
 30
0.0
  0
LWPOLYLINE
  5
205
100
AcDbEntity
  8
0
 62
7
100
AcDbPolyline
 90
2
 70
0
 10
-343.581927
 20
16.634719
 30
0.0
 10
-343.581927
 20
-8.895421
 30
0.0
  0
LWPOLYLINE
  5
206
100
AcDbEntity
  8
0
 62
7
100
AcDbPolyline
 90
2
 70
0
 10
-343.581927
 20
-11.895421
 30
0.0
 10
-343.581927
 20
-37.425562
 30
0.0
  0
LWPOLYLINE
  5
207
100
AcDbEntity
  8
0
 62
7
100
AcDbPolyline
 90
2
 70
0
 10
-343.581927
 20
-40.425562
 30
0.0
 10
-343.581927
 20
-65.955703
 30
0.0
  0
LWPOLYLINE
  5
208
100
AcDbEntity
  8
0
 62
7
100
AcDbPolyline
 90
2
 70
0
 10
-343.581927
 20
-68.955703
 30
0.0
 10
-343.581927
 20
-94.485844
 30
0.0
  0
LWPOLYLINE
  5
209
100
AcDbEntity
  8
0
 62
7
100
AcDbPolyline
 90
2
 70
0
 10
-343.581927
 20
-97.485844
 30
0.0
 10
-343.581927
 20
-111.750914
 30
0.0
  0
LWPOLYLINE
  5
20a
100
AcDbEntity
  8
0
 62
7
100
AcDbPolyline
 90
2
 70
0
 10
-339.622085
 20
90.960071
 30
0.0
 10
-339.622085
 20
76.695001
 30
0.0
  0
LWPOLYLINE
  5
20b
100
AcDbEntity
  8
0
 62
7
100
AcDbPolyline
 90
2
 70
0
 10
-339.622085
 20
73.695001
 30
0.0
 10
-339.622085
 20
48.164860
 30
0.0
  0
LWPOLYLINE
  5
20c
100
AcDbEntity
  8
0
 62
7
100
AcDbPolyline
 90
2
 70
0
 10
-339.622085
 20
45.164860
 30
0.0
 10
-339.622085
 20
19.634719
 30
0.0
  0
LWPOLYLINE
  5
20d
100
AcDbEntity
  8
0
 62
7
100
AcDbPolyline
 90
2
 70
0
 10
-339.622085
 20
16.634719
 30
0.0
 10
-339.622085
 20
-8.895421
 30
0.0
  0
LWPOLYLINE
  5
20e
100
AcDbEntity
  8
0
 62
7
100
AcDbPolyline
 90
2
 70
0
 10
-339.622085
 20
-11.895421
 30
0.0
 10
-339.622085
 20
-37.425562
 30
0.0
  0
LWPOLYLINE
  5
20f
100
AcDbEntity
  8
0
 62
7
100
AcDbPolyline
 90
2
 70
0
 10
-339.622085
 20
-40.425562
 30
0.0
 10
-339.622085
 20
-65.955703
 30
0.0
  0
LWPOLYLINE
  5
210
100
AcDbEntity
  8
0
 62
7
100
AcDbPolyline
 90
2
 70
0
 10
-339.622085
 20
-68.955703
 30
0.0
 10
-339.622085
 20
-94.485844
 30
0.0
  0
LWPOLYLINE
  5
211
100
AcDbEntity
  8
0
 62
7
100
AcDbPolyline
 90
2
 70
0
 10
-339.622085
 20
-97.485844
 30
0.0
 10
-339.622085
 20
-111.750914
 30
0.0
  0
LWPOLYLINE
  5
212
100
AcDbEntity
  8
0
 62
7
100
AcDbPolyline
 90
2
 70
0
 10
-335.662244
 20
90.960071
 30
0.0
 10
-335.662244
 20
76.695001
 30
0.0
  0
LWPOLYLINE
  5
213
100
AcDbEntity
  8
0
 62
7
100
AcDbPolyline
 90
2
 70
0
 10
-335.662244
 20
73.695001
 30
0.0
 10
-335.662244
 20
48.164860
 30
0.0
  0
LWPOLYLINE
  5
214
100
AcDbEntity
  8
0
 62
7
100
AcDbPolyline
 90
2
 70
0
 10
-335.662244
 20
45.164860
 30
0.0
 10
-335.662244
 20
19.634719
 30
0.0
  0
LWPOLYLINE
  5
215
100
AcDbEntity
  8
0
 62
7
100
AcDbPolyline
 90
2
 70
0
 10
-335.662244
 20
16.634719
 30
0.0
 10
-335.662244
 20
-8.895421
 30
0.0
  0
LWPOLYLINE
  5
216
100
AcDbEntity
  8
0
 62
7
100
AcDbPolyline
 90
2
 70
0
 10
-335.662244
 20
-11.895421
 30
0.0
 10
-335.662244
 20
-37.425562
 30
0.0
  0
LWPOLYLINE
  5
217
100
AcDbEntity
  8
0
 62
7
100
AcDbPolyline
 90
2
 70
0
 10
-335.662244
 20
-40.425562
 30
0.0
 10
-335.662244
 20
-65.955703
 30
0.0
  0
LWPOLYLINE
  5
218
100
AcDbEntity
  8
0
 62
7
100
AcDbPolyline
 90
2
 70
0
 10
-335.662244
 20
-68.955703
 30
0.0
 10
-335.662244
 20
-94.485844
 30
0.0
  0
LWPOLYLINE
  5
219
100
AcDbEntity
  8
0
 62
7
100
AcDbPolyline
 90
2
 70
0
 10
-335.662244
 20
-97.485844
 30
0.0
 10
-335.662244
 20
-111.750914
 30
0.0
  0
LWPOLYLINE
  5
21a
100
AcDbEntity
  8
0
 62
7
100
AcDbPolyline
 90
2
 70
0
 10
-331.702402
 20
90.960071
 30
0.0
 10
-331.702402
 20
76.695001
 30
0.0
  0
LWPOLYLINE
  5
21b
100
AcDbEntity
  8
0
 62
7
100
AcDbPolyline
 90
2
 70
0
 10
-331.702402
 20
73.695001
 30
0.0
 10
-331.702402
 20
48.164860
 30
0.0
  0
LWPOLYLINE
  5
21c
100
AcDbEntity
  8
0
 62
7
100
AcDbPolyline
 90
2
 70
0
 10
-331.702402
 20
45.164860
 30
0.0
 10
-331.702402
 20
19.634719
 30
0.0
  0
LWPOLYLINE
  5
21d
100
AcDbEntity
  8
0
 62
7
100
AcDbPolyline
 90
2
 70
0
 10
-331.702402
 20
16.634719
 30
0.0
 10
-331.702402
 20
-8.895421
 30
0.0
  0
LWPOLYLINE
  5
21e
100
AcDbEntity
  8
0
 62
7
100
AcDbPolyline
 90
2
 70
0
 10
-331.702402
 20
-11.895421
 30
0.0
 10
-331.702402
 20
-37.425562
 30
0.0
  0
LWPOLYLINE
  5
21f
100
AcDbEntity
  8
0
 62
7
100
AcDbPolyline
 90
2
 70
0
 10
-331.702402
 20
-40.425562
 30
0.0
 10
-331.702402
 20
-65.955703
 30
0.0
  0
LWPOLYLINE
  5
220
100
AcDbEntity
  8
0
 62
7
100
AcDbPolyline
 90
2
 70
0
 10
-331.702402
 20
-68.955703
 30
0.0
 10
-331.702402
 20
-94.485844
 30
0.0
  0
LWPOLYLINE
  5
221
100
AcDbEntity
  8
0
 62
7
100
AcDbPolyline
 90
2
 70
0
 10
-331.702402
 20
-97.485844
 30
0.0
 10
-331.702402
 20
-111.750914
 30
0.0
  0
LWPOLYLINE
  5
222
100
AcDbEntity
  8
0
 62
7
100
AcDbPolyline
 90
2
 70
0
 10
-327.742560
 20
90.960071
 30
0.0
 10
-327.742560
 20
76.695001
 30
0.0
  0
LWPOLYLINE
  5
223
100
AcDbEntity
  8
0
 62
7
100
AcDbPolyline
 90
2
 70
0
 10
-327.742560
 20
73.695001
 30
0.0
 10
-327.742560
 20
48.164860
 30
0.0
  0
LWPOLYLINE
  5
224
100
AcDbEntity
  8
0
 62
7
100
AcDbPolyline
 90
2
 70
0
 10
-327.742560
 20
45.164860
 30
0.0
 10
-327.742560
 20
19.634719
 30
0.0
  0
LWPOLYLINE
  5
225
100
AcDbEntity
  8
0
 62
7
100
AcDbPolyline
 90
2
 70
0
 10
-327.742560
 20
16.634719
 30
0.0
 10
-327.742560
 20
-8.895421
 30
0.0
  0
LWPOLYLINE
  5
226
100
AcDbEntity
  8
0
 62
7
100
AcDbPolyline
 90
2
 70
0
 10
-327.742560
 20
-11.895421
 30
0.0
 10
-327.742560
 20
-37.425562
 30
0.0
  0
LWPOLYLINE
  5
227
100
AcDbEntity
  8
0
 62
7
100
AcDbPolyline
 90
2
 70
0
 10
-327.742560
 20
-40.425562
 30
0.0
 10
-327.742560
 20
-65.955703
 30
0.0
  0
LWPOLYLINE
  5
228
100
AcDbEntity
  8
0
 62
7
100
AcDbPolyline
 90
2
 70
0
 10
-327.742560
 20
-68.955703
 30
0.0
 10
-327.742560
 20
-94.485844
 30
0.0
  0
LWPOLYLINE
  5
229
100
AcDbEntity
  8
0
 62
7
100
AcDbPolyline
 90
2
 70
0
 10
-327.742560
 20
-97.485844
 30
0.0
 10
-327.742560
 20
-111.750914
 30
0.0
  0
LWPOLYLINE
  5
22a
100
AcDbEntity
  8
0
 62
7
100
AcDbPolyline
 90
2
 70
0
 10
-323.782719
 20
90.960071
 30
0.0
 10
-323.782719
 20
76.695001
 30
0.0
  0
LWPOLYLINE
  5
22b
100
AcDbEntity
  8
0
 62
7
100
AcDbPolyline
 90
2
 70
0
 10
-323.782719
 20
73.695001
 30
0.0
 10
-323.782719
 20
48.164860
 30
0.0
  0
LWPOLYLINE
  5
22c
100
AcDbEntity
  8
0
 62
7
100
AcDbPolyline
 90
2
 70
0
 10
-323.782719
 20
45.164860
 30
0.0
 10
-323.782719
 20
19.634719
 30
0.0
  0
LWPOLYLINE
  5
22d
100
AcDbEntity
  8
0
 62
7
100
AcDbPolyline
 90
2
 70
0
 10
-323.782719
 20
16.634719
 30
0.0
 10
-323.782719
 20
-8.895421
 30
0.0
  0
LWPOLYLINE
  5
22e
100
AcDbEntity
  8
0
 62
7
100
AcDbPolyline
 90
2
 70
0
 10
-323.782719
 20
-11.895421
 30
0.0
 10
-323.782719
 20
-37.425562
 30
0.0
  0
LWPOLYLINE
  5
22f
100
AcDbEntity
  8
0
 62
7
100
AcDbPolyline
 90
2
 70
0
 10
-323.782719
 20
-40.425562
 30
0.0
 10
-323.782719
 20
-65.955703
 30
0.0
  0
LWPOLYLINE
  5
230
100
AcDbEntity
  8
0
 62
7
100
AcDbPolyline
 90
2
 70
0
 10
-323.782719
 20
-68.955703
 30
0.0
 10
-323.782719
 20
-94.485844
 30
0.0
  0
LWPOLYLINE
  5
231
100
AcDbEntity
  8
0
 62
7
100
AcDbPolyline
 90
2
 70
0
 10
-323.782719
 20
-97.485844
 30
0.0
 10
-323.782719
 20
-111.750914
 30
0.0
  0
LWPOLYLINE
  5
232
100
AcDbEntity
  8
0
 62
7
100
AcDbPolyline
 90
2
 70
0
 10
-319.822877
 20
90.960071
 30
0.0
 10
-319.822877
 20
76.695001
 30
0.0
  0
LWPOLYLINE
  5
233
100
AcDbEntity
  8
0
 62
7
100
AcDbPolyline
 90
2
 70
0
 10
-319.822877
 20
73.695001
 30
0.0
 10
-319.822877
 20
48.164860
 30
0.0
  0
LWPOLYLINE
  5
234
100
AcDbEntity
  8
0
 62
7
100
AcDbPolyline
 90
2
 70
0
 10
-319.822877
 20
45.164860
 30
0.0
 10
-319.822877
 20
19.634719
 30
0.0
  0
LWPOLYLINE
  5
235
100
AcDbEntity
  8
0
 62
7
100
AcDbPolyline
 90
2
 70
0
 10
-319.822877
 20
16.634719
 30
0.0
 10
-319.822877
 20
-8.895421
 30
0.0
  0
LWPOLYLINE
  5
236
100
AcDbEntity
  8
0
 62
7
100
AcDbPolyline
 90
2
 70
0
 10
-319.822877
 20
-11.895421
 30
0.0
 10
-319.822877
 20
-37.425562
 30
0.0
  0
LWPOLYLINE
  5
237
100
AcDbEntity
  8
0
 62
7
100
AcDbPolyline
 90
2
 70
0
 10
-319.822877
 20
-40.425562
 30
0.0
 10
-319.822877
 20
-65.955703
 30
0.0
  0
LWPOLYLINE
  5
238
100
AcDbEntity
  8
0
 62
7
100
AcDbPolyline
 90
2
 70
0
 10
-319.822877
 20
-68.955703
 30
0.0
 10
-319.822877
 20
-94.485844
 30
0.0
  0
LWPOLYLINE
  5
239
100
AcDbEntity
  8
0
 62
7
100
AcDbPolyline
 90
2
 70
0
 10
-319.822877
 20
-97.485844
 30
0.0
 10
-319.822877
 20
-111.750914
 30
0.0
  0
LWPOLYLINE
  5
23a
100
AcDbEntity
  8
0
 62
7
100
AcDbPolyline
 90
2
 70
0
 10
-315.863035
 20
90.960071
 30
0.0
 10
-315.863035
 20
76.695001
 30
0.0
  0
LWPOLYLINE
  5
23b
100
AcDbEntity
  8
0
 62
7
100
AcDbPolyline
 90
2
 70
0
 10
-315.863035
 20
73.695001
 30
0.0
 10
-315.863035
 20
48.164860
 30
0.0
  0
LWPOLYLINE
  5
23c
100
AcDbEntity
  8
0
 62
7
100
AcDbPolyline
 90
2
 70
0
 10
-315.863035
 20
45.164860
 30
0.0
 10
-315.863035
 20
19.634719
 30
0.0
  0
LWPOLYLINE
  5
23d
100
AcDbEntity
  8
0
 62
7
100
AcDbPolyline
 90
2
 70
0
 10
-315.863035
 20
16.634719
 30
0.0
 10
-315.863035
 20
-8.895421
 30
0.0
  0
LWPOLYLINE
  5
23e
100
AcDbEntity
  8
0
 62
7
100
AcDbPolyline
 90
2
 70
0
 10
-315.863035
 20
-11.895421
 30
0.0
 10
-315.863035
 20
-37.425562
 30
0.0
  0
LWPOLYLINE
  5
23f
100
AcDbEntity
  8
0
 62
7
100
AcDbPolyline
 90
2
 70
0
 10
-315.863035
 20
-40.425562
 30
0.0
 10
-315.863035
 20
-65.955703
 30
0.0
  0
LWPOLYLINE
  5
240
100
AcDbEntity
  8
0
 62
7
100
AcDbPolyline
 90
2
 70
0
 10
-315.863035
 20
-68.955703
 30
0.0
 10
-315.863035
 20
-94.485844
 30
0.0
  0
LWPOLYLINE
  5
241
100
AcDbEntity
  8
0
 62
7
100
AcDbPolyline
 90
2
 70
0
 10
-315.863035
 20
-97.485844
 30
0.0
 10
-315.863035
 20
-111.750914
 30
0.0
  0
LWPOLYLINE
  5
242
100
AcDbEntity
  8
0
 62
7
100
AcDbPolyline
 90
2
 70
0
 10
-311.903193
 20
90.960071
 30
0.0
 10
-311.903193
 20
76.695001
 30
0.0
  0
LWPOLYLINE
  5
243
100
AcDbEntity
  8
0
 62
7
100
AcDbPolyline
 90
2
 70
0
 10
-311.903193
 20
73.695001
 30
0.0
 10
-311.903193
 20
48.164860
 30
0.0
  0
LWPOLYLINE
  5
244
100
AcDbEntity
  8
0
 62
7
100
AcDbPolyline
 90
2
 70
0
 10
-311.903193
 20
45.164860
 30
0.0
 10
-311.903193
 20
19.634719
 30
0.0
  0
LWPOLYLINE
  5
245
100
AcDbEntity
  8
0
 62
7
100
AcDbPolyline
 90
2
 70
0
 10
-311.903193
 20
16.634719
 30
0.0
 10
-311.903193
 20
-8.895421
 30
0.0
  0
LWPOLYLINE
  5
246
100
AcDbEntity
  8
0
 62
7
100
AcDbPolyline
 90
2
 70
0
 10
-311.903193
 20
-11.895421
 30
0.0
 10
-311.903193
 20
-37.425562
 30
0.0
  0
LWPOLYLINE
  5
247
100
AcDbEntity
  8
0
 62
7
100
AcDbPolyline
 90
2
 70
0
 10
-311.903193
 20
-40.425562
 30
0.0
 10
-311.903193
 20
-65.955703
 30
0.0
  0
LWPOLYLINE
  5
248
100
AcDbEntity
  8
0
 62
7
100
AcDbPolyline
 90
2
 70
0
 10
-311.903193
 20
-68.955703
 30
0.0
 10
-311.903193
 20
-94.485844
 30
0.0
  0
LWPOLYLINE
  5
249
100
AcDbEntity
  8
0
 62
7
100
AcDbPolyline
 90
2
 70
0
 10
-311.903193
 20
-97.485844
 30
0.0
 10
-311.903193
 20
-111.750914
 30
0.0
  0
LWPOLYLINE
  5
24a
100
AcDbEntity
  8
0
 62
7
100
AcDbPolyline
 90
2
 70
0
 10
-307.943352
 20
90.960071
 30
0.0
 10
-307.943352
 20
76.695001
 30
0.0
  0
LWPOLYLINE
  5
24b
100
AcDbEntity
  8
0
 62
7
100
AcDbPolyline
 90
2
 70
0
 10
-307.943352
 20
73.695001
 30
0.0
 10
-307.943352
 20
48.164860
 30
0.0
  0
LWPOLYLINE
  5
24c
100
AcDbEntity
  8
0
 62
7
100
AcDbPolyline
 90
2
 70
0
 10
-307.943352
 20
45.164860
 30
0.0
 10
-307.943352
 20
19.634719
 30
0.0
  0
LWPOLYLINE
  5
24d
100
AcDbEntity
  8
0
 62
7
100
AcDbPolyline
 90
2
 70
0
 10
-307.943352
 20
16.634719
 30
0.0
 10
-307.943352
 20
-8.895421
 30
0.0
  0
LWPOLYLINE
  5
24e
100
AcDbEntity
  8
0
 62
7
100
AcDbPolyline
 90
2
 70
0
 10
-307.943352
 20
-11.895421
 30
0.0
 10
-307.943352
 20
-37.425562
 30
0.0
  0
LWPOLYLINE
  5
24f
100
AcDbEntity
  8
0
 62
7
100
AcDbPolyline
 90
2
 70
0
 10
-307.943352
 20
-40.425562
 30
0.0
 10
-307.943352
 20
-65.955703
 30
0.0
  0
LWPOLYLINE
  5
250
100
AcDbEntity
  8
0
 62
7
100
AcDbPolyline
 90
2
 70
0
 10
-307.943352
 20
-68.955703
 30
0.0
 10
-307.943352
 20
-94.485844
 30
0.0
  0
LWPOLYLINE
  5
251
100
AcDbEntity
  8
0
 62
7
100
AcDbPolyline
 90
2
 70
0
 10
-307.943352
 20
-97.485844
 30
0.0
 10
-307.943352
 20
-111.750914
 30
0.0
  0
LWPOLYLINE
  5
252
100
AcDbEntity
  8
0
 62
7
100
AcDbPolyline
 90
2
 70
0
 10
-303.983510
 20
90.960071
 30
0.0
 10
-303.983510
 20
76.695001
 30
0.0
  0
LWPOLYLINE
  5
253
100
AcDbEntity
  8
0
 62
7
100
AcDbPolyline
 90
2
 70
0
 10
-303.983510
 20
73.695001
 30
0.0
 10
-303.983510
 20
48.164860
 30
0.0
  0
LWPOLYLINE
  5
254
100
AcDbEntity
  8
0
 62
7
100
AcDbPolyline
 90
2
 70
0
 10
-303.983510
 20
45.164860
 30
0.0
 10
-303.983510
 20
19.634719
 30
0.0
  0
LWPOLYLINE
  5
255
100
AcDbEntity
  8
0
 62
7
100
AcDbPolyline
 90
2
 70
0
 10
-303.983510
 20
16.634719
 30
0.0
 10
-303.983510
 20
-8.895421
 30
0.0
  0
LWPOLYLINE
  5
256
100
AcDbEntity
  8
0
 62
7
100
AcDbPolyline
 90
2
 70
0
 10
-303.983510
 20
-11.895421
 30
0.0
 10
-303.983510
 20
-37.425562
 30
0.0
  0
LWPOLYLINE
  5
257
100
AcDbEntity
  8
0
 62
7
100
AcDbPolyline
 90
2
 70
0
 10
-303.983510
 20
-40.425562
 30
0.0
 10
-303.983510
 20
-65.955703
 30
0.0
  0
LWPOLYLINE
  5
258
100
AcDbEntity
  8
0
 62
7
100
AcDbPolyline
 90
2
 70
0
 10
-303.983510
 20
-68.955703
 30
0.0
 10
-303.983510
 20
-94.485844
 30
0.0
  0
LWPOLYLINE
  5
259
100
AcDbEntity
  8
0
 62
7
100
AcDbPolyline
 90
2
 70
0
 10
-303.983510
 20
-97.485844
 30
0.0
 10
-303.983510
 20
-111.750914
 30
0.0
  0
LWPOLYLINE
  5
25a
100
AcDbEntity
  8
0
 62
7
100
AcDbPolyline
 90
2
 70
0
 10
-300.023668
 20
90.960071
 30
0.0
 10
-300.023668
 20
76.695001
 30
0.0
  0
LWPOLYLINE
  5
25b
100
AcDbEntity
  8
0
 62
7
100
AcDbPolyline
 90
2
 70
0
 10
-300.023668
 20
73.695001
 30
0.0
 10
-300.023668
 20
48.164860
 30
0.0
  0
LWPOLYLINE
  5
25c
100
AcDbEntity
  8
0
 62
7
100
AcDbPolyline
 90
2
 70
0
 10
-300.023668
 20
45.164860
 30
0.0
 10
-300.023668
 20
19.634719
 30
0.0
  0
LWPOLYLINE
  5
25d
100
AcDbEntity
  8
0
 62
7
100
AcDbPolyline
 90
2
 70
0
 10
-300.023668
 20
16.634719
 30
0.0
 10
-300.023668
 20
-8.895421
 30
0.0
  0
LWPOLYLINE
  5
25e
100
AcDbEntity
  8
0
 62
7
100
AcDbPolyline
 90
2
 70
0
 10
-300.023668
 20
-11.895421
 30
0.0
 10
-300.023668
 20
-37.425562
 30
0.0
  0
LWPOLYLINE
  5
25f
100
AcDbEntity
  8
0
 62
7
100
AcDbPolyline
 90
2
 70
0
 10
-300.023668
 20
-40.425562
 30
0.0
 10
-300.023668
 20
-65.955703
 30
0.0
  0
LWPOLYLINE
  5
260
100
AcDbEntity
  8
0
 62
7
100
AcDbPolyline
 90
2
 70
0
 10
-300.023668
 20
-68.955703
 30
0.0
 10
-300.023668
 20
-94.485844
 30
0.0
  0
LWPOLYLINE
  5
261
100
AcDbEntity
  8
0
 62
7
100
AcDbPolyline
 90
2
 70
0
 10
-300.023668
 20
-97.485844
 30
0.0
 10
-300.023668
 20
-111.750914
 30
0.0
  0
LWPOLYLINE
  5
262
100
AcDbEntity
  8
0
 62
7
100
AcDbPolyline
 90
2
 70
0
 10
-296.063826
 20
90.960071
 30
0.0
 10
-296.063826
 20
76.695001
 30
0.0
  0
LWPOLYLINE
  5
263
100
AcDbEntity
  8
0
 62
7
100
AcDbPolyline
 90
2
 70
0
 10
-296.063826
 20
73.695001
 30
0.0
 10
-296.063826
 20
48.164860
 30
0.0
  0
LWPOLYLINE
  5
264
100
AcDbEntity
  8
0
 62
7
100
AcDbPolyline
 90
2
 70
0
 10
-296.063826
 20
45.164860
 30
0.0
 10
-296.063826
 20
19.634719
 30
0.0
  0
LWPOLYLINE
  5
265
100
AcDbEntity
  8
0
 62
7
100
AcDbPolyline
 90
2
 70
0
 10
-296.063826
 20
16.634719
 30
0.0
 10
-296.063826
 20
-8.895421
 30
0.0
  0
LWPOLYLINE
  5
266
100
AcDbEntity
  8
0
 62
7
100
AcDbPolyline
 90
2
 70
0
 10
-296.063826
 20
-11.895421
 30
0.0
 10
-296.063826
 20
-37.425562
 30
0.0
  0
LWPOLYLINE
  5
267
100
AcDbEntity
  8
0
 62
7
100
AcDbPolyline
 90
2
 70
0
 10
-296.063826
 20
-40.425562
 30
0.0
 10
-296.063826
 20
-65.955703
 30
0.0
  0
LWPOLYLINE
  5
268
100
AcDbEntity
  8
0
 62
7
100
AcDbPolyline
 90
2
 70
0
 10
-296.063826
 20
-68.955703
 30
0.0
 10
-296.063826
 20
-94.485844
 30
0.0
  0
LWPOLYLINE
  5
269
100
AcDbEntity
  8
0
 62
7
100
AcDbPolyline
 90
2
 70
0
 10
-296.063826
 20
-97.485844
 30
0.0
 10
-296.063826
 20
-111.750914
 30
0.0
  0
LWPOLYLINE
  5
26a
100
AcDbEntity
  8
0
 62
7
100
AcDbPolyline
 90
2
 70
0
 10
-292.103985
 20
90.960071
 30
0.0
 10
-292.103985
 20
76.695001
 30
0.0
  0
LWPOLYLINE
  5
26b
100
AcDbEntity
  8
0
 62
7
100
AcDbPolyline
 90
2
 70
0
 10
-292.103985
 20
73.695001
 30
0.0
 10
-292.103985
 20
48.164860
 30
0.0
  0
LWPOLYLINE
  5
26c
100
AcDbEntity
  8
0
 62
7
100
AcDbPolyline
 90
2
 70
0
 10
-292.103985
 20
45.164860
 30
0.0
 10
-292.103985
 20
19.634719
 30
0.0
  0
LWPOLYLINE
  5
26d
100
AcDbEntity
  8
0
 62
7
100
AcDbPolyline
 90
2
 70
0
 10
-292.103985
 20
16.634719
 30
0.0
 10
-292.103985
 20
-8.895421
 30
0.0
  0
LWPOLYLINE
  5
26e
100
AcDbEntity
  8
0
 62
7
100
AcDbPolyline
 90
2
 70
0
 10
-292.103985
 20
-11.895421
 30
0.0
 10
-292.103985
 20
-37.425562
 30
0.0
  0
LWPOLYLINE
  5
26f
100
AcDbEntity
  8
0
 62
7
100
AcDbPolyline
 90
2
 70
0
 10
-292.103985
 20
-40.425562
 30
0.0
 10
-292.103985
 20
-65.955703
 30
0.0
  0
LWPOLYLINE
  5
270
100
AcDbEntity
  8
0
 62
7
100
AcDbPolyline
 90
2
 70
0
 10
-292.103985
 20
-68.955703
 30
0.0
 10
-292.103985
 20
-94.485844
 30
0.0
  0
LWPOLYLINE
  5
271
100
AcDbEntity
  8
0
 62
7
100
AcDbPolyline
 90
2
 70
0
 10
-292.103985
 20
-97.485844
 30
0.0
 10
-292.103985
 20
-111.750914
 30
0.0
  0
LWPOLYLINE
  5
272
100
AcDbEntity
  8
0
 62
7
100
AcDbPolyline
 90
2
 70
0
 10
-288.144143
 20
90.960071
 30
0.0
 10
-288.144143
 20
76.695001
 30
0.0
  0
LWPOLYLINE
  5
273
100
AcDbEntity
  8
0
 62
7
100
AcDbPolyline
 90
2
 70
0
 10
-288.144143
 20
73.695001
 30
0.0
 10
-288.144143
 20
48.164860
 30
0.0
  0
LWPOLYLINE
  5
274
100
AcDbEntity
  8
0
 62
7
100
AcDbPolyline
 90
2
 70
0
 10
-288.144143
 20
45.164860
 30
0.0
 10
-288.144143
 20
19.634719
 30
0.0
  0
LWPOLYLINE
  5
275
100
AcDbEntity
  8
0
 62
7
100
AcDbPolyline
 90
2
 70
0
 10
-288.144143
 20
16.634719
 30
0.0
 10
-288.144143
 20
-8.895421
 30
0.0
  0
LWPOLYLINE
  5
276
100
AcDbEntity
  8
0
 62
7
100
AcDbPolyline
 90
2
 70
0
 10
-288.144143
 20
-11.895421
 30
0.0
 10
-288.144143
 20
-37.425562
 30
0.0
  0
LWPOLYLINE
  5
277
100
AcDbEntity
  8
0
 62
7
100
AcDbPolyline
 90
2
 70
0
 10
-288.144143
 20
-40.425562
 30
0.0
 10
-288.144143
 20
-65.955703
 30
0.0
  0
LWPOLYLINE
  5
278
100
AcDbEntity
  8
0
 62
7
100
AcDbPolyline
 90
2
 70
0
 10
-288.144143
 20
-68.955703
 30
0.0
 10
-288.144143
 20
-94.485844
 30
0.0
  0
LWPOLYLINE
  5
279
100
AcDbEntity
  8
0
 62
7
100
AcDbPolyline
 90
2
 70
0
 10
-288.144143
 20
-97.485844
 30
0.0
 10
-288.144143
 20
-111.750914
 30
0.0
  0
LWPOLYLINE
  5
27a
100
AcDbEntity
  8
0
 62
7
100
AcDbPolyline
 90
2
 70
0
 10
-284.184301
 20
90.960071
 30
0.0
 10
-284.184301
 20
76.695001
 30
0.0
  0
LWPOLYLINE
  5
27b
100
AcDbEntity
  8
0
 62
7
100
AcDbPolyline
 90
2
 70
0
 10
-284.184301
 20
73.695001
 30
0.0
 10
-284.184301
 20
48.164860
 30
0.0
  0
LWPOLYLINE
  5
27c
100
AcDbEntity
  8
0
 62
7
100
AcDbPolyline
 90
2
 70
0
 10
-284.184301
 20
45.164860
 30
0.0
 10
-284.184301
 20
19.634719
 30
0.0
  0
LWPOLYLINE
  5
27d
100
AcDbEntity
  8
0
 62
7
100
AcDbPolyline
 90
2
 70
0
 10
-284.184301
 20
16.634719
 30
0.0
 10
-284.184301
 20
-8.895421
 30
0.0
  0
LWPOLYLINE
  5
27e
100
AcDbEntity
  8
0
 62
7
100
AcDbPolyline
 90
2
 70
0
 10
-284.184301
 20
-11.895421
 30
0.0
 10
-284.184301
 20
-37.425562
 30
0.0
  0
LWPOLYLINE
  5
27f
100
AcDbEntity
  8
0
 62
7
100
AcDbPolyline
 90
2
 70
0
 10
-284.184301
 20
-40.425562
 30
0.0
 10
-284.184301
 20
-65.955703
 30
0.0
  0
LWPOLYLINE
  5
280
100
AcDbEntity
  8
0
 62
7
100
AcDbPolyline
 90
2
 70
0
 10
-284.184301
 20
-68.955703
 30
0.0
 10
-284.184301
 20
-94.485844
 30
0.0
  0
LWPOLYLINE
  5
281
100
AcDbEntity
  8
0
 62
7
100
AcDbPolyline
 90
2
 70
0
 10
-284.184301
 20
-97.485844
 30
0.0
 10
-284.184301
 20
-111.750914
 30
0.0
  0
LWPOLYLINE
  5
282
100
AcDbEntity
  8
0
 62
7
100
AcDbPolyline
 90
2
 70
0
 10
-280.224459
 20
90.960071
 30
0.0
 10
-280.224459
 20
76.695001
 30
0.0
  0
LWPOLYLINE
  5
283
100
AcDbEntity
  8
0
 62
7
100
AcDbPolyline
 90
2
 70
0
 10
-280.224459
 20
73.695001
 30
0.0
 10
-280.224459
 20
48.164860
 30
0.0
  0
LWPOLYLINE
  5
284
100
AcDbEntity
  8
0
 62
7
100
AcDbPolyline
 90
2
 70
0
 10
-280.224459
 20
45.164860
 30
0.0
 10
-280.224459
 20
19.634719
 30
0.0
  0
LWPOLYLINE
  5
285
100
AcDbEntity
  8
0
 62
7
100
AcDbPolyline
 90
2
 70
0
 10
-280.224459
 20
16.634719
 30
0.0
 10
-280.224459
 20
-8.895421
 30
0.0
  0
LWPOLYLINE
  5
286
100
AcDbEntity
  8
0
 62
7
100
AcDbPolyline
 90
2
 70
0
 10
-280.224459
 20
-11.895421
 30
0.0
 10
-280.224459
 20
-37.425562
 30
0.0
  0
LWPOLYLINE
  5
287
100
AcDbEntity
  8
0
 62
7
100
AcDbPolyline
 90
2
 70
0
 10
-280.224459
 20
-40.425562
 30
0.0
 10
-280.224459
 20
-65.955703
 30
0.0
  0
LWPOLYLINE
  5
288
100
AcDbEntity
  8
0
 62
7
100
AcDbPolyline
 90
2
 70
0
 10
-280.224459
 20
-68.955703
 30
0.0
 10
-280.224459
 20
-94.485844
 30
0.0
  0
LWPOLYLINE
  5
289
100
AcDbEntity
  8
0
 62
7
100
AcDbPolyline
 90
2
 70
0
 10
-280.224459
 20
-97.485844
 30
0.0
 10
-280.224459
 20
-111.750914
 30
0.0
  0
LWPOLYLINE
  5
28a
100
AcDbEntity
  8
0
 62
7
100
AcDbPolyline
 90
2
 70
0
 10
-276.264618
 20
90.960071
 30
0.0
 10
-276.264618
 20
76.695001
 30
0.0
  0
LWPOLYLINE
  5
28b
100
AcDbEntity
  8
0
 62
7
100
AcDbPolyline
 90
2
 70
0
 10
-276.264618
 20
73.695001
 30
0.0
 10
-276.264618
 20
48.164860
 30
0.0
  0
LWPOLYLINE
  5
28c
100
AcDbEntity
  8
0
 62
7
100
AcDbPolyline
 90
2
 70
0
 10
-276.264618
 20
45.164860
 30
0.0
 10
-276.264618
 20
19.634719
 30
0.0
  0
LWPOLYLINE
  5
28d
100
AcDbEntity
  8
0
 62
7
100
AcDbPolyline
 90
2
 70
0
 10
-276.264618
 20
16.634719
 30
0.0
 10
-276.264618
 20
-8.895421
 30
0.0
  0
LWPOLYLINE
  5
28e
100
AcDbEntity
  8
0
 62
7
100
AcDbPolyline
 90
2
 70
0
 10
-276.264618
 20
-11.895421
 30
0.0
 10
-276.264618
 20
-37.425562
 30
0.0
  0
LWPOLYLINE
  5
28f
100
AcDbEntity
  8
0
 62
7
100
AcDbPolyline
 90
2
 70
0
 10
-276.264618
 20
-40.425562
 30
0.0
 10
-276.264618
 20
-65.955703
 30
0.0
  0
LWPOLYLINE
  5
290
100
AcDbEntity
  8
0
 62
7
100
AcDbPolyline
 90
2
 70
0
 10
-276.264618
 20
-68.955703
 30
0.0
 10
-276.264618
 20
-94.485844
 30
0.0
  0
LWPOLYLINE
  5
291
100
AcDbEntity
  8
0
 62
7
100
AcDbPolyline
 90
2
 70
0
 10
-276.264618
 20
-97.485844
 30
0.0
 10
-276.264618
 20
-111.750914
 30
0.0
  0
LWPOLYLINE
  5
292
100
AcDbEntity
  8
0
 62
7
100
AcDbPolyline
 90
2
 70
0
 10
-272.304776
 20
90.960071
 30
0.0
 10
-272.304776
 20
76.695001
 30
0.0
  0
LWPOLYLINE
  5
293
100
AcDbEntity
  8
0
 62
7
100
AcDbPolyline
 90
2
 70
0
 10
-272.304776
 20
73.695001
 30
0.0
 10
-272.304776
 20
48.164860
 30
0.0
  0
LWPOLYLINE
  5
294
100
AcDbEntity
  8
0
 62
7
100
AcDbPolyline
 90
2
 70
0
 10
-272.304776
 20
45.164860
 30
0.0
 10
-272.304776
 20
19.634719
 30
0.0
  0
LWPOLYLINE
  5
295
100
AcDbEntity
  8
0
 62
7
100
AcDbPolyline
 90
2
 70
0
 10
-272.304776
 20
16.634719
 30
0.0
 10
-272.304776
 20
-8.895421
 30
0.0
  0
LWPOLYLINE
  5
296
100
AcDbEntity
  8
0
 62
7
100
AcDbPolyline
 90
2
 70
0
 10
-272.304776
 20
-11.895421
 30
0.0
 10
-272.304776
 20
-37.425562
 30
0.0
  0
LWPOLYLINE
  5
297
100
AcDbEntity
  8
0
 62
7
100
AcDbPolyline
 90
2
 70
0
 10
-272.304776
 20
-40.425562
 30
0.0
 10
-272.304776
 20
-65.955703
 30
0.0
  0
LWPOLYLINE
  5
298
100
AcDbEntity
  8
0
 62
7
100
AcDbPolyline
 90
2
 70
0
 10
-272.304776
 20
-68.955703
 30
0.0
 10
-272.304776
 20
-94.485844
 30
0.0
  0
LWPOLYLINE
  5
299
100
AcDbEntity
  8
0
 62
7
100
AcDbPolyline
 90
2
 70
0
 10
-272.304776
 20
-97.485844
 30
0.0
 10
-272.304776
 20
-111.750914
 30
0.0
  0
LWPOLYLINE
  5
29a
100
AcDbEntity
  8
0
 62
7
100
AcDbPolyline
 90
2
 70
0
 10
-268.344934
 20
90.960071
 30
0.0
 10
-268.344934
 20
76.695001
 30
0.0
  0
LWPOLYLINE
  5
29b
100
AcDbEntity
  8
0
 62
7
100
AcDbPolyline
 90
2
 70
0
 10
-268.344934
 20
73.695001
 30
0.0
 10
-268.344934
 20
48.164860
 30
0.0
  0
LWPOLYLINE
  5
29c
100
AcDbEntity
  8
0
 62
7
100
AcDbPolyline
 90
2
 70
0
 10
-268.344934
 20
45.164860
 30
0.0
 10
-268.344934
 20
19.634719
 30
0.0
  0
LWPOLYLINE
  5
29d
100
AcDbEntity
  8
0
 62
7
100
AcDbPolyline
 90
2
 70
0
 10
-268.344934
 20
16.634719
 30
0.0
 10
-268.344934
 20
-8.895421
 30
0.0
  0
LWPOLYLINE
  5
29e
100
AcDbEntity
  8
0
 62
7
100
AcDbPolyline
 90
2
 70
0
 10
-268.344934
 20
-11.895421
 30
0.0
 10
-268.344934
 20
-37.425562
 30
0.0
  0
LWPOLYLINE
  5
29f
100
AcDbEntity
  8
0
 62
7
100
AcDbPolyline
 90
2
 70
0
 10
-268.344934
 20
-40.425562
 30
0.0
 10
-268.344934
 20
-65.955703
 30
0.0
  0
LWPOLYLINE
  5
2a0
100
AcDbEntity
  8
0
 62
7
100
AcDbPolyline
 90
2
 70
0
 10
-268.344934
 20
-68.955703
 30
0.0
 10
-268.344934
 20
-94.485844
 30
0.0
  0
LWPOLYLINE
  5
2a1
100
AcDbEntity
  8
0
 62
7
100
AcDbPolyline
 90
2
 70
0
 10
-268.344934
 20
-97.485844
 30
0.0
 10
-268.344934
 20
-111.750914
 30
0.0
  0
LWPOLYLINE
  5
2a2
100
AcDbEntity
  8
0
 62
7
100
AcDbPolyline
 90
2
 70
0
 10
-264.385093
 20
90.960071
 30
0.0
 10
-264.385093
 20
76.695001
 30
0.0
  0
LWPOLYLINE
  5
2a3
100
AcDbEntity
  8
0
 62
7
100
AcDbPolyline
 90
2
 70
0
 10
-264.385093
 20
73.695001
 30
0.0
 10
-264.385093
 20
48.164860
 30
0.0
  0
LWPOLYLINE
  5
2a4
100
AcDbEntity
  8
0
 62
7
100
AcDbPolyline
 90
2
 70
0
 10
-264.385093
 20
45.164860
 30
0.0
 10
-264.385093
 20
19.634719
 30
0.0
  0
LWPOLYLINE
  5
2a5
100
AcDbEntity
  8
0
 62
7
100
AcDbPolyline
 90
2
 70
0
 10
-264.385093
 20
16.634719
 30
0.0
 10
-264.385093
 20
-8.895421
 30
0.0
  0
LWPOLYLINE
  5
2a6
100
AcDbEntity
  8
0
 62
7
100
AcDbPolyline
 90
2
 70
0
 10
-264.385093
 20
-11.895421
 30
0.0
 10
-264.385093
 20
-37.425562
 30
0.0
  0
LWPOLYLINE
  5
2a7
100
AcDbEntity
  8
0
 62
7
100
AcDbPolyline
 90
2
 70
0
 10
-264.385093
 20
-40.425562
 30
0.0
 10
-264.385093
 20
-65.955703
 30
0.0
  0
LWPOLYLINE
  5
2a8
100
AcDbEntity
  8
0
 62
7
100
AcDbPolyline
 90
2
 70
0
 10
-264.385093
 20
-68.955703
 30
0.0
 10
-264.385093
 20
-94.485844
 30
0.0
  0
LWPOLYLINE
  5
2a9
100
AcDbEntity
  8
0
 62
7
100
AcDbPolyline
 90
2
 70
0
 10
-264.385093
 20
-97.485844
 30
0.0
 10
-264.385093
 20
-111.750914
 30
0.0
  0
LWPOLYLINE
  5
2aa
100
AcDbEntity
  8
0
 62
7
100
AcDbPolyline
 90
2
 70
0
 10
-260.425251
 20
90.960071
 30
0.0
 10
-260.425251
 20
76.695001
 30
0.0
  0
LWPOLYLINE
  5
2ab
100
AcDbEntity
  8
0
 62
7
100
AcDbPolyline
 90
2
 70
0
 10
-260.425251
 20
73.695001
 30
0.0
 10
-260.425251
 20
48.164860
 30
0.0
  0
LWPOLYLINE
  5
2ac
100
AcDbEntity
  8
0
 62
7
100
AcDbPolyline
 90
2
 70
0
 10
-260.425251
 20
45.164860
 30
0.0
 10
-260.425251
 20
19.634719
 30
0.0
  0
LWPOLYLINE
  5
2ad
100
AcDbEntity
  8
0
 62
7
100
AcDbPolyline
 90
2
 70
0
 10
-260.425251
 20
16.634719
 30
0.0
 10
-260.425251
 20
-8.895421
 30
0.0
  0
LWPOLYLINE
  5
2ae
100
AcDbEntity
  8
0
 62
7
100
AcDbPolyline
 90
2
 70
0
 10
-260.425251
 20
-11.895421
 30
0.0
 10
-260.425251
 20
-37.425562
 30
0.0
  0
LWPOLYLINE
  5
2af
100
AcDbEntity
  8
0
 62
7
100
AcDbPolyline
 90
2
 70
0
 10
-260.425251
 20
-40.425562
 30
0.0
 10
-260.425251
 20
-65.955703
 30
0.0
  0
LWPOLYLINE
  5
2b0
100
AcDbEntity
  8
0
 62
7
100
AcDbPolyline
 90
2
 70
0
 10
-260.425251
 20
-68.955703
 30
0.0
 10
-260.425251
 20
-94.485844
 30
0.0
  0
LWPOLYLINE
  5
2b1
100
AcDbEntity
  8
0
 62
7
100
AcDbPolyline
 90
2
 70
0
 10
-260.425251
 20
-97.485844
 30
0.0
 10
-260.425251
 20
-111.750914
 30
0.0
  0
LWPOLYLINE
  5
2b2
100
AcDbEntity
  8
0
 62
7
100
AcDbPolyline
 90
2
 70
0
 10
-256.465409
 20
90.960071
 30
0.0
 10
-256.465409
 20
76.695001
 30
0.0
  0
LWPOLYLINE
  5
2b3
100
AcDbEntity
  8
0
 62
7
100
AcDbPolyline
 90
2
 70
0
 10
-256.465409
 20
73.695001
 30
0.0
 10
-256.465409
 20
48.164860
 30
0.0
  0
LWPOLYLINE
  5
2b4
100
AcDbEntity
  8
0
 62
7
100
AcDbPolyline
 90
2
 70
0
 10
-256.465409
 20
45.164860
 30
0.0
 10
-256.465409
 20
19.634719
 30
0.0
  0
LWPOLYLINE
  5
2b5
100
AcDbEntity
  8
0
 62
7
100
AcDbPolyline
 90
2
 70
0
 10
-256.465409
 20
16.634719
 30
0.0
 10
-256.465409
 20
-8.895421
 30
0.0
  0
LWPOLYLINE
  5
2b6
100
AcDbEntity
  8
0
 62
7
100
AcDbPolyline
 90
2
 70
0
 10
-256.465409
 20
-11.895421
 30
0.0
 10
-256.465409
 20
-37.425562
 30
0.0
  0
LWPOLYLINE
  5
2b7
100
AcDbEntity
  8
0
 62
7
100
AcDbPolyline
 90
2
 70
0
 10
-256.465409
 20
-40.425562
 30
0.0
 10
-256.465409
 20
-65.955703
 30
0.0
  0
LWPOLYLINE
  5
2b8
100
AcDbEntity
  8
0
 62
7
100
AcDbPolyline
 90
2
 70
0
 10
-256.465409
 20
-68.955703
 30
0.0
 10
-256.465409
 20
-94.485844
 30
0.0
  0
LWPOLYLINE
  5
2b9
100
AcDbEntity
  8
0
 62
7
100
AcDbPolyline
 90
2
 70
0
 10
-256.465409
 20
-97.485844
 30
0.0
 10
-256.465409
 20
-111.750914
 30
0.0
  0
LWPOLYLINE
  5
2ba
100
AcDbEntity
  8
0
 62
7
100
AcDbPolyline
 90
2
 70
0
 10
-252.505567
 20
90.960071
 30
0.0
 10
-252.505567
 20
76.695001
 30
0.0
  0
LWPOLYLINE
  5
2bb
100
AcDbEntity
  8
0
 62
7
100
AcDbPolyline
 90
2
 70
0
 10
-252.505567
 20
73.695001
 30
0.0
 10
-252.505567
 20
48.164860
 30
0.0
  0
LWPOLYLINE
  5
2bc
100
AcDbEntity
  8
0
 62
7
100
AcDbPolyline
 90
2
 70
0
 10
-252.505567
 20
45.164860
 30
0.0
 10
-252.505567
 20
19.634719
 30
0.0
  0
LWPOLYLINE
  5
2bd
100
AcDbEntity
  8
0
 62
7
100
AcDbPolyline
 90
2
 70
0
 10
-252.505567
 20
16.634719
 30
0.0
 10
-252.505567
 20
-8.895421
 30
0.0
  0
LWPOLYLINE
  5
2be
100
AcDbEntity
  8
0
 62
7
100
AcDbPolyline
 90
2
 70
0
 10
-252.505567
 20
-11.895421
 30
0.0
 10
-252.505567
 20
-37.425562
 30
0.0
  0
LWPOLYLINE
  5
2bf
100
AcDbEntity
  8
0
 62
7
100
AcDbPolyline
 90
2
 70
0
 10
-252.505567
 20
-40.425562
 30
0.0
 10
-252.505567
 20
-65.955703
 30
0.0
  0
LWPOLYLINE
  5
2c0
100
AcDbEntity
  8
0
 62
7
100
AcDbPolyline
 90
2
 70
0
 10
-252.505567
 20
-68.955703
 30
0.0
 10
-252.505567
 20
-94.485844
 30
0.0
  0
LWPOLYLINE
  5
2c1
100
AcDbEntity
  8
0
 62
7
100
AcDbPolyline
 90
2
 70
0
 10
-252.505567
 20
-97.485844
 30
0.0
 10
-252.505567
 20
-111.750914
 30
0.0
  0
LWPOLYLINE
  5
2c2
100
AcDbEntity
  8
0
 62
7
100
AcDbPolyline
 90
2
 70
0
 10
-248.545726
 20
90.960071
 30
0.0
 10
-248.545726
 20
76.695001
 30
0.0
  0
LWPOLYLINE
  5
2c3
100
AcDbEntity
  8
0
 62
7
100
AcDbPolyline
 90
2
 70
0
 10
-248.545726
 20
73.695001
 30
0.0
 10
-248.545726
 20
48.164860
 30
0.0
  0
LWPOLYLINE
  5
2c4
100
AcDbEntity
  8
0
 62
7
100
AcDbPolyline
 90
2
 70
0
 10
-248.545726
 20
45.164860
 30
0.0
 10
-248.545726
 20
19.634719
 30
0.0
  0
LWPOLYLINE
  5
2c5
100
AcDbEntity
  8
0
 62
7
100
AcDbPolyline
 90
2
 70
0
 10
-248.545726
 20
16.634719
 30
0.0
 10
-248.545726
 20
-8.895421
 30
0.0
  0
LWPOLYLINE
  5
2c6
100
AcDbEntity
  8
0
 62
7
100
AcDbPolyline
 90
2
 70
0
 10
-248.545726
 20
-11.895421
 30
0.0
 10
-248.545726
 20
-37.425562
 30
0.0
  0
LWPOLYLINE
  5
2c7
100
AcDbEntity
  8
0
 62
7
100
AcDbPolyline
 90
2
 70
0
 10
-248.545726
 20
-40.425562
 30
0.0
 10
-248.545726
 20
-65.955703
 30
0.0
  0
LWPOLYLINE
  5
2c8
100
AcDbEntity
  8
0
 62
7
100
AcDbPolyline
 90
2
 70
0
 10
-248.545726
 20
-68.955703
 30
0.0
 10
-248.545726
 20
-94.485844
 30
0.0
  0
LWPOLYLINE
  5
2c9
100
AcDbEntity
  8
0
 62
7
100
AcDbPolyline
 90
2
 70
0
 10
-248.545726
 20
-97.485844
 30
0.0
 10
-248.545726
 20
-111.750914
 30
0.0
  0
LWPOLYLINE
  5
2ca
100
AcDbEntity
  8
0
 62
7
100
AcDbPolyline
 90
2
 70
0
 10
-244.585884
 20
90.960071
 30
0.0
 10
-244.585884
 20
76.695001
 30
0.0
  0
LWPOLYLINE
  5
2cb
100
AcDbEntity
  8
0
 62
7
100
AcDbPolyline
 90
2
 70
0
 10
-244.585884
 20
73.695001
 30
0.0
 10
-244.585884
 20
48.164860
 30
0.0
  0
LWPOLYLINE
  5
2cc
100
AcDbEntity
  8
0
 62
7
100
AcDbPolyline
 90
2
 70
0
 10
-244.585884
 20
45.164860
 30
0.0
 10
-244.585884
 20
19.634719
 30
0.0
  0
LWPOLYLINE
  5
2cd
100
AcDbEntity
  8
0
 62
7
100
AcDbPolyline
 90
2
 70
0
 10
-244.585884
 20
16.634719
 30
0.0
 10
-244.585884
 20
-8.895421
 30
0.0
  0
LWPOLYLINE
  5
2ce
100
AcDbEntity
  8
0
 62
7
100
AcDbPolyline
 90
2
 70
0
 10
-244.585884
 20
-11.895421
 30
0.0
 10
-244.585884
 20
-37.425562
 30
0.0
  0
LWPOLYLINE
  5
2cf
100
AcDbEntity
  8
0
 62
7
100
AcDbPolyline
 90
2
 70
0
 10
-244.585884
 20
-40.425562
 30
0.0
 10
-244.585884
 20
-65.955703
 30
0.0
  0
LWPOLYLINE
  5
2d0
100
AcDbEntity
  8
0
 62
7
100
AcDbPolyline
 90
2
 70
0
 10
-244.585884
 20
-68.955703
 30
0.0
 10
-244.585884
 20
-94.485844
 30
0.0
  0
LWPOLYLINE
  5
2d1
100
AcDbEntity
  8
0
 62
7
100
AcDbPolyline
 90
2
 70
0
 10
-244.585884
 20
-97.485844
 30
0.0
 10
-244.585884
 20
-111.750914
 30
0.0
  0
LWPOLYLINE
  5
2d2
100
AcDbEntity
  8
0
 62
7
100
AcDbPolyline
 90
2
 70
0
 10
-240.626042
 20
90.960071
 30
0.0
 10
-240.626042
 20
76.695001
 30
0.0
  0
LWPOLYLINE
  5
2d3
100
AcDbEntity
  8
0
 62
7
100
AcDbPolyline
 90
2
 70
0
 10
-240.626042
 20
73.695001
 30
0.0
 10
-240.626042
 20
48.164860
 30
0.0
  0
LWPOLYLINE
  5
2d4
100
AcDbEntity
  8
0
 62
7
100
AcDbPolyline
 90
2
 70
0
 10
-240.626042
 20
45.164860
 30
0.0
 10
-240.626042
 20
19.634719
 30
0.0
  0
LWPOLYLINE
  5
2d5
100
AcDbEntity
  8
0
 62
7
100
AcDbPolyline
 90
2
 70
0
 10
-240.626042
 20
16.634719
 30
0.0
 10
-240.626042
 20
-8.895421
 30
0.0
  0
LWPOLYLINE
  5
2d6
100
AcDbEntity
  8
0
 62
7
100
AcDbPolyline
 90
2
 70
0
 10
-240.626042
 20
-11.895421
 30
0.0
 10
-240.626042
 20
-37.425562
 30
0.0
  0
LWPOLYLINE
  5
2d7
100
AcDbEntity
  8
0
 62
7
100
AcDbPolyline
 90
2
 70
0
 10
-240.626042
 20
-40.425562
 30
0.0
 10
-240.626042
 20
-65.955703
 30
0.0
  0
LWPOLYLINE
  5
2d8
100
AcDbEntity
  8
0
 62
7
100
AcDbPolyline
 90
2
 70
0
 10
-240.626042
 20
-68.955703
 30
0.0
 10
-240.626042
 20
-94.485844
 30
0.0
  0
LWPOLYLINE
  5
2d9
100
AcDbEntity
  8
0
 62
7
100
AcDbPolyline
 90
2
 70
0
 10
-240.626042
 20
-97.485844
 30
0.0
 10
-240.626042
 20
-111.750914
 30
0.0
  0
LWPOLYLINE
  5
2da
100
AcDbEntity
  8
0
 62
7
100
AcDbPolyline
 90
2
 70
0
 10
-236.666200
 20
90.960071
 30
0.0
 10
-236.666200
 20
76.695001
 30
0.0
  0
LWPOLYLINE
  5
2db
100
AcDbEntity
  8
0
 62
7
100
AcDbPolyline
 90
2
 70
0
 10
-236.666200
 20
73.695001
 30
0.0
 10
-236.666200
 20
48.164860
 30
0.0
  0
LWPOLYLINE
  5
2dc
100
AcDbEntity
  8
0
 62
7
100
AcDbPolyline
 90
2
 70
0
 10
-236.666200
 20
45.164860
 30
0.0
 10
-236.666200
 20
19.634719
 30
0.0
  0
LWPOLYLINE
  5
2dd
100
AcDbEntity
  8
0
 62
7
100
AcDbPolyline
 90
2
 70
0
 10
-236.666200
 20
16.634719
 30
0.0
 10
-236.666200
 20
-8.895421
 30
0.0
  0
LWPOLYLINE
  5
2de
100
AcDbEntity
  8
0
 62
7
100
AcDbPolyline
 90
2
 70
0
 10
-236.666200
 20
-11.895421
 30
0.0
 10
-236.666200
 20
-37.425562
 30
0.0
  0
LWPOLYLINE
  5
2df
100
AcDbEntity
  8
0
 62
7
100
AcDbPolyline
 90
2
 70
0
 10
-236.666200
 20
-40.425562
 30
0.0
 10
-236.666200
 20
-65.955703
 30
0.0
  0
LWPOLYLINE
  5
2e0
100
AcDbEntity
  8
0
 62
7
100
AcDbPolyline
 90
2
 70
0
 10
-236.666200
 20
-68.955703
 30
0.0
 10
-236.666200
 20
-94.485844
 30
0.0
  0
LWPOLYLINE
  5
2e1
100
AcDbEntity
  8
0
 62
7
100
AcDbPolyline
 90
2
 70
0
 10
-236.666200
 20
-97.485844
 30
0.0
 10
-236.666200
 20
-111.750914
 30
0.0
  0
LWPOLYLINE
  5
2e2
100
AcDbEntity
  8
0
 62
7
100
AcDbPolyline
 90
2
 70
0
 10
-232.706359
 20
90.960071
 30
0.0
 10
-232.706359
 20
76.695001
 30
0.0
  0
LWPOLYLINE
  5
2e3
100
AcDbEntity
  8
0
 62
7
100
AcDbPolyline
 90
2
 70
0
 10
-232.706359
 20
73.695001
 30
0.0
 10
-232.706359
 20
48.164860
 30
0.0
  0
LWPOLYLINE
  5
2e4
100
AcDbEntity
  8
0
 62
7
100
AcDbPolyline
 90
2
 70
0
 10
-232.706359
 20
45.164860
 30
0.0
 10
-232.706359
 20
19.634719
 30
0.0
  0
LWPOLYLINE
  5
2e5
100
AcDbEntity
  8
0
 62
7
100
AcDbPolyline
 90
2
 70
0
 10
-232.706359
 20
16.634719
 30
0.0
 10
-232.706359
 20
-8.895421
 30
0.0
  0
LWPOLYLINE
  5
2e6
100
AcDbEntity
  8
0
 62
7
100
AcDbPolyline
 90
2
 70
0
 10
-232.706359
 20
-11.895421
 30
0.0
 10
-232.706359
 20
-37.425562
 30
0.0
  0
LWPOLYLINE
  5
2e7
100
AcDbEntity
  8
0
 62
7
100
AcDbPolyline
 90
2
 70
0
 10
-232.706359
 20
-40.425562
 30
0.0
 10
-232.706359
 20
-65.955703
 30
0.0
  0
LWPOLYLINE
  5
2e8
100
AcDbEntity
  8
0
 62
7
100
AcDbPolyline
 90
2
 70
0
 10
-232.706359
 20
-68.955703
 30
0.0
 10
-232.706359
 20
-94.485844
 30
0.0
  0
LWPOLYLINE
  5
2e9
100
AcDbEntity
  8
0
 62
7
100
AcDbPolyline
 90
2
 70
0
 10
-232.706359
 20
-97.485844
 30
0.0
 10
-232.706359
 20
-111.750914
 30
0.0
  0
LWPOLYLINE
  5
2ea
100
AcDbEntity
  8
0
 62
7
100
AcDbPolyline
 90
2
 70
0
 10
-456.437416
 20
87.960071
 30
0.0
 10
-456.437416
 20
62.429930
 30
0.0
  0
LWPOLYLINE
  5
2eb
100
AcDbEntity
  8
0
 62
7
100
AcDbPolyline
 90
2
 70
0
 10
-456.437416
 20
59.429930
 30
0.0
 10
-456.437416
 20
33.899790
 30
0.0
  0
LWPOLYLINE
  5
2ec
100
AcDbEntity
  8
0
 62
7
100
AcDbPolyline
 90
2
 70
0
 10
-456.437416
 20
30.899790
 30
0.0
 10
-456.437416
 20
5.369649
 30
0.0
  0
LWPOLYLINE
  5
2ed
100
AcDbEntity
  8
0
 62
7
100
AcDbPolyline
 90
2
 70
0
 10
-456.437416
 20
2.369649
 30
0.0
 10
-456.437416
 20
-23.160492
 30
0.0
  0
LWPOLYLINE
  5
2ee
100
AcDbEntity
  8
0
 62
7
100
AcDbPolyline
 90
2
 70
0
 10
-456.437416
 20
-26.160492
 30
0.0
 10
-456.437416
 20
-51.690632
 30
0.0
  0
LWPOLYLINE
  5
2ef
100
AcDbEntity
  8
0
 62
7
100
AcDbPolyline
 90
2
 70
0
 10
-456.437416
 20
-54.690632
 30
0.0
 10
-456.437416
 20
-80.220773
 30
0.0
  0
LWPOLYLINE
  5
2f0
100
AcDbEntity
  8
0
 62
7
100
AcDbPolyline
 90
2
 70
0
 10
-456.437416
 20
-83.220773
 30
0.0
 10
-456.437416
 20
-108.750914
 30
0.0
  0
LWPOLYLINE
  5
2f1
100
AcDbEntity
  8
0
 62
7
100
AcDbPolyline
 90
2
 70
0
 10
-456.437416
 20
-111.750914
 30
0.0
 10
-456.437416
 20
-111.750914
 30
0.0
  0
LWPOLYLINE
  5
2f2
100
AcDbEntity
  8
0
 62
7
100
AcDbPolyline
 90
2
 70
0
 10
-452.477575
 20
87.960071
 30
0.0
 10
-452.477575
 20
62.429930
 30
0.0
  0
LWPOLYLINE
  5
2f3
100
AcDbEntity
  8
0
 62
7
100
AcDbPolyline
 90
2
 70
0
 10
-452.477575
 20
59.429930
 30
0.0
 10
-452.477575
 20
33.899790
 30
0.0
  0
LWPOLYLINE
  5
2f4
100
AcDbEntity
  8
0
 62
7
100
AcDbPolyline
 90
2
 70
0
 10
-452.477575
 20
30.899790
 30
0.0
 10
-452.477575
 20
5.369649
 30
0.0
  0
LWPOLYLINE
  5
2f5
100
AcDbEntity
  8
0
 62
7
100
AcDbPolyline
 90
2
 70
0
 10
-452.477575
 20
2.369649
 30
0.0
 10
-452.477575
 20
-23.160492
 30
0.0
  0
LWPOLYLINE
  5
2f6
100
AcDbEntity
  8
0
 62
7
100
AcDbPolyline
 90
2
 70
0
 10
-452.477575
 20
-26.160492
 30
0.0
 10
-452.477575
 20
-51.690632
 30
0.0
  0
LWPOLYLINE
  5
2f7
100
AcDbEntity
  8
0
 62
7
100
AcDbPolyline
 90
2
 70
0
 10
-452.477575
 20
-54.690632
 30
0.0
 10
-452.477575
 20
-80.220773
 30
0.0
  0
LWPOLYLINE
  5
2f8
100
AcDbEntity
  8
0
 62
7
100
AcDbPolyline
 90
2
 70
0
 10
-452.477575
 20
-83.220773
 30
0.0
 10
-452.477575
 20
-108.750914
 30
0.0
  0
LWPOLYLINE
  5
2f9
100
AcDbEntity
  8
0
 62
7
100
AcDbPolyline
 90
2
 70
0
 10
-452.477575
 20
-111.750914
 30
0.0
 10
-452.477575
 20
-111.750914
 30
0.0
  0
LWPOLYLINE
  5
2fa
100
AcDbEntity
  8
0
 62
7
100
AcDbPolyline
 90
2
 70
0
 10
-448.517733
 20
87.960071
 30
0.0
 10
-448.517733
 20
62.429930
 30
0.0
  0
LWPOLYLINE
  5
2fb
100
AcDbEntity
  8
0
 62
7
100
AcDbPolyline
 90
2
 70
0
 10
-448.517733
 20
59.429930
 30
0.0
 10
-448.517733
 20
33.899790
 30
0.0
  0
LWPOLYLINE
  5
2fc
100
AcDbEntity
  8
0
 62
7
100
AcDbPolyline
 90
2
 70
0
 10
-448.517733
 20
30.899790
 30
0.0
 10
-448.517733
 20
5.369649
 30
0.0
  0
LWPOLYLINE
  5
2fd
100
AcDbEntity
  8
0
 62
7
100
AcDbPolyline
 90
2
 70
0
 10
-448.517733
 20
2.369649
 30
0.0
 10
-448.517733
 20
-23.160492
 30
0.0
  0
LWPOLYLINE
  5
2fe
100
AcDbEntity
  8
0
 62
7
100
AcDbPolyline
 90
2
 70
0
 10
-448.517733
 20
-26.160492
 30
0.0
 10
-448.517733
 20
-51.690632
 30
0.0
  0
LWPOLYLINE
  5
2ff
100
AcDbEntity
  8
0
 62
7
100
AcDbPolyline
 90
2
 70
0
 10
-448.517733
 20
-54.690632
 30
0.0
 10
-448.517733
 20
-80.220773
 30
0.0
  0
LWPOLYLINE
  5
300
100
AcDbEntity
  8
0
 62
7
100
AcDbPolyline
 90
2
 70
0
 10
-448.517733
 20
-83.220773
 30
0.0
 10
-448.517733
 20
-108.750914
 30
0.0
  0
LWPOLYLINE
  5
301
100
AcDbEntity
  8
0
 62
7
100
AcDbPolyline
 90
2
 70
0
 10
-448.517733
 20
-111.750914
 30
0.0
 10
-448.517733
 20
-111.750914
 30
0.0
  0
LWPOLYLINE
  5
302
100
AcDbEntity
  8
0
 62
7
100
AcDbPolyline
 90
2
 70
0
 10
-444.557891
 20
87.960071
 30
0.0
 10
-444.557891
 20
62.429930
 30
0.0
  0
LWPOLYLINE
  5
303
100
AcDbEntity
  8
0
 62
7
100
AcDbPolyline
 90
2
 70
0
 10
-444.557891
 20
59.429930
 30
0.0
 10
-444.557891
 20
33.899790
 30
0.0
  0
LWPOLYLINE
  5
304
100
AcDbEntity
  8
0
 62
7
100
AcDbPolyline
 90
2
 70
0
 10
-444.557891
 20
30.899790
 30
0.0
 10
-444.557891
 20
5.369649
 30
0.0
  0
LWPOLYLINE
  5
305
100
AcDbEntity
  8
0
 62
7
100
AcDbPolyline
 90
2
 70
0
 10
-444.557891
 20
2.369649
 30
0.0
 10
-444.557891
 20
-23.160492
 30
0.0
  0
LWPOLYLINE
  5
306
100
AcDbEntity
  8
0
 62
7
100
AcDbPolyline
 90
2
 70
0
 10
-444.557891
 20
-26.160492
 30
0.0
 10
-444.557891
 20
-51.690632
 30
0.0
  0
LWPOLYLINE
  5
307
100
AcDbEntity
  8
0
 62
7
100
AcDbPolyline
 90
2
 70
0
 10
-444.557891
 20
-54.690632
 30
0.0
 10
-444.557891
 20
-80.220773
 30
0.0
  0
LWPOLYLINE
  5
308
100
AcDbEntity
  8
0
 62
7
100
AcDbPolyline
 90
2
 70
0
 10
-444.557891
 20
-83.220773
 30
0.0
 10
-444.557891
 20
-108.750914
 30
0.0
  0
LWPOLYLINE
  5
309
100
AcDbEntity
  8
0
 62
7
100
AcDbPolyline
 90
2
 70
0
 10
-444.557891
 20
-111.750914
 30
0.0
 10
-444.557891
 20
-111.750914
 30
0.0
  0
LWPOLYLINE
  5
30a
100
AcDbEntity
  8
0
 62
7
100
AcDbPolyline
 90
2
 70
0
 10
-440.598050
 20
87.960071
 30
0.0
 10
-440.598050
 20
62.429930
 30
0.0
  0
LWPOLYLINE
  5
30b
100
AcDbEntity
  8
0
 62
7
100
AcDbPolyline
 90
2
 70
0
 10
-440.598050
 20
59.429930
 30
0.0
 10
-440.598050
 20
33.899790
 30
0.0
  0
LWPOLYLINE
  5
30c
100
AcDbEntity
  8
0
 62
7
100
AcDbPolyline
 90
2
 70
0
 10
-440.598050
 20
30.899790
 30
0.0
 10
-440.598050
 20
5.369649
 30
0.0
  0
LWPOLYLINE
  5
30d
100
AcDbEntity
  8
0
 62
7
100
AcDbPolyline
 90
2
 70
0
 10
-440.598050
 20
2.369649
 30
0.0
 10
-440.598050
 20
-23.160492
 30
0.0
  0
LWPOLYLINE
  5
30e
100
AcDbEntity
  8
0
 62
7
100
AcDbPolyline
 90
2
 70
0
 10
-440.598050
 20
-26.160492
 30
0.0
 10
-440.598050
 20
-51.690632
 30
0.0
  0
LWPOLYLINE
  5
30f
100
AcDbEntity
  8
0
 62
7
100
AcDbPolyline
 90
2
 70
0
 10
-440.598050
 20
-54.690632
 30
0.0
 10
-440.598050
 20
-80.220773
 30
0.0
  0
LWPOLYLINE
  5
310
100
AcDbEntity
  8
0
 62
7
100
AcDbPolyline
 90
2
 70
0
 10
-440.598050
 20
-83.220773
 30
0.0
 10
-440.598050
 20
-108.750914
 30
0.0
  0
LWPOLYLINE
  5
311
100
AcDbEntity
  8
0
 62
7
100
AcDbPolyline
 90
2
 70
0
 10
-440.598050
 20
-111.750914
 30
0.0
 10
-440.598050
 20
-111.750914
 30
0.0
  0
LWPOLYLINE
  5
312
100
AcDbEntity
  8
0
 62
7
100
AcDbPolyline
 90
2
 70
0
 10
-436.638208
 20
87.960071
 30
0.0
 10
-436.638208
 20
62.429930
 30
0.0
  0
LWPOLYLINE
  5
313
100
AcDbEntity
  8
0
 62
7
100
AcDbPolyline
 90
2
 70
0
 10
-436.638208
 20
59.429930
 30
0.0
 10
-436.638208
 20
33.899790
 30
0.0
  0
LWPOLYLINE
  5
314
100
AcDbEntity
  8
0
 62
7
100
AcDbPolyline
 90
2
 70
0
 10
-436.638208
 20
30.899790
 30
0.0
 10
-436.638208
 20
5.369649
 30
0.0
  0
LWPOLYLINE
  5
315
100
AcDbEntity
  8
0
 62
7
100
AcDbPolyline
 90
2
 70
0
 10
-436.638208
 20
2.369649
 30
0.0
 10
-436.638208
 20
-23.160492
 30
0.0
  0
LWPOLYLINE
  5
316
100
AcDbEntity
  8
0
 62
7
100
AcDbPolyline
 90
2
 70
0
 10
-436.638208
 20
-26.160492
 30
0.0
 10
-436.638208
 20
-51.690632
 30
0.0
  0
LWPOLYLINE
  5
317
100
AcDbEntity
  8
0
 62
7
100
AcDbPolyline
 90
2
 70
0
 10
-436.638208
 20
-54.690632
 30
0.0
 10
-436.638208
 20
-80.220773
 30
0.0
  0
LWPOLYLINE
  5
318
100
AcDbEntity
  8
0
 62
7
100
AcDbPolyline
 90
2
 70
0
 10
-436.638208
 20
-83.220773
 30
0.0
 10
-436.638208
 20
-108.750914
 30
0.0
  0
LWPOLYLINE
  5
319
100
AcDbEntity
  8
0
 62
7
100
AcDbPolyline
 90
2
 70
0
 10
-436.638208
 20
-111.750914
 30
0.0
 10
-436.638208
 20
-111.750914
 30
0.0
  0
LWPOLYLINE
  5
31a
100
AcDbEntity
  8
0
 62
7
100
AcDbPolyline
 90
2
 70
0
 10
-432.678366
 20
87.960071
 30
0.0
 10
-432.678366
 20
62.429930
 30
0.0
  0
LWPOLYLINE
  5
31b
100
AcDbEntity
  8
0
 62
7
100
AcDbPolyline
 90
2
 70
0
 10
-432.678366
 20
59.429930
 30
0.0
 10
-432.678366
 20
33.899790
 30
0.0
  0
LWPOLYLINE
  5
31c
100
AcDbEntity
  8
0
 62
7
100
AcDbPolyline
 90
2
 70
0
 10
-432.678366
 20
30.899790
 30
0.0
 10
-432.678366
 20
5.369649
 30
0.0
  0
LWPOLYLINE
  5
31d
100
AcDbEntity
  8
0
 62
7
100
AcDbPolyline
 90
2
 70
0
 10
-432.678366
 20
2.369649
 30
0.0
 10
-432.678366
 20
-23.160492
 30
0.0
  0
LWPOLYLINE
  5
31e
100
AcDbEntity
  8
0
 62
7
100
AcDbPolyline
 90
2
 70
0
 10
-432.678366
 20
-26.160492
 30
0.0
 10
-432.678366
 20
-51.690632
 30
0.0
  0
LWPOLYLINE
  5
31f
100
AcDbEntity
  8
0
 62
7
100
AcDbPolyline
 90
2
 70
0
 10
-432.678366
 20
-54.690632
 30
0.0
 10
-432.678366
 20
-80.220773
 30
0.0
  0
LWPOLYLINE
  5
320
100
AcDbEntity
  8
0
 62
7
100
AcDbPolyline
 90
2
 70
0
 10
-432.678366
 20
-83.220773
 30
0.0
 10
-432.678366
 20
-108.750914
 30
0.0
  0
LWPOLYLINE
  5
321
100
AcDbEntity
  8
0
 62
7
100
AcDbPolyline
 90
2
 70
0
 10
-432.678366
 20
-111.750914
 30
0.0
 10
-432.678366
 20
-111.750914
 30
0.0
  0
LWPOLYLINE
  5
322
100
AcDbEntity
  8
0
 62
7
100
AcDbPolyline
 90
2
 70
0
 10
-428.718524
 20
87.960071
 30
0.0
 10
-428.718524
 20
62.429930
 30
0.0
  0
LWPOLYLINE
  5
323
100
AcDbEntity
  8
0
 62
7
100
AcDbPolyline
 90
2
 70
0
 10
-428.718524
 20
59.429930
 30
0.0
 10
-428.718524
 20
33.899790
 30
0.0
  0
LWPOLYLINE
  5
324
100
AcDbEntity
  8
0
 62
7
100
AcDbPolyline
 90
2
 70
0
 10
-428.718524
 20
30.899790
 30
0.0
 10
-428.718524
 20
5.369649
 30
0.0
  0
LWPOLYLINE
  5
325
100
AcDbEntity
  8
0
 62
7
100
AcDbPolyline
 90
2
 70
0
 10
-428.718524
 20
2.369649
 30
0.0
 10
-428.718524
 20
-23.160492
 30
0.0
  0
LWPOLYLINE
  5
326
100
AcDbEntity
  8
0
 62
7
100
AcDbPolyline
 90
2
 70
0
 10
-428.718524
 20
-26.160492
 30
0.0
 10
-428.718524
 20
-51.690632
 30
0.0
  0
LWPOLYLINE
  5
327
100
AcDbEntity
  8
0
 62
7
100
AcDbPolyline
 90
2
 70
0
 10
-428.718524
 20
-54.690632
 30
0.0
 10
-428.718524
 20
-80.220773
 30
0.0
  0
LWPOLYLINE
  5
328
100
AcDbEntity
  8
0
 62
7
100
AcDbPolyline
 90
2
 70
0
 10
-428.718524
 20
-83.220773
 30
0.0
 10
-428.718524
 20
-108.750914
 30
0.0
  0
LWPOLYLINE
  5
329
100
AcDbEntity
  8
0
 62
7
100
AcDbPolyline
 90
2
 70
0
 10
-428.718524
 20
-111.750914
 30
0.0
 10
-428.718524
 20
-111.750914
 30
0.0
  0
LWPOLYLINE
  5
32a
100
AcDbEntity
  8
0
 62
7
100
AcDbPolyline
 90
2
 70
0
 10
-424.758683
 20
87.960071
 30
0.0
 10
-424.758683
 20
62.429930
 30
0.0
  0
LWPOLYLINE
  5
32b
100
AcDbEntity
  8
0
 62
7
100
AcDbPolyline
 90
2
 70
0
 10
-424.758683
 20
59.429930
 30
0.0
 10
-424.758683
 20
33.899790
 30
0.0
  0
LWPOLYLINE
  5
32c
100
AcDbEntity
  8
0
 62
7
100
AcDbPolyline
 90
2
 70
0
 10
-424.758683
 20
30.899790
 30
0.0
 10
-424.758683
 20
5.369649
 30
0.0
  0
LWPOLYLINE
  5
32d
100
AcDbEntity
  8
0
 62
7
100
AcDbPolyline
 90
2
 70
0
 10
-424.758683
 20
2.369649
 30
0.0
 10
-424.758683
 20
-23.160492
 30
0.0
  0
LWPOLYLINE
  5
32e
100
AcDbEntity
  8
0
 62
7
100
AcDbPolyline
 90
2
 70
0
 10
-424.758683
 20
-26.160492
 30
0.0
 10
-424.758683
 20
-51.690632
 30
0.0
  0
LWPOLYLINE
  5
32f
100
AcDbEntity
  8
0
 62
7
100
AcDbPolyline
 90
2
 70
0
 10
-424.758683
 20
-54.690632
 30
0.0
 10
-424.758683
 20
-80.220773
 30
0.0
  0
LWPOLYLINE
  5
330
100
AcDbEntity
  8
0
 62
7
100
AcDbPolyline
 90
2
 70
0
 10
-424.758683
 20
-83.220773
 30
0.0
 10
-424.758683
 20
-108.750914
 30
0.0
  0
LWPOLYLINE
  5
331
100
AcDbEntity
  8
0
 62
7
100
AcDbPolyline
 90
2
 70
0
 10
-424.758683
 20
-111.750914
 30
0.0
 10
-424.758683
 20
-111.750914
 30
0.0
  0
LWPOLYLINE
  5
332
100
AcDbEntity
  8
0
 62
7
100
AcDbPolyline
 90
2
 70
0
 10
-420.798841
 20
87.960071
 30
0.0
 10
-420.798841
 20
62.429930
 30
0.0
  0
LWPOLYLINE
  5
333
100
AcDbEntity
  8
0
 62
7
100
AcDbPolyline
 90
2
 70
0
 10
-420.798841
 20
59.429930
 30
0.0
 10
-420.798841
 20
33.899790
 30
0.0
  0
LWPOLYLINE
  5
334
100
AcDbEntity
  8
0
 62
7
100
AcDbPolyline
 90
2
 70
0
 10
-420.798841
 20
30.899790
 30
0.0
 10
-420.798841
 20
5.369649
 30
0.0
  0
LWPOLYLINE
  5
335
100
AcDbEntity
  8
0
 62
7
100
AcDbPolyline
 90
2
 70
0
 10
-420.798841
 20
2.369649
 30
0.0
 10
-420.798841
 20
-23.160492
 30
0.0
  0
LWPOLYLINE
  5
336
100
AcDbEntity
  8
0
 62
7
100
AcDbPolyline
 90
2
 70
0
 10
-420.798841
 20
-26.160492
 30
0.0
 10
-420.798841
 20
-51.690632
 30
0.0
  0
LWPOLYLINE
  5
337
100
AcDbEntity
  8
0
 62
7
100
AcDbPolyline
 90
2
 70
0
 10
-420.798841
 20
-54.690632
 30
0.0
 10
-420.798841
 20
-80.220773
 30
0.0
  0
LWPOLYLINE
  5
338
100
AcDbEntity
  8
0
 62
7
100
AcDbPolyline
 90
2
 70
0
 10
-420.798841
 20
-83.220773
 30
0.0
 10
-420.798841
 20
-108.750914
 30
0.0
  0
LWPOLYLINE
  5
339
100
AcDbEntity
  8
0
 62
7
100
AcDbPolyline
 90
2
 70
0
 10
-420.798841
 20
-111.750914
 30
0.0
 10
-420.798841
 20
-111.750914
 30
0.0
  0
LWPOLYLINE
  5
33a
100
AcDbEntity
  8
0
 62
7
100
AcDbPolyline
 90
2
 70
0
 10
-416.838999
 20
87.960071
 30
0.0
 10
-416.838999
 20
62.429930
 30
0.0
  0
LWPOLYLINE
  5
33b
100
AcDbEntity
  8
0
 62
7
100
AcDbPolyline
 90
2
 70
0
 10
-416.838999
 20
59.429930
 30
0.0
 10
-416.838999
 20
33.899790
 30
0.0
  0
LWPOLYLINE
  5
33c
100
AcDbEntity
  8
0
 62
7
100
AcDbPolyline
 90
2
 70
0
 10
-416.838999
 20
30.899790
 30
0.0
 10
-416.838999
 20
5.369649
 30
0.0
  0
LWPOLYLINE
  5
33d
100
AcDbEntity
  8
0
 62
7
100
AcDbPolyline
 90
2
 70
0
 10
-416.838999
 20
2.369649
 30
0.0
 10
-416.838999
 20
-23.160492
 30
0.0
  0
LWPOLYLINE
  5
33e
100
AcDbEntity
  8
0
 62
7
100
AcDbPolyline
 90
2
 70
0
 10
-416.838999
 20
-26.160492
 30
0.0
 10
-416.838999
 20
-51.690632
 30
0.0
  0
LWPOLYLINE
  5
33f
100
AcDbEntity
  8
0
 62
7
100
AcDbPolyline
 90
2
 70
0
 10
-416.838999
 20
-54.690632
 30
0.0
 10
-416.838999
 20
-80.220773
 30
0.0
  0
LWPOLYLINE
  5
340
100
AcDbEntity
  8
0
 62
7
100
AcDbPolyline
 90
2
 70
0
 10
-416.838999
 20
-83.220773
 30
0.0
 10
-416.838999
 20
-108.750914
 30
0.0
  0
LWPOLYLINE
  5
341
100
AcDbEntity
  8
0
 62
7
100
AcDbPolyline
 90
2
 70
0
 10
-416.838999
 20
-111.750914
 30
0.0
 10
-416.838999
 20
-111.750914
 30
0.0
  0
LWPOLYLINE
  5
342
100
AcDbEntity
  8
0
 62
7
100
AcDbPolyline
 90
2
 70
0
 10
-412.879157
 20
87.960071
 30
0.0
 10
-412.879157
 20
62.429930
 30
0.0
  0
LWPOLYLINE
  5
343
100
AcDbEntity
  8
0
 62
7
100
AcDbPolyline
 90
2
 70
0
 10
-412.879157
 20
59.429930
 30
0.0
 10
-412.879157
 20
33.899790
 30
0.0
  0
LWPOLYLINE
  5
344
100
AcDbEntity
  8
0
 62
7
100
AcDbPolyline
 90
2
 70
0
 10
-412.879157
 20
30.899790
 30
0.0
 10
-412.879157
 20
5.369649
 30
0.0
  0
LWPOLYLINE
  5
345
100
AcDbEntity
  8
0
 62
7
100
AcDbPolyline
 90
2
 70
0
 10
-412.879157
 20
2.369649
 30
0.0
 10
-412.879157
 20
-23.160492
 30
0.0
  0
LWPOLYLINE
  5
346
100
AcDbEntity
  8
0
 62
7
100
AcDbPolyline
 90
2
 70
0
 10
-412.879157
 20
-26.160492
 30
0.0
 10
-412.879157
 20
-51.690632
 30
0.0
  0
LWPOLYLINE
  5
347
100
AcDbEntity
  8
0
 62
7
100
AcDbPolyline
 90
2
 70
0
 10
-412.879157
 20
-54.690632
 30
0.0
 10
-412.879157
 20
-80.220773
 30
0.0
  0
LWPOLYLINE
  5
348
100
AcDbEntity
  8
0
 62
7
100
AcDbPolyline
 90
2
 70
0
 10
-412.879157
 20
-83.220773
 30
0.0
 10
-412.879157
 20
-108.750914
 30
0.0
  0
LWPOLYLINE
  5
349
100
AcDbEntity
  8
0
 62
7
100
AcDbPolyline
 90
2
 70
0
 10
-412.879157
 20
-111.750914
 30
0.0
 10
-412.879157
 20
-111.750914
 30
0.0
  0
LWPOLYLINE
  5
34a
100
AcDbEntity
  8
0
 62
7
100
AcDbPolyline
 90
2
 70
0
 10
-408.919316
 20
87.960071
 30
0.0
 10
-408.919316
 20
62.429930
 30
0.0
  0
LWPOLYLINE
  5
34b
100
AcDbEntity
  8
0
 62
7
100
AcDbPolyline
 90
2
 70
0
 10
-408.919316
 20
59.429930
 30
0.0
 10
-408.919316
 20
33.899790
 30
0.0
  0
LWPOLYLINE
  5
34c
100
AcDbEntity
  8
0
 62
7
100
AcDbPolyline
 90
2
 70
0
 10
-408.919316
 20
30.899790
 30
0.0
 10
-408.919316
 20
5.369649
 30
0.0
  0
LWPOLYLINE
  5
34d
100
AcDbEntity
  8
0
 62
7
100
AcDbPolyline
 90
2
 70
0
 10
-408.919316
 20
2.369649
 30
0.0
 10
-408.919316
 20
-23.160492
 30
0.0
  0
LWPOLYLINE
  5
34e
100
AcDbEntity
  8
0
 62
7
100
AcDbPolyline
 90
2
 70
0
 10
-408.919316
 20
-26.160492
 30
0.0
 10
-408.919316
 20
-51.690632
 30
0.0
  0
LWPOLYLINE
  5
34f
100
AcDbEntity
  8
0
 62
7
100
AcDbPolyline
 90
2
 70
0
 10
-408.919316
 20
-54.690632
 30
0.0
 10
-408.919316
 20
-80.220773
 30
0.0
  0
LWPOLYLINE
  5
350
100
AcDbEntity
  8
0
 62
7
100
AcDbPolyline
 90
2
 70
0
 10
-408.919316
 20
-83.220773
 30
0.0
 10
-408.919316
 20
-108.750914
 30
0.0
  0
LWPOLYLINE
  5
351
100
AcDbEntity
  8
0
 62
7
100
AcDbPolyline
 90
2
 70
0
 10
-408.919316
 20
-111.750914
 30
0.0
 10
-408.919316
 20
-111.750914
 30
0.0
  0
LWPOLYLINE
  5
352
100
AcDbEntity
  8
0
 62
7
100
AcDbPolyline
 90
2
 70
0
 10
-404.959474
 20
87.960071
 30
0.0
 10
-404.959474
 20
62.429930
 30
0.0
  0
LWPOLYLINE
  5
353
100
AcDbEntity
  8
0
 62
7
100
AcDbPolyline
 90
2
 70
0
 10
-404.959474
 20
59.429930
 30
0.0
 10
-404.959474
 20
33.899790
 30
0.0
  0
LWPOLYLINE
  5
354
100
AcDbEntity
  8
0
 62
7
100
AcDbPolyline
 90
2
 70
0
 10
-404.959474
 20
30.899790
 30
0.0
 10
-404.959474
 20
5.369649
 30
0.0
  0
LWPOLYLINE
  5
355
100
AcDbEntity
  8
0
 62
7
100
AcDbPolyline
 90
2
 70
0
 10
-404.959474
 20
2.369649
 30
0.0
 10
-404.959474
 20
-23.160492
 30
0.0
  0
LWPOLYLINE
  5
356
100
AcDbEntity
  8
0
 62
7
100
AcDbPolyline
 90
2
 70
0
 10
-404.959474
 20
-26.160492
 30
0.0
 10
-404.959474
 20
-51.690632
 30
0.0
  0
LWPOLYLINE
  5
357
100
AcDbEntity
  8
0
 62
7
100
AcDbPolyline
 90
2
 70
0
 10
-404.959474
 20
-54.690632
 30
0.0
 10
-404.959474
 20
-80.220773
 30
0.0
  0
LWPOLYLINE
  5
358
100
AcDbEntity
  8
0
 62
7
100
AcDbPolyline
 90
2
 70
0
 10
-404.959474
 20
-83.220773
 30
0.0
 10
-404.959474
 20
-108.750914
 30
0.0
  0
LWPOLYLINE
  5
359
100
AcDbEntity
  8
0
 62
7
100
AcDbPolyline
 90
2
 70
0
 10
-404.959474
 20
-111.750914
 30
0.0
 10
-404.959474
 20
-111.750914
 30
0.0
  0
LWPOLYLINE
  5
35a
100
AcDbEntity
  8
0
 62
7
100
AcDbPolyline
 90
2
 70
0
 10
-400.999632
 20
87.960071
 30
0.0
 10
-400.999632
 20
62.429930
 30
0.0
  0
LWPOLYLINE
  5
35b
100
AcDbEntity
  8
0
 62
7
100
AcDbPolyline
 90
2
 70
0
 10
-400.999632
 20
59.429930
 30
0.0
 10
-400.999632
 20
33.899790
 30
0.0
  0
LWPOLYLINE
  5
35c
100
AcDbEntity
  8
0
 62
7
100
AcDbPolyline
 90
2
 70
0
 10
-400.999632
 20
30.899790
 30
0.0
 10
-400.999632
 20
5.369649
 30
0.0
  0
LWPOLYLINE
  5
35d
100
AcDbEntity
  8
0
 62
7
100
AcDbPolyline
 90
2
 70
0
 10
-400.999632
 20
2.369649
 30
0.0
 10
-400.999632
 20
-23.160492
 30
0.0
  0
LWPOLYLINE
  5
35e
100
AcDbEntity
  8
0
 62
7
100
AcDbPolyline
 90
2
 70
0
 10
-400.999632
 20
-26.160492
 30
0.0
 10
-400.999632
 20
-51.690632
 30
0.0
  0
LWPOLYLINE
  5
35f
100
AcDbEntity
  8
0
 62
7
100
AcDbPolyline
 90
2
 70
0
 10
-400.999632
 20
-54.690632
 30
0.0
 10
-400.999632
 20
-80.220773
 30
0.0
  0
LWPOLYLINE
  5
360
100
AcDbEntity
  8
0
 62
7
100
AcDbPolyline
 90
2
 70
0
 10
-400.999632
 20
-83.220773
 30
0.0
 10
-400.999632
 20
-108.750914
 30
0.0
  0
LWPOLYLINE
  5
361
100
AcDbEntity
  8
0
 62
7
100
AcDbPolyline
 90
2
 70
0
 10
-400.999632
 20
-111.750914
 30
0.0
 10
-400.999632
 20
-111.750914
 30
0.0
  0
LWPOLYLINE
  5
362
100
AcDbEntity
  8
0
 62
7
100
AcDbPolyline
 90
2
 70
0
 10
-397.039791
 20
87.960071
 30
0.0
 10
-397.039791
 20
62.429930
 30
0.0
  0
LWPOLYLINE
  5
363
100
AcDbEntity
  8
0
 62
7
100
AcDbPolyline
 90
2
 70
0
 10
-397.039791
 20
59.429930
 30
0.0
 10
-397.039791
 20
33.899790
 30
0.0
  0
LWPOLYLINE
  5
364
100
AcDbEntity
  8
0
 62
7
100
AcDbPolyline
 90
2
 70
0
 10
-397.039791
 20
30.899790
 30
0.0
 10
-397.039791
 20
5.369649
 30
0.0
  0
LWPOLYLINE
  5
365
100
AcDbEntity
  8
0
 62
7
100
AcDbPolyline
 90
2
 70
0
 10
-397.039791
 20
2.369649
 30
0.0
 10
-397.039791
 20
-23.160492
 30
0.0
  0
LWPOLYLINE
  5
366
100
AcDbEntity
  8
0
 62
7
100
AcDbPolyline
 90
2
 70
0
 10
-397.039791
 20
-26.160492
 30
0.0
 10
-397.039791
 20
-51.690632
 30
0.0
  0
LWPOLYLINE
  5
367
100
AcDbEntity
  8
0
 62
7
100
AcDbPolyline
 90
2
 70
0
 10
-397.039791
 20
-54.690632
 30
0.0
 10
-397.039791
 20
-80.220773
 30
0.0
  0
LWPOLYLINE
  5
368
100
AcDbEntity
  8
0
 62
7
100
AcDbPolyline
 90
2
 70
0
 10
-397.039791
 20
-83.220773
 30
0.0
 10
-397.039791
 20
-108.750914
 30
0.0
  0
LWPOLYLINE
  5
369
100
AcDbEntity
  8
0
 62
7
100
AcDbPolyline
 90
2
 70
0
 10
-397.039791
 20
-111.750914
 30
0.0
 10
-397.039791
 20
-111.750914
 30
0.0
  0
LWPOLYLINE
  5
36a
100
AcDbEntity
  8
0
 62
7
100
AcDbPolyline
 90
2
 70
0
 10
-393.079949
 20
87.960071
 30
0.0
 10
-393.079949
 20
62.429930
 30
0.0
  0
LWPOLYLINE
  5
36b
100
AcDbEntity
  8
0
 62
7
100
AcDbPolyline
 90
2
 70
0
 10
-393.079949
 20
59.429930
 30
0.0
 10
-393.079949
 20
33.899790
 30
0.0
  0
LWPOLYLINE
  5
36c
100
AcDbEntity
  8
0
 62
7
100
AcDbPolyline
 90
2
 70
0
 10
-393.079949
 20
30.899790
 30
0.0
 10
-393.079949
 20
5.369649
 30
0.0
  0
LWPOLYLINE
  5
36d
100
AcDbEntity
  8
0
 62
7
100
AcDbPolyline
 90
2
 70
0
 10
-393.079949
 20
2.369649
 30
0.0
 10
-393.079949
 20
-23.160492
 30
0.0
  0
LWPOLYLINE
  5
36e
100
AcDbEntity
  8
0
 62
7
100
AcDbPolyline
 90
2
 70
0
 10
-393.079949
 20
-26.160492
 30
0.0
 10
-393.079949
 20
-51.690632
 30
0.0
  0
LWPOLYLINE
  5
36f
100
AcDbEntity
  8
0
 62
7
100
AcDbPolyline
 90
2
 70
0
 10
-393.079949
 20
-54.690632
 30
0.0
 10
-393.079949
 20
-80.220773
 30
0.0
  0
LWPOLYLINE
  5
370
100
AcDbEntity
  8
0
 62
7
100
AcDbPolyline
 90
2
 70
0
 10
-393.079949
 20
-83.220773
 30
0.0
 10
-393.079949
 20
-108.750914
 30
0.0
  0
LWPOLYLINE
  5
371
100
AcDbEntity
  8
0
 62
7
100
AcDbPolyline
 90
2
 70
0
 10
-393.079949
 20
-111.750914
 30
0.0
 10
-393.079949
 20
-111.750914
 30
0.0
  0
LWPOLYLINE
  5
372
100
AcDbEntity
  8
0
 62
7
100
AcDbPolyline
 90
2
 70
0
 10
-389.120107
 20
87.960071
 30
0.0
 10
-389.120107
 20
62.429930
 30
0.0
  0
LWPOLYLINE
  5
373
100
AcDbEntity
  8
0
 62
7
100
AcDbPolyline
 90
2
 70
0
 10
-389.120107
 20
59.429930
 30
0.0
 10
-389.120107
 20
33.899790
 30
0.0
  0
LWPOLYLINE
  5
374
100
AcDbEntity
  8
0
 62
7
100
AcDbPolyline
 90
2
 70
0
 10
-389.120107
 20
30.899790
 30
0.0
 10
-389.120107
 20
5.369649
 30
0.0
  0
LWPOLYLINE
  5
375
100
AcDbEntity
  8
0
 62
7
100
AcDbPolyline
 90
2
 70
0
 10
-389.120107
 20
2.369649
 30
0.0
 10
-389.120107
 20
-23.160492
 30
0.0
  0
LWPOLYLINE
  5
376
100
AcDbEntity
  8
0
 62
7
100
AcDbPolyline
 90
2
 70
0
 10
-389.120107
 20
-26.160492
 30
0.0
 10
-389.120107
 20
-51.690632
 30
0.0
  0
LWPOLYLINE
  5
377
100
AcDbEntity
  8
0
 62
7
100
AcDbPolyline
 90
2
 70
0
 10
-389.120107
 20
-54.690632
 30
0.0
 10
-389.120107
 20
-80.220773
 30
0.0
  0
LWPOLYLINE
  5
378
100
AcDbEntity
  8
0
 62
7
100
AcDbPolyline
 90
2
 70
0
 10
-389.120107
 20
-83.220773
 30
0.0
 10
-389.120107
 20
-108.750914
 30
0.0
  0
LWPOLYLINE
  5
379
100
AcDbEntity
  8
0
 62
7
100
AcDbPolyline
 90
2
 70
0
 10
-389.120107
 20
-111.750914
 30
0.0
 10
-389.120107
 20
-111.750914
 30
0.0
  0
LWPOLYLINE
  5
37a
100
AcDbEntity
  8
0
 62
7
100
AcDbPolyline
 90
2
 70
0
 10
-385.160265
 20
87.960071
 30
0.0
 10
-385.160265
 20
62.429930
 30
0.0
  0
LWPOLYLINE
  5
37b
100
AcDbEntity
  8
0
 62
7
100
AcDbPolyline
 90
2
 70
0
 10
-385.160265
 20
59.429930
 30
0.0
 10
-385.160265
 20
33.899790
 30
0.0
  0
LWPOLYLINE
  5
37c
100
AcDbEntity
  8
0
 62
7
100
AcDbPolyline
 90
2
 70
0
 10
-385.160265
 20
30.899790
 30
0.0
 10
-385.160265
 20
5.369649
 30
0.0
  0
LWPOLYLINE
  5
37d
100
AcDbEntity
  8
0
 62
7
100
AcDbPolyline
 90
2
 70
0
 10
-385.160265
 20
2.369649
 30
0.0
 10
-385.160265
 20
-23.160492
 30
0.0
  0
LWPOLYLINE
  5
37e
100
AcDbEntity
  8
0
 62
7
100
AcDbPolyline
 90
2
 70
0
 10
-385.160265
 20
-26.160492
 30
0.0
 10
-385.160265
 20
-51.690632
 30
0.0
  0
LWPOLYLINE
  5
37f
100
AcDbEntity
  8
0
 62
7
100
AcDbPolyline
 90
2
 70
0
 10
-385.160265
 20
-54.690632
 30
0.0
 10
-385.160265
 20
-80.220773
 30
0.0
  0
LWPOLYLINE
  5
380
100
AcDbEntity
  8
0
 62
7
100
AcDbPolyline
 90
2
 70
0
 10
-385.160265
 20
-83.220773
 30
0.0
 10
-385.160265
 20
-108.750914
 30
0.0
  0
LWPOLYLINE
  5
381
100
AcDbEntity
  8
0
 62
7
100
AcDbPolyline
 90
2
 70
0
 10
-385.160265
 20
-111.750914
 30
0.0
 10
-385.160265
 20
-111.750914
 30
0.0
  0
LWPOLYLINE
  5
382
100
AcDbEntity
  8
0
 62
7
100
AcDbPolyline
 90
2
 70
0
 10
-381.200424
 20
87.960071
 30
0.0
 10
-381.200424
 20
62.429930
 30
0.0
  0
LWPOLYLINE
  5
383
100
AcDbEntity
  8
0
 62
7
100
AcDbPolyline
 90
2
 70
0
 10
-381.200424
 20
59.429930
 30
0.0
 10
-381.200424
 20
33.899790
 30
0.0
  0
LWPOLYLINE
  5
384
100
AcDbEntity
  8
0
 62
7
100
AcDbPolyline
 90
2
 70
0
 10
-381.200424
 20
30.899790
 30
0.0
 10
-381.200424
 20
5.369649
 30
0.0
  0
LWPOLYLINE
  5
385
100
AcDbEntity
  8
0
 62
7
100
AcDbPolyline
 90
2
 70
0
 10
-381.200424
 20
2.369649
 30
0.0
 10
-381.200424
 20
-23.160492
 30
0.0
  0
LWPOLYLINE
  5
386
100
AcDbEntity
  8
0
 62
7
100
AcDbPolyline
 90
2
 70
0
 10
-381.200424
 20
-26.160492
 30
0.0
 10
-381.200424
 20
-51.690632
 30
0.0
  0
LWPOLYLINE
  5
387
100
AcDbEntity
  8
0
 62
7
100
AcDbPolyline
 90
2
 70
0
 10
-381.200424
 20
-54.690632
 30
0.0
 10
-381.200424
 20
-80.220773
 30
0.0
  0
LWPOLYLINE
  5
388
100
AcDbEntity
  8
0
 62
7
100
AcDbPolyline
 90
2
 70
0
 10
-381.200424
 20
-83.220773
 30
0.0
 10
-381.200424
 20
-108.750914
 30
0.0
  0
LWPOLYLINE
  5
389
100
AcDbEntity
  8
0
 62
7
100
AcDbPolyline
 90
2
 70
0
 10
-381.200424
 20
-111.750914
 30
0.0
 10
-381.200424
 20
-111.750914
 30
0.0
  0
LWPOLYLINE
  5
38a
100
AcDbEntity
  8
0
 62
7
100
AcDbPolyline
 90
2
 70
0
 10
-377.240582
 20
87.960071
 30
0.0
 10
-377.240582
 20
62.429930
 30
0.0
  0
LWPOLYLINE
  5
38b
100
AcDbEntity
  8
0
 62
7
100
AcDbPolyline
 90
2
 70
0
 10
-377.240582
 20
59.429930
 30
0.0
 10
-377.240582
 20
33.899790
 30
0.0
  0
LWPOLYLINE
  5
38c
100
AcDbEntity
  8
0
 62
7
100
AcDbPolyline
 90
2
 70
0
 10
-377.240582
 20
30.899790
 30
0.0
 10
-377.240582
 20
5.369649
 30
0.0
  0
LWPOLYLINE
  5
38d
100
AcDbEntity
  8
0
 62
7
100
AcDbPolyline
 90
2
 70
0
 10
-377.240582
 20
2.369649
 30
0.0
 10
-377.240582
 20
-23.160492
 30
0.0
  0
LWPOLYLINE
  5
38e
100
AcDbEntity
  8
0
 62
7
100
AcDbPolyline
 90
2
 70
0
 10
-377.240582
 20
-26.160492
 30
0.0
 10
-377.240582
 20
-51.690632
 30
0.0
  0
LWPOLYLINE
  5
38f
100
AcDbEntity
  8
0
 62
7
100
AcDbPolyline
 90
2
 70
0
 10
-377.240582
 20
-54.690632
 30
0.0
 10
-377.240582
 20
-80.220773
 30
0.0
  0
LWPOLYLINE
  5
390
100
AcDbEntity
  8
0
 62
7
100
AcDbPolyline
 90
2
 70
0
 10
-377.240582
 20
-83.220773
 30
0.0
 10
-377.240582
 20
-108.750914
 30
0.0
  0
LWPOLYLINE
  5
391
100
AcDbEntity
  8
0
 62
7
100
AcDbPolyline
 90
2
 70
0
 10
-377.240582
 20
-111.750914
 30
0.0
 10
-377.240582
 20
-111.750914
 30
0.0
  0
LWPOLYLINE
  5
392
100
AcDbEntity
  8
0
 62
7
100
AcDbPolyline
 90
2
 70
0
 10
-373.280740
 20
87.960071
 30
0.0
 10
-373.280740
 20
62.429930
 30
0.0
  0
LWPOLYLINE
  5
393
100
AcDbEntity
  8
0
 62
7
100
AcDbPolyline
 90
2
 70
0
 10
-373.280740
 20
59.429930
 30
0.0
 10
-373.280740
 20
33.899790
 30
0.0
  0
LWPOLYLINE
  5
394
100
AcDbEntity
  8
0
 62
7
100
AcDbPolyline
 90
2
 70
0
 10
-373.280740
 20
30.899790
 30
0.0
 10
-373.280740
 20
5.369649
 30
0.0
  0
LWPOLYLINE
  5
395
100
AcDbEntity
  8
0
 62
7
100
AcDbPolyline
 90
2
 70
0
 10
-373.280740
 20
2.369649
 30
0.0
 10
-373.280740
 20
-23.160492
 30
0.0
  0
LWPOLYLINE
  5
396
100
AcDbEntity
  8
0
 62
7
100
AcDbPolyline
 90
2
 70
0
 10
-373.280740
 20
-26.160492
 30
0.0
 10
-373.280740
 20
-51.690632
 30
0.0
  0
LWPOLYLINE
  5
397
100
AcDbEntity
  8
0
 62
7
100
AcDbPolyline
 90
2
 70
0
 10
-373.280740
 20
-54.690632
 30
0.0
 10
-373.280740
 20
-80.220773
 30
0.0
  0
LWPOLYLINE
  5
398
100
AcDbEntity
  8
0
 62
7
100
AcDbPolyline
 90
2
 70
0
 10
-373.280740
 20
-83.220773
 30
0.0
 10
-373.280740
 20
-108.750914
 30
0.0
  0
LWPOLYLINE
  5
399
100
AcDbEntity
  8
0
 62
7
100
AcDbPolyline
 90
2
 70
0
 10
-373.280740
 20
-111.750914
 30
0.0
 10
-373.280740
 20
-111.750914
 30
0.0
  0
LWPOLYLINE
  5
39a
100
AcDbEntity
  8
0
 62
7
100
AcDbPolyline
 90
2
 70
0
 10
-369.320898
 20
87.960071
 30
0.0
 10
-369.320898
 20
62.429930
 30
0.0
  0
LWPOLYLINE
  5
39b
100
AcDbEntity
  8
0
 62
7
100
AcDbPolyline
 90
2
 70
0
 10
-369.320898
 20
59.429930
 30
0.0
 10
-369.320898
 20
33.899790
 30
0.0
  0
LWPOLYLINE
  5
39c
100
AcDbEntity
  8
0
 62
7
100
AcDbPolyline
 90
2
 70
0
 10
-369.320898
 20
30.899790
 30
0.0
 10
-369.320898
 20
5.369649
 30
0.0
  0
LWPOLYLINE
  5
39d
100
AcDbEntity
  8
0
 62
7
100
AcDbPolyline
 90
2
 70
0
 10
-369.320898
 20
2.369649
 30
0.0
 10
-369.320898
 20
-23.160492
 30
0.0
  0
LWPOLYLINE
  5
39e
100
AcDbEntity
  8
0
 62
7
100
AcDbPolyline
 90
2
 70
0
 10
-369.320898
 20
-26.160492
 30
0.0
 10
-369.320898
 20
-51.690632
 30
0.0
  0
LWPOLYLINE
  5
39f
100
AcDbEntity
  8
0
 62
7
100
AcDbPolyline
 90
2
 70
0
 10
-369.320898
 20
-54.690632
 30
0.0
 10
-369.320898
 20
-80.220773
 30
0.0
  0
LWPOLYLINE
  5
3a0
100
AcDbEntity
  8
0
 62
7
100
AcDbPolyline
 90
2
 70
0
 10
-369.320898
 20
-83.220773
 30
0.0
 10
-369.320898
 20
-108.750914
 30
0.0
  0
LWPOLYLINE
  5
3a1
100
AcDbEntity
  8
0
 62
7
100
AcDbPolyline
 90
2
 70
0
 10
-369.320898
 20
-111.750914
 30
0.0
 10
-369.320898
 20
-111.750914
 30
0.0
  0
LWPOLYLINE
  5
3a2
100
AcDbEntity
  8
0
 62
7
100
AcDbPolyline
 90
2
 70
0
 10
-365.361057
 20
87.960071
 30
0.0
 10
-365.361057
 20
62.429930
 30
0.0
  0
LWPOLYLINE
  5
3a3
100
AcDbEntity
  8
0
 62
7
100
AcDbPolyline
 90
2
 70
0
 10
-365.361057
 20
59.429930
 30
0.0
 10
-365.361057
 20
33.899790
 30
0.0
  0
LWPOLYLINE
  5
3a4
100
AcDbEntity
  8
0
 62
7
100
AcDbPolyline
 90
2
 70
0
 10
-365.361057
 20
30.899790
 30
0.0
 10
-365.361057
 20
5.369649
 30
0.0
  0
LWPOLYLINE
  5
3a5
100
AcDbEntity
  8
0
 62
7
100
AcDbPolyline
 90
2
 70
0
 10
-365.361057
 20
2.369649
 30
0.0
 10
-365.361057
 20
-23.160492
 30
0.0
  0
LWPOLYLINE
  5
3a6
100
AcDbEntity
  8
0
 62
7
100
AcDbPolyline
 90
2
 70
0
 10
-365.361057
 20
-26.160492
 30
0.0
 10
-365.361057
 20
-51.690632
 30
0.0
  0
LWPOLYLINE
  5
3a7
100
AcDbEntity
  8
0
 62
7
100
AcDbPolyline
 90
2
 70
0
 10
-365.361057
 20
-54.690632
 30
0.0
 10
-365.361057
 20
-80.220773
 30
0.0
  0
LWPOLYLINE
  5
3a8
100
AcDbEntity
  8
0
 62
7
100
AcDbPolyline
 90
2
 70
0
 10
-365.361057
 20
-83.220773
 30
0.0
 10
-365.361057
 20
-108.750914
 30
0.0
  0
LWPOLYLINE
  5
3a9
100
AcDbEntity
  8
0
 62
7
100
AcDbPolyline
 90
2
 70
0
 10
-365.361057
 20
-111.750914
 30
0.0
 10
-365.361057
 20
-111.750914
 30
0.0
  0
LWPOLYLINE
  5
3aa
100
AcDbEntity
  8
0
 62
7
100
AcDbPolyline
 90
2
 70
0
 10
-361.401215
 20
87.960071
 30
0.0
 10
-361.401215
 20
62.429930
 30
0.0
  0
LWPOLYLINE
  5
3ab
100
AcDbEntity
  8
0
 62
7
100
AcDbPolyline
 90
2
 70
0
 10
-361.401215
 20
59.429930
 30
0.0
 10
-361.401215
 20
33.899790
 30
0.0
  0
LWPOLYLINE
  5
3ac
100
AcDbEntity
  8
0
 62
7
100
AcDbPolyline
 90
2
 70
0
 10
-361.401215
 20
30.899790
 30
0.0
 10
-361.401215
 20
5.369649
 30
0.0
  0
LWPOLYLINE
  5
3ad
100
AcDbEntity
  8
0
 62
7
100
AcDbPolyline
 90
2
 70
0
 10
-361.401215
 20
2.369649
 30
0.0
 10
-361.401215
 20
-23.160492
 30
0.0
  0
LWPOLYLINE
  5
3ae
100
AcDbEntity
  8
0
 62
7
100
AcDbPolyline
 90
2
 70
0
 10
-361.401215
 20
-26.160492
 30
0.0
 10
-361.401215
 20
-51.690632
 30
0.0
  0
LWPOLYLINE
  5
3af
100
AcDbEntity
  8
0
 62
7
100
AcDbPolyline
 90
2
 70
0
 10
-361.401215
 20
-54.690632
 30
0.0
 10
-361.401215
 20
-80.220773
 30
0.0
  0
LWPOLYLINE
  5
3b0
100
AcDbEntity
  8
0
 62
7
100
AcDbPolyline
 90
2
 70
0
 10
-361.401215
 20
-83.220773
 30
0.0
 10
-361.401215
 20
-108.750914
 30
0.0
  0
LWPOLYLINE
  5
3b1
100
AcDbEntity
  8
0
 62
7
100
AcDbPolyline
 90
2
 70
0
 10
-361.401215
 20
-111.750914
 30
0.0
 10
-361.401215
 20
-111.750914
 30
0.0
  0
LWPOLYLINE
  5
3b2
100
AcDbEntity
  8
0
 62
7
100
AcDbPolyline
 90
2
 70
0
 10
-357.441373
 20
87.960071
 30
0.0
 10
-357.441373
 20
62.429930
 30
0.0
  0
LWPOLYLINE
  5
3b3
100
AcDbEntity
  8
0
 62
7
100
AcDbPolyline
 90
2
 70
0
 10
-357.441373
 20
59.429930
 30
0.0
 10
-357.441373
 20
33.899790
 30
0.0
  0
LWPOLYLINE
  5
3b4
100
AcDbEntity
  8
0
 62
7
100
AcDbPolyline
 90
2
 70
0
 10
-357.441373
 20
30.899790
 30
0.0
 10
-357.441373
 20
5.369649
 30
0.0
  0
LWPOLYLINE
  5
3b5
100
AcDbEntity
  8
0
 62
7
100
AcDbPolyline
 90
2
 70
0
 10
-357.441373
 20
2.369649
 30
0.0
 10
-357.441373
 20
-23.160492
 30
0.0
  0
LWPOLYLINE
  5
3b6
100
AcDbEntity
  8
0
 62
7
100
AcDbPolyline
 90
2
 70
0
 10
-357.441373
 20
-26.160492
 30
0.0
 10
-357.441373
 20
-51.690632
 30
0.0
  0
LWPOLYLINE
  5
3b7
100
AcDbEntity
  8
0
 62
7
100
AcDbPolyline
 90
2
 70
0
 10
-357.441373
 20
-54.690632
 30
0.0
 10
-357.441373
 20
-80.220773
 30
0.0
  0
LWPOLYLINE
  5
3b8
100
AcDbEntity
  8
0
 62
7
100
AcDbPolyline
 90
2
 70
0
 10
-357.441373
 20
-83.220773
 30
0.0
 10
-357.441373
 20
-108.750914
 30
0.0
  0
LWPOLYLINE
  5
3b9
100
AcDbEntity
  8
0
 62
7
100
AcDbPolyline
 90
2
 70
0
 10
-357.441373
 20
-111.750914
 30
0.0
 10
-357.441373
 20
-111.750914
 30
0.0
  0
LWPOLYLINE
  5
3ba
100
AcDbEntity
  8
0
 62
7
100
AcDbPolyline
 90
2
 70
0
 10
-353.481531
 20
87.960071
 30
0.0
 10
-353.481531
 20
62.429930
 30
0.0
  0
LWPOLYLINE
  5
3bb
100
AcDbEntity
  8
0
 62
7
100
AcDbPolyline
 90
2
 70
0
 10
-353.481531
 20
59.429930
 30
0.0
 10
-353.481531
 20
33.899790
 30
0.0
  0
LWPOLYLINE
  5
3bc
100
AcDbEntity
  8
0
 62
7
100
AcDbPolyline
 90
2
 70
0
 10
-353.481531
 20
30.899790
 30
0.0
 10
-353.481531
 20
5.369649
 30
0.0
  0
LWPOLYLINE
  5
3bd
100
AcDbEntity
  8
0
 62
7
100
AcDbPolyline
 90
2
 70
0
 10
-353.481531
 20
2.369649
 30
0.0
 10
-353.481531
 20
-23.160492
 30
0.0
  0
LWPOLYLINE
  5
3be
100
AcDbEntity
  8
0
 62
7
100
AcDbPolyline
 90
2
 70
0
 10
-353.481531
 20
-26.160492
 30
0.0
 10
-353.481531
 20
-51.690632
 30
0.0
  0
LWPOLYLINE
  5
3bf
100
AcDbEntity
  8
0
 62
7
100
AcDbPolyline
 90
2
 70
0
 10
-353.481531
 20
-54.690632
 30
0.0
 10
-353.481531
 20
-80.220773
 30
0.0
  0
LWPOLYLINE
  5
3c0
100
AcDbEntity
  8
0
 62
7
100
AcDbPolyline
 90
2
 70
0
 10
-353.481531
 20
-83.220773
 30
0.0
 10
-353.481531
 20
-108.750914
 30
0.0
  0
LWPOLYLINE
  5
3c1
100
AcDbEntity
  8
0
 62
7
100
AcDbPolyline
 90
2
 70
0
 10
-353.481531
 20
-111.750914
 30
0.0
 10
-353.481531
 20
-111.750914
 30
0.0
  0
LWPOLYLINE
  5
3c2
100
AcDbEntity
  8
0
 62
7
100
AcDbPolyline
 90
2
 70
0
 10
-349.521690
 20
87.960071
 30
0.0
 10
-349.521690
 20
62.429930
 30
0.0
  0
LWPOLYLINE
  5
3c3
100
AcDbEntity
  8
0
 62
7
100
AcDbPolyline
 90
2
 70
0
 10
-349.521690
 20
59.429930
 30
0.0
 10
-349.521690
 20
33.899790
 30
0.0
  0
LWPOLYLINE
  5
3c4
100
AcDbEntity
  8
0
 62
7
100
AcDbPolyline
 90
2
 70
0
 10
-349.521690
 20
30.899790
 30
0.0
 10
-349.521690
 20
5.369649
 30
0.0
  0
LWPOLYLINE
  5
3c5
100
AcDbEntity
  8
0
 62
7
100
AcDbPolyline
 90
2
 70
0
 10
-349.521690
 20
2.369649
 30
0.0
 10
-349.521690
 20
-23.160492
 30
0.0
  0
LWPOLYLINE
  5
3c6
100
AcDbEntity
  8
0
 62
7
100
AcDbPolyline
 90
2
 70
0
 10
-349.521690
 20
-26.160492
 30
0.0
 10
-349.521690
 20
-51.690632
 30
0.0
  0
LWPOLYLINE
  5
3c7
100
AcDbEntity
  8
0
 62
7
100
AcDbPolyline
 90
2
 70
0
 10
-349.521690
 20
-54.690632
 30
0.0
 10
-349.521690
 20
-80.220773
 30
0.0
  0
LWPOLYLINE
  5
3c8
100
AcDbEntity
  8
0
 62
7
100
AcDbPolyline
 90
2
 70
0
 10
-349.521690
 20
-83.220773
 30
0.0
 10
-349.521690
 20
-108.750914
 30
0.0
  0
LWPOLYLINE
  5
3c9
100
AcDbEntity
  8
0
 62
7
100
AcDbPolyline
 90
2
 70
0
 10
-349.521690
 20
-111.750914
 30
0.0
 10
-349.521690
 20
-111.750914
 30
0.0
  0
LWPOLYLINE
  5
3ca
100
AcDbEntity
  8
0
 62
7
100
AcDbPolyline
 90
2
 70
0
 10
-345.561848
 20
87.960071
 30
0.0
 10
-345.561848
 20
62.429930
 30
0.0
  0
LWPOLYLINE
  5
3cb
100
AcDbEntity
  8
0
 62
7
100
AcDbPolyline
 90
2
 70
0
 10
-345.561848
 20
59.429930
 30
0.0
 10
-345.561848
 20
33.899790
 30
0.0
  0
LWPOLYLINE
  5
3cc
100
AcDbEntity
  8
0
 62
7
100
AcDbPolyline
 90
2
 70
0
 10
-345.561848
 20
30.899790
 30
0.0
 10
-345.561848
 20
5.369649
 30
0.0
  0
LWPOLYLINE
  5
3cd
100
AcDbEntity
  8
0
 62
7
100
AcDbPolyline
 90
2
 70
0
 10
-345.561848
 20
2.369649
 30
0.0
 10
-345.561848
 20
-23.160492
 30
0.0
  0
LWPOLYLINE
  5
3ce
100
AcDbEntity
  8
0
 62
7
100
AcDbPolyline
 90
2
 70
0
 10
-345.561848
 20
-26.160492
 30
0.0
 10
-345.561848
 20
-51.690632
 30
0.0
  0
LWPOLYLINE
  5
3cf
100
AcDbEntity
  8
0
 62
7
100
AcDbPolyline
 90
2
 70
0
 10
-345.561848
 20
-54.690632
 30
0.0
 10
-345.561848
 20
-80.220773
 30
0.0
  0
LWPOLYLINE
  5
3d0
100
AcDbEntity
  8
0
 62
7
100
AcDbPolyline
 90
2
 70
0
 10
-345.561848
 20
-83.220773
 30
0.0
 10
-345.561848
 20
-108.750914
 30
0.0
  0
LWPOLYLINE
  5
3d1
100
AcDbEntity
  8
0
 62
7
100
AcDbPolyline
 90
2
 70
0
 10
-345.561848
 20
-111.750914
 30
0.0
 10
-345.561848
 20
-111.750914
 30
0.0
  0
LWPOLYLINE
  5
3d2
100
AcDbEntity
  8
0
 62
7
100
AcDbPolyline
 90
2
 70
0
 10
-341.602006
 20
87.960071
 30
0.0
 10
-341.602006
 20
62.429930
 30
0.0
  0
LWPOLYLINE
  5
3d3
100
AcDbEntity
  8
0
 62
7
100
AcDbPolyline
 90
2
 70
0
 10
-341.602006
 20
59.429930
 30
0.0
 10
-341.602006
 20
33.899790
 30
0.0
  0
LWPOLYLINE
  5
3d4
100
AcDbEntity
  8
0
 62
7
100
AcDbPolyline
 90
2
 70
0
 10
-341.602006
 20
30.899790
 30
0.0
 10
-341.602006
 20
5.369649
 30
0.0
  0
LWPOLYLINE
  5
3d5
100
AcDbEntity
  8
0
 62
7
100
AcDbPolyline
 90
2
 70
0
 10
-341.602006
 20
2.369649
 30
0.0
 10
-341.602006
 20
-23.160492
 30
0.0
  0
LWPOLYLINE
  5
3d6
100
AcDbEntity
  8
0
 62
7
100
AcDbPolyline
 90
2
 70
0
 10
-341.602006
 20
-26.160492
 30
0.0
 10
-341.602006
 20
-51.690632
 30
0.0
  0
LWPOLYLINE
  5
3d7
100
AcDbEntity
  8
0
 62
7
100
AcDbPolyline
 90
2
 70
0
 10
-341.602006
 20
-54.690632
 30
0.0
 10
-341.602006
 20
-80.220773
 30
0.0
  0
LWPOLYLINE
  5
3d8
100
AcDbEntity
  8
0
 62
7
100
AcDbPolyline
 90
2
 70
0
 10
-341.602006
 20
-83.220773
 30
0.0
 10
-341.602006
 20
-108.750914
 30
0.0
  0
LWPOLYLINE
  5
3d9
100
AcDbEntity
  8
0
 62
7
100
AcDbPolyline
 90
2
 70
0
 10
-341.602006
 20
-111.750914
 30
0.0
 10
-341.602006
 20
-111.750914
 30
0.0
  0
LWPOLYLINE
  5
3da
100
AcDbEntity
  8
0
 62
7
100
AcDbPolyline
 90
2
 70
0
 10
-337.642165
 20
87.960071
 30
0.0
 10
-337.642165
 20
62.429930
 30
0.0
  0
LWPOLYLINE
  5
3db
100
AcDbEntity
  8
0
 62
7
100
AcDbPolyline
 90
2
 70
0
 10
-337.642165
 20
59.429930
 30
0.0
 10
-337.642165
 20
33.899790
 30
0.0
  0
LWPOLYLINE
  5
3dc
100
AcDbEntity
  8
0
 62
7
100
AcDbPolyline
 90
2
 70
0
 10
-337.642165
 20
30.899790
 30
0.0
 10
-337.642165
 20
5.369649
 30
0.0
  0
LWPOLYLINE
  5
3dd
100
AcDbEntity
  8
0
 62
7
100
AcDbPolyline
 90
2
 70
0
 10
-337.642165
 20
2.369649
 30
0.0
 10
-337.642165
 20
-23.160492
 30
0.0
  0
LWPOLYLINE
  5
3de
100
AcDbEntity
  8
0
 62
7
100
AcDbPolyline
 90
2
 70
0
 10
-337.642165
 20
-26.160492
 30
0.0
 10
-337.642165
 20
-51.690632
 30
0.0
  0
LWPOLYLINE
  5
3df
100
AcDbEntity
  8
0
 62
7
100
AcDbPolyline
 90
2
 70
0
 10
-337.642165
 20
-54.690632
 30
0.0
 10
-337.642165
 20
-80.220773
 30
0.0
  0
LWPOLYLINE
  5
3e0
100
AcDbEntity
  8
0
 62
7
100
AcDbPolyline
 90
2
 70
0
 10
-337.642165
 20
-83.220773
 30
0.0
 10
-337.642165
 20
-108.750914
 30
0.0
  0
LWPOLYLINE
  5
3e1
100
AcDbEntity
  8
0
 62
7
100
AcDbPolyline
 90
2
 70
0
 10
-337.642165
 20
-111.750914
 30
0.0
 10
-337.642165
 20
-111.750914
 30
0.0
  0
LWPOLYLINE
  5
3e2
100
AcDbEntity
  8
0
 62
7
100
AcDbPolyline
 90
2
 70
0
 10
-333.682323
 20
87.960071
 30
0.0
 10
-333.682323
 20
62.429930
 30
0.0
  0
LWPOLYLINE
  5
3e3
100
AcDbEntity
  8
0
 62
7
100
AcDbPolyline
 90
2
 70
0
 10
-333.682323
 20
59.429930
 30
0.0
 10
-333.682323
 20
33.899790
 30
0.0
  0
LWPOLYLINE
  5
3e4
100
AcDbEntity
  8
0
 62
7
100
AcDbPolyline
 90
2
 70
0
 10
-333.682323
 20
30.899790
 30
0.0
 10
-333.682323
 20
5.369649
 30
0.0
  0
LWPOLYLINE
  5
3e5
100
AcDbEntity
  8
0
 62
7
100
AcDbPolyline
 90
2
 70
0
 10
-333.682323
 20
2.369649
 30
0.0
 10
-333.682323
 20
-23.160492
 30
0.0
  0
LWPOLYLINE
  5
3e6
100
AcDbEntity
  8
0
 62
7
100
AcDbPolyline
 90
2
 70
0
 10
-333.682323
 20
-26.160492
 30
0.0
 10
-333.682323
 20
-51.690632
 30
0.0
  0
LWPOLYLINE
  5
3e7
100
AcDbEntity
  8
0
 62
7
100
AcDbPolyline
 90
2
 70
0
 10
-333.682323
 20
-54.690632
 30
0.0
 10
-333.682323
 20
-80.220773
 30
0.0
  0
LWPOLYLINE
  5
3e8
100
AcDbEntity
  8
0
 62
7
100
AcDbPolyline
 90
2
 70
0
 10
-333.682323
 20
-83.220773
 30
0.0
 10
-333.682323
 20
-108.750914
 30
0.0
  0
LWPOLYLINE
  5
3e9
100
AcDbEntity
  8
0
 62
7
100
AcDbPolyline
 90
2
 70
0
 10
-333.682323
 20
-111.750914
 30
0.0
 10
-333.682323
 20
-111.750914
 30
0.0
  0
LWPOLYLINE
  5
3ea
100
AcDbEntity
  8
0
 62
7
100
AcDbPolyline
 90
2
 70
0
 10
-329.722481
 20
87.960071
 30
0.0
 10
-329.722481
 20
62.429930
 30
0.0
  0
LWPOLYLINE
  5
3eb
100
AcDbEntity
  8
0
 62
7
100
AcDbPolyline
 90
2
 70
0
 10
-329.722481
 20
59.429930
 30
0.0
 10
-329.722481
 20
33.899790
 30
0.0
  0
LWPOLYLINE
  5
3ec
100
AcDbEntity
  8
0
 62
7
100
AcDbPolyline
 90
2
 70
0
 10
-329.722481
 20
30.899790
 30
0.0
 10
-329.722481
 20
5.369649
 30
0.0
  0
LWPOLYLINE
  5
3ed
100
AcDbEntity
  8
0
 62
7
100
AcDbPolyline
 90
2
 70
0
 10
-329.722481
 20
2.369649
 30
0.0
 10
-329.722481
 20
-23.160492
 30
0.0
  0
LWPOLYLINE
  5
3ee
100
AcDbEntity
  8
0
 62
7
100
AcDbPolyline
 90
2
 70
0
 10
-329.722481
 20
-26.160492
 30
0.0
 10
-329.722481
 20
-51.690632
 30
0.0
  0
LWPOLYLINE
  5
3ef
100
AcDbEntity
  8
0
 62
7
100
AcDbPolyline
 90
2
 70
0
 10
-329.722481
 20
-54.690632
 30
0.0
 10
-329.722481
 20
-80.220773
 30
0.0
  0
LWPOLYLINE
  5
3f0
100
AcDbEntity
  8
0
 62
7
100
AcDbPolyline
 90
2
 70
0
 10
-329.722481
 20
-83.220773
 30
0.0
 10
-329.722481
 20
-108.750914
 30
0.0
  0
LWPOLYLINE
  5
3f1
100
AcDbEntity
  8
0
 62
7
100
AcDbPolyline
 90
2
 70
0
 10
-329.722481
 20
-111.750914
 30
0.0
 10
-329.722481
 20
-111.750914
 30
0.0
  0
LWPOLYLINE
  5
3f2
100
AcDbEntity
  8
0
 62
7
100
AcDbPolyline
 90
2
 70
0
 10
-325.762639
 20
87.960071
 30
0.0
 10
-325.762639
 20
62.429930
 30
0.0
  0
LWPOLYLINE
  5
3f3
100
AcDbEntity
  8
0
 62
7
100
AcDbPolyline
 90
2
 70
0
 10
-325.762639
 20
59.429930
 30
0.0
 10
-325.762639
 20
33.899790
 30
0.0
  0
LWPOLYLINE
  5
3f4
100
AcDbEntity
  8
0
 62
7
100
AcDbPolyline
 90
2
 70
0
 10
-325.762639
 20
30.899790
 30
0.0
 10
-325.762639
 20
5.369649
 30
0.0
  0
LWPOLYLINE
  5
3f5
100
AcDbEntity
  8
0
 62
7
100
AcDbPolyline
 90
2
 70
0
 10
-325.762639
 20
2.369649
 30
0.0
 10
-325.762639
 20
-23.160492
 30
0.0
  0
LWPOLYLINE
  5
3f6
100
AcDbEntity
  8
0
 62
7
100
AcDbPolyline
 90
2
 70
0
 10
-325.762639
 20
-26.160492
 30
0.0
 10
-325.762639
 20
-51.690632
 30
0.0
  0
LWPOLYLINE
  5
3f7
100
AcDbEntity
  8
0
 62
7
100
AcDbPolyline
 90
2
 70
0
 10
-325.762639
 20
-54.690632
 30
0.0
 10
-325.762639
 20
-80.220773
 30
0.0
  0
LWPOLYLINE
  5
3f8
100
AcDbEntity
  8
0
 62
7
100
AcDbPolyline
 90
2
 70
0
 10
-325.762639
 20
-83.220773
 30
0.0
 10
-325.762639
 20
-108.750914
 30
0.0
  0
LWPOLYLINE
  5
3f9
100
AcDbEntity
  8
0
 62
7
100
AcDbPolyline
 90
2
 70
0
 10
-325.762639
 20
-111.750914
 30
0.0
 10
-325.762639
 20
-111.750914
 30
0.0
  0
LWPOLYLINE
  5
3fa
100
AcDbEntity
  8
0
 62
7
100
AcDbPolyline
 90
2
 70
0
 10
-321.802798
 20
87.960071
 30
0.0
 10
-321.802798
 20
62.429930
 30
0.0
  0
LWPOLYLINE
  5
3fb
100
AcDbEntity
  8
0
 62
7
100
AcDbPolyline
 90
2
 70
0
 10
-321.802798
 20
59.429930
 30
0.0
 10
-321.802798
 20
33.899790
 30
0.0
  0
LWPOLYLINE
  5
3fc
100
AcDbEntity
  8
0
 62
7
100
AcDbPolyline
 90
2
 70
0
 10
-321.802798
 20
30.899790
 30
0.0
 10
-321.802798
 20
5.369649
 30
0.0
  0
LWPOLYLINE
  5
3fd
100
AcDbEntity
  8
0
 62
7
100
AcDbPolyline
 90
2
 70
0
 10
-321.802798
 20
2.369649
 30
0.0
 10
-321.802798
 20
-23.160492
 30
0.0
  0
LWPOLYLINE
  5
3fe
100
AcDbEntity
  8
0
 62
7
100
AcDbPolyline
 90
2
 70
0
 10
-321.802798
 20
-26.160492
 30
0.0
 10
-321.802798
 20
-51.690632
 30
0.0
  0
LWPOLYLINE
  5
3ff
100
AcDbEntity
  8
0
 62
7
100
AcDbPolyline
 90
2
 70
0
 10
-321.802798
 20
-54.690632
 30
0.0
 10
-321.802798
 20
-80.220773
 30
0.0
  0
LWPOLYLINE
  5
400
100
AcDbEntity
  8
0
 62
7
100
AcDbPolyline
 90
2
 70
0
 10
-321.802798
 20
-83.220773
 30
0.0
 10
-321.802798
 20
-108.750914
 30
0.0
  0
LWPOLYLINE
  5
401
100
AcDbEntity
  8
0
 62
7
100
AcDbPolyline
 90
2
 70
0
 10
-321.802798
 20
-111.750914
 30
0.0
 10
-321.802798
 20
-111.750914
 30
0.0
  0
LWPOLYLINE
  5
402
100
AcDbEntity
  8
0
 62
7
100
AcDbPolyline
 90
2
 70
0
 10
-317.842956
 20
87.960071
 30
0.0
 10
-317.842956
 20
62.429930
 30
0.0
  0
LWPOLYLINE
  5
403
100
AcDbEntity
  8
0
 62
7
100
AcDbPolyline
 90
2
 70
0
 10
-317.842956
 20
59.429930
 30
0.0
 10
-317.842956
 20
33.899790
 30
0.0
  0
LWPOLYLINE
  5
404
100
AcDbEntity
  8
0
 62
7
100
AcDbPolyline
 90
2
 70
0
 10
-317.842956
 20
30.899790
 30
0.0
 10
-317.842956
 20
5.369649
 30
0.0
  0
LWPOLYLINE
  5
405
100
AcDbEntity
  8
0
 62
7
100
AcDbPolyline
 90
2
 70
0
 10
-317.842956
 20
2.369649
 30
0.0
 10
-317.842956
 20
-23.160492
 30
0.0
  0
LWPOLYLINE
  5
406
100
AcDbEntity
  8
0
 62
7
100
AcDbPolyline
 90
2
 70
0
 10
-317.842956
 20
-26.160492
 30
0.0
 10
-317.842956
 20
-51.690632
 30
0.0
  0
LWPOLYLINE
  5
407
100
AcDbEntity
  8
0
 62
7
100
AcDbPolyline
 90
2
 70
0
 10
-317.842956
 20
-54.690632
 30
0.0
 10
-317.842956
 20
-80.220773
 30
0.0
  0
LWPOLYLINE
  5
408
100
AcDbEntity
  8
0
 62
7
100
AcDbPolyline
 90
2
 70
0
 10
-317.842956
 20
-83.220773
 30
0.0
 10
-317.842956
 20
-108.750914
 30
0.0
  0
LWPOLYLINE
  5
409
100
AcDbEntity
  8
0
 62
7
100
AcDbPolyline
 90
2
 70
0
 10
-317.842956
 20
-111.750914
 30
0.0
 10
-317.842956
 20
-111.750914
 30
0.0
  0
LWPOLYLINE
  5
40a
100
AcDbEntity
  8
0
 62
7
100
AcDbPolyline
 90
2
 70
0
 10
-313.883114
 20
87.960071
 30
0.0
 10
-313.883114
 20
62.429930
 30
0.0
  0
LWPOLYLINE
  5
40b
100
AcDbEntity
  8
0
 62
7
100
AcDbPolyline
 90
2
 70
0
 10
-313.883114
 20
59.429930
 30
0.0
 10
-313.883114
 20
33.899790
 30
0.0
  0
LWPOLYLINE
  5
40c
100
AcDbEntity
  8
0
 62
7
100
AcDbPolyline
 90
2
 70
0
 10
-313.883114
 20
30.899790
 30
0.0
 10
-313.883114
 20
5.369649
 30
0.0
  0
LWPOLYLINE
  5
40d
100
AcDbEntity
  8
0
 62
7
100
AcDbPolyline
 90
2
 70
0
 10
-313.883114
 20
2.369649
 30
0.0
 10
-313.883114
 20
-23.160492
 30
0.0
  0
LWPOLYLINE
  5
40e
100
AcDbEntity
  8
0
 62
7
100
AcDbPolyline
 90
2
 70
0
 10
-313.883114
 20
-26.160492
 30
0.0
 10
-313.883114
 20
-51.690632
 30
0.0
  0
LWPOLYLINE
  5
40f
100
AcDbEntity
  8
0
 62
7
100
AcDbPolyline
 90
2
 70
0
 10
-313.883114
 20
-54.690632
 30
0.0
 10
-313.883114
 20
-80.220773
 30
0.0
  0
LWPOLYLINE
  5
410
100
AcDbEntity
  8
0
 62
7
100
AcDbPolyline
 90
2
 70
0
 10
-313.883114
 20
-83.220773
 30
0.0
 10
-313.883114
 20
-108.750914
 30
0.0
  0
LWPOLYLINE
  5
411
100
AcDbEntity
  8
0
 62
7
100
AcDbPolyline
 90
2
 70
0
 10
-313.883114
 20
-111.750914
 30
0.0
 10
-313.883114
 20
-111.750914
 30
0.0
  0
LWPOLYLINE
  5
412
100
AcDbEntity
  8
0
 62
7
100
AcDbPolyline
 90
2
 70
0
 10
-309.923272
 20
87.960071
 30
0.0
 10
-309.923272
 20
62.429930
 30
0.0
  0
LWPOLYLINE
  5
413
100
AcDbEntity
  8
0
 62
7
100
AcDbPolyline
 90
2
 70
0
 10
-309.923272
 20
59.429930
 30
0.0
 10
-309.923272
 20
33.899790
 30
0.0
  0
LWPOLYLINE
  5
414
100
AcDbEntity
  8
0
 62
7
100
AcDbPolyline
 90
2
 70
0
 10
-309.923272
 20
30.899790
 30
0.0
 10
-309.923272
 20
5.369649
 30
0.0
  0
LWPOLYLINE
  5
415
100
AcDbEntity
  8
0
 62
7
100
AcDbPolyline
 90
2
 70
0
 10
-309.923272
 20
2.369649
 30
0.0
 10
-309.923272
 20
-23.160492
 30
0.0
  0
LWPOLYLINE
  5
416
100
AcDbEntity
  8
0
 62
7
100
AcDbPolyline
 90
2
 70
0
 10
-309.923272
 20
-26.160492
 30
0.0
 10
-309.923272
 20
-51.690632
 30
0.0
  0
LWPOLYLINE
  5
417
100
AcDbEntity
  8
0
 62
7
100
AcDbPolyline
 90
2
 70
0
 10
-309.923272
 20
-54.690632
 30
0.0
 10
-309.923272
 20
-80.220773
 30
0.0
  0
LWPOLYLINE
  5
418
100
AcDbEntity
  8
0
 62
7
100
AcDbPolyline
 90
2
 70
0
 10
-309.923272
 20
-83.220773
 30
0.0
 10
-309.923272
 20
-108.750914
 30
0.0
  0
LWPOLYLINE
  5
419
100
AcDbEntity
  8
0
 62
7
100
AcDbPolyline
 90
2
 70
0
 10
-309.923272
 20
-111.750914
 30
0.0
 10
-309.923272
 20
-111.750914
 30
0.0
  0
LWPOLYLINE
  5
41a
100
AcDbEntity
  8
0
 62
7
100
AcDbPolyline
 90
2
 70
0
 10
-305.963431
 20
87.960071
 30
0.0
 10
-305.963431
 20
62.429930
 30
0.0
  0
LWPOLYLINE
  5
41b
100
AcDbEntity
  8
0
 62
7
100
AcDbPolyline
 90
2
 70
0
 10
-305.963431
 20
59.429930
 30
0.0
 10
-305.963431
 20
33.899790
 30
0.0
  0
LWPOLYLINE
  5
41c
100
AcDbEntity
  8
0
 62
7
100
AcDbPolyline
 90
2
 70
0
 10
-305.963431
 20
30.899790
 30
0.0
 10
-305.963431
 20
5.369649
 30
0.0
  0
LWPOLYLINE
  5
41d
100
AcDbEntity
  8
0
 62
7
100
AcDbPolyline
 90
2
 70
0
 10
-305.963431
 20
2.369649
 30
0.0
 10
-305.963431
 20
-23.160492
 30
0.0
  0
LWPOLYLINE
  5
41e
100
AcDbEntity
  8
0
 62
7
100
AcDbPolyline
 90
2
 70
0
 10
-305.963431
 20
-26.160492
 30
0.0
 10
-305.963431
 20
-51.690632
 30
0.0
  0
LWPOLYLINE
  5
41f
100
AcDbEntity
  8
0
 62
7
100
AcDbPolyline
 90
2
 70
0
 10
-305.963431
 20
-54.690632
 30
0.0
 10
-305.963431
 20
-80.220773
 30
0.0
  0
LWPOLYLINE
  5
420
100
AcDbEntity
  8
0
 62
7
100
AcDbPolyline
 90
2
 70
0
 10
-305.963431
 20
-83.220773
 30
0.0
 10
-305.963431
 20
-108.750914
 30
0.0
  0
LWPOLYLINE
  5
421
100
AcDbEntity
  8
0
 62
7
100
AcDbPolyline
 90
2
 70
0
 10
-305.963431
 20
-111.750914
 30
0.0
 10
-305.963431
 20
-111.750914
 30
0.0
  0
LWPOLYLINE
  5
422
100
AcDbEntity
  8
0
 62
7
100
AcDbPolyline
 90
2
 70
0
 10
-302.003589
 20
87.960071
 30
0.0
 10
-302.003589
 20
62.429930
 30
0.0
  0
LWPOLYLINE
  5
423
100
AcDbEntity
  8
0
 62
7
100
AcDbPolyline
 90
2
 70
0
 10
-302.003589
 20
59.429930
 30
0.0
 10
-302.003589
 20
33.899790
 30
0.0
  0
LWPOLYLINE
  5
424
100
AcDbEntity
  8
0
 62
7
100
AcDbPolyline
 90
2
 70
0
 10
-302.003589
 20
30.899790
 30
0.0
 10
-302.003589
 20
5.369649
 30
0.0
  0
LWPOLYLINE
  5
425
100
AcDbEntity
  8
0
 62
7
100
AcDbPolyline
 90
2
 70
0
 10
-302.003589
 20
2.369649
 30
0.0
 10
-302.003589
 20
-23.160492
 30
0.0
  0
LWPOLYLINE
  5
426
100
AcDbEntity
  8
0
 62
7
100
AcDbPolyline
 90
2
 70
0
 10
-302.003589
 20
-26.160492
 30
0.0
 10
-302.003589
 20
-51.690632
 30
0.0
  0
LWPOLYLINE
  5
427
100
AcDbEntity
  8
0
 62
7
100
AcDbPolyline
 90
2
 70
0
 10
-302.003589
 20
-54.690632
 30
0.0
 10
-302.003589
 20
-80.220773
 30
0.0
  0
LWPOLYLINE
  5
428
100
AcDbEntity
  8
0
 62
7
100
AcDbPolyline
 90
2
 70
0
 10
-302.003589
 20
-83.220773
 30
0.0
 10
-302.003589
 20
-108.750914
 30
0.0
  0
LWPOLYLINE
  5
429
100
AcDbEntity
  8
0
 62
7
100
AcDbPolyline
 90
2
 70
0
 10
-302.003589
 20
-111.750914
 30
0.0
 10
-302.003589
 20
-111.750914
 30
0.0
  0
LWPOLYLINE
  5
42a
100
AcDbEntity
  8
0
 62
7
100
AcDbPolyline
 90
2
 70
0
 10
-298.043747
 20
87.960071
 30
0.0
 10
-298.043747
 20
62.429930
 30
0.0
  0
LWPOLYLINE
  5
42b
100
AcDbEntity
  8
0
 62
7
100
AcDbPolyline
 90
2
 70
0
 10
-298.043747
 20
59.429930
 30
0.0
 10
-298.043747
 20
33.899790
 30
0.0
  0
LWPOLYLINE
  5
42c
100
AcDbEntity
  8
0
 62
7
100
AcDbPolyline
 90
2
 70
0
 10
-298.043747
 20
30.899790
 30
0.0
 10
-298.043747
 20
5.369649
 30
0.0
  0
LWPOLYLINE
  5
42d
100
AcDbEntity
  8
0
 62
7
100
AcDbPolyline
 90
2
 70
0
 10
-298.043747
 20
2.369649
 30
0.0
 10
-298.043747
 20
-23.160492
 30
0.0
  0
LWPOLYLINE
  5
42e
100
AcDbEntity
  8
0
 62
7
100
AcDbPolyline
 90
2
 70
0
 10
-298.043747
 20
-26.160492
 30
0.0
 10
-298.043747
 20
-51.690632
 30
0.0
  0
LWPOLYLINE
  5
42f
100
AcDbEntity
  8
0
 62
7
100
AcDbPolyline
 90
2
 70
0
 10
-298.043747
 20
-54.690632
 30
0.0
 10
-298.043747
 20
-80.220773
 30
0.0
  0
LWPOLYLINE
  5
430
100
AcDbEntity
  8
0
 62
7
100
AcDbPolyline
 90
2
 70
0
 10
-298.043747
 20
-83.220773
 30
0.0
 10
-298.043747
 20
-108.750914
 30
0.0
  0
LWPOLYLINE
  5
431
100
AcDbEntity
  8
0
 62
7
100
AcDbPolyline
 90
2
 70
0
 10
-298.043747
 20
-111.750914
 30
0.0
 10
-298.043747
 20
-111.750914
 30
0.0
  0
LWPOLYLINE
  5
432
100
AcDbEntity
  8
0
 62
7
100
AcDbPolyline
 90
2
 70
0
 10
-294.083906
 20
87.960071
 30
0.0
 10
-294.083906
 20
62.429930
 30
0.0
  0
LWPOLYLINE
  5
433
100
AcDbEntity
  8
0
 62
7
100
AcDbPolyline
 90
2
 70
0
 10
-294.083906
 20
59.429930
 30
0.0
 10
-294.083906
 20
33.899790
 30
0.0
  0
LWPOLYLINE
  5
434
100
AcDbEntity
  8
0
 62
7
100
AcDbPolyline
 90
2
 70
0
 10
-294.083906
 20
30.899790
 30
0.0
 10
-294.083906
 20
5.369649
 30
0.0
  0
LWPOLYLINE
  5
435
100
AcDbEntity
  8
0
 62
7
100
AcDbPolyline
 90
2
 70
0
 10
-294.083906
 20
2.369649
 30
0.0
 10
-294.083906
 20
-23.160492
 30
0.0
  0
LWPOLYLINE
  5
436
100
AcDbEntity
  8
0
 62
7
100
AcDbPolyline
 90
2
 70
0
 10
-294.083906
 20
-26.160492
 30
0.0
 10
-294.083906
 20
-51.690632
 30
0.0
  0
LWPOLYLINE
  5
437
100
AcDbEntity
  8
0
 62
7
100
AcDbPolyline
 90
2
 70
0
 10
-294.083906
 20
-54.690632
 30
0.0
 10
-294.083906
 20
-80.220773
 30
0.0
  0
LWPOLYLINE
  5
438
100
AcDbEntity
  8
0
 62
7
100
AcDbPolyline
 90
2
 70
0
 10
-294.083906
 20
-83.220773
 30
0.0
 10
-294.083906
 20
-108.750914
 30
0.0
  0
LWPOLYLINE
  5
439
100
AcDbEntity
  8
0
 62
7
100
AcDbPolyline
 90
2
 70
0
 10
-294.083906
 20
-111.750914
 30
0.0
 10
-294.083906
 20
-111.750914
 30
0.0
  0
LWPOLYLINE
  5
43a
100
AcDbEntity
  8
0
 62
7
100
AcDbPolyline
 90
2
 70
0
 10
-290.124064
 20
87.960071
 30
0.0
 10
-290.124064
 20
62.429930
 30
0.0
  0
LWPOLYLINE
  5
43b
100
AcDbEntity
  8
0
 62
7
100
AcDbPolyline
 90
2
 70
0
 10
-290.124064
 20
59.429930
 30
0.0
 10
-290.124064
 20
33.899790
 30
0.0
  0
LWPOLYLINE
  5
43c
100
AcDbEntity
  8
0
 62
7
100
AcDbPolyline
 90
2
 70
0
 10
-290.124064
 20
30.899790
 30
0.0
 10
-290.124064
 20
5.369649
 30
0.0
  0
LWPOLYLINE
  5
43d
100
AcDbEntity
  8
0
 62
7
100
AcDbPolyline
 90
2
 70
0
 10
-290.124064
 20
2.369649
 30
0.0
 10
-290.124064
 20
-23.160492
 30
0.0
  0
LWPOLYLINE
  5
43e
100
AcDbEntity
  8
0
 62
7
100
AcDbPolyline
 90
2
 70
0
 10
-290.124064
 20
-26.160492
 30
0.0
 10
-290.124064
 20
-51.690632
 30
0.0
  0
LWPOLYLINE
  5
43f
100
AcDbEntity
  8
0
 62
7
100
AcDbPolyline
 90
2
 70
0
 10
-290.124064
 20
-54.690632
 30
0.0
 10
-290.124064
 20
-80.220773
 30
0.0
  0
LWPOLYLINE
  5
440
100
AcDbEntity
  8
0
 62
7
100
AcDbPolyline
 90
2
 70
0
 10
-290.124064
 20
-83.220773
 30
0.0
 10
-290.124064
 20
-108.750914
 30
0.0
  0
LWPOLYLINE
  5
441
100
AcDbEntity
  8
0
 62
7
100
AcDbPolyline
 90
2
 70
0
 10
-290.124064
 20
-111.750914
 30
0.0
 10
-290.124064
 20
-111.750914
 30
0.0
  0
LWPOLYLINE
  5
442
100
AcDbEntity
  8
0
 62
7
100
AcDbPolyline
 90
2
 70
0
 10
-286.164222
 20
87.960071
 30
0.0
 10
-286.164222
 20
62.429930
 30
0.0
  0
LWPOLYLINE
  5
443
100
AcDbEntity
  8
0
 62
7
100
AcDbPolyline
 90
2
 70
0
 10
-286.164222
 20
59.429930
 30
0.0
 10
-286.164222
 20
33.899790
 30
0.0
  0
LWPOLYLINE
  5
444
100
AcDbEntity
  8
0
 62
7
100
AcDbPolyline
 90
2
 70
0
 10
-286.164222
 20
30.899790
 30
0.0
 10
-286.164222
 20
5.369649
 30
0.0
  0
LWPOLYLINE
  5
445
100
AcDbEntity
  8
0
 62
7
100
AcDbPolyline
 90
2
 70
0
 10
-286.164222
 20
2.369649
 30
0.0
 10
-286.164222
 20
-23.160492
 30
0.0
  0
LWPOLYLINE
  5
446
100
AcDbEntity
  8
0
 62
7
100
AcDbPolyline
 90
2
 70
0
 10
-286.164222
 20
-26.160492
 30
0.0
 10
-286.164222
 20
-51.690632
 30
0.0
  0
LWPOLYLINE
  5
447
100
AcDbEntity
  8
0
 62
7
100
AcDbPolyline
 90
2
 70
0
 10
-286.164222
 20
-54.690632
 30
0.0
 10
-286.164222
 20
-80.220773
 30
0.0
  0
LWPOLYLINE
  5
448
100
AcDbEntity
  8
0
 62
7
100
AcDbPolyline
 90
2
 70
0
 10
-286.164222
 20
-83.220773
 30
0.0
 10
-286.164222
 20
-108.750914
 30
0.0
  0
LWPOLYLINE
  5
449
100
AcDbEntity
  8
0
 62
7
100
AcDbPolyline
 90
2
 70
0
 10
-286.164222
 20
-111.750914
 30
0.0
 10
-286.164222
 20
-111.750914
 30
0.0
  0
LWPOLYLINE
  5
44a
100
AcDbEntity
  8
0
 62
7
100
AcDbPolyline
 90
2
 70
0
 10
-282.204380
 20
87.960071
 30
0.0
 10
-282.204380
 20
62.429930
 30
0.0
  0
LWPOLYLINE
  5
44b
100
AcDbEntity
  8
0
 62
7
100
AcDbPolyline
 90
2
 70
0
 10
-282.204380
 20
59.429930
 30
0.0
 10
-282.204380
 20
33.899790
 30
0.0
  0
LWPOLYLINE
  5
44c
100
AcDbEntity
  8
0
 62
7
100
AcDbPolyline
 90
2
 70
0
 10
-282.204380
 20
30.899790
 30
0.0
 10
-282.204380
 20
5.369649
 30
0.0
  0
LWPOLYLINE
  5
44d
100
AcDbEntity
  8
0
 62
7
100
AcDbPolyline
 90
2
 70
0
 10
-282.204380
 20
2.369649
 30
0.0
 10
-282.204380
 20
-23.160492
 30
0.0
  0
LWPOLYLINE
  5
44e
100
AcDbEntity
  8
0
 62
7
100
AcDbPolyline
 90
2
 70
0
 10
-282.204380
 20
-26.160492
 30
0.0
 10
-282.204380
 20
-51.690632
 30
0.0
  0
LWPOLYLINE
  5
44f
100
AcDbEntity
  8
0
 62
7
100
AcDbPolyline
 90
2
 70
0
 10
-282.204380
 20
-54.690632
 30
0.0
 10
-282.204380
 20
-80.220773
 30
0.0
  0
LWPOLYLINE
  5
450
100
AcDbEntity
  8
0
 62
7
100
AcDbPolyline
 90
2
 70
0
 10
-282.204380
 20
-83.220773
 30
0.0
 10
-282.204380
 20
-108.750914
 30
0.0
  0
LWPOLYLINE
  5
451
100
AcDbEntity
  8
0
 62
7
100
AcDbPolyline
 90
2
 70
0
 10
-282.204380
 20
-111.750914
 30
0.0
 10
-282.204380
 20
-111.750914
 30
0.0
  0
LWPOLYLINE
  5
452
100
AcDbEntity
  8
0
 62
7
100
AcDbPolyline
 90
2
 70
0
 10
-278.244539
 20
87.960071
 30
0.0
 10
-278.244539
 20
62.429930
 30
0.0
  0
LWPOLYLINE
  5
453
100
AcDbEntity
  8
0
 62
7
100
AcDbPolyline
 90
2
 70
0
 10
-278.244539
 20
59.429930
 30
0.0
 10
-278.244539
 20
33.899790
 30
0.0
  0
LWPOLYLINE
  5
454
100
AcDbEntity
  8
0
 62
7
100
AcDbPolyline
 90
2
 70
0
 10
-278.244539
 20
30.899790
 30
0.0
 10
-278.244539
 20
5.369649
 30
0.0
  0
LWPOLYLINE
  5
455
100
AcDbEntity
  8
0
 62
7
100
AcDbPolyline
 90
2
 70
0
 10
-278.244539
 20
2.369649
 30
0.0
 10
-278.244539
 20
-23.160492
 30
0.0
  0
LWPOLYLINE
  5
456
100
AcDbEntity
  8
0
 62
7
100
AcDbPolyline
 90
2
 70
0
 10
-278.244539
 20
-26.160492
 30
0.0
 10
-278.244539
 20
-51.690632
 30
0.0
  0
LWPOLYLINE
  5
457
100
AcDbEntity
  8
0
 62
7
100
AcDbPolyline
 90
2
 70
0
 10
-278.244539
 20
-54.690632
 30
0.0
 10
-278.244539
 20
-80.220773
 30
0.0
  0
LWPOLYLINE
  5
458
100
AcDbEntity
  8
0
 62
7
100
AcDbPolyline
 90
2
 70
0
 10
-278.244539
 20
-83.220773
 30
0.0
 10
-278.244539
 20
-108.750914
 30
0.0
  0
LWPOLYLINE
  5
459
100
AcDbEntity
  8
0
 62
7
100
AcDbPolyline
 90
2
 70
0
 10
-278.244539
 20
-111.750914
 30
0.0
 10
-278.244539
 20
-111.750914
 30
0.0
  0
LWPOLYLINE
  5
45a
100
AcDbEntity
  8
0
 62
7
100
AcDbPolyline
 90
2
 70
0
 10
-274.284697
 20
87.960071
 30
0.0
 10
-274.284697
 20
62.429930
 30
0.0
  0
LWPOLYLINE
  5
45b
100
AcDbEntity
  8
0
 62
7
100
AcDbPolyline
 90
2
 70
0
 10
-274.284697
 20
59.429930
 30
0.0
 10
-274.284697
 20
33.899790
 30
0.0
  0
LWPOLYLINE
  5
45c
100
AcDbEntity
  8
0
 62
7
100
AcDbPolyline
 90
2
 70
0
 10
-274.284697
 20
30.899790
 30
0.0
 10
-274.284697
 20
5.369649
 30
0.0
  0
LWPOLYLINE
  5
45d
100
AcDbEntity
  8
0
 62
7
100
AcDbPolyline
 90
2
 70
0
 10
-274.284697
 20
2.369649
 30
0.0
 10
-274.284697
 20
-23.160492
 30
0.0
  0
LWPOLYLINE
  5
45e
100
AcDbEntity
  8
0
 62
7
100
AcDbPolyline
 90
2
 70
0
 10
-274.284697
 20
-26.160492
 30
0.0
 10
-274.284697
 20
-51.690632
 30
0.0
  0
LWPOLYLINE
  5
45f
100
AcDbEntity
  8
0
 62
7
100
AcDbPolyline
 90
2
 70
0
 10
-274.284697
 20
-54.690632
 30
0.0
 10
-274.284697
 20
-80.220773
 30
0.0
  0
LWPOLYLINE
  5
460
100
AcDbEntity
  8
0
 62
7
100
AcDbPolyline
 90
2
 70
0
 10
-274.284697
 20
-83.220773
 30
0.0
 10
-274.284697
 20
-108.750914
 30
0.0
  0
LWPOLYLINE
  5
461
100
AcDbEntity
  8
0
 62
7
100
AcDbPolyline
 90
2
 70
0
 10
-274.284697
 20
-111.750914
 30
0.0
 10
-274.284697
 20
-111.750914
 30
0.0
  0
LWPOLYLINE
  5
462
100
AcDbEntity
  8
0
 62
7
100
AcDbPolyline
 90
2
 70
0
 10
-270.324855
 20
87.960071
 30
0.0
 10
-270.324855
 20
62.429930
 30
0.0
  0
LWPOLYLINE
  5
463
100
AcDbEntity
  8
0
 62
7
100
AcDbPolyline
 90
2
 70
0
 10
-270.324855
 20
59.429930
 30
0.0
 10
-270.324855
 20
33.899790
 30
0.0
  0
LWPOLYLINE
  5
464
100
AcDbEntity
  8
0
 62
7
100
AcDbPolyline
 90
2
 70
0
 10
-270.324855
 20
30.899790
 30
0.0
 10
-270.324855
 20
5.369649
 30
0.0
  0
LWPOLYLINE
  5
465
100
AcDbEntity
  8
0
 62
7
100
AcDbPolyline
 90
2
 70
0
 10
-270.324855
 20
2.369649
 30
0.0
 10
-270.324855
 20
-23.160492
 30
0.0
  0
LWPOLYLINE
  5
466
100
AcDbEntity
  8
0
 62
7
100
AcDbPolyline
 90
2
 70
0
 10
-270.324855
 20
-26.160492
 30
0.0
 10
-270.324855
 20
-51.690632
 30
0.0
  0
LWPOLYLINE
  5
467
100
AcDbEntity
  8
0
 62
7
100
AcDbPolyline
 90
2
 70
0
 10
-270.324855
 20
-54.690632
 30
0.0
 10
-270.324855
 20
-80.220773
 30
0.0
  0
LWPOLYLINE
  5
468
100
AcDbEntity
  8
0
 62
7
100
AcDbPolyline
 90
2
 70
0
 10
-270.324855
 20
-83.220773
 30
0.0
 10
-270.324855
 20
-108.750914
 30
0.0
  0
LWPOLYLINE
  5
469
100
AcDbEntity
  8
0
 62
7
100
AcDbPolyline
 90
2
 70
0
 10
-270.324855
 20
-111.750914
 30
0.0
 10
-270.324855
 20
-111.750914
 30
0.0
  0
LWPOLYLINE
  5
46a
100
AcDbEntity
  8
0
 62
7
100
AcDbPolyline
 90
2
 70
0
 10
-266.365013
 20
87.960071
 30
0.0
 10
-266.365013
 20
62.429930
 30
0.0
  0
LWPOLYLINE
  5
46b
100
AcDbEntity
  8
0
 62
7
100
AcDbPolyline
 90
2
 70
0
 10
-266.365013
 20
59.429930
 30
0.0
 10
-266.365013
 20
33.899790
 30
0.0
  0
LWPOLYLINE
  5
46c
100
AcDbEntity
  8
0
 62
7
100
AcDbPolyline
 90
2
 70
0
 10
-266.365013
 20
30.899790
 30
0.0
 10
-266.365013
 20
5.369649
 30
0.0
  0
LWPOLYLINE
  5
46d
100
AcDbEntity
  8
0
 62
7
100
AcDbPolyline
 90
2
 70
0
 10
-266.365013
 20
2.369649
 30
0.0
 10
-266.365013
 20
-23.160492
 30
0.0
  0
LWPOLYLINE
  5
46e
100
AcDbEntity
  8
0
 62
7
100
AcDbPolyline
 90
2
 70
0
 10
-266.365013
 20
-26.160492
 30
0.0
 10
-266.365013
 20
-51.690632
 30
0.0
  0
LWPOLYLINE
  5
46f
100
AcDbEntity
  8
0
 62
7
100
AcDbPolyline
 90
2
 70
0
 10
-266.365013
 20
-54.690632
 30
0.0
 10
-266.365013
 20
-80.220773
 30
0.0
  0
LWPOLYLINE
  5
470
100
AcDbEntity
  8
0
 62
7
100
AcDbPolyline
 90
2
 70
0
 10
-266.365013
 20
-83.220773
 30
0.0
 10
-266.365013
 20
-108.750914
 30
0.0
  0
LWPOLYLINE
  5
471
100
AcDbEntity
  8
0
 62
7
100
AcDbPolyline
 90
2
 70
0
 10
-266.365013
 20
-111.750914
 30
0.0
 10
-266.365013
 20
-111.750914
 30
0.0
  0
LWPOLYLINE
  5
472
100
AcDbEntity
  8
0
 62
7
100
AcDbPolyline
 90
2
 70
0
 10
-262.405172
 20
87.960071
 30
0.0
 10
-262.405172
 20
62.429930
 30
0.0
  0
LWPOLYLINE
  5
473
100
AcDbEntity
  8
0
 62
7
100
AcDbPolyline
 90
2
 70
0
 10
-262.405172
 20
59.429930
 30
0.0
 10
-262.405172
 20
33.899790
 30
0.0
  0
LWPOLYLINE
  5
474
100
AcDbEntity
  8
0
 62
7
100
AcDbPolyline
 90
2
 70
0
 10
-262.405172
 20
30.899790
 30
0.0
 10
-262.405172
 20
5.369649
 30
0.0
  0
LWPOLYLINE
  5
475
100
AcDbEntity
  8
0
 62
7
100
AcDbPolyline
 90
2
 70
0
 10
-262.405172
 20
2.369649
 30
0.0
 10
-262.405172
 20
-23.160492
 30
0.0
  0
LWPOLYLINE
  5
476
100
AcDbEntity
  8
0
 62
7
100
AcDbPolyline
 90
2
 70
0
 10
-262.405172
 20
-26.160492
 30
0.0
 10
-262.405172
 20
-51.690632
 30
0.0
  0
LWPOLYLINE
  5
477
100
AcDbEntity
  8
0
 62
7
100
AcDbPolyline
 90
2
 70
0
 10
-262.405172
 20
-54.690632
 30
0.0
 10
-262.405172
 20
-80.220773
 30
0.0
  0
LWPOLYLINE
  5
478
100
AcDbEntity
  8
0
 62
7
100
AcDbPolyline
 90
2
 70
0
 10
-262.405172
 20
-83.220773
 30
0.0
 10
-262.405172
 20
-108.750914
 30
0.0
  0
LWPOLYLINE
  5
479
100
AcDbEntity
  8
0
 62
7
100
AcDbPolyline
 90
2
 70
0
 10
-262.405172
 20
-111.750914
 30
0.0
 10
-262.405172
 20
-111.750914
 30
0.0
  0
LWPOLYLINE
  5
47a
100
AcDbEntity
  8
0
 62
7
100
AcDbPolyline
 90
2
 70
0
 10
-258.445330
 20
87.960071
 30
0.0
 10
-258.445330
 20
62.429930
 30
0.0
  0
LWPOLYLINE
  5
47b
100
AcDbEntity
  8
0
 62
7
100
AcDbPolyline
 90
2
 70
0
 10
-258.445330
 20
59.429930
 30
0.0
 10
-258.445330
 20
33.899790
 30
0.0
  0
LWPOLYLINE
  5
47c
100
AcDbEntity
  8
0
 62
7
100
AcDbPolyline
 90
2
 70
0
 10
-258.445330
 20
30.899790
 30
0.0
 10
-258.445330
 20
5.369649
 30
0.0
  0
LWPOLYLINE
  5
47d
100
AcDbEntity
  8
0
 62
7
100
AcDbPolyline
 90
2
 70
0
 10
-258.445330
 20
2.369649
 30
0.0
 10
-258.445330
 20
-23.160492
 30
0.0
  0
LWPOLYLINE
  5
47e
100
AcDbEntity
  8
0
 62
7
100
AcDbPolyline
 90
2
 70
0
 10
-258.445330
 20
-26.160492
 30
0.0
 10
-258.445330
 20
-51.690632
 30
0.0
  0
LWPOLYLINE
  5
47f
100
AcDbEntity
  8
0
 62
7
100
AcDbPolyline
 90
2
 70
0
 10
-258.445330
 20
-54.690632
 30
0.0
 10
-258.445330
 20
-80.220773
 30
0.0
  0
LWPOLYLINE
  5
480
100
AcDbEntity
  8
0
 62
7
100
AcDbPolyline
 90
2
 70
0
 10
-258.445330
 20
-83.220773
 30
0.0
 10
-258.445330
 20
-108.750914
 30
0.0
  0
LWPOLYLINE
  5
481
100
AcDbEntity
  8
0
 62
7
100
AcDbPolyline
 90
2
 70
0
 10
-258.445330
 20
-111.750914
 30
0.0
 10
-258.445330
 20
-111.750914
 30
0.0
  0
LWPOLYLINE
  5
482
100
AcDbEntity
  8
0
 62
7
100
AcDbPolyline
 90
2
 70
0
 10
-254.485488
 20
87.960071
 30
0.0
 10
-254.485488
 20
62.429930
 30
0.0
  0
LWPOLYLINE
  5
483
100
AcDbEntity
  8
0
 62
7
100
AcDbPolyline
 90
2
 70
0
 10
-254.485488
 20
59.429930
 30
0.0
 10
-254.485488
 20
33.899790
 30
0.0
  0
LWPOLYLINE
  5
484
100
AcDbEntity
  8
0
 62
7
100
AcDbPolyline
 90
2
 70
0
 10
-254.485488
 20
30.899790
 30
0.0
 10
-254.485488
 20
5.369649
 30
0.0
  0
LWPOLYLINE
  5
485
100
AcDbEntity
  8
0
 62
7
100
AcDbPolyline
 90
2
 70
0
 10
-254.485488
 20
2.369649
 30
0.0
 10
-254.485488
 20
-23.160492
 30
0.0
  0
LWPOLYLINE
  5
486
100
AcDbEntity
  8
0
 62
7
100
AcDbPolyline
 90
2
 70
0
 10
-254.485488
 20
-26.160492
 30
0.0
 10
-254.485488
 20
-51.690632
 30
0.0
  0
LWPOLYLINE
  5
487
100
AcDbEntity
  8
0
 62
7
100
AcDbPolyline
 90
2
 70
0
 10
-254.485488
 20
-54.690632
 30
0.0
 10
-254.485488
 20
-80.220773
 30
0.0
  0
LWPOLYLINE
  5
488
100
AcDbEntity
  8
0
 62
7
100
AcDbPolyline
 90
2
 70
0
 10
-254.485488
 20
-83.220773
 30
0.0
 10
-254.485488
 20
-108.750914
 30
0.0
  0
LWPOLYLINE
  5
489
100
AcDbEntity
  8
0
 62
7
100
AcDbPolyline
 90
2
 70
0
 10
-254.485488
 20
-111.750914
 30
0.0
 10
-254.485488
 20
-111.750914
 30
0.0
  0
LWPOLYLINE
  5
48a
100
AcDbEntity
  8
0
 62
7
100
AcDbPolyline
 90
2
 70
0
 10
-250.525647
 20
87.960071
 30
0.0
 10
-250.525647
 20
62.429930
 30
0.0
  0
LWPOLYLINE
  5
48b
100
AcDbEntity
  8
0
 62
7
100
AcDbPolyline
 90
2
 70
0
 10
-250.525647
 20
59.429930
 30
0.0
 10
-250.525647
 20
33.899790
 30
0.0
  0
LWPOLYLINE
  5
48c
100
AcDbEntity
  8
0
 62
7
100
AcDbPolyline
 90
2
 70
0
 10
-250.525647
 20
30.899790
 30
0.0
 10
-250.525647
 20
5.369649
 30
0.0
  0
LWPOLYLINE
  5
48d
100
AcDbEntity
  8
0
 62
7
100
AcDbPolyline
 90
2
 70
0
 10
-250.525647
 20
2.369649
 30
0.0
 10
-250.525647
 20
-23.160492
 30
0.0
  0
LWPOLYLINE
  5
48e
100
AcDbEntity
  8
0
 62
7
100
AcDbPolyline
 90
2
 70
0
 10
-250.525647
 20
-26.160492
 30
0.0
 10
-250.525647
 20
-51.690632
 30
0.0
  0
LWPOLYLINE
  5
48f
100
AcDbEntity
  8
0
 62
7
100
AcDbPolyline
 90
2
 70
0
 10
-250.525647
 20
-54.690632
 30
0.0
 10
-250.525647
 20
-80.220773
 30
0.0
  0
LWPOLYLINE
  5
490
100
AcDbEntity
  8
0
 62
7
100
AcDbPolyline
 90
2
 70
0
 10
-250.525647
 20
-83.220773
 30
0.0
 10
-250.525647
 20
-108.750914
 30
0.0
  0
LWPOLYLINE
  5
491
100
AcDbEntity
  8
0
 62
7
100
AcDbPolyline
 90
2
 70
0
 10
-250.525647
 20
-111.750914
 30
0.0
 10
-250.525647
 20
-111.750914
 30
0.0
  0
LWPOLYLINE
  5
492
100
AcDbEntity
  8
0
 62
7
100
AcDbPolyline
 90
2
 70
0
 10
-246.565805
 20
87.960071
 30
0.0
 10
-246.565805
 20
62.429930
 30
0.0
  0
LWPOLYLINE
  5
493
100
AcDbEntity
  8
0
 62
7
100
AcDbPolyline
 90
2
 70
0
 10
-246.565805
 20
59.429930
 30
0.0
 10
-246.565805
 20
33.899790
 30
0.0
  0
LWPOLYLINE
  5
494
100
AcDbEntity
  8
0
 62
7
100
AcDbPolyline
 90
2
 70
0
 10
-246.565805
 20
30.899790
 30
0.0
 10
-246.565805
 20
5.369649
 30
0.0
  0
LWPOLYLINE
  5
495
100
AcDbEntity
  8
0
 62
7
100
AcDbPolyline
 90
2
 70
0
 10
-246.565805
 20
2.369649
 30
0.0
 10
-246.565805
 20
-23.160492
 30
0.0
  0
LWPOLYLINE
  5
496
100
AcDbEntity
  8
0
 62
7
100
AcDbPolyline
 90
2
 70
0
 10
-246.565805
 20
-26.160492
 30
0.0
 10
-246.565805
 20
-51.690632
 30
0.0
  0
LWPOLYLINE
  5
497
100
AcDbEntity
  8
0
 62
7
100
AcDbPolyline
 90
2
 70
0
 10
-246.565805
 20
-54.690632
 30
0.0
 10
-246.565805
 20
-80.220773
 30
0.0
  0
LWPOLYLINE
  5
498
100
AcDbEntity
  8
0
 62
7
100
AcDbPolyline
 90
2
 70
0
 10
-246.565805
 20
-83.220773
 30
0.0
 10
-246.565805
 20
-108.750914
 30
0.0
  0
LWPOLYLINE
  5
499
100
AcDbEntity
  8
0
 62
7
100
AcDbPolyline
 90
2
 70
0
 10
-246.565805
 20
-111.750914
 30
0.0
 10
-246.565805
 20
-111.750914
 30
0.0
  0
LWPOLYLINE
  5
49a
100
AcDbEntity
  8
0
 62
7
100
AcDbPolyline
 90
2
 70
0
 10
-242.605963
 20
87.960071
 30
0.0
 10
-242.605963
 20
62.429930
 30
0.0
  0
LWPOLYLINE
  5
49b
100
AcDbEntity
  8
0
 62
7
100
AcDbPolyline
 90
2
 70
0
 10
-242.605963
 20
59.429930
 30
0.0
 10
-242.605963
 20
33.899790
 30
0.0
  0
LWPOLYLINE
  5
49c
100
AcDbEntity
  8
0
 62
7
100
AcDbPolyline
 90
2
 70
0
 10
-242.605963
 20
30.899790
 30
0.0
 10
-242.605963
 20
5.369649
 30
0.0
  0
LWPOLYLINE
  5
49d
100
AcDbEntity
  8
0
 62
7
100
AcDbPolyline
 90
2
 70
0
 10
-242.605963
 20
2.369649
 30
0.0
 10
-242.605963
 20
-23.160492
 30
0.0
  0
LWPOLYLINE
  5
49e
100
AcDbEntity
  8
0
 62
7
100
AcDbPolyline
 90
2
 70
0
 10
-242.605963
 20
-26.160492
 30
0.0
 10
-242.605963
 20
-51.690632
 30
0.0
  0
LWPOLYLINE
  5
49f
100
AcDbEntity
  8
0
 62
7
100
AcDbPolyline
 90
2
 70
0
 10
-242.605963
 20
-54.690632
 30
0.0
 10
-242.605963
 20
-80.220773
 30
0.0
  0
LWPOLYLINE
  5
4a0
100
AcDbEntity
  8
0
 62
7
100
AcDbPolyline
 90
2
 70
0
 10
-242.605963
 20
-83.220773
 30
0.0
 10
-242.605963
 20
-108.750914
 30
0.0
  0
LWPOLYLINE
  5
4a1
100
AcDbEntity
  8
0
 62
7
100
AcDbPolyline
 90
2
 70
0
 10
-242.605963
 20
-111.750914
 30
0.0
 10
-242.605963
 20
-111.750914
 30
0.0
  0
LWPOLYLINE
  5
4a2
100
AcDbEntity
  8
0
 62
7
100
AcDbPolyline
 90
2
 70
0
 10
-238.646121
 20
87.960071
 30
0.0
 10
-238.646121
 20
62.429930
 30
0.0
  0
LWPOLYLINE
  5
4a3
100
AcDbEntity
  8
0
 62
7
100
AcDbPolyline
 90
2
 70
0
 10
-238.646121
 20
59.429930
 30
0.0
 10
-238.646121
 20
33.899790
 30
0.0
  0
LWPOLYLINE
  5
4a4
100
AcDbEntity
  8
0
 62
7
100
AcDbPolyline
 90
2
 70
0
 10
-238.646121
 20
30.899790
 30
0.0
 10
-238.646121
 20
5.369649
 30
0.0
  0
LWPOLYLINE
  5
4a5
100
AcDbEntity
  8
0
 62
7
100
AcDbPolyline
 90
2
 70
0
 10
-238.646121
 20
2.369649
 30
0.0
 10
-238.646121
 20
-23.160492
 30
0.0
  0
LWPOLYLINE
  5
4a6
100
AcDbEntity
  8
0
 62
7
100
AcDbPolyline
 90
2
 70
0
 10
-238.646121
 20
-26.160492
 30
0.0
 10
-238.646121
 20
-51.690632
 30
0.0
  0
LWPOLYLINE
  5
4a7
100
AcDbEntity
  8
0
 62
7
100
AcDbPolyline
 90
2
 70
0
 10
-238.646121
 20
-54.690632
 30
0.0
 10
-238.646121
 20
-80.220773
 30
0.0
  0
LWPOLYLINE
  5
4a8
100
AcDbEntity
  8
0
 62
7
100
AcDbPolyline
 90
2
 70
0
 10
-238.646121
 20
-83.220773
 30
0.0
 10
-238.646121
 20
-108.750914
 30
0.0
  0
LWPOLYLINE
  5
4a9
100
AcDbEntity
  8
0
 62
7
100
AcDbPolyline
 90
2
 70
0
 10
-238.646121
 20
-111.750914
 30
0.0
 10
-238.646121
 20
-111.750914
 30
0.0
  0
LWPOLYLINE
  5
4aa
100
AcDbEntity
  8
0
 62
7
100
AcDbPolyline
 90
2
 70
0
 10
-234.686280
 20
87.960071
 30
0.0
 10
-234.686280
 20
62.429930
 30
0.0
  0
LWPOLYLINE
  5
4ab
100
AcDbEntity
  8
0
 62
7
100
AcDbPolyline
 90
2
 70
0
 10
-234.686280
 20
59.429930
 30
0.0
 10
-234.686280
 20
33.899790
 30
0.0
  0
LWPOLYLINE
  5
4ac
100
AcDbEntity
  8
0
 62
7
100
AcDbPolyline
 90
2
 70
0
 10
-234.686280
 20
30.899790
 30
0.0
 10
-234.686280
 20
5.369649
 30
0.0
  0
LWPOLYLINE
  5
4ad
100
AcDbEntity
  8
0
 62
7
100
AcDbPolyline
 90
2
 70
0
 10
-234.686280
 20
2.369649
 30
0.0
 10
-234.686280
 20
-23.160492
 30
0.0
  0
LWPOLYLINE
  5
4ae
100
AcDbEntity
  8
0
 62
7
100
AcDbPolyline
 90
2
 70
0
 10
-234.686280
 20
-26.160492
 30
0.0
 10
-234.686280
 20
-51.690632
 30
0.0
  0
LWPOLYLINE
  5
4af
100
AcDbEntity
  8
0
 62
7
100
AcDbPolyline
 90
2
 70
0
 10
-234.686280
 20
-54.690632
 30
0.0
 10
-234.686280
 20
-80.220773
 30
0.0
  0
LWPOLYLINE
  5
4b0
100
AcDbEntity
  8
0
 62
7
100
AcDbPolyline
 90
2
 70
0
 10
-234.686280
 20
-83.220773
 30
0.0
 10
-234.686280
 20
-108.750914
 30
0.0
  0
LWPOLYLINE
  5
4b1
100
AcDbEntity
  8
0
 62
7
100
AcDbPolyline
 90
2
 70
0
 10
-234.686280
 20
-111.750914
 30
0.0
 10
-234.686280
 20
-111.750914
 30
0.0
  0
LWPOLYLINE
  5
4b2
100
AcDbEntity
  8
0
 62
7
100
AcDbPolyline
 90
5
 70
1
 10
-305.617513
 20
276.852765
 30
0.0
 10
-155.595179
 20
276.852765
 30
0.0
 10
-155.595179
 20
175.112653
 30
0.0
 10
-305.617513
 20
175.112653
 30
0.0
 10
-305.617513
 20
276.852765
 30
0.0
  0
SPLINE
  5
4b3
100
AcDbEntity
  8
0
 62
7
100
AcDbSpline
 70
8
 71
3
 72
8
 73
4
 74
0
 40
0
 40
0
 40
0
 40
0
 40
1
 40
1
 40
1
 40
1
 10
-46.884875
 20
194.709563
 30
0.0
 10
-72.687812
 20
194.912142
 30
0.0
 10
-98.101158
 20
179.831098
 30
0.0
 10
-110.105960
 20
156.923205
 30
0.0
  0
SPLINE
  5
4b4
100
AcDbEntity
  8
0
 62
7
100
AcDbSpline
 70
8
 71
3
 72
8
 73
4
 74
0
 40
0
 40
0
 40
0
 40
0
 40
1
 40
1
 40
1
 40
1
 10
-110.105960
 20
156.923205
 30
0.0
 10
-115.312170
 20
147.280772
 30
0.0
 10
-118.331384
 20
136.405040
 30
0.0
 10
-118.767756
 20
125.409126
 30
0.0
  0
LWPOLYLINE
  5
4b5
100
AcDbEntity
  8
0
 62
7
100
AcDbPolyline
 90
5
 70
1
 10
-168.143002
 20
56.303479
 30
0.0
 10
-16.123875
 20
56.303479
 30
0.0
 10
-16.123875
 20
-46.433634
 30
0.0
 10
-168.143002
 20
-46.433634
 30
0.0
 10
-168.143002
 20
56.303479
 30
0.0
  0
SPLINE
  5
4b6
100
AcDbEntity
  8
0
 62
7
100
AcDbSpline
 70
8
 71
3
 72
8
 73
4
 74
0
 40
0
 40
0
 40
0
 40
0
 40
1
 40
1
 40
1
 40
1
 10
-112.726436
 20
130.599918
 30
0.0
 10
-112.274130
 20
133.893361
 30
0.0
 10
-111.555555
 20
137.147265
 30
0.0
 10
-110.631819
 20
140.339892
 30
0.0
  0
SPLINE
  5
4b7
100
AcDbEntity
  8
0
 62
7
100
AcDbSpline
 70
8
 71
3
 72
8
 73
4
 74
0
 40
0
 40
0
 40
0
 40
0
 40
1
 40
1
 40
1
 40
1
 10
-110.631819
 20
140.339892
 30
0.0
 10
-103.190523
 20
167.818848
 30
0.0
 10
-75.817417
 20
188.281833
 30
0.0
 10
-47.438846
 20
188.055294
 30
0.0
  0
SPLINE
  5
4b8
100
AcDbEntity
  8
0
 62
7
100
AcDbSpline
 70
8
 71
3
 72
8
 73
4
 74
0
 40
0
 40
0
 40
0
 40
0
 40
1
 40
1
 40
1
 40
1
 10
-47.438846
 20
188.055294
 30
0.0
 10
-47.063536
 20
188.059104
 30
0.0
 10
-46.688285
 20
188.059527
 30
0.0
 10
-46.313265
 20
188.056423
 30
0.0
  0
SPLINE
  5
4b9
100
AcDbEntity
  8
0
 62
7
100
AcDbSpline
 70
8
 71
3
 72
8
 73
4
 74
0
 40
0
 40
0
 40
0
 40
0
 40
1
 40
1
 40
1
 40
1
 10
-46.313265
 20
188.056423
 30
0.0
 10
-40.687964
 20
188.009339
 30
0.0
 10
-35.098680
 20
187.186755
 30
0.0
 10
-29.638450
 20
185.738012
 30
0.0
  0
SPLINE
  5
4ba
100
AcDbEntity
  8
0
 62
7
100
AcDbSpline
 70
8
 71
3
 72
8
 73
4
 74
0
 40
0
 40
0
 40
0
 40
0
 40
1
 40
1
 40
1
 40
1
 10
-29.638450
 20
185.738012
 30
0.0
 10
-4.325057
 20
179.449108
 30
0.0
 10
15.529397
 20
156.323339
 30
0.0
 10
18.886132
 20
130.599946
 30
0.0
  0
LWPOLYLINE
  5
4bb
100
AcDbEntity
  8
0
 62
7
100
AcDbPolyline
 90
5
 70
1
 10
-118.767756
 20
125.409126
 30
0.0
 10
-112.804710
 20
125.409126
 30
0.0
 10
-112.804710
 20
130.035473
 30
0.0
 10
-112.804710
 20
130.599918
 30
0.0
 10
-112.726436
 20
130.599918
 30
0.0
  0
SPLINE
  5
4bc
100
AcDbEntity
  8
0
 62
7
100
AcDbSpline
 70
8
 71
3
 72
8
 73
4
 74
0
 40
0
 40
0
 40
0
 40
0
 40
1
 40
1
 40
1
 40
1
 10
25.231722
 20
125.409154
 30
0.0
 10
24.423112
 20
150.435097
 30
0.0
 10
9.469754
 20
174.662249
 30
0.0
 10
-12.849537
 20
186.209826
 30
0.0
  0
SPLINE
  5
4bd
100
AcDbEntity
  8
0
 62
7
100
AcDbSpline
 70
8
 71
3
 72
8
 73
4
 74
0
 40
0
 40
0
 40
0
 40
0
 40
1
 40
1
 40
1
 40
1
 10
-12.849537
 20
186.209826
 30
0.0
 10
-23.246809
 20
191.746729
 30
0.0
 10
-35.088426
 20
194.771116
 30
0.0
 10
-46.884875
 20
194.709563
 30
0.0
  0
LWPOLYLINE
  5
4be
100
AcDbEntity
  8
0
 62
7
100
AcDbPolyline
 90
4
 70
1
 10
18.886132
 20
130.599946
 30
0.0
 10
19.090633
 20
130.599946
 30
0.0
 10
19.090633
 20
125.409154
 30
0.0
 10
25.231722
 20
125.409154
 30
0.0
  0
SPLINE
  5
4bf
100
AcDbEntity
  8
0
 62
7
100
AcDbSpline
 70
8
 71
3
 72
8
 73
4
 74
0
 40
0
 40
0
 40
0
 40
0
 40
1
 40
1
 40
1
 40
1
 10
-46.078369
 20
154.795241
 30
0.0
 10
-71.881306
 20
154.997820
 30
0.0
 10
-97.294652
 20
139.916776
 30
0.0
 10
-109.299454
 20
117.008883
 30
0.0
  0
SPLINE
  5
4c0
100
AcDbEntity
  8
0
 62
7
100
AcDbSpline
 70
8
 71
3
 72
8
 73
4
 74
0
 40
0
 40
0
 40
0
 40
0
 40
1
 40
1
 40
1
 40
1
 10
-109.299454
 20
117.008883
 30
0.0
 10
-114.505664
 20
107.366450
 30
0.0
 10
-117.524877
 20
96.490718
 30
0.0
 10
-117.961249
 20
85.494804
 30
0.0
  0
LWPOLYLINE
  5
4c1
100
AcDbEntity
  8
0
 62
7
100
AcDbPolyline
 90
2
 70
1
 10
-46.884875
 20
194.709563
 30
0.0
 10
-46.884875
 20
194.709563
 30
0.0
  0
SPLINE
  5
4c2
100
AcDbEntity
  8
0
 62
7
100
AcDbSpline
 70
8
 71
3
 72
8
 73
4
 74
0
 40
0
 40
0
 40
0
 40
0
 40
1
 40
1
 40
1
 40
1
 10
-111.919930
 20
90.685596
 30
0.0
 10
-111.467623
 20
93.979039
 30
0.0
 10
-110.749049
 20
97.232943
 30
0.0
 10
-109.825313
 20
100.425570
 30
0.0
  0
SPLINE
  5
4c3
100
AcDbEntity
  8
0
 62
7
100
AcDbSpline
 70
8
 71
3
 72
8
 73
4
 74
0
 40
0
 40
0
 40
0
 40
0
 40
1
 40
1
 40
1
 40
1
 10
-109.825313
 20
100.425570
 30
0.0
 10
-102.384016
 20
127.904526
 30
0.0
 10
-75.010910
 20
148.367511
 30
0.0
 10
-46.632340
 20
148.140972
 30
0.0
  0
SPLINE
  5
4c4
100
AcDbEntity
  8
0
 62
7
100
AcDbSpline
 70
8
 71
3
 72
8
 73
4
 74
0
 40
0
 40
0
 40
0
 40
0
 40
1
 40
1
 40
1
 40
1
 10
-46.632340
 20
148.140972
 30
0.0
 10
-46.257029
 20
148.144782
 30
0.0
 10
-45.881778
 20
148.145205
 30
0.0
 10
-45.506759
 20
148.142101
 30
0.0
  0
SPLINE
  5
4c5
100
AcDbEntity
  8
0
 62
7
100
AcDbSpline
 70
8
 71
3
 72
8
 73
4
 74
0
 40
0
 40
0
 40
0
 40
0
 40
1
 40
1
 40
1
 40
1
 10
-45.506759
 20
148.142101
 30
0.0
 10
-39.881457
 20
148.095017
 30
0.0
 10
-34.292173
 20
147.272433
 30
0.0
 10
-28.831944
 20
145.823690
 30
0.0
  0
SPLINE
  5
4c6
100
AcDbEntity
  8
0
 62
7
100
AcDbSpline
 70
8
 71
3
 72
8
 73
4
 74
0
 40
0
 40
0
 40
0
 40
0
 40
1
 40
1
 40
1
 40
1
 10
-28.831944
 20
145.823690
 30
0.0
 10
-3.518551
 20
139.534786
 30
0.0
 10
16.335904
 20
116.409017
 30
0.0
 10
19.692638
 20
90.685624
 30
0.0
  0
LWPOLYLINE
  5
4c7
100
AcDbEntity
  8
0
 62
7
100
AcDbPolyline
 90
5
 70
1
 10
-117.961249
 20
85.494804
 30
0.0
 10
-111.998204
 20
85.494804
 30
0.0
 10
-111.998204
 20
90.121151
 30
0.0
 10
-111.998204
 20
90.685596
 30
0.0
 10
-111.919930
 20
90.685596
 30
0.0
  0
SPLINE
  5
4c8
100
AcDbEntity
  8
0
 62
7
100
AcDbSpline
 70
8
 71
3
 72
8
 73
4
 74
0
 40
0
 40
0
 40
0
 40
0
 40
1
 40
1
 40
1
 40
1
 10
26.038230
 20
85.494832
 30
0.0
 10
25.229618
 20
110.520775
 30
0.0
 10
10.276260
 20
134.747927
 30
0.0
 10
-12.043031
 20
146.295504
 30
0.0
  0
SPLINE
  5
4c9
100
AcDbEntity
  8
0
 62
7
100
AcDbSpline
 70
8
 71
3
 72
8
 73
4
 74
0
 40
0
 40
0
 40
0
 40
0
 40
1
 40
1
 40
1
 40
1
 10
-12.043031
 20
146.295504
 30
0.0
 10
-22.440304
 20
151.832407
 30
0.0
 10
-34.281920
 20
154.856794
 30
0.0
 10
-46.078369
 20
154.795241
 30
0.0
  0
LWPOLYLINE
  5
4ca
100
AcDbEntity
  8
0
 62
7
100
AcDbPolyline
 90
4
 70
1
 10
19.692638
 20
90.685624
 30
0.0
 10
19.897139
 20
90.685624
 30
0.0
 10
19.897139
 20
85.494832
 30
0.0
 10
26.038230
 20
85.494832
 30
0.0
  0
SPLINE
  5
4cb
100
AcDbEntity
  8
0
 62
7
100
AcDbSpline
 70
8
 71
3
 72
8
 73
4
 74
0
 40
0
 40
0
 40
0
 40
0
 40
1
 40
1
 40
1
 40
1
 10
-46.481540
 20
233.817463
 30
0.0
 10
-72.284477
 20
234.020042
 30
0.0
 10
-97.697826
 20
218.938998
 30
0.0
 10
-109.702628
 20
196.031105
 30
0.0
  0
SPLINE
  5
4cc
100
AcDbEntity
  8
0
 62
7
100
AcDbSpline
 70
8
 71
3
 72
8
 73
4
 74
0
 40
0
 40
0
 40
0
 40
0
 40
1
 40
1
 40
1
 40
1
 10
-109.702628
 20
196.031105
 30
0.0
 10
-114.908838
 20
186.388673
 30
0.0
 10
-117.928051
 20
175.512940
 30
0.0
 10
-118.364423
 20
164.517026
 30
0.0
  0
LWPOLYLINE
  5
4cd
100
AcDbEntity
  8
0
 62
7
100
AcDbPolyline
 90
2
 70
1
 10
-46.078369
 20
154.795241
 30
0.0
 10
-46.078369
 20
154.795241
 30
0.0
  0
SPLINE
  5
4ce
100
AcDbEntity
  8
0
 62
7
100
AcDbSpline
 70
8
 71
3
 72
8
 73
4
 74
0
 40
0
 40
0
 40
0
 40
0
 40
1
 40
1
 40
1
 40
1
 10
-112.323104
 20
169.707818
 30
0.0
 10
-111.870798
 20
173.001261
 30
0.0
 10
-111.152223
 20
176.255165
 30
0.0
 10
-110.228487
 20
179.447792
 30
0.0
  0
SPLINE
  5
4cf
100
AcDbEntity
  8
0
 62
7
100
AcDbSpline
 70
8
 71
3
 72
8
 73
4
 74
0
 40
0
 40
0
 40
0
 40
0
 40
1
 40
1
 40
1
 40
1
 10
-110.228487
 20
179.447792
 30
0.0
 10
-102.787190
 20
206.926749
 30
0.0
 10
-75.414082
 20
227.389734
 30
0.0
 10
-47.035511
 20
227.163194
 30
0.0
  0
SPLINE
  5
4d0
100
AcDbEntity
  8
0
 62
7
100
AcDbSpline
 70
8
 71
3
 72
8
 73
4
 74
0
 40
0
 40
0
 40
0
 40
0
 40
1
 40
1
 40
1
 40
1
 10
-47.035511
 20
227.163194
 30
0.0
 10
-46.660201
 20
227.167004
 30
0.0
 10
-46.284950
 20
227.167427
 30
0.0
 10
-45.909930
 20
227.164323
 30
0.0
  0
SPLINE
  5
4d1
100
AcDbEntity
  8
0
 62
7
100
AcDbSpline
 70
8
 71
3
 72
8
 73
4
 74
0
 40
0
 40
0
 40
0
 40
0
 40
1
 40
1
 40
1
 40
1
 10
-45.909930
 20
227.164323
 30
0.0
 10
-40.284629
 20
227.117240
 30
0.0
 10
-34.695344
 20
226.294655
 30
0.0
 10
-29.235118
 20
224.845912
 30
0.0
  0
SPLINE
  5
4d2
100
AcDbEntity
  8
0
 62
7
100
AcDbSpline
 70
8
 71
3
 72
8
 73
4
 74
0
 40
0
 40
0
 40
0
 40
0
 40
1
 40
1
 40
1
 40
1
 10
-29.235118
 20
224.845912
 30
0.0
 10
-3.921726
 20
218.557008
 30
0.0
 10
15.932729
 20
195.431239
 30
0.0
 10
19.289463
 20
169.707846
 30
0.0
  0
LWPOLYLINE
  5
4d3
100
AcDbEntity
  8
0
 62
7
100
AcDbPolyline
 90
5
 70
1
 10
-118.364423
 20
164.517026
 30
0.0
 10
-112.401378
 20
164.517026
 30
0.0
 10
-112.401378
 20
169.143374
 30
0.0
 10
-112.401378
 20
169.707818
 30
0.0
 10
-112.323104
 20
169.707818
 30
0.0
  0
SPLINE
  5
4d4
100
AcDbEntity
  8
0
 62
7
100
AcDbSpline
 70
8
 71
3
 72
8
 73
4
 74
0
 40
0
 40
0
 40
0
 40
0
 40
1
 40
1
 40
1
 40
1
 10
25.635056
 20
164.517054
 30
0.0
 10
24.826445
 20
189.542997
 30
0.0
 10
9.873085
 20
213.770149
 30
0.0
 10
-12.446205
 20
225.317726
 30
0.0
  0
SPLINE
  5
4d5
100
AcDbEntity
  8
0
 62
7
100
AcDbSpline
 70
8
 71
3
 72
8
 73
4
 74
0
 40
0
 40
0
 40
0
 40
0
 40
1
 40
1
 40
1
 40
1
 10
-12.446205
 20
225.317726
 30
0.0
 10
-22.843478
 20
230.854630
 30
0.0
 10
-34.685091
 20
233.879016
 30
0.0
 10
-46.481540
 20
233.817463
 30
0.0
  0
LWPOLYLINE
  5
4d6
100
AcDbEntity
  8
0
 62
7
100
AcDbPolyline
 90
4
 70
1
 10
19.289463
 20
169.707846
 30
0.0
 10
19.493964
 20
169.707846
 30
0.0
 10
19.493964
 20
164.517054
 30
0.0
 10
25.635056
 20
164.517054
 30
0.0
  0
SPLINE
  5
4d7
100
AcDbEntity
  8
0
 62
7
100
AcDbSpline
 70
8
 71
3
 72
8
 73
4
 74
0
 40
0
 40
0
 40
0
 40
0
 40
1
 40
1
 40
1
 40
1
 10
-45.675192
 20
268.087304
 30
0.0
 10
-71.478129
 20
268.289883
 30
0.0
 10
-96.891475
 20
253.208839
 30
0.0
 10
-108.896277
 20
230.300946
 30
0.0
  0
SPLINE
  5
4d8
100
AcDbEntity
  8
0
 62
7
100
AcDbSpline
 70
8
 71
3
 72
8
 73
4
 74
0
 40
0
 40
0
 40
0
 40
0
 40
1
 40
1
 40
1
 40
1
 10
-108.896277
 20
230.300946
 30
0.0
 10
-114.102487
 20
220.658514
 30
0.0
 10
-117.121700
 20
209.782781
 30
0.0
 10
-117.558072
 20
198.786867
 30
0.0
  0
LWPOLYLINE
  5
4d9
100
AcDbEntity
  8
0
 62
7
100
AcDbPolyline
 90
2
 70
1
 10
-46.481540
 20
233.817463
 30
0.0
 10
-46.481540
 20
233.817463
 30
0.0
  0
SPLINE
  5
4da
100
AcDbEntity
  8
0
 62
7
100
AcDbSpline
 70
8
 71
3
 72
8
 73
4
 74
0
 40
0
 40
0
 40
0
 40
0
 40
1
 40
1
 40
1
 40
1
 10
-111.516753
 20
203.977659
 30
0.0
 10
-111.064446
 20
207.271102
 30
0.0
 10
-110.345872
 20
210.525006
 30
0.0
 10
-109.422136
 20
213.717633
 30
0.0
  0
SPLINE
  5
4db
100
AcDbEntity
  8
0
 62
7
100
AcDbSpline
 70
8
 71
3
 72
8
 73
4
 74
0
 40
0
 40
0
 40
0
 40
0
 40
1
 40
1
 40
1
 40
1
 10
-109.422136
 20
213.717633
 30
0.0
 10
-101.980839
 20
241.196589
 30
0.0
 10
-74.607733
 20
261.659575
 30
0.0
 10
-46.229163
 20
261.433035
 30
0.0
  0
SPLINE
  5
4dc
100
AcDbEntity
  8
0
 62
7
100
AcDbSpline
 70
8
 71
3
 72
8
 73
4
 74
0
 40
0
 40
0
 40
0
 40
0
 40
1
 40
1
 40
1
 40
1
 10
-46.229163
 20
261.433035
 30
0.0
 10
-45.853852
 20
261.436845
 30
0.0
 10
-45.478601
 20
261.437268
 30
0.0
 10
-45.103582
 20
261.434164
 30
0.0
  0
SPLINE
  5
4dd
100
AcDbEntity
  8
0
 62
7
100
AcDbSpline
 70
8
 71
3
 72
8
 73
4
 74
0
 40
0
 40
0
 40
0
 40
0
 40
1
 40
1
 40
1
 40
1
 10
-45.103582
 20
261.434164
 30
0.0
 10
-39.478280
 20
261.387081
 30
0.0
 10
-33.888996
 20
260.564496
 30
0.0
 10
-28.428767
 20
259.115753
 30
0.0
  0
SPLINE
  5
4de
100
AcDbEntity
  8
0
 62
7
100
AcDbSpline
 70
8
 71
3
 72
8
 73
4
 74
0
 40
0
 40
0
 40
0
 40
0
 40
1
 40
1
 40
1
 40
1
 10
-28.428767
 20
259.115753
 30
0.0
 10
-3.115376
 20
252.826849
 30
0.0
 10
16.739079
 20
229.701080
 30
0.0
 10
20.095813
 20
203.977687
 30
0.0
  0
LWPOLYLINE
  5
4df
100
AcDbEntity
  8
0
 62
7
100
AcDbPolyline
 90
5
 70
1
 10
-117.558072
 20
198.786867
 30
0.0
 10
-111.595027
 20
198.786867
 30
0.0
 10
-111.595027
 20
203.413215
 30
0.0
 10
-111.595027
 20
203.977659
 30
0.0
 10
-111.516753
 20
203.977659
 30
0.0
  0
SPLINE
  5
4e0
100
AcDbEntity
  8
0
 62
7
100
AcDbSpline
 70
8
 71
3
 72
8
 73
4
 74
0
 40
0
 40
0
 40
0
 40
0
 40
1
 40
1
 40
1
 40
1
 10
26.441405
 20
198.786895
 30
0.0
 10
25.632793
 20
223.812838
 30
0.0
 10
10.679435
 20
248.039990
 30
0.0
 10
-11.639856
 20
259.587567
 30
0.0
  0
SPLINE
  5
4e1
100
AcDbEntity
  8
0
 62
7
100
AcDbSpline
 70
8
 71
3
 72
8
 73
4
 74
0
 40
0
 40
0
 40
0
 40
0
 40
1
 40
1
 40
1
 40
1
 10
-11.639856
 20
259.587567
 30
0.0
 10
-22.037129
 20
265.124470
 30
0.0
 10
-33.878743
 20
268.148857
 30
0.0
 10
-45.675192
 20
268.087304
 30
0.0
  0
LWPOLYLINE
  5
4e2
100
AcDbEntity
  8
0
 62
7
100
AcDbPolyline
 90
4
 70
1
 10
20.095813
 20
203.977687
 30
0.0
 10
20.300314
 20
203.977687
 30
0.0
 10
20.300314
 20
198.786895
 30
0.0
 10
26.441405
 20
198.786895
 30
0.0
  0
LWPOLYLINE
  5
4e3
100
AcDbEntity
  8
0
 62
7
100
AcDbPolyline
 90
2
 70
1
 10
-45.675192
 20
268.087304
 30
0.0
 10
-45.675192
 20
268.087304
 30
0.0
  0
ENDSEC
  0
SECTION
  2
OBJECTS
  0
DICTIONARY
  5
C
330
0
100
AcDbDictionary
  3
ACAD_GROUP
350
D
  3
ACAD_MLINESTYLE
350
17
  0
DICTIONARY
  5
D
330
C
100
AcDbDictionary
  0
DICTIONARY
  5
1A
330
C
100
AcDbDictionary
  0
DICTIONARY
  5
17
330
C
100
AcDbDictionary
  3
STANDARD
350
18
  0
DICTIONARY
  5
19
330
C
100
AcDbDictionary
  0
ENDSEC
  0
EOF
