<?xml version="1.0" encoding="UTF-8" standalone="no"?>
<!-- Created with Inkscape (http://www.inkscape.org/) -->

<svg
   xmlns:dc="http://purl.org/dc/elements/1.1/"
   xmlns:cc="http://creativecommons.org/ns#"
   xmlns:rdf="http://www.w3.org/1999/02/22-rdf-syntax-ns#"
   xmlns:svg="http://www.w3.org/2000/svg"
   xmlns="http://www.w3.org/2000/svg"
   xmlns:sodipodi="http://sodipodi.sourceforge.net/DTD/sodipodi-0.dtd"
   xmlns:inkscape="http://www.inkscape.org/namespaces/inkscape"
   width="210mm"
   height="297mm"
   viewBox="0 0 744.09448819 1052.3622047"
   id="svg2"
   version="1.1"
   inkscape:version="0.91 r13725"
   sodipodi:docname="hsv.svg">
  <sodipodi:namedview
     id="base"
     pagecolor="#ffffff"
     bordercolor="#666666"
     borderopacity="1.0"
     inkscape:pageopacity="0.0"
     inkscape:pageshadow="2"
     inkscape:zoom="0.35"
     inkscape:cx="-841.3961"
     inkscape:cy="116.5337"
     inkscape:document-units="mm"
     inkscape:current-layer="svg2"
     showgrid="false"
     showborder="false"
     inkscape:snap-global="true"
     inkscape:snap-others="false"
     inkscape:window-width="1855"
     inkscape:window-height="1056"
     inkscape:window-x="65"
     inkscape:window-y="24"
     inkscape:window-maximized="1" />
  <defs
     id="defs4" />
  <metadata
     id="metadata7">
    <rdf:RDF>
      <cc:Work
         rdf:about="">
        <dc:format>image/svg+xml</dc:format>
        <dc:type
           rdf:resource="http://purl.org/dc/dcmitype/StillImage" />
        <dc:title />
      </cc:Work>
    </rdf:RDF>
  </metadata>
  <path
     style="opacity:1;fill:none;fill-opacity:1;stroke:#000000;stroke-width:0.73300999;stroke-linecap:butt;stroke-miterlimit:4;stroke-dasharray:none;stroke-dashoffset:0;stroke-opacity:1"
     d="m -1420.8413,419.50241 a 265.38153,265.38153 0 0 0 -265.3809,265.38085 265.38153,265.38153 0 0 0 0.012,0.35352 l 530.7344,0 a 265.38153,265.38153 0 0 0 0.018,-0.35352 265.38153,265.38153 0 0 0 -265.3828,-265.38085 z"
     id="path4136"
     inkscape:connector-curvature="0" />
  <path
     style="opacity:1;fill:none;fill-opacity:1;stroke:#000000;stroke-width:0.73300999;stroke-linecap:butt;stroke-miterlimit:4;stroke-dasharray:none;stroke-dashoffset:0;stroke-opacity:1"
     d="m -1424.2667,1484.332 c -91.4277,-0.7178 -181.4761,52.7188 -224.0128,133.8885 -18.4472,34.1661 -29.1441,72.7023 -30.6903,111.6642 170.0781,0 340.1562,0 510.2343,0 -2.8651,-88.6747 -55.8496,-174.5197 -134.9337,-215.4361 -36.8408,-19.619 -78.7991,-30.3347 -120.5975,-30.1166 z"
     id="path4136-6"
     inkscape:connector-curvature="0" />
  <path
     style="opacity:1;fill:none;fill-opacity:1;stroke:#000000;stroke-width:0.73300999;stroke-linecap:butt;stroke-miterlimit:4;stroke-dasharray:none;stroke-dashoffset:0;stroke-opacity:1"
     d="m -876.7029,426.877 a 265.38153,265.38153 0 0 0 -265.3809,265.38085 265.38153,265.38153 0 0 0 0.012,0.35352 l 530.73443,0 a 265.38153,265.38153 0 0 0 0.0176,-0.35352 A 265.38153,265.38153 0 0 0 -876.7029,426.877 Z"
     id="path4136-8"
     inkscape:connector-curvature="0" />
  <path
     style="opacity:1;fill:none;fill-opacity:1;stroke:#000000;stroke-width:0.73300999;stroke-linecap:butt;stroke-miterlimit:4;stroke-dasharray:none;stroke-dashoffset:0;stroke-opacity:1"
     d="m -898.29805,1487.6736 c -91.42773,-0.7178 -181.47615,52.7188 -224.01285,133.8885 -18.4472,34.1661 -29.1441,72.7023 -30.6903,111.6642 170.07815,0 340.15628,0 510.2344,0 -2.86515,-88.6747 -55.84968,-174.5196 -134.93378,-215.4361 -36.84073,-19.619 -78.79903,-30.3347 -120.59747,-30.1166 z"
     id="path4136-6-1"
     inkscape:connector-curvature="0" />
  <rect
     style="opacity:1;fill:none;fill-opacity:1;stroke:#000000;stroke-width:1.02409506;stroke-linecap:butt;stroke-miterlimit:4;stroke-dasharray:none;stroke-dashoffset:0;stroke-opacity:1"
     id="rect4724"
     width="799.76331"
     height="718.26727"
     x="-1624.3134"
     y="730.06274" />
  <path
     id="path4786"
     style="stroke:#000000;stroke-width:0.35433070866;fill:none"
     d="M -1624.3134, 730.06274 L -1624.3134, 780.60826491 M -1624.3134, 791.23818617 L -1624.3134, 881.69931473 M -1624.3134, 892.32923599 L -1624.3134, 982.79036455 M -1624.3134, 993.42028581 L -1624.3134, 1083.88141437 M -1624.3134, 1094.51133563 L -1624.3134, 1184.97246419 M -1624.3134, 1195.60238545 L -1624.3134, 1286.06351401 M -1624.3134, 1296.69343527 L -1624.3134, 1387.15456383 M -1624.3134, 1397.78448509 L -1624.3134, 1448.33001 M -1610.28246474, 730.06274 L -1610.28246474, 780.60826491 M -1610.28246474, 791.23818617 L -1610.28246474, 881.69931473 M -1610.28246474, 892.32923599 L -1610.28246474, 982.79036455 M -1610.28246474, 993.42028581 L -1610.28246474, 1083.88141437 M -1610.28246474, 1094.51133563 L -1610.28246474, 1184.97246419 M -1610.28246474, 1195.60238545 L -1610.28246474, 1286.06351401 M -1610.28246474, 1296.69343527 L -1610.28246474, 1387.15456383 M -1610.28246474, 1397.78448509 L -1610.28246474, 1448.33001 M -1596.25152947, 730.06274 L -1596.25152947, 780.60826491 M -1596.25152947, 791.23818617 L -1596.25152947, 881.69931473 M -1596.25152947, 892.32923599 L -1596.25152947, 982.79036455 M -1596.25152947, 993.42028581 L -1596.25152947, 1083.88141437 M -1596.25152947, 1094.51133563 L -1596.25152947, 1184.97246419 M -1596.25152947, 1195.60238545 L -1596.25152947, 1286.06351401 M -1596.25152947, 1296.69343527 L -1596.25152947, 1387.15456383 M -1596.25152947, 1397.78448509 L -1596.25152947, 1448.33001 M -1582.22059421, 730.06274 L -1582.22059421, 780.60826491 M -1582.22059421, 791.23818617 L -1582.22059421, 881.69931473 M -1582.22059421, 892.32923599 L -1582.22059421, 982.79036455 M -1582.22059421, 993.42028581 L -1582.22059421, 1083.88141437 M -1582.22059421, 1094.51133563 L -1582.22059421, 1184.97246419 M -1582.22059421, 1195.60238545 L -1582.22059421, 1286.06351401 M -1582.22059421, 1296.69343527 L -1582.22059421, 1387.15456383 M -1582.22059421, 1397.78448509 L -1582.22059421, 1448.33001 M -1568.18965895, 730.06274 L -1568.18965895, 780.60826491 M -1568.18965895, 791.23818617 L -1568.18965895, 881.69931473 M -1568.18965895, 892.32923599 L -1568.18965895, 982.79036455 M -1568.18965895, 993.42028581 L -1568.18965895, 1083.88141437 M -1568.18965895, 1094.51133563 L -1568.18965895, 1184.97246419 M -1568.18965895, 1195.60238545 L -1568.18965895, 1286.06351401 M -1568.18965895, 1296.69343527 L -1568.18965895, 1387.15456383 M -1568.18965895, 1397.78448509 L -1568.18965895, 1448.33001 M -1554.15872368, 730.06274 L -1554.15872368, 780.60826491 M -1554.15872368, 791.23818617 L -1554.15872368, 881.69931473 M -1554.15872368, 892.32923599 L -1554.15872368, 982.79036455 M -1554.15872368, 993.42028581 L -1554.15872368, 1083.88141437 M -1554.15872368, 1094.51133563 L -1554.15872368, 1184.97246419 M -1554.15872368, 1195.60238545 L -1554.15872368, 1286.06351401 M -1554.15872368, 1296.69343527 L -1554.15872368, 1387.15456383 M -1554.15872368, 1397.78448509 L -1554.15872368, 1448.33001 M -1540.12778842, 730.06274 L -1540.12778842, 780.60826491 M -1540.12778842, 791.23818617 L -1540.12778842, 881.69931473 M -1540.12778842, 892.32923599 L -1540.12778842, 982.79036455 M -1540.12778842, 993.42028581 L -1540.12778842, 1083.88141437 M -1540.12778842, 1094.51133563 L -1540.12778842, 1184.97246419 M -1540.12778842, 1195.60238545 L -1540.12778842, 1286.06351401 M -1540.12778842, 1296.69343527 L -1540.12778842, 1387.15456383 M -1540.12778842, 1397.78448509 L -1540.12778842, 1448.33001 M -1526.09685316, 730.06274 L -1526.09685316, 780.60826491 M -1526.09685316, 791.23818617 L -1526.09685316, 881.69931473 M -1526.09685316, 892.32923599 L -1526.09685316, 982.79036455 M -1526.09685316, 993.42028581 L -1526.09685316, 1083.88141437 M -1526.09685316, 1094.51133563 L -1526.09685316, 1184.97246419 M -1526.09685316, 1195.60238545 L -1526.09685316, 1286.06351401 M -1526.09685316, 1296.69343527 L -1526.09685316, 1387.15456383 M -1526.09685316, 1397.78448509 L -1526.09685316, 1448.33001 M -1512.06591789, 730.06274 L -1512.06591789, 780.60826491 M -1512.06591789, 791.23818617 L -1512.06591789, 881.69931473 M -1512.06591789, 892.32923599 L -1512.06591789, 982.79036455 M -1512.06591789, 993.42028581 L -1512.06591789, 1083.88141437 M -1512.06591789, 1094.51133563 L -1512.06591789, 1184.97246419 M -1512.06591789, 1195.60238545 L -1512.06591789, 1286.06351401 M -1512.06591789, 1296.69343527 L -1512.06591789, 1387.15456383 M -1512.06591789, 1397.78448509 L -1512.06591789, 1448.33001 M -1498.03498263, 730.06274 L -1498.03498263, 780.60826491 M -1498.03498263, 791.23818617 L -1498.03498263, 881.69931473 M -1498.03498263, 892.32923599 L -1498.03498263, 982.79036455 M -1498.03498263, 993.42028581 L -1498.03498263, 1083.88141437 M -1498.03498263, 1094.51133563 L -1498.03498263, 1184.97246419 M -1498.03498263, 1195.60238545 L -1498.03498263, 1286.06351401 M -1498.03498263, 1296.69343527 L -1498.03498263, 1387.15456383 M -1498.03498263, 1397.78448509 L -1498.03498263, 1448.33001 M -1484.00404737, 730.06274 L -1484.00404737, 780.60826491 M -1484.00404737, 791.23818617 L -1484.00404737, 881.69931473 M -1484.00404737, 892.32923599 L -1484.00404737, 982.79036455 M -1484.00404737, 993.42028581 L -1484.00404737, 1083.88141437 M -1484.00404737, 1094.51133563 L -1484.00404737, 1184.97246419 M -1484.00404737, 1195.60238545 L -1484.00404737, 1286.06351401 M -1484.00404737, 1296.69343527 L -1484.00404737, 1387.15456383 M -1484.00404737, 1397.78448509 L -1484.00404737, 1448.33001 M -1469.97311211, 730.06274 L -1469.97311211, 780.60826491 M -1469.97311211, 791.23818617 L -1469.97311211, 881.69931473 M -1469.97311211, 892.32923599 L -1469.97311211, 982.79036455 M -1469.97311211, 993.42028581 L -1469.97311211, 1083.88141437 M -1469.97311211, 1094.51133563 L -1469.97311211, 1184.97246419 M -1469.97311211, 1195.60238545 L -1469.97311211, 1286.06351401 M -1469.97311211, 1296.69343527 L -1469.97311211, 1387.15456383 M -1469.97311211, 1397.78448509 L -1469.97311211, 1448.33001 M -1455.94217684, 730.06274 L -1455.94217684, 780.60826491 M -1455.94217684, 791.23818617 L -1455.94217684, 881.69931473 M -1455.94217684, 892.32923599 L -1455.94217684, 982.79036455 M -1455.94217684, 993.42028581 L -1455.94217684, 1083.88141437 M -1455.94217684, 1094.51133563 L -1455.94217684, 1184.97246419 M -1455.94217684, 1195.60238545 L -1455.94217684, 1286.06351401 M -1455.94217684, 1296.69343527 L -1455.94217684, 1387.15456383 M -1455.94217684, 1397.78448509 L -1455.94217684, 1448.33001 M -1441.91124158, 730.06274 L -1441.91124158, 780.60826491 M -1441.91124158, 791.23818617 L -1441.91124158, 881.69931473 M -1441.91124158, 892.32923599 L -1441.91124158, 982.79036455 M -1441.91124158, 993.42028581 L -1441.91124158, 1083.88141437 M -1441.91124158, 1094.51133563 L -1441.91124158, 1184.97246419 M -1441.91124158, 1195.60238545 L -1441.91124158, 1286.06351401 M -1441.91124158, 1296.69343527 L -1441.91124158, 1387.15456383 M -1441.91124158, 1397.78448509 L -1441.91124158, 1448.33001 M -1427.88030632, 730.06274 L -1427.88030632, 780.60826491 M -1427.88030632, 791.23818617 L -1427.88030632, 881.69931473 M -1427.88030632, 892.32923599 L -1427.88030632, 982.79036455 M -1427.88030632, 993.42028581 L -1427.88030632, 1083.88141437 M -1427.88030632, 1094.51133563 L -1427.88030632, 1184.97246419 M -1427.88030632, 1195.60238545 L -1427.88030632, 1286.06351401 M -1427.88030632, 1296.69343527 L -1427.88030632, 1387.15456383 M -1427.88030632, 1397.78448509 L -1427.88030632, 1448.33001 M -1413.84937105, 730.06274 L -1413.84937105, 780.60826491 M -1413.84937105, 791.23818617 L -1413.84937105, 881.69931473 M -1413.84937105, 892.32923599 L -1413.84937105, 982.79036455 M -1413.84937105, 993.42028581 L -1413.84937105, 1083.88141437 M -1413.84937105, 1094.51133563 L -1413.84937105, 1184.97246419 M -1413.84937105, 1195.60238545 L -1413.84937105, 1286.06351401 M -1413.84937105, 1296.69343527 L -1413.84937105, 1387.15456383 M -1413.84937105, 1397.78448509 L -1413.84937105, 1448.33001 M -1399.81843579, 730.06274 L -1399.81843579, 780.60826491 M -1399.81843579, 791.23818617 L -1399.81843579, 881.69931473 M -1399.81843579, 892.32923599 L -1399.81843579, 982.79036455 M -1399.81843579, 993.42028581 L -1399.81843579, 1083.88141437 M -1399.81843579, 1094.51133563 L -1399.81843579, 1184.97246419 M -1399.81843579, 1195.60238545 L -1399.81843579, 1286.06351401 M -1399.81843579, 1296.69343527 L -1399.81843579, 1387.15456383 M -1399.81843579, 1397.78448509 L -1399.81843579, 1448.33001 M -1385.78750053, 730.06274 L -1385.78750053, 780.60826491 M -1385.78750053, 791.23818617 L -1385.78750053, 881.69931473 M -1385.78750053, 892.32923599 L -1385.78750053, 982.79036455 M -1385.78750053, 993.42028581 L -1385.78750053, 1083.88141437 M -1385.78750053, 1094.51133563 L -1385.78750053, 1184.97246419 M -1385.78750053, 1195.60238545 L -1385.78750053, 1286.06351401 M -1385.78750053, 1296.69343527 L -1385.78750053, 1387.15456383 M -1385.78750053, 1397.78448509 L -1385.78750053, 1448.33001 M -1371.75656526, 730.06274 L -1371.75656526, 780.60826491 M -1371.75656526, 791.23818617 L -1371.75656526, 881.69931473 M -1371.75656526, 892.32923599 L -1371.75656526, 982.79036455 M -1371.75656526, 993.42028581 L -1371.75656526, 1083.88141437 M -1371.75656526, 1094.51133563 L -1371.75656526, 1184.97246419 M -1371.75656526, 1195.60238545 L -1371.75656526, 1286.06351401 M -1371.75656526, 1296.69343527 L -1371.75656526, 1387.15456383 M -1371.75656526, 1397.78448509 L -1371.75656526, 1448.33001 M -1357.72563, 730.06274 L -1357.72563, 780.60826491 M -1357.72563, 791.23818617 L -1357.72563, 881.69931473 M -1357.72563, 892.32923599 L -1357.72563, 982.79036455 M -1357.72563, 993.42028581 L -1357.72563, 1083.88141437 M -1357.72563, 1094.51133563 L -1357.72563, 1184.97246419 M -1357.72563, 1195.60238545 L -1357.72563, 1286.06351401 M -1357.72563, 1296.69343527 L -1357.72563, 1387.15456383 M -1357.72563, 1397.78448509 L -1357.72563, 1448.33001 M -1343.69469474, 730.06274 L -1343.69469474, 780.60826491 M -1343.69469474, 791.23818617 L -1343.69469474, 881.69931473 M -1343.69469474, 892.32923599 L -1343.69469474, 982.79036455 M -1343.69469474, 993.42028581 L -1343.69469474, 1083.88141437 M -1343.69469474, 1094.51133563 L -1343.69469474, 1184.97246419 M -1343.69469474, 1195.60238545 L -1343.69469474, 1286.06351401 M -1343.69469474, 1296.69343527 L -1343.69469474, 1387.15456383 M -1343.69469474, 1397.78448509 L -1343.69469474, 1448.33001 M -1329.66375947, 730.06274 L -1329.66375947, 780.60826491 M -1329.66375947, 791.23818617 L -1329.66375947, 881.69931473 M -1329.66375947, 892.32923599 L -1329.66375947, 982.79036455 M -1329.66375947, 993.42028581 L -1329.66375947, 1083.88141437 M -1329.66375947, 1094.51133563 L -1329.66375947, 1184.97246419 M -1329.66375947, 1195.60238545 L -1329.66375947, 1286.06351401 M -1329.66375947, 1296.69343527 L -1329.66375947, 1387.15456383 M -1329.66375947, 1397.78448509 L -1329.66375947, 1448.33001 M -1315.63282421, 730.06274 L -1315.63282421, 780.60826491 M -1315.63282421, 791.23818617 L -1315.63282421, 881.69931473 M -1315.63282421, 892.32923599 L -1315.63282421, 982.79036455 M -1315.63282421, 993.42028581 L -1315.63282421, 1083.88141437 M -1315.63282421, 1094.51133563 L -1315.63282421, 1184.97246419 M -1315.63282421, 1195.60238545 L -1315.63282421, 1286.06351401 M -1315.63282421, 1296.69343527 L -1315.63282421, 1387.15456383 M -1315.63282421, 1397.78448509 L -1315.63282421, 1448.33001 M -1301.60188895, 730.06274 L -1301.60188895, 780.60826491 M -1301.60188895, 791.23818617 L -1301.60188895, 881.69931473 M -1301.60188895, 892.32923599 L -1301.60188895, 982.79036455 M -1301.60188895, 993.42028581 L -1301.60188895, 1083.88141437 M -1301.60188895, 1094.51133563 L -1301.60188895, 1184.97246419 M -1301.60188895, 1195.60238545 L -1301.60188895, 1286.06351401 M -1301.60188895, 1296.69343527 L -1301.60188895, 1387.15456383 M -1301.60188895, 1397.78448509 L -1301.60188895, 1448.33001 M -1287.57095368, 730.06274 L -1287.57095368, 780.60826491 M -1287.57095368, 791.23818617 L -1287.57095368, 881.69931473 M -1287.57095368, 892.32923599 L -1287.57095368, 982.79036455 M -1287.57095368, 993.42028581 L -1287.57095368, 1083.88141437 M -1287.57095368, 1094.51133563 L -1287.57095368, 1184.97246419 M -1287.57095368, 1195.60238545 L -1287.57095368, 1286.06351401 M -1287.57095368, 1296.69343527 L -1287.57095368, 1387.15456383 M -1287.57095368, 1397.78448509 L -1287.57095368, 1448.33001 M -1273.54001842, 730.06274 L -1273.54001842, 780.60826491 M -1273.54001842, 791.23818617 L -1273.54001842, 881.69931473 M -1273.54001842, 892.32923599 L -1273.54001842, 982.79036455 M -1273.54001842, 993.42028581 L -1273.54001842, 1083.88141437 M -1273.54001842, 1094.51133563 L -1273.54001842, 1184.97246419 M -1273.54001842, 1195.60238545 L -1273.54001842, 1286.06351401 M -1273.54001842, 1296.69343527 L -1273.54001842, 1387.15456383 M -1273.54001842, 1397.78448509 L -1273.54001842, 1448.33001 M -1259.50908316, 730.06274 L -1259.50908316, 780.60826491 M -1259.50908316, 791.23818617 L -1259.50908316, 881.69931473 M -1259.50908316, 892.32923599 L -1259.50908316, 982.79036455 M -1259.50908316, 993.42028581 L -1259.50908316, 1083.88141437 M -1259.50908316, 1094.51133563 L -1259.50908316, 1184.97246419 M -1259.50908316, 1195.60238545 L -1259.50908316, 1286.06351401 M -1259.50908316, 1296.69343527 L -1259.50908316, 1387.15456383 M -1259.50908316, 1397.78448509 L -1259.50908316, 1448.33001 M -1245.47814789, 730.06274 L -1245.47814789, 780.60826491 M -1245.47814789, 791.23818617 L -1245.47814789, 881.69931473 M -1245.47814789, 892.32923599 L -1245.47814789, 982.79036455 M -1245.47814789, 993.42028581 L -1245.47814789, 1083.88141437 M -1245.47814789, 1094.51133563 L -1245.47814789, 1184.97246419 M -1245.47814789, 1195.60238545 L -1245.47814789, 1286.06351401 M -1245.47814789, 1296.69343527 L -1245.47814789, 1387.15456383 M -1245.47814789, 1397.78448509 L -1245.47814789, 1448.33001 M -1231.44721263, 730.06274 L -1231.44721263, 780.60826491 M -1231.44721263, 791.23818617 L -1231.44721263, 881.69931473 M -1231.44721263, 892.32923599 L -1231.44721263, 982.79036455 M -1231.44721263, 993.42028581 L -1231.44721263, 1083.88141437 M -1231.44721263, 1094.51133563 L -1231.44721263, 1184.97246419 M -1231.44721263, 1195.60238545 L -1231.44721263, 1286.06351401 M -1231.44721263, 1296.69343527 L -1231.44721263, 1387.15456383 M -1231.44721263, 1397.78448509 L -1231.44721263, 1448.33001 M -1217.41627737, 730.06274 L -1217.41627737, 780.60826491 M -1217.41627737, 791.23818617 L -1217.41627737, 881.69931473 M -1217.41627737, 892.32923599 L -1217.41627737, 982.79036455 M -1217.41627737, 993.42028581 L -1217.41627737, 1083.88141437 M -1217.41627737, 1094.51133563 L -1217.41627737, 1184.97246419 M -1217.41627737, 1195.60238545 L -1217.41627737, 1286.06351401 M -1217.41627737, 1296.69343527 L -1217.41627737, 1387.15456383 M -1217.41627737, 1397.78448509 L -1217.41627737, 1448.33001 M -1203.38534211, 730.06274 L -1203.38534211, 780.60826491 M -1203.38534211, 791.23818617 L -1203.38534211, 881.69931473 M -1203.38534211, 892.32923599 L -1203.38534211, 982.79036455 M -1203.38534211, 993.42028581 L -1203.38534211, 1083.88141437 M -1203.38534211, 1094.51133563 L -1203.38534211, 1184.97246419 M -1203.38534211, 1195.60238545 L -1203.38534211, 1286.06351401 M -1203.38534211, 1296.69343527 L -1203.38534211, 1387.15456383 M -1203.38534211, 1397.78448509 L -1203.38534211, 1448.33001 M -1189.35440684, 730.06274 L -1189.35440684, 780.60826491 M -1189.35440684, 791.23818617 L -1189.35440684, 881.69931473 M -1189.35440684, 892.32923599 L -1189.35440684, 982.79036455 M -1189.35440684, 993.42028581 L -1189.35440684, 1083.88141437 M -1189.35440684, 1094.51133563 L -1189.35440684, 1184.97246419 M -1189.35440684, 1195.60238545 L -1189.35440684, 1286.06351401 M -1189.35440684, 1296.69343527 L -1189.35440684, 1387.15456383 M -1189.35440684, 1397.78448509 L -1189.35440684, 1448.33001 M -1175.32347158, 730.06274 L -1175.32347158, 780.60826491 M -1175.32347158, 791.23818617 L -1175.32347158, 881.69931473 M -1175.32347158, 892.32923599 L -1175.32347158, 982.79036455 M -1175.32347158, 993.42028581 L -1175.32347158, 1083.88141437 M -1175.32347158, 1094.51133563 L -1175.32347158, 1184.97246419 M -1175.32347158, 1195.60238545 L -1175.32347158, 1286.06351401 M -1175.32347158, 1296.69343527 L -1175.32347158, 1387.15456383 M -1175.32347158, 1397.78448509 L -1175.32347158, 1448.33001 M -1161.29253632, 730.06274 L -1161.29253632, 780.60826491 M -1161.29253632, 791.23818617 L -1161.29253632, 881.69931473 M -1161.29253632, 892.32923599 L -1161.29253632, 982.79036455 M -1161.29253632, 993.42028581 L -1161.29253632, 1083.88141437 M -1161.29253632, 1094.51133563 L -1161.29253632, 1184.97246419 M -1161.29253632, 1195.60238545 L -1161.29253632, 1286.06351401 M -1161.29253632, 1296.69343527 L -1161.29253632, 1387.15456383 M -1161.29253632, 1397.78448509 L -1161.29253632, 1448.33001 M -1147.26160105, 730.06274 L -1147.26160105, 780.60826491 M -1147.26160105, 791.23818617 L -1147.26160105, 881.69931473 M -1147.26160105, 892.32923599 L -1147.26160105, 982.79036455 M -1147.26160105, 993.42028581 L -1147.26160105, 1083.88141437 M -1147.26160105, 1094.51133563 L -1147.26160105, 1184.97246419 M -1147.26160105, 1195.60238545 L -1147.26160105, 1286.06351401 M -1147.26160105, 1296.69343527 L -1147.26160105, 1387.15456383 M -1147.26160105, 1397.78448509 L -1147.26160105, 1448.33001 M -1133.23066579, 730.06274 L -1133.23066579, 780.60826491 M -1133.23066579, 791.23818617 L -1133.23066579, 881.69931473 M -1133.23066579, 892.32923599 L -1133.23066579, 982.79036455 M -1133.23066579, 993.42028581 L -1133.23066579, 1083.88141437 M -1133.23066579, 1094.51133563 L -1133.23066579, 1184.97246419 M -1133.23066579, 1195.60238545 L -1133.23066579, 1286.06351401 M -1133.23066579, 1296.69343527 L -1133.23066579, 1387.15456383 M -1133.23066579, 1397.78448509 L -1133.23066579, 1448.33001 M -1119.19973053, 730.06274 L -1119.19973053, 780.60826491 M -1119.19973053, 791.23818617 L -1119.19973053, 881.69931473 M -1119.19973053, 892.32923599 L -1119.19973053, 982.79036455 M -1119.19973053, 993.42028581 L -1119.19973053, 1083.88141437 M -1119.19973053, 1094.51133563 L -1119.19973053, 1184.97246419 M -1119.19973053, 1195.60238545 L -1119.19973053, 1286.06351401 M -1119.19973053, 1296.69343527 L -1119.19973053, 1387.15456383 M -1119.19973053, 1397.78448509 L -1119.19973053, 1448.33001 M -1105.16879526, 730.06274 L -1105.16879526, 780.60826491 M -1105.16879526, 791.23818617 L -1105.16879526, 881.69931473 M -1105.16879526, 892.32923599 L -1105.16879526, 982.79036455 M -1105.16879526, 993.42028581 L -1105.16879526, 1083.88141437 M -1105.16879526, 1094.51133563 L -1105.16879526, 1184.97246419 M -1105.16879526, 1195.60238545 L -1105.16879526, 1286.06351401 M -1105.16879526, 1296.69343527 L -1105.16879526, 1387.15456383 M -1105.16879526, 1397.78448509 L -1105.16879526, 1448.33001 M -1091.13786, 730.06274 L -1091.13786, 780.60826491 M -1091.13786, 791.23818617 L -1091.13786, 881.69931473 M -1091.13786, 892.32923599 L -1091.13786, 982.79036455 M -1091.13786, 993.42028581 L -1091.13786, 1083.88141437 M -1091.13786, 1094.51133563 L -1091.13786, 1184.97246419 M -1091.13786, 1195.60238545 L -1091.13786, 1286.06351401 M -1091.13786, 1296.69343527 L -1091.13786, 1387.15456383 M -1091.13786, 1397.78448509 L -1091.13786, 1448.33001 M -1077.10692474, 730.06274 L -1077.10692474, 780.60826491 M -1077.10692474, 791.23818617 L -1077.10692474, 881.69931473 M -1077.10692474, 892.32923599 L -1077.10692474, 982.79036455 M -1077.10692474, 993.42028581 L -1077.10692474, 1083.88141437 M -1077.10692474, 1094.51133563 L -1077.10692474, 1184.97246419 M -1077.10692474, 1195.60238545 L -1077.10692474, 1286.06351401 M -1077.10692474, 1296.69343527 L -1077.10692474, 1387.15456383 M -1077.10692474, 1397.78448509 L -1077.10692474, 1448.33001 M -1063.07598947, 730.06274 L -1063.07598947, 780.60826491 M -1063.07598947, 791.23818617 L -1063.07598947, 881.69931473 M -1063.07598947, 892.32923599 L -1063.07598947, 982.79036455 M -1063.07598947, 993.42028581 L -1063.07598947, 1083.88141437 M -1063.07598947, 1094.51133563 L -1063.07598947, 1184.97246419 M -1063.07598947, 1195.60238545 L -1063.07598947, 1286.06351401 M -1063.07598947, 1296.69343527 L -1063.07598947, 1387.15456383 M -1063.07598947, 1397.78448509 L -1063.07598947, 1448.33001 M -1049.04505421, 730.06274 L -1049.04505421, 780.60826491 M -1049.04505421, 791.23818617 L -1049.04505421, 881.69931473 M -1049.04505421, 892.32923599 L -1049.04505421, 982.79036455 M -1049.04505421, 993.42028581 L -1049.04505421, 1083.88141437 M -1049.04505421, 1094.51133563 L -1049.04505421, 1184.97246419 M -1049.04505421, 1195.60238545 L -1049.04505421, 1286.06351401 M -1049.04505421, 1296.69343527 L -1049.04505421, 1387.15456383 M -1049.04505421, 1397.78448509 L -1049.04505421, 1448.33001 M -1035.01411895, 730.06274 L -1035.01411895, 780.60826491 M -1035.01411895, 791.23818617 L -1035.01411895, 881.69931473 M -1035.01411895, 892.32923599 L -1035.01411895, 982.79036455 M -1035.01411895, 993.42028581 L -1035.01411895, 1083.88141437 M -1035.01411895, 1094.51133563 L -1035.01411895, 1184.97246419 M -1035.01411895, 1195.60238545 L -1035.01411895, 1286.06351401 M -1035.01411895, 1296.69343527 L -1035.01411895, 1387.15456383 M -1035.01411895, 1397.78448509 L -1035.01411895, 1448.33001 M -1020.98318368, 730.06274 L -1020.98318368, 780.60826491 M -1020.98318368, 791.23818617 L -1020.98318368, 881.69931473 M -1020.98318368, 892.32923599 L -1020.98318368, 982.79036455 M -1020.98318368, 993.42028581 L -1020.98318368, 1083.88141437 M -1020.98318368, 1094.51133563 L -1020.98318368, 1184.97246419 M -1020.98318368, 1195.60238545 L -1020.98318368, 1286.06351401 M -1020.98318368, 1296.69343527 L -1020.98318368, 1387.15456383 M -1020.98318368, 1397.78448509 L -1020.98318368, 1448.33001 M -1006.95224842, 730.06274 L -1006.95224842, 780.60826491 M -1006.95224842, 791.23818617 L -1006.95224842, 881.69931473 M -1006.95224842, 892.32923599 L -1006.95224842, 982.79036455 M -1006.95224842, 993.42028581 L -1006.95224842, 1083.88141437 M -1006.95224842, 1094.51133563 L -1006.95224842, 1184.97246419 M -1006.95224842, 1195.60238545 L -1006.95224842, 1286.06351401 M -1006.95224842, 1296.69343527 L -1006.95224842, 1387.15456383 M -1006.95224842, 1397.78448509 L -1006.95224842, 1448.33001 M -992.921313158, 730.06274 L -992.921313158, 780.60826491 M -992.921313158, 791.23818617 L -992.921313158, 881.69931473 M -992.921313158, 892.32923599 L -992.921313158, 982.79036455 M -992.921313158, 993.42028581 L -992.921313158, 1083.88141437 M -992.921313158, 1094.51133563 L -992.921313158, 1184.97246419 M -992.921313158, 1195.60238545 L -992.921313158, 1286.06351401 M -992.921313158, 1296.69343527 L -992.921313158, 1387.15456383 M -992.921313158, 1397.78448509 L -992.921313158, 1448.33001 M -978.890377895, 730.06274 L -978.890377895, 780.60826491 M -978.890377895, 791.23818617 L -978.890377895, 881.69931473 M -978.890377895, 892.32923599 L -978.890377895, 982.79036455 M -978.890377895, 993.42028581 L -978.890377895, 1083.88141437 M -978.890377895, 1094.51133563 L -978.890377895, 1184.97246419 M -978.890377895, 1195.60238545 L -978.890377895, 1286.06351401 M -978.890377895, 1296.69343527 L -978.890377895, 1387.15456383 M -978.890377895, 1397.78448509 L -978.890377895, 1448.33001 M -964.859442632, 730.06274 L -964.859442632, 780.60826491 M -964.859442632, 791.23818617 L -964.859442632, 881.69931473 M -964.859442632, 892.32923599 L -964.859442632, 982.79036455 M -964.859442632, 993.42028581 L -964.859442632, 1083.88141437 M -964.859442632, 1094.51133563 L -964.859442632, 1184.97246419 M -964.859442632, 1195.60238545 L -964.859442632, 1286.06351401 M -964.859442632, 1296.69343527 L -964.859442632, 1387.15456383 M -964.859442632, 1397.78448509 L -964.859442632, 1448.33001 M -950.828507368, 730.06274 L -950.828507368, 780.60826491 M -950.828507368, 791.23818617 L -950.828507368, 881.69931473 M -950.828507368, 892.32923599 L -950.828507368, 982.79036455 M -950.828507368, 993.42028581 L -950.828507368, 1083.88141437 M -950.828507368, 1094.51133563 L -950.828507368, 1184.97246419 M -950.828507368, 1195.60238545 L -950.828507368, 1286.06351401 M -950.828507368, 1296.69343527 L -950.828507368, 1387.15456383 M -950.828507368, 1397.78448509 L -950.828507368, 1448.33001 M -936.797572105, 730.06274 L -936.797572105, 780.60826491 M -936.797572105, 791.23818617 L -936.797572105, 881.69931473 M -936.797572105, 892.32923599 L -936.797572105, 982.79036455 M -936.797572105, 993.42028581 L -936.797572105, 1083.88141437 M -936.797572105, 1094.51133563 L -936.797572105, 1184.97246419 M -936.797572105, 1195.60238545 L -936.797572105, 1286.06351401 M -936.797572105, 1296.69343527 L -936.797572105, 1387.15456383 M -936.797572105, 1397.78448509 L -936.797572105, 1448.33001 M -922.766636842, 730.06274 L -922.766636842, 780.60826491 M -922.766636842, 791.23818617 L -922.766636842, 881.69931473 M -922.766636842, 892.32923599 L -922.766636842, 982.79036455 M -922.766636842, 993.42028581 L -922.766636842, 1083.88141437 M -922.766636842, 1094.51133563 L -922.766636842, 1184.97246419 M -922.766636842, 1195.60238545 L -922.766636842, 1286.06351401 M -922.766636842, 1296.69343527 L -922.766636842, 1387.15456383 M -922.766636842, 1397.78448509 L -922.766636842, 1448.33001 M -908.735701579, 730.06274 L -908.735701579, 780.60826491 M -908.735701579, 791.23818617 L -908.735701579, 881.69931473 M -908.735701579, 892.32923599 L -908.735701579, 982.79036455 M -908.735701579, 993.42028581 L -908.735701579, 1083.88141437 M -908.735701579, 1094.51133563 L -908.735701579, 1184.97246419 M -908.735701579, 1195.60238545 L -908.735701579, 1286.06351401 M -908.735701579, 1296.69343527 L -908.735701579, 1387.15456383 M -908.735701579, 1397.78448509 L -908.735701579, 1448.33001 M -894.704766316, 730.06274 L -894.704766316, 780.60826491 M -894.704766316, 791.23818617 L -894.704766316, 881.69931473 M -894.704766316, 892.32923599 L -894.704766316, 982.79036455 M -894.704766316, 993.42028581 L -894.704766316, 1083.88141437 M -894.704766316, 1094.51133563 L -894.704766316, 1184.97246419 M -894.704766316, 1195.60238545 L -894.704766316, 1286.06351401 M -894.704766316, 1296.69343527 L -894.704766316, 1387.15456383 M -894.704766316, 1397.78448509 L -894.704766316, 1448.33001 M -880.673831053, 730.06274 L -880.673831053, 780.60826491 M -880.673831053, 791.23818617 L -880.673831053, 881.69931473 M -880.673831053, 892.32923599 L -880.673831053, 982.79036455 M -880.673831053, 993.42028581 L -880.673831053, 1083.88141437 M -880.673831053, 1094.51133563 L -880.673831053, 1184.97246419 M -880.673831053, 1195.60238545 L -880.673831053, 1286.06351401 M -880.673831053, 1296.69343527 L -880.673831053, 1387.15456383 M -880.673831053, 1397.78448509 L -880.673831053, 1448.33001 M -866.642895789, 730.06274 L -866.642895789, 780.60826491 M -866.642895789, 791.23818617 L -866.642895789, 881.69931473 M -866.642895789, 892.32923599 L -866.642895789, 982.79036455 M -866.642895789, 993.42028581 L -866.642895789, 1083.88141437 M -866.642895789, 1094.51133563 L -866.642895789, 1184.97246419 M -866.642895789, 1195.60238545 L -866.642895789, 1286.06351401 M -866.642895789, 1296.69343527 L -866.642895789, 1387.15456383 M -866.642895789, 1397.78448509 L -866.642895789, 1448.33001 M -852.611960526, 730.06274 L -852.611960526, 780.60826491 M -852.611960526, 791.23818617 L -852.611960526, 881.69931473 M -852.611960526, 892.32923599 L -852.611960526, 982.79036455 M -852.611960526, 993.42028581 L -852.611960526, 1083.88141437 M -852.611960526, 1094.51133563 L -852.611960526, 1184.97246419 M -852.611960526, 1195.60238545 L -852.611960526, 1286.06351401 M -852.611960526, 1296.69343527 L -852.611960526, 1387.15456383 M -852.611960526, 1397.78448509 L -852.611960526, 1448.33001 M -838.581025263, 730.06274 L -838.581025263, 780.60826491 M -838.581025263, 791.23818617 L -838.581025263, 881.69931473 M -838.581025263, 892.32923599 L -838.581025263, 982.79036455 M -838.581025263, 993.42028581 L -838.581025263, 1083.88141437 M -838.581025263, 1094.51133563 L -838.581025263, 1184.97246419 M -838.581025263, 1195.60238545 L -838.581025263, 1286.06351401 M -838.581025263, 1296.69343527 L -838.581025263, 1387.15456383 M -838.581025263, 1397.78448509 L -838.581025263, 1448.33001 M -824.55009, 730.06274 L -824.55009, 780.60826491 M -824.55009, 791.23818617 L -824.55009, 881.69931473 M -824.55009, 892.32923599 L -824.55009, 982.79036455 M -824.55009, 993.42028581 L -824.55009, 1083.88141437 M -824.55009, 1094.51133563 L -824.55009, 1184.97246419 M -824.55009, 1195.60238545 L -824.55009, 1286.06351401 M -824.55009, 1296.69343527 L -824.55009, 1387.15456383 M -824.55009, 1397.78448509 L -824.55009, 1448.33001 M -1617.29793237, 740.69266126 L -1617.29793237, 831.15378982 M -1617.29793237, 841.78371108 L -1617.29793237, 932.24483964 M -1617.29793237, 942.8747609 L -1617.29793237, 1033.33588946 M -1617.29793237, 1043.96581072 L -1617.29793237, 1134.42693928 M -1617.29793237, 1145.05686054 L -1617.29793237, 1235.5179891 M -1617.29793237, 1246.14791036 L -1617.29793237, 1336.60903892 M -1617.29793237, 1347.23896018 L -1617.29793237, 1437.70008874 M -1617.29793237, 1448.33001 L -1617.29793237, 1448.33001 M -1603.26699711, 740.69266126 L -1603.26699711, 831.15378982 M -1603.26699711, 841.78371108 L -1603.26699711, 932.24483964 M -1603.26699711, 942.8747609 L -1603.26699711, 1033.33588946 M -1603.26699711, 1043.96581072 L -1603.26699711, 1134.42693928 M -1603.26699711, 1145.05686054 L -1603.26699711, 1235.5179891 M -1603.26699711, 1246.14791036 L -1603.26699711, 1336.60903892 M -1603.26699711, 1347.23896018 L -1603.26699711, 1437.70008874 M -1603.26699711, 1448.33001 L -1603.26699711, 1448.33001 M -1589.23606184, 740.69266126 L -1589.23606184, 831.15378982 M -1589.23606184, 841.78371108 L -1589.23606184, 932.24483964 M -1589.23606184, 942.8747609 L -1589.23606184, 1033.33588946 M -1589.23606184, 1043.96581072 L -1589.23606184, 1134.42693928 M -1589.23606184, 1145.05686054 L -1589.23606184, 1235.5179891 M -1589.23606184, 1246.14791036 L -1589.23606184, 1336.60903892 M -1589.23606184, 1347.23896018 L -1589.23606184, 1437.70008874 M -1589.23606184, 1448.33001 L -1589.23606184, 1448.33001 M -1575.20512658, 740.69266126 L -1575.20512658, 831.15378982 M -1575.20512658, 841.78371108 L -1575.20512658, 932.24483964 M -1575.20512658, 942.8747609 L -1575.20512658, 1033.33588946 M -1575.20512658, 1043.96581072 L -1575.20512658, 1134.42693928 M -1575.20512658, 1145.05686054 L -1575.20512658, 1235.5179891 M -1575.20512658, 1246.14791036 L -1575.20512658, 1336.60903892 M -1575.20512658, 1347.23896018 L -1575.20512658, 1437.70008874 M -1575.20512658, 1448.33001 L -1575.20512658, 1448.33001 M -1561.17419132, 740.69266126 L -1561.17419132, 831.15378982 M -1561.17419132, 841.78371108 L -1561.17419132, 932.24483964 M -1561.17419132, 942.8747609 L -1561.17419132, 1033.33588946 M -1561.17419132, 1043.96581072 L -1561.17419132, 1134.42693928 M -1561.17419132, 1145.05686054 L -1561.17419132, 1235.5179891 M -1561.17419132, 1246.14791036 L -1561.17419132, 1336.60903892 M -1561.17419132, 1347.23896018 L -1561.17419132, 1437.70008874 M -1561.17419132, 1448.33001 L -1561.17419132, 1448.33001 M -1547.14325605, 740.69266126 L -1547.14325605, 831.15378982 M -1547.14325605, 841.78371108 L -1547.14325605, 932.24483964 M -1547.14325605, 942.8747609 L -1547.14325605, 1033.33588946 M -1547.14325605, 1043.96581072 L -1547.14325605, 1134.42693928 M -1547.14325605, 1145.05686054 L -1547.14325605, 1235.5179891 M -1547.14325605, 1246.14791036 L -1547.14325605, 1336.60903892 M -1547.14325605, 1347.23896018 L -1547.14325605, 1437.70008874 M -1547.14325605, 1448.33001 L -1547.14325605, 1448.33001 M -1533.11232079, 740.69266126 L -1533.11232079, 831.15378982 M -1533.11232079, 841.78371108 L -1533.11232079, 932.24483964 M -1533.11232079, 942.8747609 L -1533.11232079, 1033.33588946 M -1533.11232079, 1043.96581072 L -1533.11232079, 1134.42693928 M -1533.11232079, 1145.05686054 L -1533.11232079, 1235.5179891 M -1533.11232079, 1246.14791036 L -1533.11232079, 1336.60903892 M -1533.11232079, 1347.23896018 L -1533.11232079, 1437.70008874 M -1533.11232079, 1448.33001 L -1533.11232079, 1448.33001 M -1519.08138553, 740.69266126 L -1519.08138553, 831.15378982 M -1519.08138553, 841.78371108 L -1519.08138553, 932.24483964 M -1519.08138553, 942.8747609 L -1519.08138553, 1033.33588946 M -1519.08138553, 1043.96581072 L -1519.08138553, 1134.42693928 M -1519.08138553, 1145.05686054 L -1519.08138553, 1235.5179891 M -1519.08138553, 1246.14791036 L -1519.08138553, 1336.60903892 M -1519.08138553, 1347.23896018 L -1519.08138553, 1437.70008874 M -1519.08138553, 1448.33001 L -1519.08138553, 1448.33001 M -1505.05045026, 740.69266126 L -1505.05045026, 831.15378982 M -1505.05045026, 841.78371108 L -1505.05045026, 932.24483964 M -1505.05045026, 942.8747609 L -1505.05045026, 1033.33588946 M -1505.05045026, 1043.96581072 L -1505.05045026, 1134.42693928 M -1505.05045026, 1145.05686054 L -1505.05045026, 1235.5179891 M -1505.05045026, 1246.14791036 L -1505.05045026, 1336.60903892 M -1505.05045026, 1347.23896018 L -1505.05045026, 1437.70008874 M -1505.05045026, 1448.33001 L -1505.05045026, 1448.33001 M -1491.019515, 740.69266126 L -1491.019515, 831.15378982 M -1491.019515, 841.78371108 L -1491.019515, 932.24483964 M -1491.019515, 942.8747609 L -1491.019515, 1033.33588946 M -1491.019515, 1043.96581072 L -1491.019515, 1134.42693928 M -1491.019515, 1145.05686054 L -1491.019515, 1235.5179891 M -1491.019515, 1246.14791036 L -1491.019515, 1336.60903892 M -1491.019515, 1347.23896018 L -1491.019515, 1437.70008874 M -1491.019515, 1448.33001 L -1491.019515, 1448.33001 M -1476.98857974, 740.69266126 L -1476.98857974, 831.15378982 M -1476.98857974, 841.78371108 L -1476.98857974, 932.24483964 M -1476.98857974, 942.8747609 L -1476.98857974, 1033.33588946 M -1476.98857974, 1043.96581072 L -1476.98857974, 1134.42693928 M -1476.98857974, 1145.05686054 L -1476.98857974, 1235.5179891 M -1476.98857974, 1246.14791036 L -1476.98857974, 1336.60903892 M -1476.98857974, 1347.23896018 L -1476.98857974, 1437.70008874 M -1476.98857974, 1448.33001 L -1476.98857974, 1448.33001 M -1462.95764447, 740.69266126 L -1462.95764447, 831.15378982 M -1462.95764447, 841.78371108 L -1462.95764447, 932.24483964 M -1462.95764447, 942.8747609 L -1462.95764447, 1033.33588946 M -1462.95764447, 1043.96581072 L -1462.95764447, 1134.42693928 M -1462.95764447, 1145.05686054 L -1462.95764447, 1235.5179891 M -1462.95764447, 1246.14791036 L -1462.95764447, 1336.60903892 M -1462.95764447, 1347.23896018 L -1462.95764447, 1437.70008874 M -1462.95764447, 1448.33001 L -1462.95764447, 1448.33001 M -1448.92670921, 740.69266126 L -1448.92670921, 831.15378982 M -1448.92670921, 841.78371108 L -1448.92670921, 932.24483964 M -1448.92670921, 942.8747609 L -1448.92670921, 1033.33588946 M -1448.92670921, 1043.96581072 L -1448.92670921, 1134.42693928 M -1448.92670921, 1145.05686054 L -1448.92670921, 1235.5179891 M -1448.92670921, 1246.14791036 L -1448.92670921, 1336.60903892 M -1448.92670921, 1347.23896018 L -1448.92670921, 1437.70008874 M -1448.92670921, 1448.33001 L -1448.92670921, 1448.33001 M -1434.89577395, 740.69266126 L -1434.89577395, 831.15378982 M -1434.89577395, 841.78371108 L -1434.89577395, 932.24483964 M -1434.89577395, 942.8747609 L -1434.89577395, 1033.33588946 M -1434.89577395, 1043.96581072 L -1434.89577395, 1134.42693928 M -1434.89577395, 1145.05686054 L -1434.89577395, 1235.5179891 M -1434.89577395, 1246.14791036 L -1434.89577395, 1336.60903892 M -1434.89577395, 1347.23896018 L -1434.89577395, 1437.70008874 M -1434.89577395, 1448.33001 L -1434.89577395, 1448.33001 M -1420.86483868, 740.69266126 L -1420.86483868, 831.15378982 M -1420.86483868, 841.78371108 L -1420.86483868, 932.24483964 M -1420.86483868, 942.8747609 L -1420.86483868, 1033.33588946 M -1420.86483868, 1043.96581072 L -1420.86483868, 1134.42693928 M -1420.86483868, 1145.05686054 L -1420.86483868, 1235.5179891 M -1420.86483868, 1246.14791036 L -1420.86483868, 1336.60903892 M -1420.86483868, 1347.23896018 L -1420.86483868, 1437.70008874 M -1420.86483868, 1448.33001 L -1420.86483868, 1448.33001 M -1406.83390342, 740.69266126 L -1406.83390342, 831.15378982 M -1406.83390342, 841.78371108 L -1406.83390342, 932.24483964 M -1406.83390342, 942.8747609 L -1406.83390342, 1033.33588946 M -1406.83390342, 1043.96581072 L -1406.83390342, 1134.42693928 M -1406.83390342, 1145.05686054 L -1406.83390342, 1235.5179891 M -1406.83390342, 1246.14791036 L -1406.83390342, 1336.60903892 M -1406.83390342, 1347.23896018 L -1406.83390342, 1437.70008874 M -1406.83390342, 1448.33001 L -1406.83390342, 1448.33001 M -1392.80296816, 740.69266126 L -1392.80296816, 831.15378982 M -1392.80296816, 841.78371108 L -1392.80296816, 932.24483964 M -1392.80296816, 942.8747609 L -1392.80296816, 1033.33588946 M -1392.80296816, 1043.96581072 L -1392.80296816, 1134.42693928 M -1392.80296816, 1145.05686054 L -1392.80296816, 1235.5179891 M -1392.80296816, 1246.14791036 L -1392.80296816, 1336.60903892 M -1392.80296816, 1347.23896018 L -1392.80296816, 1437.70008874 M -1392.80296816, 1448.33001 L -1392.80296816, 1448.33001 M -1378.77203289, 740.69266126 L -1378.77203289, 831.15378982 M -1378.77203289, 841.78371108 L -1378.77203289, 932.24483964 M -1378.77203289, 942.8747609 L -1378.77203289, 1033.33588946 M -1378.77203289, 1043.96581072 L -1378.77203289, 1134.42693928 M -1378.77203289, 1145.05686054 L -1378.77203289, 1235.5179891 M -1378.77203289, 1246.14791036 L -1378.77203289, 1336.60903892 M -1378.77203289, 1347.23896018 L -1378.77203289, 1437.70008874 M -1378.77203289, 1448.33001 L -1378.77203289, 1448.33001 M -1364.74109763, 740.69266126 L -1364.74109763, 831.15378982 M -1364.74109763, 841.78371108 L -1364.74109763, 932.24483964 M -1364.74109763, 942.8747609 L -1364.74109763, 1033.33588946 M -1364.74109763, 1043.96581072 L -1364.74109763, 1134.42693928 M -1364.74109763, 1145.05686054 L -1364.74109763, 1235.5179891 M -1364.74109763, 1246.14791036 L -1364.74109763, 1336.60903892 M -1364.74109763, 1347.23896018 L -1364.74109763, 1437.70008874 M -1364.74109763, 1448.33001 L -1364.74109763, 1448.33001 M -1350.71016237, 740.69266126 L -1350.71016237, 831.15378982 M -1350.71016237, 841.78371108 L -1350.71016237, 932.24483964 M -1350.71016237, 942.8747609 L -1350.71016237, 1033.33588946 M -1350.71016237, 1043.96581072 L -1350.71016237, 1134.42693928 M -1350.71016237, 1145.05686054 L -1350.71016237, 1235.5179891 M -1350.71016237, 1246.14791036 L -1350.71016237, 1336.60903892 M -1350.71016237, 1347.23896018 L -1350.71016237, 1437.70008874 M -1350.71016237, 1448.33001 L -1350.71016237, 1448.33001 M -1336.67922711, 740.69266126 L -1336.67922711, 831.15378982 M -1336.67922711, 841.78371108 L -1336.67922711, 932.24483964 M -1336.67922711, 942.8747609 L -1336.67922711, 1033.33588946 M -1336.67922711, 1043.96581072 L -1336.67922711, 1134.42693928 M -1336.67922711, 1145.05686054 L -1336.67922711, 1235.5179891 M -1336.67922711, 1246.14791036 L -1336.67922711, 1336.60903892 M -1336.67922711, 1347.23896018 L -1336.67922711, 1437.70008874 M -1336.67922711, 1448.33001 L -1336.67922711, 1448.33001 M -1322.64829184, 740.69266126 L -1322.64829184, 831.15378982 M -1322.64829184, 841.78371108 L -1322.64829184, 932.24483964 M -1322.64829184, 942.8747609 L -1322.64829184, 1033.33588946 M -1322.64829184, 1043.96581072 L -1322.64829184, 1134.42693928 M -1322.64829184, 1145.05686054 L -1322.64829184, 1235.5179891 M -1322.64829184, 1246.14791036 L -1322.64829184, 1336.60903892 M -1322.64829184, 1347.23896018 L -1322.64829184, 1437.70008874 M -1322.64829184, 1448.33001 L -1322.64829184, 1448.33001 M -1308.61735658, 740.69266126 L -1308.61735658, 831.15378982 M -1308.61735658, 841.78371108 L -1308.61735658, 932.24483964 M -1308.61735658, 942.8747609 L -1308.61735658, 1033.33588946 M -1308.61735658, 1043.96581072 L -1308.61735658, 1134.42693928 M -1308.61735658, 1145.05686054 L -1308.61735658, 1235.5179891 M -1308.61735658, 1246.14791036 L -1308.61735658, 1336.60903892 M -1308.61735658, 1347.23896018 L -1308.61735658, 1437.70008874 M -1308.61735658, 1448.33001 L -1308.61735658, 1448.33001 M -1294.58642132, 740.69266126 L -1294.58642132, 831.15378982 M -1294.58642132, 841.78371108 L -1294.58642132, 932.24483964 M -1294.58642132, 942.8747609 L -1294.58642132, 1033.33588946 M -1294.58642132, 1043.96581072 L -1294.58642132, 1134.42693928 M -1294.58642132, 1145.05686054 L -1294.58642132, 1235.5179891 M -1294.58642132, 1246.14791036 L -1294.58642132, 1336.60903892 M -1294.58642132, 1347.23896018 L -1294.58642132, 1437.70008874 M -1294.58642132, 1448.33001 L -1294.58642132, 1448.33001 M -1280.55548605, 740.69266126 L -1280.55548605, 831.15378982 M -1280.55548605, 841.78371108 L -1280.55548605, 932.24483964 M -1280.55548605, 942.8747609 L -1280.55548605, 1033.33588946 M -1280.55548605, 1043.96581072 L -1280.55548605, 1134.42693928 M -1280.55548605, 1145.05686054 L -1280.55548605, 1235.5179891 M -1280.55548605, 1246.14791036 L -1280.55548605, 1336.60903892 M -1280.55548605, 1347.23896018 L -1280.55548605, 1437.70008874 M -1280.55548605, 1448.33001 L -1280.55548605, 1448.33001 M -1266.52455079, 740.69266126 L -1266.52455079, 831.15378982 M -1266.52455079, 841.78371108 L -1266.52455079, 932.24483964 M -1266.52455079, 942.8747609 L -1266.52455079, 1033.33588946 M -1266.52455079, 1043.96581072 L -1266.52455079, 1134.42693928 M -1266.52455079, 1145.05686054 L -1266.52455079, 1235.5179891 M -1266.52455079, 1246.14791036 L -1266.52455079, 1336.60903892 M -1266.52455079, 1347.23896018 L -1266.52455079, 1437.70008874 M -1266.52455079, 1448.33001 L -1266.52455079, 1448.33001 M -1252.49361553, 740.69266126 L -1252.49361553, 831.15378982 M -1252.49361553, 841.78371108 L -1252.49361553, 932.24483964 M -1252.49361553, 942.8747609 L -1252.49361553, 1033.33588946 M -1252.49361553, 1043.96581072 L -1252.49361553, 1134.42693928 M -1252.49361553, 1145.05686054 L -1252.49361553, 1235.5179891 M -1252.49361553, 1246.14791036 L -1252.49361553, 1336.60903892 M -1252.49361553, 1347.23896018 L -1252.49361553, 1437.70008874 M -1252.49361553, 1448.33001 L -1252.49361553, 1448.33001 M -1238.46268026, 740.69266126 L -1238.46268026, 831.15378982 M -1238.46268026, 841.78371108 L -1238.46268026, 932.24483964 M -1238.46268026, 942.8747609 L -1238.46268026, 1033.33588946 M -1238.46268026, 1043.96581072 L -1238.46268026, 1134.42693928 M -1238.46268026, 1145.05686054 L -1238.46268026, 1235.5179891 M -1238.46268026, 1246.14791036 L -1238.46268026, 1336.60903892 M -1238.46268026, 1347.23896018 L -1238.46268026, 1437.70008874 M -1238.46268026, 1448.33001 L -1238.46268026, 1448.33001 M -1224.431745, 740.69266126 L -1224.431745, 831.15378982 M -1224.431745, 841.78371108 L -1224.431745, 932.24483964 M -1224.431745, 942.8747609 L -1224.431745, 1033.33588946 M -1224.431745, 1043.96581072 L -1224.431745, 1134.42693928 M -1224.431745, 1145.05686054 L -1224.431745, 1235.5179891 M -1224.431745, 1246.14791036 L -1224.431745, 1336.60903892 M -1224.431745, 1347.23896018 L -1224.431745, 1437.70008874 M -1224.431745, 1448.33001 L -1224.431745, 1448.33001 M -1210.40080974, 740.69266126 L -1210.40080974, 831.15378982 M -1210.40080974, 841.78371108 L -1210.40080974, 932.24483964 M -1210.40080974, 942.8747609 L -1210.40080974, 1033.33588946 M -1210.40080974, 1043.96581072 L -1210.40080974, 1134.42693928 M -1210.40080974, 1145.05686054 L -1210.40080974, 1235.5179891 M -1210.40080974, 1246.14791036 L -1210.40080974, 1336.60903892 M -1210.40080974, 1347.23896018 L -1210.40080974, 1437.70008874 M -1210.40080974, 1448.33001 L -1210.40080974, 1448.33001 M -1196.36987447, 740.69266126 L -1196.36987447, 831.15378982 M -1196.36987447, 841.78371108 L -1196.36987447, 932.24483964 M -1196.36987447, 942.8747609 L -1196.36987447, 1033.33588946 M -1196.36987447, 1043.96581072 L -1196.36987447, 1134.42693928 M -1196.36987447, 1145.05686054 L -1196.36987447, 1235.5179891 M -1196.36987447, 1246.14791036 L -1196.36987447, 1336.60903892 M -1196.36987447, 1347.23896018 L -1196.36987447, 1437.70008874 M -1196.36987447, 1448.33001 L -1196.36987447, 1448.33001 M -1182.33893921, 740.69266126 L -1182.33893921, 831.15378982 M -1182.33893921, 841.78371108 L -1182.33893921, 932.24483964 M -1182.33893921, 942.8747609 L -1182.33893921, 1033.33588946 M -1182.33893921, 1043.96581072 L -1182.33893921, 1134.42693928 M -1182.33893921, 1145.05686054 L -1182.33893921, 1235.5179891 M -1182.33893921, 1246.14791036 L -1182.33893921, 1336.60903892 M -1182.33893921, 1347.23896018 L -1182.33893921, 1437.70008874 M -1182.33893921, 1448.33001 L -1182.33893921, 1448.33001 M -1168.30800395, 740.69266126 L -1168.30800395, 831.15378982 M -1168.30800395, 841.78371108 L -1168.30800395, 932.24483964 M -1168.30800395, 942.8747609 L -1168.30800395, 1033.33588946 M -1168.30800395, 1043.96581072 L -1168.30800395, 1134.42693928 M -1168.30800395, 1145.05686054 L -1168.30800395, 1235.5179891 M -1168.30800395, 1246.14791036 L -1168.30800395, 1336.60903892 M -1168.30800395, 1347.23896018 L -1168.30800395, 1437.70008874 M -1168.30800395, 1448.33001 L -1168.30800395, 1448.33001 M -1154.27706868, 740.69266126 L -1154.27706868, 831.15378982 M -1154.27706868, 841.78371108 L -1154.27706868, 932.24483964 M -1154.27706868, 942.8747609 L -1154.27706868, 1033.33588946 M -1154.27706868, 1043.96581072 L -1154.27706868, 1134.42693928 M -1154.27706868, 1145.05686054 L -1154.27706868, 1235.5179891 M -1154.27706868, 1246.14791036 L -1154.27706868, 1336.60903892 M -1154.27706868, 1347.23896018 L -1154.27706868, 1437.70008874 M -1154.27706868, 1448.33001 L -1154.27706868, 1448.33001 M -1140.24613342, 740.69266126 L -1140.24613342, 831.15378982 M -1140.24613342, 841.78371108 L -1140.24613342, 932.24483964 M -1140.24613342, 942.8747609 L -1140.24613342, 1033.33588946 M -1140.24613342, 1043.96581072 L -1140.24613342, 1134.42693928 M -1140.24613342, 1145.05686054 L -1140.24613342, 1235.5179891 M -1140.24613342, 1246.14791036 L -1140.24613342, 1336.60903892 M -1140.24613342, 1347.23896018 L -1140.24613342, 1437.70008874 M -1140.24613342, 1448.33001 L -1140.24613342, 1448.33001 M -1126.21519816, 740.69266126 L -1126.21519816, 831.15378982 M -1126.21519816, 841.78371108 L -1126.21519816, 932.24483964 M -1126.21519816, 942.8747609 L -1126.21519816, 1033.33588946 M -1126.21519816, 1043.96581072 L -1126.21519816, 1134.42693928 M -1126.21519816, 1145.05686054 L -1126.21519816, 1235.5179891 M -1126.21519816, 1246.14791036 L -1126.21519816, 1336.60903892 M -1126.21519816, 1347.23896018 L -1126.21519816, 1437.70008874 M -1126.21519816, 1448.33001 L -1126.21519816, 1448.33001 M -1112.18426289, 740.69266126 L -1112.18426289, 831.15378982 M -1112.18426289, 841.78371108 L -1112.18426289, 932.24483964 M -1112.18426289, 942.8747609 L -1112.18426289, 1033.33588946 M -1112.18426289, 1043.96581072 L -1112.18426289, 1134.42693928 M -1112.18426289, 1145.05686054 L -1112.18426289, 1235.5179891 M -1112.18426289, 1246.14791036 L -1112.18426289, 1336.60903892 M -1112.18426289, 1347.23896018 L -1112.18426289, 1437.70008874 M -1112.18426289, 1448.33001 L -1112.18426289, 1448.33001 M -1098.15332763, 740.69266126 L -1098.15332763, 831.15378982 M -1098.15332763, 841.78371108 L -1098.15332763, 932.24483964 M -1098.15332763, 942.8747609 L -1098.15332763, 1033.33588946 M -1098.15332763, 1043.96581072 L -1098.15332763, 1134.42693928 M -1098.15332763, 1145.05686054 L -1098.15332763, 1235.5179891 M -1098.15332763, 1246.14791036 L -1098.15332763, 1336.60903892 M -1098.15332763, 1347.23896018 L -1098.15332763, 1437.70008874 M -1098.15332763, 1448.33001 L -1098.15332763, 1448.33001 M -1084.12239237, 740.69266126 L -1084.12239237, 831.15378982 M -1084.12239237, 841.78371108 L -1084.12239237, 932.24483964 M -1084.12239237, 942.8747609 L -1084.12239237, 1033.33588946 M -1084.12239237, 1043.96581072 L -1084.12239237, 1134.42693928 M -1084.12239237, 1145.05686054 L -1084.12239237, 1235.5179891 M -1084.12239237, 1246.14791036 L -1084.12239237, 1336.60903892 M -1084.12239237, 1347.23896018 L -1084.12239237, 1437.70008874 M -1084.12239237, 1448.33001 L -1084.12239237, 1448.33001 M -1070.09145711, 740.69266126 L -1070.09145711, 831.15378982 M -1070.09145711, 841.78371108 L -1070.09145711, 932.24483964 M -1070.09145711, 942.8747609 L -1070.09145711, 1033.33588946 M -1070.09145711, 1043.96581072 L -1070.09145711, 1134.42693928 M -1070.09145711, 1145.05686054 L -1070.09145711, 1235.5179891 M -1070.09145711, 1246.14791036 L -1070.09145711, 1336.60903892 M -1070.09145711, 1347.23896018 L -1070.09145711, 1437.70008874 M -1070.09145711, 1448.33001 L -1070.09145711, 1448.33001 M -1056.06052184, 740.69266126 L -1056.06052184, 831.15378982 M -1056.06052184, 841.78371108 L -1056.06052184, 932.24483964 M -1056.06052184, 942.8747609 L -1056.06052184, 1033.33588946 M -1056.06052184, 1043.96581072 L -1056.06052184, 1134.42693928 M -1056.06052184, 1145.05686054 L -1056.06052184, 1235.5179891 M -1056.06052184, 1246.14791036 L -1056.06052184, 1336.60903892 M -1056.06052184, 1347.23896018 L -1056.06052184, 1437.70008874 M -1056.06052184, 1448.33001 L -1056.06052184, 1448.33001 M -1042.02958658, 740.69266126 L -1042.02958658, 831.15378982 M -1042.02958658, 841.78371108 L -1042.02958658, 932.24483964 M -1042.02958658, 942.8747609 L -1042.02958658, 1033.33588946 M -1042.02958658, 1043.96581072 L -1042.02958658, 1134.42693928 M -1042.02958658, 1145.05686054 L -1042.02958658, 1235.5179891 M -1042.02958658, 1246.14791036 L -1042.02958658, 1336.60903892 M -1042.02958658, 1347.23896018 L -1042.02958658, 1437.70008874 M -1042.02958658, 1448.33001 L -1042.02958658, 1448.33001 M -1027.99865132, 740.69266126 L -1027.99865132, 831.15378982 M -1027.99865132, 841.78371108 L -1027.99865132, 932.24483964 M -1027.99865132, 942.8747609 L -1027.99865132, 1033.33588946 M -1027.99865132, 1043.96581072 L -1027.99865132, 1134.42693928 M -1027.99865132, 1145.05686054 L -1027.99865132, 1235.5179891 M -1027.99865132, 1246.14791036 L -1027.99865132, 1336.60903892 M -1027.99865132, 1347.23896018 L -1027.99865132, 1437.70008874 M -1027.99865132, 1448.33001 L -1027.99865132, 1448.33001 M -1013.96771605, 740.69266126 L -1013.96771605, 831.15378982 M -1013.96771605, 841.78371108 L -1013.96771605, 932.24483964 M -1013.96771605, 942.8747609 L -1013.96771605, 1033.33588946 M -1013.96771605, 1043.96581072 L -1013.96771605, 1134.42693928 M -1013.96771605, 1145.05686054 L -1013.96771605, 1235.5179891 M -1013.96771605, 1246.14791036 L -1013.96771605, 1336.60903892 M -1013.96771605, 1347.23896018 L -1013.96771605, 1437.70008874 M -1013.96771605, 1448.33001 L -1013.96771605, 1448.33001 M -999.936780789, 740.69266126 L -999.936780789, 831.15378982 M -999.936780789, 841.78371108 L -999.936780789, 932.24483964 M -999.936780789, 942.8747609 L -999.936780789, 1033.33588946 M -999.936780789, 1043.96581072 L -999.936780789, 1134.42693928 M -999.936780789, 1145.05686054 L -999.936780789, 1235.5179891 M -999.936780789, 1246.14791036 L -999.936780789, 1336.60903892 M -999.936780789, 1347.23896018 L -999.936780789, 1437.70008874 M -999.936780789, 1448.33001 L -999.936780789, 1448.33001 M -985.905845526, 740.69266126 L -985.905845526, 831.15378982 M -985.905845526, 841.78371108 L -985.905845526, 932.24483964 M -985.905845526, 942.8747609 L -985.905845526, 1033.33588946 M -985.905845526, 1043.96581072 L -985.905845526, 1134.42693928 M -985.905845526, 1145.05686054 L -985.905845526, 1235.5179891 M -985.905845526, 1246.14791036 L -985.905845526, 1336.60903892 M -985.905845526, 1347.23896018 L -985.905845526, 1437.70008874 M -985.905845526, 1448.33001 L -985.905845526, 1448.33001 M -971.874910263, 740.69266126 L -971.874910263, 831.15378982 M -971.874910263, 841.78371108 L -971.874910263, 932.24483964 M -971.874910263, 942.8747609 L -971.874910263, 1033.33588946 M -971.874910263, 1043.96581072 L -971.874910263, 1134.42693928 M -971.874910263, 1145.05686054 L -971.874910263, 1235.5179891 M -971.874910263, 1246.14791036 L -971.874910263, 1336.60903892 M -971.874910263, 1347.23896018 L -971.874910263, 1437.70008874 M -971.874910263, 1448.33001 L -971.874910263, 1448.33001 M -957.843975, 740.69266126 L -957.843975, 831.15378982 M -957.843975, 841.78371108 L -957.843975, 932.24483964 M -957.843975, 942.8747609 L -957.843975, 1033.33588946 M -957.843975, 1043.96581072 L -957.843975, 1134.42693928 M -957.843975, 1145.05686054 L -957.843975, 1235.5179891 M -957.843975, 1246.14791036 L -957.843975, 1336.60903892 M -957.843975, 1347.23896018 L -957.843975, 1437.70008874 M -957.843975, 1448.33001 L -957.843975, 1448.33001 M -943.813039737, 740.69266126 L -943.813039737, 831.15378982 M -943.813039737, 841.78371108 L -943.813039737, 932.24483964 M -943.813039737, 942.8747609 L -943.813039737, 1033.33588946 M -943.813039737, 1043.96581072 L -943.813039737, 1134.42693928 M -943.813039737, 1145.05686054 L -943.813039737, 1235.5179891 M -943.813039737, 1246.14791036 L -943.813039737, 1336.60903892 M -943.813039737, 1347.23896018 L -943.813039737, 1437.70008874 M -943.813039737, 1448.33001 L -943.813039737, 1448.33001 M -929.782104474, 740.69266126 L -929.782104474, 831.15378982 M -929.782104474, 841.78371108 L -929.782104474, 932.24483964 M -929.782104474, 942.8747609 L -929.782104474, 1033.33588946 M -929.782104474, 1043.96581072 L -929.782104474, 1134.42693928 M -929.782104474, 1145.05686054 L -929.782104474, 1235.5179891 M -929.782104474, 1246.14791036 L -929.782104474, 1336.60903892 M -929.782104474, 1347.23896018 L -929.782104474, 1437.70008874 M -929.782104474, 1448.33001 L -929.782104474, 1448.33001 M -915.751169211, 740.69266126 L -915.751169211, 831.15378982 M -915.751169211, 841.78371108 L -915.751169211, 932.24483964 M -915.751169211, 942.8747609 L -915.751169211, 1033.33588946 M -915.751169211, 1043.96581072 L -915.751169211, 1134.42693928 M -915.751169211, 1145.05686054 L -915.751169211, 1235.5179891 M -915.751169211, 1246.14791036 L -915.751169211, 1336.60903892 M -915.751169211, 1347.23896018 L -915.751169211, 1437.70008874 M -915.751169211, 1448.33001 L -915.751169211, 1448.33001 M -901.720233947, 740.69266126 L -901.720233947, 831.15378982 M -901.720233947, 841.78371108 L -901.720233947, 932.24483964 M -901.720233947, 942.8747609 L -901.720233947, 1033.33588946 M -901.720233947, 1043.96581072 L -901.720233947, 1134.42693928 M -901.720233947, 1145.05686054 L -901.720233947, 1235.5179891 M -901.720233947, 1246.14791036 L -901.720233947, 1336.60903892 M -901.720233947, 1347.23896018 L -901.720233947, 1437.70008874 M -901.720233947, 1448.33001 L -901.720233947, 1448.33001 M -887.689298684, 740.69266126 L -887.689298684, 831.15378982 M -887.689298684, 841.78371108 L -887.689298684, 932.24483964 M -887.689298684, 942.8747609 L -887.689298684, 1033.33588946 M -887.689298684, 1043.96581072 L -887.689298684, 1134.42693928 M -887.689298684, 1145.05686054 L -887.689298684, 1235.5179891 M -887.689298684, 1246.14791036 L -887.689298684, 1336.60903892 M -887.689298684, 1347.23896018 L -887.689298684, 1437.70008874 M -887.689298684, 1448.33001 L -887.689298684, 1448.33001 M -873.658363421, 740.69266126 L -873.658363421, 831.15378982 M -873.658363421, 841.78371108 L -873.658363421, 932.24483964 M -873.658363421, 942.8747609 L -873.658363421, 1033.33588946 M -873.658363421, 1043.96581072 L -873.658363421, 1134.42693928 M -873.658363421, 1145.05686054 L -873.658363421, 1235.5179891 M -873.658363421, 1246.14791036 L -873.658363421, 1336.60903892 M -873.658363421, 1347.23896018 L -873.658363421, 1437.70008874 M -873.658363421, 1448.33001 L -873.658363421, 1448.33001 M -859.627428158, 740.69266126 L -859.627428158, 831.15378982 M -859.627428158, 841.78371108 L -859.627428158, 932.24483964 M -859.627428158, 942.8747609 L -859.627428158, 1033.33588946 M -859.627428158, 1043.96581072 L -859.627428158, 1134.42693928 M -859.627428158, 1145.05686054 L -859.627428158, 1235.5179891 M -859.627428158, 1246.14791036 L -859.627428158, 1336.60903892 M -859.627428158, 1347.23896018 L -859.627428158, 1437.70008874 M -859.627428158, 1448.33001 L -859.627428158, 1448.33001 M -845.596492895, 740.69266126 L -845.596492895, 831.15378982 M -845.596492895, 841.78371108 L -845.596492895, 932.24483964 M -845.596492895, 942.8747609 L -845.596492895, 1033.33588946 M -845.596492895, 1043.96581072 L -845.596492895, 1134.42693928 M -845.596492895, 1145.05686054 L -845.596492895, 1235.5179891 M -845.596492895, 1246.14791036 L -845.596492895, 1336.60903892 M -845.596492895, 1347.23896018 L -845.596492895, 1437.70008874 M -845.596492895, 1448.33001 L -845.596492895, 1448.33001 M -831.565557632, 740.69266126 L -831.565557632, 831.15378982 M -831.565557632, 841.78371108 L -831.565557632, 932.24483964 M -831.565557632, 942.8747609 L -831.565557632, 1033.33588946 M -831.565557632, 1043.96581072 L -831.565557632, 1134.42693928 M -831.565557632, 1145.05686054 L -831.565557632, 1235.5179891 M -831.565557632, 1246.14791036 L -831.565557632, 1336.60903892 M -831.565557632, 1347.23896018 L -831.565557632, 1437.70008874 M -831.565557632, 1448.33001 L -831.565557632, 1448.33001 ">
    <desc
       id="desc4788">Hinge cut parameters: actual(requested)
cut length: 25.53 mm (25.00 mm)
gap length: 3.00 mm (3.00 mm)
separation distance: 1.98 mm (2.00 mm)</desc>
  </path>
</svg>
